<svg xmlns="http://www.w3.org/2000/svg" width="19" height="19" viewBox="0 0 19 19">
    <defs>
        <filter id="0f1dgvfmja" width="19" height="19" x="0" y="0" filterUnits="userSpaceOnUse">
            <feOffset dx=".5" dy=".5"/>
            <feGaussianBlur result="blur" stdDeviation=".5"/>
            <feFlood flood-opacity=".6"/>
            <feComposite in2="blur" operator="in"/>
            <feComposite in="SourceGraphic"/>
        </filter>
    </defs>
    <g>
        <g>
            <g filter="url(#0f1dgvfmja)" transform="translate(1 1) translate(-1 -1)"/>
            <path fill="#fff" d="M7.189 14.665a4.153 4.153 0 0 1-2.953-1.253 4 4 0 0 1-.147-5.659L9 2.8a2.74 2.74 0 0 1 2-.8 2.986 2.986 0 0 1 2.126.9 2.906 2.906 0 0 1 .1 4.086l-4.937 4.953a1.693 1.693 0 0 1-1.207.5 1.813 1.813 0 0 1-1.3-.547 1.786 1.786 0 0 1-.053-2.513l4.553-4.573a.667.667 0 0 1 .913.94l-4.553 4.573a.453.453 0 0 0 .053.633.52.52 0 0 0 .353.153.373.373 0 0 0 .267-.105l4.926-4.953a1.573 1.573 0 0 0-.1-2.206 1.587 1.587 0 0 0-2.18-.1L5.036 8.666a2.666 2.666 0 0 0 .147 3.78 2.813 2.813 0 0 0 2 .86 2.446 2.446 0 0 0 1.74-.707l4.926-4.953a.667.667 0 0 1 .947.94l-4.928 4.953a3.766 3.766 0 0 1-2.679 1.126z" transform="translate(1 1) translate(-.956 -.332)"/>
        </g>
    </g>
</svg>
