<svg xmlns="http://www.w3.org/2000/svg" xmlns:xlink="http://www.w3.org/1999/xlink" id="ic_gift" width="36" height="36" viewBox="0 0 36 36">
    <defs>
        <linearGradient id="linear-gradient" x1=".163" x2=".84" y1=".821" y2="-.113" gradientUnits="objectBoundingBox">
            <stop offset=".006" stop-color="#ffab13"/>
            <stop offset="1" stop-color="#ff407d"/>
        </linearGradient>
        <linearGradient id="linear-gradient-2" x1=".115" x2=".885" y1="1.022" y2="-.178" gradientUnits="objectBoundingBox">
            <stop offset="0" stop-color="#ffd078"/>
            <stop offset="1" stop-color="#ffab83"/>
        </linearGradient>
        <linearGradient id="linear-gradient-3" x1=".5" x2=".5" y1="1" gradientUnits="objectBoundingBox">
            <stop offset="0" stop-color="#ffd078" stop-opacity="0"/>
            <stop offset="1" stop-color="#ffab83"/>
        </linearGradient>
        <linearGradient id="linear-gradient-4" x1=".201" x2=".799" y1="1.456" y2="-.456" xlink:href="#linear-gradient-2"/>
        <linearGradient id="linear-gradient-5" x1=".014" x2=".805" y1=".75" y2=".269" gradientUnits="objectBoundingBox">
            <stop offset="0" stop-color="#fff"/>
            <stop offset="1" stop-color="#e1e5f2"/>
        </linearGradient>
        <linearGradient id="linear-gradient-6" x1=".244" x2=".797" y1="1.304" y2=".189" xlink:href="#linear-gradient-5"/>
        <linearGradient id="linear-gradient-7" x1=".273" x2=".762" y1=".851" y2="-.265" xlink:href="#linear-gradient-5"/>
        <linearGradient id="linear-gradient-8" x1="-1.125" x2="2.125" y1=".795" y2=".205" xlink:href="#linear-gradient"/>
    </defs>
    <g id="그룹_12920" data-name="그룹 12920" transform="translate(-388.131 -698)">
        <path id="패스_6432" fill="url(#linear-gradient)" d="M456.2 708.571l-4.059-4.059a1.736 1.736 0 0 0-2.89.7 7.245 7.245 0 1 0 13.9-.005 1.735 1.735 0 0 0-2.888-.7z" data-name="패스 6432" transform="translate(-50.171)"/>
        <path id="패스_6433" fill="url(#linear-gradient-2)" d="M428.324 826.438v9.962a3.622 3.622 0 0 1-3.619 3.619H410.8a3.582 3.582 0 0 1-1.9-.538 3.621 3.621 0 0 1-1.721-3.081v-9.964z" data-name="패스 6433" transform="translate(-11.716 -112.688)"/>
        <path id="사각형_1643" fill="url(#linear-gradient-3)" d="M0 0H21.146V4.772H0z" data-name="사각형 1643" transform="translate(395.461 713.752)" style="isolation:isolate;mix-blend-mode:multiply"/>
        <path id="패스_6434" fill="url(#linear-gradient-4)" d="M417.622 750.827v2.565a2.337 2.337 0 0 1-2.334 2.334h-18.506a2.337 2.337 0 0 1-2.334-2.334v-2.565a2.334 2.334 0 0 1 2.334-2.334h18.505a2.334 2.334 0 0 1 2.335 2.334z" data-name="패스 6434" transform="translate(0 -40.95)"/>
        <path id="패스_6435" fill="url(#linear-gradient-5)" d="M412.176 899.332a5.447 5.447 0 0 1-.751 2.766h-.625a3.582 3.582 0 0 1-1.9-.538 3.622 3.622 0 0 1-1.721-3.081v-4.593a5.455 5.455 0 0 1 4.993 5.375.381.381 0 0 1 .004.071z" data-name="패스 6435" transform="translate(-11.716 -174.765)" style="mix-blend-mode:screen;isolation:isolate" opacity="0.35"/>
        <path id="패스_6436" fill="url(#linear-gradient-6)" d="M434.57 963.866h-3.886a3.582 3.582 0 0 1-1.9-.538 2.924 2.924 0 0 1 2.863-2.33 2.506 2.506 0 0 1 .409.031 2.922 2.922 0 0 1 2.514 2.837z" data-name="패스 6436" transform="translate(-31.604 -236.533)" style="mix-blend-mode:screen;isolation:isolate" opacity="0.35"/>
        <path id="패스_6437" fill="url(#linear-gradient-7)" d="M555.5 750.827v.952a7.057 7.057 0 0 1-11.244-3.286h8.91a2.334 2.334 0 0 1 2.334 2.334z" data-name="패스 6437" transform="translate(-137.874 -40.95)" style="mix-blend-mode:screen;isolation:isolate" opacity="0.25"/>
        <path id="사각형_1644" fill="url(#linear-gradient-8)" d="M0 0H3.599V19.789H0z" data-name="사각형 1644" transform="translate(404.234 707.542)"/>
    </g>
    <path id="사각형_1645" fill="none" d="M0 0H36V36H0z" data-name="사각형 1645"/>
</svg>
