<svg xmlns="http://www.w3.org/2000/svg" xmlns:xlink="http://www.w3.org/1999/xlink" id="ic_star_s" width="20" height="20" viewBox="0 0 20 20">
    <defs>
        <linearGradient id="linear-gradient" x1=".42" x2=".584" y1=".118" y2="1.003" gradientUnits="objectBoundingBox">
            <stop offset="0" stop-color="#fde244"/>
            <stop offset=".224" stop-color="#fddd43"/>
            <stop offset=".474" stop-color="#fdcf41"/>
            <stop offset=".723" stop-color="#ffbb3f"/>
        </linearGradient>
        <linearGradient id="linear-gradient-2" x1=".844" x2="-.033" y1="-.063" y2=".895" gradientUnits="objectBoundingBox">
            <stop offset="0" stop-color="#fff" stop-opacity=".31"/>
            <stop offset=".21" stop-color="#fff" stop-opacity=".29"/>
            <stop offset=".445" stop-color="#fff" stop-opacity=".239"/>
            <stop offset=".693" stop-color="#fff" stop-opacity=".153"/>
            <stop offset=".946" stop-color="#fff" stop-opacity=".031"/>
            <stop offset="1" stop-color="#fff" stop-opacity="0"/>
        </linearGradient>
        <linearGradient id="linear-gradient-3" x1=".463" x2=".627" y1=".092" y2="1.168" gradientUnits="objectBoundingBox">
            <stop offset="0" stop-color="#fdad2b"/>
            <stop offset=".156" stop-color="#fca82d"/>
            <stop offset=".33" stop-color="#fa9a34"/>
            <stop offset=".513" stop-color="#f6843f"/>
            <stop offset=".701" stop-color="#f1654e"/>
            <stop offset=".86" stop-color="#ec455f"/>
        </linearGradient>
        <linearGradient id="linear-gradient-4" x1="1.058" x2=".262" y1="-.421" y2=".517" xlink:href="#linear-gradient-2"/>
        <clipPath id="clip-path">
            <path id="패스_4112" d="M3.469.283l.264 1.277a.355.355 0 0 0 .21.255l1.2.507a.355.355 0 0 1 .038.636L4.048 3.6a.355.355 0 0 0-.178.278l-.111 1.3a.355.355 0 0 1-.593.232L2.2 4.536a.355.355 0 0 0-.32-.083l-1.27.3a.355.355 0 0 1-.4-.492l.536-1.192a.355.355 0 0 0-.02-.33L.052 1.622a.355.355 0 0 1 .343-.536l1.3.144A.355.355 0 0 0 2 1.109l.853-.986a.355.355 0 0 1 .616.16z" class="cls-1"/>
        </clipPath>
        <clipPath id="clip-path-2">
            <path id="패스_4115" d="M6.064.32L7.85 2.683A.806.806 0 0 0 8.528 3l2.959-.132a.806.806 0 0 1 .7 1.267l-1.7 2.428a.806.806 0 0 0-.094.744l1.039 2.773a.806.806 0 0 1-.989 1.054l-2.833-.862a.806.806 0 0 0-.737.141l-2.315 1.849a.806.806 0 0 1-1.308-.615l-.056-2.962a.806.806 0 0 0-.362-.657L.362 6.4a.806.806 0 0 1 .181-1.439l2.8-.968a.806.806 0 0 0 .513-.547L4.644.592A.806.806 0 0 1 6.064.32z" class="cls-1"/>
        </clipPath>
        <style>
            .cls-1{fill:none}.cls-10{stroke:none}
        </style>
    </defs>
    <g id="별" transform="translate(2.222 3.012)">
        <g id="그룹_9728" transform="rotate(5.13 5.387 117.166)">
            <g id="패스_4110" fill="url(#linear-gradient)" stroke-linecap="round" stroke-linejoin="round">
                <path d="M3.404 5.758c-.15 0-.294-.056-.406-.159l-.964-.878c-.02-.018-.044-.027-.07-.027-.009 0-.017 0-.024.002l-1.27.297c-.047.01-.094.016-.14.016-.205 0-.395-.104-.507-.278-.112-.173-.128-.389-.042-.577l.537-1.188c.014-.032.012-.068-.006-.098l-.674-1.116c-.114-.19-.118-.418-.01-.61.108-.19.31-.308.526-.308.022 0 .046.001.069.004L1.719.98l.012.001c.03 0 .059-.013.079-.036l.853-.987c.116-.133.282-.209.456-.209.291 0 .536.199.594.483l.264 1.277c.007.034.03.062.062.076l1.202.507c.214.09.355.29.369.521.014.232-.103.447-.305.562l-1.133.646c-.03.017-.05.047-.053.082l-.11 1.3c-.027.316-.287.554-.605.554z" class="cls-10"/>
                <path fill="#ffbb3f" d="M3.12 0c-.097 0-.195.039-.267.123l-.854.986c-.068.079-.166.123-.268.123-.013 0-.027 0-.04-.002L.395 1.086C.38 1.084.367 1.084.354 1.084c-.27 0-.447.299-.302.538L.726 2.74c.06.1.068.223.02.33L.208 4.257C.1 4.5.282 4.76.53 4.76c.027 0 .055-.003.083-.01l1.27-.296c.028-.006.055-.01.081-.01.088 0 .173.033.24.093l.964.879c.07.064.154.093.237.093.173 0 .339-.127.356-.326l.11-1.3c.01-.116.077-.22.178-.278l1.134-.645c.255-.146.233-.521-.038-.636l-1.202-.507c-.108-.045-.186-.14-.21-.255L3.47.283C3.432.104 3.277 0 3.119 0m0-.5c.411 0 .756.28.84.682l.248 1.203 1.131.478c.302.127.502.41.521.737.02.327-.145.631-.43.793l-1.067.608-.104 1.224c-.038.446-.405.783-.854.783-.212 0-.416-.08-.574-.224l-.908-.827-1.196.28c-.065.014-.13.022-.197.022-.29 0-.558-.147-.716-.393-.158-.244-.18-.549-.06-.815l.506-1.119-.635-1.051c-.162-.268-.167-.59-.013-.862C-.238.751.047.584.354.584c.032 0 .064.001.096.005l1.22.136.804-.93c.163-.187.398-.295.645-.295z"/>
            </g>
            <g id="그룹_9727" opacity="0.54">
                <g id="그룹_9726" clip-path="url(#clip-path)">
                    <path id="패스_4111" fill="url(#linear-gradient-2)" d="M4.559 0A35.165 35.165 0 0 0 .76.76L0 1.867l.369 3.365 5.948-3.408z" transform="translate(-.956 -1.454)"/>
                </g>
            </g>
        </g>
        <g id="패스_4113" fill="url(#linear-gradient-3)" stroke-linejoin="round" transform="rotate(-6.02 18.881 .993)">
            <path d="M4.06 12.689c-.583 0-1.049-.456-1.06-1.038L2.944 8.69c-.003-.183-.096-.352-.249-.453L.224 6.604c-.338-.223-.516-.611-.466-1.013.051-.402.32-.734.703-.866l2.799-.968c.173-.06.305-.201.354-.378l.79-2.854C4.53.06 4.941-.25 5.423-.25c.332 0 .638.153.84.42l1.785 2.362c.105.139.27.221.444.221h.024l2.959-.132.05-.001c.393 0 .75.218.934.568.182.35.155.769-.071 1.092L10.694 6.71c-.105.15-.13.342-.065.513l1.04 2.773c.123.33.08.683-.12.97-.199.287-.522.458-.865.458-.104 0-.21-.015-.312-.047l-2.833-.862c-.053-.016-.107-.024-.162-.024-.125 0-.249.043-.347.122l-2.316 1.845c-.19.151-.416.232-.654.232z" class="cls-10"/>
            <path fill="#f16350" d="M5.424 0c-.34 0-.675.212-.78.592l-.79 2.854c-.07.256-.262.46-.512.547l-2.8.968c-.63.219-.738 1.066-.18 1.434l2.47 1.633c.222.146.357.392.362.657l.056 2.961c.01.473.398.793.81.793.17 0 .345-.055.498-.178l2.317-1.845c.144-.115.322-.176.502-.176.078 0 .157.012.234.035l2.834.862c.081.025.161.036.239.036.535 0 .955-.544.75-1.09l-1.04-2.773c-.092-.248-.057-.527.095-.744l1.695-2.429c.375-.537-.014-1.267-.659-1.267h-.038l-2.959.132-.035.001c-.252 0-.49-.118-.643-.32L6.064.32C5.899.102 5.661 0 5.424 0m0-.5c.411 0 .79.19 1.039.519l1.786 2.363c.057.076.148.121.244.121h.013l2.959-.132.06-.001c.487 0 .93.27 1.156.703.226.432.192.95-.087 1.35l-1.695 2.429c-.058.083-.071.188-.036.283l1.04 2.773c.152.407.098.844-.148 1.2-.246.354-.646.565-1.071.565-.13 0-.259-.02-.385-.057l-2.833-.862c-.029-.01-.059-.014-.09-.014-.068 0-.136.024-.19.067L4.87 12.653c-.235.187-.515.286-.81.286-.72 0-1.296-.564-1.31-1.283l-.056-2.961c-.001-.101-.053-.194-.137-.25L.087 6.813c-.419-.276-.64-.757-.577-1.253.063-.497.396-.908.87-1.071l2.798-.969c.095-.032.168-.11.195-.207l.79-2.855C4.32-.115 4.827-.5 5.423-.5z"/>
        </g>
        <g id="그룹_9730" transform="rotate(-6.02 18.881 .993)">
            <g id="그룹_9729" clip-path="url(#clip-path-2)">
                <path id="패스_4114" fill="url(#linear-gradient-4)" d="M7.04 0C6.589.015 0 4.186 0 4.186l.367 5.289L4.05 13.9l8.362-11.826z" transform="translate(-3.288 -1.541)"/>
            </g>
        </g>
    </g>
</svg>
