<svg xmlns="http://www.w3.org/2000/svg" id="ic_share_g" width="36" height="36" viewBox="0 0 36 36">
    <path id="사각형_407" fill="none" d="M0 0H36V36H0z" data-name="사각형 407"/>
    <path id="패스_407" fill="none" stroke="#757575" stroke-linecap="round" stroke-linejoin="round" stroke-width="1.5px" d="M7.515 14.123a3.182 3.182 0 1 1 0-4.5 3.183 3.183 0 0 1 0 4.5zM18.9 21.691a3.182 3.182 0 1 1 3.182-3.182 3.182 3.182 0 0 1-3.182 3.182zm0-13.637a3.182 3.182 0 1 1 3.182-3.182A3.182 3.182 0 0 1 18.9 8.054zM8.279 13.02l7.783 4.022zM16 6.37L8.19 10.4z" data-name="패스 407" transform="translate(5.917 6.309)"/>
</svg>
