<svg xmlns="http://www.w3.org/2000/svg" width="78" height="78" viewBox="0 0 78 78">
    <defs>
        <clipPath id="clip-path">
            <path id="사각형_1789" fill="#757575" d="M0 0H30V60H0z" data-name="사각형 1789"/>
        </clipPath>
        <filter id="타원_224" width="78" height="78" x="0" y="0" filterUnits="userSpaceOnUse">
            <feOffset dy="3"/>
            <feGaussianBlur result="blur" stdDeviation="3"/>
            <feFlood flood-opacity=".161"/>
            <feComposite in2="blur" operator="in"/>
            <feComposite in="SourceGraphic"/>
        </filter>
        <style>
            .cls-2{fill:none}
        </style>
    </defs>
    <g id="play_purple" transform="translate(3)">
        <path id="사각형_6118" d="M0 0H72V72H0z" class="cls-2" data-name="사각형 6118"/>
        <g id="그룹_15453" data-name="그룹 15453" transform="translate(-144 -608)">
            <g id="그룹_13282" data-name="그룹 13282" transform="translate(150 614)">
                <g id="그룹_13283" data-name="그룹 13283">
                    <g filter="url(#타원_224)" transform="translate(-9 -6)">
                        <circle id="타원_224-2" cx="30" cy="30" r="30" fill="#FF3C7B" data-name="타원 224" transform="translate(9 6)"/>
                    </g>
                    <g id="마스크_그룹_2" clip-path="url(#clip-path)" data-name="마스크 그룹 2" transform="translate(30)">
                        <g id="타원_225" fill="none" stroke="#FC6092" stroke-width="2px" data-name="타원 225" transform="translate(-30)">
                            <circle cx="30" cy="30" r="30" stroke="none"/>
                            <circle cx="30" cy="30" r="29" class="cls-2"/>
                        </g>
                    </g>
                </g>
            </g>
            <path id="다각형_1" fill="#fff" d="M11.207 5.192a3 3 0 0 1 5.337 0L25.5 22.629A3 3 0 0 1 22.835 27H4.915a3 3 0 0 1-2.668-4.371z" data-name="다각형 1" transform="rotate(90 -216.128 413.998)"/>
        </g>
    </g>
</svg>
