<svg xmlns="http://www.w3.org/2000/svg" id="replay" width="32" height="32" viewBox="0 0 32 32">
    <defs>
        <style>
            .cls-2{fill:#9e9e9e}
        </style>
    </defs>
    <path id="사각형_6120" fill="none" d="M0 0H32V32H0z"/>
    <g id="icon_67_" transform="translate(4 4)">
        <g id="그룹_15448">
            <g id="그룹_15447">
                <path id="패스_7196" d="M12 0a12 12 0 1 0 12 12A11.993 11.993 0 0 0 12 0zm0 22.4A10.4 10.4 0 1 1 22.4 12 10.412 10.412 0 0 1 12 22.4z" class="cls-2"/>
            </g>
        </g>
        <g id="그룹_15450" transform="translate(4.267 4.995)">
            <g id="그룹_15449">
                <path id="패스_7197" d="M98.762 119.694a6.138 6.138 0 0 1-4.862-9.864l.149.149a.8.8 0 0 0 1.338-.359l.55-2.053a.8.8 0 0 0-.98-.98l-2.053.55a.8.8 0 0 0-.359 1.338l.215.215a7.74 7.74 0 0 0 6 12.6.8.8 0 1 0 0-1.6z" class="cls-2" transform="translate(-91.029 -106.559)"/>
            </g>
        </g>
        <g id="그룹_15452" transform="translate(11.2 4.27)">
            <g id="그룹_15451">
                <path id="패스_7198" d="M245.738 103.7a7.74 7.74 0 0 0-6-12.6.8.8 0 0 0 0 1.6 6.138 6.138 0 0 1 4.866 9.865l-.149-.149a.8.8 0 0 0-1.338.359l-.55 2.053a.8.8 0 0 0 .98.98l2.053-.55a.8.8 0 0 0 .359-1.338z" class="cls-2" transform="translate(-238.933 -91.092)"/>
            </g>
        </g>
    </g>
</svg>
