<svg xmlns="http://www.w3.org/2000/svg" width="32" height="32" viewBox="0 0 32 32">
    <g>
        <g>
            <path fill="none" d="M0 0H32V32H0z" transform="translate(13313 -4186) translate(-13313 4186)"/>
            <g>
                <g>
                    <g>
                        <path d="M12 0a12 12 0 1 0 12 12A11.993 11.993 0 0 0 12 0zm0 22.4A10.4 10.4 0 1 1 22.4 12 10.412 10.412 0 0 1 12 22.4z" transform="translate(13313 -4186) translate(-13313 4186) translate(4 4)"/>
                    </g>
                </g>
                <g>
                    <g>
                        <path d="M98.762 119.694a6.138 6.138 0 0 1-4.862-9.864l.149.149a.8.8 0 0 0 1.338-.359l.55-2.053a.8.8 0 0 0-.98-.98l-2.053.55a.8.8 0 0 0-.359 1.338l.215.215a7.74 7.74 0 0 0 6 12.6.8.8 0 1 0 0-1.6z" transform="translate(13313 -4186) translate(-13313 4186) translate(4 4) translate(4.267 4.995) translate(-91.029 -106.559)"/>
                    </g>
                </g>
                <g>
                    <g>
                        <path d="M245.738 103.7a7.74 7.74 0 0 0-6-12.6.8.8 0 0 0 0 1.6 6.138 6.138 0 0 1 4.866 9.865l-.149-.149a.8.8 0 0 0-1.338.359l-.55 2.053a.8.8 0 0 0 .98.98l2.053-.55a.8.8 0 0 0 .359-1.338z" transform="translate(13313 -4186) translate(-13313 4186) translate(4 4) translate(11.2 4.27) translate(-238.933 -91.092)"/>
                    </g>
                </g>
            </g>
        </g>
        <path d="M288.757 413.766a.751.751 0 0 0-.526-.186.633.633 0 0 0-.643.453.726.726 0 0 1-.376.427 1.948 1.948 0 0 1-.625.179.632.632 0 0 0-.373.183.553.553 0 0 0-.153.409.521.521 0 0 0 .223.46.91.91 0 0 0 .53.154h.686v3.645a.73.73 0 0 0 1.461 0v-5.172a.709.709 0 0 0-.204-.552z" transform="translate(13313 -4186) translate(-13584.861 3785.106)"/>
    </g>
</svg>
