<svg xmlns="http://www.w3.org/2000/svg" width="32" height="32" viewBox="0 0 32 32">
    <g>
        <path d="M15.3 12.056a.786.786 0 0 0-1.112 1.112l.227.227h-1.237a3.132 3.132 0 0 1 0-6.264h1.245l-.235.227A.786.786 0 0 0 15.3 8.47l1.566-1.57a.794.794 0 0 0 0-1.112L15.3 4.226a.786.786 0 0 0-1.112 1.112l.227.227h-1.237a4.7 4.7 0 0 0-3.914 2.106 4.7 4.7 0 0 0-3.915-2.106H3.783a.783.783 0 1 0 0 1.566h1.566a3.132 3.132 0 1 1 0 6.264H3.783a.783.783 0 0 0 0 1.566h1.566a4.7 4.7 0 0 0 3.915-2.106 4.7 4.7 0 0 0 3.915 2.106h1.245l-.235.227A.786.786 0 0 0 15.3 16.3l1.566-1.566a.794.794 0 0 0 0-1.112z" transform="translate(6.683 6.581) translate(-.583 -.777)"/>
    </g>
    <path fill="none" d="M0 0H32V32H0z"/>
    <g>
        <g>
            <g>
                <path d="M12 0a12 12 0 1 0 12 12A11.993 11.993 0 0 0 12 0zm0 22.4A10.4 10.4 0 1 1 22.4 12 10.412 10.412 0 0 1 12 22.4z" transform="translate(4 4)"/>
            </g>
        </g>
    </g>
</svg>
