<svg xmlns="http://www.w3.org/2000/svg" id="store_g" width="40" height="40" viewBox="0 0 40 40">
    <defs>
        <style>
            .cls-1{fill:none}.cls-4{fill:#fff}.cls-5,.cls-6{stroke:none}.cls-6{fill:#424242}
        </style>
    </defs>
    <path id="사각형_238" d="M0 0H40V40H0z" class="cls-1"/>
    <g id="그룹_32683" transform="translate(-.8 -1)">
        <g id="사각형_9677" fill="none" stroke="#424242" stroke-width="1.5px" transform="translate(12.5 13)">
            <rect width="16.6" height="17" class="cls-5" rx="1"/>
            <rect width="18.1" height="18.5" x="-.75" y="-.75" class="cls-1" rx="1.75"/>
        </g>
        <g id="사각형_9680" fill="none" stroke="#424242" stroke-linejoin="round" stroke-width="1.5px">
            <path d="M0 0H4.4V7H0z" class="cls-5" transform="rotate(180 11.475 15)"/>
            <path d="M-0.75 -0.75H5.15V7.75H-0.75z" class="cls-1" transform="rotate(180 11.475 15)"/>
        </g>
        <g id="그룹_32684" transform="translate(-1.3 1)">
            <g id="패스_21171" class="cls-4">
                <path d="M.721 4.752c-.337 0-1.038 0-1.421-.535-.16-.223-.31-.609-.12-1.186L-.204.815C.023-.151.683-.75 1.522-.75h3.572l-.162.885-.625 3.407-.001.005-.001.006C4.215 4 3.888 4.75 2.695 4.75H.876l-.154.002z" class="cls-5" transform="translate(12.5 12)"/>
                <path d="M1.522 0c-.552 0-.875.453-1 1l-.625 2.25c-.236.697.315.752.824.752L1 4h1.696c.552 0 .795-.203.873-.594L4.194 0H1.522m0-1.5h4.472L5.67.27l-.625 3.407-.002.012-.003.011c-.225 1.127-1.102 1.8-2.344 1.8H.883l-.162.002c-.389 0-1.423 0-2.031-.848-.213-.297-.52-.926-.229-1.839L-.93.627C-.62-.666.34-1.5 1.522-1.5z" class="cls-6" transform="translate(12.5 12)"/>
            </g>
            <g id="패스_21172" class="cls-4">
                <path d="M3.196 4.75H.5c-.362 0-.703-.142-.934-.39-.226-.24-.337-.563-.314-.909l.001-.029.005-.028.5-3.5.092-.644h4.596V3.5c0 .69-.561 1.25-1.25 1.25z" class="cls-5" transform="translate(17.7 12)"/>
                <path d="M.5 0L0 3.5c-.021.328.224.5.5.5h2.696c.276 0 .5-.224.5-.5V0H.5M-.8-1.5h5.996v5c0 1.103-.897 2-2 2H.5c-.569 0-1.109-.228-1.482-.626-.368-.394-.551-.916-.515-1.472l.004-.057.008-.057.5-3.5L-.8-1.5z" class="cls-6" transform="translate(17.7 12)"/>
            </g>
            <g id="패스_21173" class="cls-4">
                <path d="M3.196 4.75H.5c-.69 0-1.25-.56-1.25-1.25V-.75h4.596l.092.644.5 3.5.008.053V3.5c0 .69-.561 1.25-1.25 1.25z" class="cls-5" transform="translate(22.9 12)"/>
                <path d="M0 0v3.5c0 .276.224.5.5.5h2.696c.276 0 .5-.224.5-.5l-.5-3.5H0m-1.5-1.5H4.496l.185 1.288.5 3.5.015.105V3.5c0 1.103-.897 2-2 2H.5c-1.103 0-2-.897-2-2v-5z" class="cls-6" transform="translate(22.9 12)"/>
            </g>
            <g id="패스_21170" class="cls-4">
                <path d="M2.895 4.75H1c-.895 0-1.625-.691-1.743-1.646L-1.225.12l-.14-.87h3.521c.551 0 1.295.262 1.712 1.513l.007.02.005.022.069.253.596 2.05c.168.53.021.893-.133 1.105-.39.538-1.123.538-1.517.538z" class="cls-5" transform="translate(28.1 12)"/>
                <path d="M-.484 0L0 3c.063.547.448 1 1 1h1.896c.526 0 1.14-.036.932-.672L3.226 1.26 3.156 1c-.172-.516-.447-1-1-1h-2.64m-1.762-1.5h4.402c.653 0 1.836.263 2.423 2.026l.014.041.012.042.066.247.592 2.035c.272.865-.035 1.475-.244 1.763-.615.847-1.672.847-2.124.847h-.11l-.09-.001H1c-1.276 0-2.315-.96-2.485-2.29l-.48-2.97-.281-1.74z" class="cls-6" transform="translate(28.1 12)"/>
            </g>
        </g>
    </g>
</svg>
