<svg id="ico_alarm" xmlns="http://www.w3.org/2000/svg" xmlns:xlink="http://www.w3.org/1999/xlink" width="80" height="80" viewBox="0 0 80 80">
  <defs>
    <filter id="합치기_20" x="17" y="16.998" width="46.446" height="50.481" filterUnits="userSpaceOnUse">
      <feOffset dy="2" input="SourceAlpha"/>
      <feGaussianBlur stdDeviation="1.5" result="blur"/>
      <feFlood flood-opacity="0.302"/>
      <feComposite operator="in" in2="blur"/>
      <feComposite in="SourceGraphic"/>
    </filter>
  </defs>
  <rect id="사각형_445" data-name="사각형 445" width="80" height="80" fill="none"/>
  <g transform="matrix(1, 0, 0, 1, 0, 0)" filter="url(#합치기_20)">
    <path id="합치기_20-2" data-name="합치기 20" d="M7616.157-9220.074c0-.053,0-.1,0-.157h-5.542a3.6,3.6,0,0,1-3.365-2.162,3.228,3.228,0,0,1,.729-3.562l3.595-3.608v-9.568a11.818,11.818,0,0,1,1.516-5.8,13.333,13.333,0,0,1,4.008-4.4,14.908,14.908,0,0,1,6.608-2.533,16.337,16.337,0,0,1,7.765.91,12.8,12.8,0,0,1,6.144,4.688,12.29,12.29,0,0,1,2.252,7.087v9.619l3.6,3.611a3.221,3.221,0,0,1,.729,3.56,3.6,3.6,0,0,1-3.364,2.162h-5.542c0,.053,0,.1,0,.157a9.572,9.572,0,0,1-9.566,9.556A9.572,9.572,0,0,1,7616.157-9220.074Zm3,0a6.57,6.57,0,0,0,6.567,6.556,6.57,6.57,0,0,0,6.566-6.556c0-.053,0-.1,0-.157h-13.129C7619.158-9220.179,7619.157-9220.127,7619.157-9220.074Zm-.336-26.8a9.45,9.45,0,0,0-4.245,7.744v10.809l-4.47,4.486c-.121.121-.121.2-.083.293a.6.6,0,0,0,.594.313h30.214a.6.6,0,0,0,.594-.313c.035-.089.035-.172-.083-.293l-4.472-4.486v-10.859a9.642,9.642,0,0,0-6.425-8.956,13.77,13.77,0,0,0-4.717-.847A12,12,0,0,0,7618.82-9246.877Z" transform="translate(-7585.5 9271.5)" fill="#fff"/>
  </g>
</svg>
