<svg xmlns="http://www.w3.org/2000/svg" xmlns:xlink="http://www.w3.org/1999/xlink" width="80" height="80" viewBox="0 0 80 80">
  <defs>
    <filter id="합치기_21" x="16.499" y="17.5" width="51" height="49.487" filterUnits="userSpaceOnUse">
      <feOffset dy="2" input="SourceAlpha"/>
      <feGaussianBlur stdDeviation="1.5" result="blur"/>
      <feFlood flood-opacity="0.302"/>
      <feComposite operator="in" in2="blur"/>
      <feComposite in="SourceGraphic"/>
    </filter>
  </defs>
  <g id="ico_message" transform="translate(-540 -8)">
    <rect id="사각형_238" data-name="사각형 238" width="80" height="80" transform="translate(540 8)" fill="none"/>
    <g transform="matrix(1, 0, 0, 1, 540, 8)" filter="url(#합치기_21)">
      <path id="합치기_21-2" data-name="합치기 21" d="M8264-9193.637c-4.747-1.407-6-3.081-6-7.779,0-4.917-.016-9.833.01-14.75.023-4.365,2.426-6.807,6.757-6.816,10.182-.025,18.366-.021,28.551,0a6.274,6.274,0,0,1,6.644,6.576q.069,7.9,0,15.8c-.035,4.231-2.65,6.777-6.9,6.791-4.285.017-6.977.148-11.414,0-6.553-.183-6.722.632-11.06,4.731-1.967,2.049-4.169,4.194-6.6,6.571Zm3.025-3.076v6.985c2.213-2.191,3.938-4.069,5.856-5.722a5.294,5.294,0,0,1,3.053-1.3c4.485-.085,7.941-.076,11.849-.066,1.532,0,3.137.007,4.9.007,3.1,0,4.293-1.2,4.3-4.331q.01-7.371-.007-14.742c-.01-2.868-1.241-4.139-4.056-4.144-9.972-.014-17.94-.016-27.91,0-2.843,0-4.092,1.253-4.108,4.135-.03,4.7.132,9.411-.027,14.109-.123,3.606,1.543,5.438,4.98,4.986a1.2,1.2,0,0,1,.158-.01C8266.247-9196.8,8266.528-9196.751,8267.028-9196.713Zm18.867-11.229a2.589,2.589,0,0,1,2.59-2.59,2.589,2.589,0,0,1,2.59,2.59,2.589,2.589,0,0,1-2.59,2.59A2.589,2.589,0,0,1,8285.9-9207.941Zm-9.46,0a2.589,2.589,0,0,1,2.59-2.59,2.589,2.589,0,0,1,2.59,2.59,2.589,2.589,0,0,1-2.59,2.59A2.589,2.589,0,0,1,8276.436-9207.941Zm-9.435,0a2.589,2.589,0,0,1,2.59-2.59,2.589,2.589,0,0,1,2.59,2.59,2.589,2.589,0,0,1-2.59,2.59A2.589,2.589,0,0,1,8267-9207.941Z" transform="translate(-8237 9243)" fill="#fff"/>
    </g>
  </g>
</svg>
