<svg xmlns="http://www.w3.org/2000/svg" xmlns:xlink="http://www.w3.org/1999/xlink" width="80" height="80" viewBox="0 0 80 80">
  <defs>
    <filter id="합치기_19" x="15.001" y="16.999" width="49.184" height="49.153" filterUnits="userSpaceOnUse">
      <feOffset dy="2" input="SourceAlpha"/>
      <feGaussianBlur stdDeviation="1.5" result="blur"/>
      <feFlood flood-opacity="0.302"/>
      <feComposite operator="in" in2="blur"/>
      <feComposite in="SourceGraphic"/>
    </filter>
  </defs>
  <g id="ico_ranking" transform="translate(-468 -8)">
    <rect id="사각형_238" data-name="사각형 238" width="80" height="80" transform="translate(468 8)" fill="none"/>
    <g transform="matrix(1, 0, 0, 1, 468, 8)" filter="url(#합치기_19)">
      <path id="합치기_19-2" data-name="합치기 19" d="M7797.8-9211.848a4.506,4.506,0,0,1-4.5-4.5V-9217a4.5,4.5,0,0,1,4.5-4.5h.323v-3.942a4.138,4.138,0,0,0-2.672-3.669,7.82,7.82,0,0,1-3.218-2.594,6.7,6.7,0,0,1-1.137-2.7h-1.733a6.273,6.273,0,0,1-6.265-6.268v-9.824a1.5,1.5,0,0,1,1.5-1.5h7.816l.083,0h29.284a1.5,1.5,0,0,1,1.5,1.5v9.826a6.273,6.273,0,0,1-6.265,6.268h-1.758a6.7,6.7,0,0,1-1.137,2.7,7.829,7.829,0,0,1-3.22,2.594,4.139,4.139,0,0,0-2.67,3.669v3.971a4.505,4.505,0,0,1,3.991,4.472v.652a4.505,4.505,0,0,1-4.5,4.5Zm-1.5-5.154v.652a1.5,1.5,0,0,0,1.5,1.5h9.922a1.5,1.5,0,0,0,1.5-1.5V-9217a1.5,1.5,0,0,0-1.5-1.5H7797.8A1.5,1.5,0,0,0,7796.3-9217Zm8.93-4.5v-3.942a6.594,6.594,0,0,1,1.235-3.817,7.774,7.774,0,0,1,3.218-2.594,4.139,4.139,0,0,0,2.672-3.671V-9249H7794v13.094c0,.039,0,.079,0,.118v.263a4.142,4.142,0,0,0,2.672,3.671,7.789,7.789,0,0,1,3.218,2.594,6.594,6.594,0,0,1,1.235,3.817v3.942Zm10.147-15.905h1.639a3.269,3.269,0,0,0,3.265-3.268V-9249h-4.9Zm-29.28-3.268a3.269,3.269,0,0,0,3.265,3.268H7791V-9249h-4.9Z" transform="translate(-7763.6 9271.5)" fill="#fff"/>
    </g>
  </g>
</svg>
