
<svg xmlns="http://www.w3.org/2000/svg" id="prefix__toggle_on" width="51" height="31" viewBox="0 0 51 31">
    <defs>
        <clipPath id="prefix__clip-path">
            <path id="prefix__Mask" d="M15.857.092C17.6-.008 19.335 0 21.075 0h8.817c1.774 0 3.512-.008 5.251.092A21.645 21.645 0 0 1 39.8.8a15.242 15.242 0 0 1 0 29.394 21.707 21.707 0 0 1-4.654.711c-1.739.1-3.477.091-5.217.091h-8.822c-1.772 0-3.51.008-5.25-.092A21.708 21.708 0 0 1 11.2 30.2a15.242 15.242 0 0 1 0-29.4 21.645 21.645 0 0 1 4.657-.708z" style="fill:#34c759"/>
        </clipPath>
        <filter id="prefix__knob" width="51" height="51" x="10" y="-7" filterUnits="userSpaceOnUse">
            <feOffset dy="3"/>
            <feGaussianBlur result="blur" stdDeviation="4"/>
            <feFlood flood-opacity=".149"/>
            <feComposite in2="blur" operator="in"/>
            <feComposite in="SourceGraphic"/>
        </filter>
    </defs>
    <path id="prefix__Switch_background" d="M0 0H51V31H0z" data-name="Switch background" style="fill:transparent"/>
    <path id="prefix__Mask-2" d="M15.857.092C17.6-.008 19.335 0 21.075 0h8.817c1.774 0 3.512-.008 5.251.092A21.645 21.645 0 0 1 39.8.8a15.242 15.242 0 0 1 0 29.394 21.707 21.707 0 0 1-4.654.711c-1.739.1-3.477.091-5.217.091h-8.822c-1.772 0-3.51.008-5.25-.092A21.708 21.708 0 0 1 11.2 30.2a15.242 15.242 0 0 1 0-29.4 21.645 21.645 0 0 1 4.657-.708z" data-name="Mask" style="fill:#FF3C7B"/>
    <g id="prefix__그룹_54" data-name="그룹 54">
        <g>
            <path id="prefix__knob-2" d="M13.5 0A13.5 13.5 0 1 1 0 13.5 13.5 13.5 0 0 1 13.5 0z" data-name="knob" transform="translate(22 2)" style="fill:#fff"/>
        </g>
    </g>
</svg>
