
<svg xmlns="http://www.w3.org/2000/svg" id="prefix__report_w_l" width="32" height="32" viewBox="0 0 32 32">
    <defs>
        <style>
            .prefix__cls-1{fill:none;stroke:#fff;stroke-linecap:round;stroke-linejoin:round}
        </style>
    </defs>
    <g id="prefix__Vector_Smart_Object5" data-name="Vector Smart Object5" transform="translate(7.111 6.222)">
        <g id="prefix__Vector_Smart_Object5-2" data-name="Vector Smart Object5">
            <g id="prefix__그룹_9369" data-name="그룹 9369">
                <g id="prefix__그룹_9368" data-name="그룹 9368" transform="translate(.725 3.926)">
                    <path id="prefix__패스_3952" d="M15.628 16.786a4.356 4.356 0 0 1 1.443.262v-5.532a5.422 5.422 0 0 0-5.409-5.436 5.422 5.422 0 0 0-5.409 5.436v5.533a4.352 4.352 0 0 1 1.447-.263z" class="prefix__cls-1" data-name="패스 3952" transform="translate(-3.283 -6.08)"/>
                    <path id="prefix__패스_3953" d="M16.7 18.387a4.356 4.356 0 0 0-1.443-.262H7.325a4.352 4.352 0 0 0-1.443.262 4.419 4.419 0 0 0-2.97 4.173h16.757a4.419 4.419 0 0 0-2.969-4.173z" class="prefix__cls-1" data-name="패스 3953" transform="translate(-2.912 -7.418)"/>
                </g>
                <path id="prefix__선_59" d="M0 0L0.987 0.266" class="prefix__cls-1" data-name="선 59" transform="translate(0 5.753)"/>
                <path id="prefix__선_60" d="M0 0L0.723 0.726" class="prefix__cls-1" data-name="선 60" transform="translate(3.24 1.634)"/>
                <path id="prefix__선_61" d="M0.987 0L0 0.266" class="prefix__cls-1" data-name="선 61" transform="translate(17.199 5.753)"/>
                <path id="prefix__선_62" d="M0.723 0L0 0.726" class="prefix__cls-1" data-name="선 62" transform="translate(14.196 1.634)"/>
                <path id="prefix__선_63" d="M0 0L0 1.027" class="prefix__cls-1" data-name="선 63" transform="translate(9.104)"/>
            </g>
        </g>
    </g>
    <path id="prefix__사각형_439" d="M0 0H32V32H0z" data-name="사각형 439" style="fill:none"/>
</svg>
