<svg id="ic_star_s" xmlns="http://www.w3.org/2000/svg" xmlns:xlink="http://www.w3.org/1999/xlink" width="18" height="18" viewBox="0 0 18 18">
  <defs>
    <linearGradient id="linear-gradient" x1="0.42" y1="0.118" x2="0.584" y2="1.003" gradientUnits="objectBoundingBox">
      <stop offset="0" stop-color="#fde244"/>
      <stop offset="0.224" stop-color="#fddd43"/>
      <stop offset="0.474" stop-color="#fdcf41"/>
      <stop offset="0.723" stop-color="#ffbb3f"/>
    </linearGradient>
    <clipPath id="clip-path">
      <path id="패스_4112" data-name="패스 4112" d="M3.122.255,3.359,1.4a.319.319,0,0,0,.189.23l1.082.456a.319.319,0,0,1,.034.572l-1.02.581a.32.32,0,0,0-.16.251l-.1,1.17a.319.319,0,0,1-.534.209l-.868-.791a.319.319,0,0,0-.288-.075L.551,4.274a.319.319,0,0,1-.364-.443l.484-1.07a.32.32,0,0,0-.018-.3l-.607-1A.319.319,0,0,1,.355.977l1.167.13A.319.319,0,0,0,1.8,1L2.567.111A.32.32,0,0,1,3.122.255Z" fill="none"/>
    </clipPath>
    <linearGradient id="linear-gradient-2" x1="0.844" y1="-0.063" x2="-0.033" y2="0.895" gradientUnits="objectBoundingBox">
      <stop offset="0" stop-color="#fff" stop-opacity="0.31"/>
      <stop offset="0.21" stop-color="#fff" stop-opacity="0.29"/>
      <stop offset="0.445" stop-color="#fff" stop-opacity="0.239"/>
      <stop offset="0.693" stop-color="#fff" stop-opacity="0.153"/>
      <stop offset="0.946" stop-color="#fff" stop-opacity="0.031"/>
      <stop offset="1" stop-color="#fff" stop-opacity="0"/>
    </linearGradient>
    <linearGradient id="linear-gradient-3" x1="0.463" y1="0.092" x2="0.627" y2="1.168" gradientUnits="objectBoundingBox">
      <stop offset="0" stop-color="#fdad2b"/>
      <stop offset="0.156" stop-color="#fca82d"/>
      <stop offset="0.33" stop-color="#fa9a34"/>
      <stop offset="0.513" stop-color="#f6843f"/>
      <stop offset="0.701" stop-color="#f1654e"/>
      <stop offset="0.86" stop-color="#ec455f"/>
    </linearGradient>
    <clipPath id="clip-path-2">
      <path id="패스_4115" data-name="패스 4115" d="M5.458.288,7.065,2.415a.725.725,0,0,0,.611.287l2.663-.118a.725.725,0,0,1,.627,1.14L9.44,5.909a.725.725,0,0,0-.084.67l.935,2.5a.725.725,0,0,1-.89.949L6.85,9.248a.725.725,0,0,0-.663.127L4.1,11.035a.725.725,0,0,1-1.177-.554l-.05-2.665a.725.725,0,0,0-.325-.592L.326,5.756A.725.725,0,0,1,.488,4.465l2.519-.871A.725.725,0,0,0,3.469,3.1L4.18.532A.725.725,0,0,1,5.458.288Z" fill="none"/>
    </clipPath>
    <linearGradient id="linear-gradient-4" x1="1.058" y1="-0.421" x2="0.262" y2="0.517" xlink:href="#linear-gradient-2"/>
  </defs>
  <g id="사각형_1642" data-name="사각형 1642" fill="#fff" stroke="#707070" stroke-width="1" opacity="0">
    <rect width="18" height="18" stroke="none"/>
    <rect x="0.5" y="0.5" width="17" height="17" fill="none"/>
  </g>
  <g id="별" transform="translate(2 2.71)">
    <g id="그룹_9728" data-name="그룹 9728" transform="matrix(0.996, 0.087, -0.087, 0.996, 9.193, 0)">
      <g id="패스_4110" data-name="패스 4110" transform="translate(0 0)" stroke-linecap="round" stroke-linejoin="round" fill="url(#linear-gradient)">
        <path d="M 3.063540697097778 5.206996917724609 C 2.922760725021362 5.207016944885254 2.787150859832764 5.154107093811035 2.681690692901611 5.058027267456055 L 1.8138507604599 4.267416954040527 C 1.801010727882385 4.255727291107178 1.784410715103149 4.249287128448486 1.767100811004639 4.249287128448486 C 1.761820793151855 4.249287128448486 1.756520748138428 4.249897003173828 1.751340746879578 4.251107215881348 L 0.6080007553100586 4.517786979675293 C 0.5645807385444641 4.527926921844482 0.5203007459640503 4.533067226409912 0.4764107763767242 4.533067226409912 C 0.2835907638072968 4.533087253570557 0.1053107604384422 4.435206890106201 -0.0004992377362214029 4.271216869354248 C -0.1055092364549637 4.108457088470459 -0.120379239320755 3.905577182769775 -0.04025923833250999 3.728507041931152 L 0.4434507489204407 2.658847093582153 C 0.4528707563877106 2.638007164001465 0.4514407515525818 2.61385703086853 0.4396207630634308 2.594287157058716 L -0.1672892421483994 1.589337110519409 C -0.2749492526054382 1.411087036132813 -0.2782192230224609 1.19655704498291 -0.176029235124588 1.015457034111023 C -0.07504923641681671 0.8364970684051514 0.1143407598137856 0.7253170609474182 0.318240761756897 0.7253170609474182 C 0.339690774679184 0.7253170609474182 0.3614907562732697 0.7265371084213257 0.3830407559871674 0.7289270758628845 L 1.549800753593445 0.858457088470459 C 1.552400708198547 0.8587371110916138 1.554980754852295 0.8588870763778687 1.557540774345398 0.8588870763778687 C 1.577690720558167 0.8588870763778687 1.596800804138184 0.8501470685005188 1.609960794448853 0.8349270820617676 L 2.378210783004761 -0.05291291326284409 C 2.486620664596558 -0.1781729161739349 2.64297080039978 -0.250002920627594 2.807190656661987 -0.250002920627594 C 3.081300735473633 -0.250002920627594 3.311340808868408 -0.06306291371583939 3.366610765457153 0.2045970857143402 L 3.603980779647827 1.354337096214294 C 3.608600854873657 1.376707077026367 3.623940706253052 1.395397067070007 3.644990682601929 1.404277086257935 L 4.726720809936523 1.860567092895508 C 4.927900791168213 1.945387125015259 5.060950756072998 2.133517026901245 5.073900699615479 2.351526975631714 C 5.086840629577637 2.569527149200439 4.977000713348389 2.772077083587646 4.787230968475342 2.880127191543579 L 3.767170667648315 3.461157083511353 C 3.747310876846313 3.472467184066772 3.734280824661255 3.492856979370117 3.732340812683105 3.515676975250244 L 3.632680654525757 4.685387134552002 C 3.607340812683105 4.982717037200928 3.362660646438599 5.20695686340332 3.063540697097778 5.206996917724609 Z" stroke="none"/>
        <path d="M 2.807193756103516 -4.76837158203125e-07 C 2.720596551895142 -4.76837158203125e-07 2.632861852645874 0.03487825393676758 2.5672607421875 0.1106772422790527 L 1.799070835113525 0.9984471797943115 C 1.738061666488647 1.069001913070679 1.649688959121704 1.108883380889893 1.557533502578735 1.108883380889893 C 1.545810461044312 1.108883380889893 1.534017324447632 1.108237266540527 1.522220849990845 1.106927156448364 L 0.3554205894470215 0.9773972034454346 C 0.3428277969360352 0.9759979248046875 0.3304247856140137 0.9753189086914063 0.3182277679443359 0.9753191471099854 C 0.07552671432495117 0.9753232002258301 -0.08364772796630859 1.244264125823975 0.04671096801757813 1.460097074508667 L 0.653620719909668 2.465037107467651 C 0.7079706192016602 2.555027008056641 0.7145509719848633 2.666027069091797 0.6712408065795898 2.761857032775879 L 0.1875109672546387 3.831557035446167 C 0.08911752700805664 4.04902982711792 0.2540125846862793 4.283071517944336 0.4763855934143066 4.283071517944336 C 0.5007190704345703 4.283071517944336 0.5257716178894043 4.280263900756836 0.551210880279541 4.274327278137207 L 1.694480657577515 4.007657051086426 C 1.718560457229614 4.002033233642578 1.742907285690308 3.999282836914063 1.767101049423218 3.999282836914063 C 1.845812320709229 3.999282836914063 1.922740459442139 4.028429985046387 1.982210874557495 4.082607269287109 L 2.850070714950562 4.873227119445801 C 2.913371562957764 4.930903434753418 2.989141941070557 4.956995964050293 3.063508033752441 4.956995964050293 C 3.219074726104736 4.956995964050293 3.368364572525024 4.842694759368896 3.383580684661865 4.664166927337646 L 3.483240604400635 3.494457244873047 C 3.492170810699463 3.389647006988525 3.552060604095459 3.295987129211426 3.643430709838867 3.243927001953125 L 4.663530826568604 2.662877082824707 C 4.893640995025635 2.531857013702393 4.873560905456543 2.193787097930908 4.629550933837891 2.090917110443115 L 3.547890663146973 1.634647130966187 C 3.450970649719238 1.593796968460083 3.380430698394775 1.507867097854614 3.359140872955322 1.404887199401855 L 3.121770858764648 0.2551469802856445 C 3.088491439819336 0.09397125244140625 2.949362754821777 -4.76837158203125e-07 2.807193756103516 -4.76837158203125e-07 M 2.807190895080566 -0.5000028610229492 C 3.201210737228394 -0.5000028610229492 3.531930923461914 -0.2310528755187988 3.611440658569336 0.1540369987487793 L 3.829617023468018 1.21081805229187 L 4.823880672454834 1.630227088928223 C 5.11336088180542 1.752267122268677 5.304830551147461 2.022987127304077 5.323460578918457 2.33670711517334 C 5.342090606689453 2.65041708946228 5.184010982513428 2.941887140274048 4.910930633544922 3.097377061843872 L 3.973380088806152 3.631406784057617 L 3.881780624389648 4.706616878509521 C 3.845300674438477 5.134417057037354 3.493530750274658 5.456996917724609 3.063510894775391 5.456996917724609 C 2.860290765762329 5.456996917724609 2.664880752563477 5.380927085876465 2.513300657272339 5.242806911468506 L 1.715644836425781 4.516137599945068 L 0.6647906303405762 4.761257171630859 C 0.6028409004211426 4.775717258453369 0.5394105911254883 4.783067226409912 0.4763808250427246 4.783067226409912 C 0.1982607841491699 4.783067226409912 -0.05854940414428711 4.642376899719238 -0.2105894088745117 4.406717300415039 C -0.3618292808532715 4.172286987304688 -0.3832993507385254 3.880227088928223 -0.2680392265319824 3.625457048416138 L 0.1765632629394531 2.642295122146606 L -0.381289005279541 1.718577146530151 C -0.5338892936706543 1.46593713760376 -0.5386791229248047 1.149437189102173 -0.3937692642211914 0.8926272392272949 C -0.2485494613647461 0.6352372169494629 0.02427053451538086 0.4753270149230957 0.3182106018066406 0.4753170013427734 C 0.3488907814025879 0.4753170013427734 0.3799905776977539 0.4770469665527344 0.4106807708740234 0.4804573059082031 L 1.483069896697998 0.5995063781738281 L 2.189160823822021 -0.2164931297302246 C 2.345100879669189 -0.3966827392578125 2.570350646972656 -0.5000028610229492 2.807190895080566 -0.5000028610229492 Z" stroke="none" fill="#ffbb3f"/>
      </g>
      <g id="그룹_9727" data-name="그룹 9727" transform="translate(0 0)" opacity="0.54">
        <g id="그룹_9726" data-name="그룹 9726" clip-path="url(#clip-path)">
          <path id="패스_4111" data-name="패스 4111" d="M4.1,0A31.648,31.648,0,0,0,.684.684L0,1.681.332,4.709,5.686,1.642Z" transform="translate(-0.861 -1.309)" fill="url(#linear-gradient-2)"/>
        </g>
      </g>
    </g>
    <g id="패스_4113" data-name="패스 4113" transform="matrix(0.995, -0.105, 0.105, 0.995, 0, 1.789)" stroke-linejoin="round" fill="url(#linear-gradient-3)">
      <path d="M 3.653795003890991 11.44469451904297 C 3.115194797515869 11.44469451904297 2.685364961624146 11.02378463745117 2.675244808197021 10.48645496368408 L 2.624924898147583 7.821474552154541 C 2.621974945068359 7.665004730224609 2.542264938354492 7.520094394683838 2.411695003509521 7.433834552764893 L 0.1878149062395096 5.964414596557617 C -0.1241950988769531 5.758274555206299 -0.288965106010437 5.39972448348999 -0.2421950995922089 5.028674602508545 C -0.1954150944948196 4.657574653625488 0.05322489887475967 4.351074695587158 0.4066948890686035 4.228794574737549 L 2.925664901733398 3.357434511184692 C 3.073604822158813 3.306294441223145 3.186784982681274 3.185714483261108 3.228474855422974 3.034854412078857 L 3.938714981079102 0.4657645225524902 C 4.057065010070801 0.03764452412724495 4.436164855957031 -0.2499954700469971 4.882044792175293 -0.2499954700469971 C 5.18836498260498 -0.2499954700469971 5.470844745635986 -0.108735479414463 5.657034873962402 0.1375645250082016 L 7.264134883880615 2.264004468917847 C 7.353435039520264 2.38224458694458 7.49516487121582 2.452794551849365 7.643304824829102 2.452794551849365 C 7.650344848632813 2.452794551849365 7.657404899597168 2.452634572982788 7.664484977722168 2.452324628829956 L 10.32730484008789 2.333964586257935 C 10.342604637146 2.333284616470337 10.35786533355713 2.332944631576538 10.37294483184814 2.332944631576538 C 10.73633480072021 2.332944631576538 11.06693458557129 2.534054517745972 11.23574447631836 2.857784509658813 C 11.40428447723389 3.181004524230957 11.37924480438232 3.567604541778564 11.1704044342041 3.866724491119385 L 9.64472484588623 6.052294731140137 C 9.555154800415039 6.180614471435547 9.534464836120605 6.344704627990723 9.589385032653809 6.491254329681396 L 10.52479457855225 8.987114906311035 C 10.63874530792236 9.291154861450195 10.59865474700928 9.617674827575684 10.41480445861816 9.882944107055664 C 10.23122501373291 10.14783477783203 9.932475090026855 10.30600452423096 9.615654945373535 10.30604457855225 C 9.519194602966309 10.30605411529541 9.42226505279541 10.29146480560303 9.327574729919434 10.26267433166504 L 6.777504920959473 9.486924171447754 C 6.732625007629395 9.473264694213867 6.686104774475098 9.466344833374023 6.639255046844482 9.466344833374023 C 6.532034873962402 9.466344833374023 6.426805019378662 9.503144264221191 6.342965126037598 9.569964408874512 L 4.258265018463135 11.23088455200195 C 4.082715034484863 11.37075424194336 3.873694896697998 11.44469451904297 3.653795003890991 11.44469451904297 Z" stroke="none"/>
      <path d="M 4.882043361663818 0 C 4.576054096221924 0 4.274210929870605 0.1904172897338867 4.179675102233887 0.5323848724365234 L 3.469444751739502 3.101444244384766 C 3.405834674835205 3.331634521484375 3.233015060424805 3.51570463180542 3.007394790649414 3.593694686889648 L 0.4884347915649414 4.465054512023926 C -0.07977485656738281 4.661624431610107 -0.1759853363037109 5.424424648284912 0.3256349563598633 5.755834579467773 L 2.549494743347168 7.225244522094727 C 2.748675346374512 7.35682487487793 2.87037467956543 7.57807445526123 2.874884605407715 7.816754341125488 L 2.925205230712891 10.48174476623535 C 2.933207511901855 10.90666007995605 3.283195972442627 11.1946964263916 3.653794288635254 11.1946964263916 C 3.80744743347168 11.1946964263916 3.964662075042725 11.14517021179199 4.102484703063965 11.03535461425781 L 6.187154769897461 9.374454498291016 C 6.317224979400635 9.270796775817871 6.477020740509033 9.21634578704834 6.639256954193115 9.21634578704834 C 6.709878921508789 9.21634578704834 6.780979633331299 9.226669311523438 6.850265026092529 9.247744560241699 L 9.400304794311523 10.0234842300415 C 9.473369598388672 10.04570198059082 9.545546531677246 10.05604553222656 9.615617752075195 10.05604553222656 C 10.0972261428833 10.05604553222656 10.47491264343262 9.566389083862305 10.29069519042969 9.074854850769043 L 9.355284690856934 6.57898473739624 C 9.27149486541748 6.355404376983643 9.303074836730957 6.104964733123779 9.439735412597656 5.909194469451904 L 10.96542453765869 3.723604679107666 C 11.30297660827637 3.240132808685303 10.95313453674316 2.582912445068359 10.3729419708252 2.582943916320801 C 10.36153125762939 2.582943916320801 10.34998989105225 2.583199501037598 10.33840465545654 2.583714485168457 L 7.67558479309082 2.70207405090332 C 7.66480016708374 2.702553749084473 7.654039859771729 2.702792167663574 7.643302917480469 2.702792167663574 C 7.416631698608398 2.702792167663574 7.202095985412598 2.596667289733887 7.064684867858887 2.41474437713623 L 5.457604885101318 0.2883243560791016 C 5.309009075164795 0.09175586700439453 5.094549179077148 0 4.882043361663818 0 M 4.882044792175293 -0.499995231628418 C 5.267425060272217 -0.499995231628418 5.622584819793701 -0.3225650787353516 5.856464862823486 -0.01319503784179688 L 7.463574886322021 2.113274574279785 C 7.505945205688477 2.169374465942383 7.573104858398438 2.202794075012207 7.643304824829102 2.202794075012207 L 7.653345108032227 2.202564239501953 L 10.31620502471924 2.08420467376709 C 10.33507537841797 2.083364486694336 10.35412502288818 2.082944869995117 10.37294483184814 2.082944869995117 C 10.82980537414551 2.082924842834473 11.24535465240479 2.335514068603516 11.45740509033203 2.742154121398926 C 11.66918468475342 3.148294448852539 11.6377649307251 3.634044647216797 11.37539482116699 4.009834289550781 L 9.849724769592285 6.195394515991211 C 9.807254791259766 6.256234645843506 9.797445297241211 6.334034442901611 9.823484420776367 6.403514385223389 L 10.75889492034912 8.899384498596191 C 10.90204524993896 9.281344413757324 10.85150527954102 9.691784858703613 10.62022495269775 10.0254545211792 C 10.38993453979492 10.35769462585449 10.01438522338867 10.55604457855225 9.615614891052246 10.55604457855225 C 9.494444847106934 10.55604457855225 9.373054504394531 10.53781414031982 9.254815101623535 10.50185489654541 L 6.704744815826416 9.726104736328125 C 6.683465003967285 9.719624519348145 6.661435127258301 9.716344833374023 6.639255046844482 9.716344833374023 C 6.588414669036865 9.716344833374023 6.538525104522705 9.733794212341309 6.498775005340576 9.765464782714844 L 4.414044857025146 11.42641448974609 C 4.193804740905762 11.60191440582275 3.93089485168457 11.69469451904297 3.653794765472412 11.69469451904297 C 2.977624893188477 11.69469451904297 2.437994956970215 11.16603469848633 2.425294876098633 10.49115467071533 L 2.374975204467773 7.826194763183594 C 2.373575210571289 7.752014636993408 2.335784912109375 7.683314323425293 2.273895263671875 7.642434597015381 L 0.04999446868896484 6.172994613647461 C -0.341984748840332 5.914024353027344 -0.5489950180053711 5.463554382324219 -0.4902353286743164 4.997394561767578 C -0.4314651489257813 4.531194686889648 -0.1190948486328125 4.146154403686523 0.3249645233154297 3.992534637451172 L 2.843935012817383 3.121164321899414 C 2.914114952087402 3.096904754638672 2.967755317687988 3.039764404296875 2.987504959106445 2.968264579772949 L 3.697754859924316 0.3991546630859375 C 3.846435070037842 -0.1386556625366211 4.322364807128906 -0.499995231628418 4.882044792175293 -0.499995231628418 Z" stroke="none" fill="#f16350"/>
    </g>
    <g id="그룹_9730" data-name="그룹 9730" transform="matrix(0.995, -0.105, 0.105, 0.995, 0, 1.789)">
      <g id="그룹_9729" data-name="그룹 9729" transform="translate(0 0)" clip-path="url(#clip-path-2)">
        <path id="패스_4114" data-name="패스 4114" d="M6.336,0C5.93.014,0,3.767,0,3.767l.33,4.76L3.645,12.51,11.17,1.867Z" transform="translate(-2.96 -1.387)" fill="url(#linear-gradient-4)"/>
      </g>
    </g>
  </g>
</svg>
