<svg xmlns="http://www.w3.org/2000/svg" id="prefix__Layer_2" width="18" height="18" data-name="Layer 2" viewBox="0 0 18 18">
    <g id="prefix__attach">
        <path id="prefix__사각형_2400" d="M0 0H18V18H0z" data-name="사각형 2400" style="opacity:0;fill:#757575"/>
        <path id="prefix__패스_7043" d="M7.714 16.25a4.672 4.672 0 0 1-3.322-1.41 4.5 4.5 0 0 1-.165-6.368L9.747 2.9A3.082 3.082 0 0 1 12 2a3.36 3.36 0 0 1 2.392 1.012 3.27 3.27 0 0 1 .113 4.6l-5.55 5.572a1.905 1.905 0 0 1-1.358.562 2.04 2.04 0 0 1-1.462-.615 2.01 2.01 0 0 1-.06-2.828l5.123-5.145a.75.75 0 0 1 1.027 1.057L7.1 11.36a.51.51 0 0 0 .06.712.585.585 0 0 0 .4.172.42.42 0 0 0 .3-.12l5.54-5.572a1.77 1.77 0 0 0-.113-2.483 1.785 1.785 0 0 0-2.452-.112L5.292 9.5a3 3 0 0 0 .165 4.253 3.165 3.165 0 0 0 2.25.967 2.753 2.753 0 0 0 1.958-.795l5.542-5.573a.75.75 0 1 1 1.065 1.058l-5.542 5.573a4.237 4.237 0 0 1-3.016 1.267z" data-name="패스 7043" transform="translate(-.747 -.5)" style="fill:#757575"/>
    </g>
</svg>
