
<svg xmlns="http://www.w3.org/2000/svg" id="prefix__ic_delete" width="16" height="16" viewBox="0 0 16 16">
    <path id="prefix__사각형_1719" d="M0 0H16V16H0z" data-name="사각형 1719" style="fill:none"/>
    <path id="prefix__trash-alt" d="M7.179 11.143h.643a.321.321 0 0 0 .321-.321V5.036a.321.321 0 0 0-.321-.321h-.643a.321.321 0 0 0-.321.321v5.786a.321.321 0 0 0 .321.321zm4.393-9H9.364L8.453.624A1.286 1.286 0 0 0 7.35 0h-2.7a1.286 1.286 0 0 0-1.1.624l-.914 1.519H.429A.429.429 0 0 0 0 2.571V3a.429.429 0 0 0 .429.429h.428v9a1.286 1.286 0 0 0 1.286 1.286h7.714a1.286 1.286 0 0 0 1.286-1.286v-9h.429A.429.429 0 0 0 12 3v-.429a.429.429 0 0 0-.429-.428zM4.6 1.364a.161.161 0 0 1 .138-.078h2.521a.161.161 0 0 1 .138.078l.468.779h-3.73zm5.257 11.065H2.143v-9h7.714zm-5.678-1.286h.643a.321.321 0 0 0 .321-.321V5.036a.321.321 0 0 0-.321-.321h-.643a.321.321 0 0 0-.321.321v5.786a.321.321 0 0 0 .321.321z" transform="translate(2 1.483)" style="fill:#bdbdbd"/>
</svg>