<svg xmlns="http://www.w3.org/2000/svg" id="prefix__ico_camera_g" width="36" height="36" viewBox="0 0 36 36">
    <path id="prefix__사각형_62" d="M0 0h36v36H0z" data-name="사각형 62" style="opacity:0"/>
    <path id="prefix__빼기_2" d="M28.387 26.687H6.88a3.325 3.325 0 0 1-3.38-3.258v-10.8a3.327 3.327 0 0 1 3.38-3.254h5v-1.7A2.223 2.223 0 0 1 14.132 5.5h7a2.226 2.226 0 0 1 2.256 2.175v1.7h5a3.331 3.331 0 0 1 3.384 3.257v10.8a3.332 3.332 0 0 1-3.385 3.255zm-10.732-14.4a5.142 5.142 0 1 0 5.318 5.139 5.234 5.234 0 0 0-5.323-5.139zm8.2-2.129a2.1 2.1 0 0 0-.039 4.191l3.038.052h.037a2.095 2.095 0 0 0 .035-4.19l-3.038-.052z" data-name="빼기 2" transform="translate(.004 2.004)" style="fill:#bdbdbd;stroke:#bdbdbd"/>
</svg>
