<svg xmlns="http://www.w3.org/2000/svg" width="55" height="24" viewBox="0 0 55 24">
    <rect width="55" height="24" fill="#ff3c7b" rx="12"/>
    <text fill="#fff" font-family="NanumSquareB, NanumSquare" font-size="12px" letter-spacing="-0.025em" transform="translate(38 16)">
        <tspan x="-10.77" y="0">설정</tspan>
    </text>
    <g fill="none">
        <path stroke="#fff" stroke-linecap="round" stroke-linejoin="round" stroke-width="1.2px" d="M6.234 12.589l-1.318-.423a.762.762 0 0 1-.529-.725V9.5a.762.762 0 0 1 .529-.725l1.318-.423a.764.764 0 0 0 .378-1.182l-.562-.752a.761.761 0 0 1 .071-.995L7.342 4.2a.761.761 0 0 1 .995-.071l.752.562a.761.761 0 0 0 1.182-.378L10.695 3a.762.762 0 0 1 .725-.529h1.936a.764.764 0 0 1 .726.529l.423 1.317a.763.763 0 0 0 .958.493.782.782 0 0 0 .223-.116l.752-.562a.761.761 0 0 1 .995.071l1.222 1.222a.762.762 0 0 1 .071.995l-.562.752a.762.762 0 0 0 .153 1.066.8.8 0 0 0 .223.116l1.318.423a.762.762 0 0 1 .529.725v1.937a.762.762 0 0 1-.529.725l-1.318.423a.763.763 0 0 0-.492.959.754.754 0 0 0 .116.222l.562.752a.762.762 0 0 1-.071.995l-1.221 1.225a.761.761 0 0 1-.995.071l-.752-.562a.761.761 0 0 0-1.066.154.747.747 0 0 0-.116.223l-.423 1.317a.762.762 0 0 1-.726.529H11.42a.76.76 0 0 1-.725-.529l-.424-1.317a.762.762 0 0 0-.958-.493.8.8 0 0 0-.223.116l-.752.562a.761.761 0 0 1-.995-.071l-1.222-1.222a.761.761 0 0 1-.071-.995l.562-.752a.762.762 0 0 0-.154-1.071.782.782 0 0 0-.224-.111zM14 8.857a2.286 2.286 0 1 0 0 3.232 2.285 2.285 0 0 0 0-3.232z" transform="translate(3) translate(-.388 1.527)"/>
        <path d="M0 0H24V24H0z" transform="translate(3)"/>
    </g>
</svg>
