<svg xmlns="http://www.w3.org/2000/svg" id="ic_crown_y" width="26" height="16" viewBox="0 0 26 16">
    <path id="사각형_3327" fill="none" d="M0 0H26V16H0z" data-name="사각형 3327"/>
    <path id="패스_7662" fill="#febd56" d="M100.531 75.13h-.011a.977.977 0 0 0-.244 1.87 5.383 5.383 0 0 1-9.193-.144.984.984 0 0 0 .589-1.053 1 1 0 0 0-1.161-.819H90.5a.977.977 0 0 0-.236 1.87 5.4 5.4 0 0 1-9.188.177.987.987 0 0 0 .649-.932 1.011 1.011 0 0 0-2.021.025.991.991 0 0 0 .93.964v6.992a.68.68 0 0 0 .124.358.8.8 0 0 0 .046.076c.86 1.112 4.939 1.956 9.852 1.956a37.522 37.522 0 0 0 4.842-.3 13.292 13.292 0 0 0 2.273-.409 7.791 7.791 0 0 0 2.265-.846c.41-.261.644-.543.644-.838v-.071V77.087a.88.88 0 0 0 .171 0h.011a.994.994 0 1 0-.337-1.96z" data-name="패스 7662" transform="translate(-77.703 -72.968)"/>
</svg>
