<svg xmlns="http://www.w3.org/2000/svg" width="19" height="18" viewBox="0 0 19 18">
    <defs>
        <linearGradient id="v1a30tkhsa" x1=".5" x2=".5" y2="1" gradientUnits="objectBoundingBox">
            <stop offset="0" stop-color="#e8425c"/>
            <stop offset="1" stop-color="#ac2036"/>
        </linearGradient>
    </defs>
    <g>
        <g transform="translate(-15.818 -629) translate(16 629)">
            <rect width="19" height="18" fill="url(#v1a30tkhsa)" rx="9" transform="translate(-.182)"/>
        </g>
        <g fill="#ec455f" stroke="#ec455f" transform="translate(-15.818 -629) translate(15.818 629)">
            <rect width="18" height="18" stroke="none" rx="9"/>
            <rect width="17" height="17" x=".5" y=".5" fill="none" rx="8.5"/>
        </g>
        <path fill="#fff" d="M1.377-11.815h3.339a4.35 4.35 0 0 1 1.369.19 2.571 2.571 0 0 1 .939.528 2.084 2.084 0 0 1 .546.8 2.8 2.8 0 0 1 .178 1.007v.258A2.863 2.863 0 0 1 7.564-8 2.267 2.267 0 0 1 7-7.157a2.79 2.79 0 0 1-.945.577 3.761 3.761 0 0 1-1.338.215H2.948v3.4H1.377zM2.948-10.5v2.811h1.559a2.17 2.17 0 0 0 1.215-.295 1.189 1.189 0 0 0 .442-1.068v-.221a1.41 1.41 0 0 0-.11-.6.934.934 0 0 0-.313-.374 1.26 1.26 0 0 0-.485-.2 3.2 3.2 0 0 0-.614-.055z" transform="translate(-15.818 -629) translate(21.477 645.724)"/>
    </g>
</svg>
