<svg xmlns="http://www.w3.org/2000/svg" width="32" height="36" viewBox="0 0 32 36">
    <defs>
        <style>
            .cls-9{fill:#fff}.cls-2{fill:#FF3C7B}.cls-3{fill:#ff9d00}
        </style>
    </defs>
    <g id="medal_silver_b" transform="translate(-48 -322)">
        <g id="그룹_19122" data-name="그룹 19122" transform="translate(49.333 322.394)">
            <g id="그룹_19117" data-name="그룹 19117" transform="translate(3.408 18.144)">
                <path id="패스_18386" d="M90.456 515.782l5.108-14.471-6.917-2.441-5.107 14.471 4.712-2.333z" class="cls-2" data-name="패스 18386" transform="translate(-83.54 -498.869)"/>
                <path id="패스_18387" d="M116.845 515.782l-5.108-14.471 6.917-2.441 5.107 14.471-4.712-2.333z" class="cls-2" data-name="패스 18387" transform="translate(-101.026 -498.869)"/>
            </g>
            <g id="그룹_19120" data-name="그룹 19120">
                <g id="그룹_19118" data-name="그룹 19118">
                    <path id="패스_18388" d="M132.764 508.072l.193.059z" class="cls-3" data-name="패스 18388" transform="translate(-110.658 -486.432)"/>
                    <path id="패스_18389" d="M132.884 508.065l.1.065z" class="cls-3" data-name="패스 18389" transform="translate(-110.732 -486.427)"/>
                    <path id="패스_18390" d="M132.949 507.992l.052.12z" class="cls-3" data-name="패스 18390" transform="translate(-110.773 -486.382)"/>
                    <path id="패스_18391" fill="#9fa2a7" d="M98.822 454.574a1.894 1.894 0 0 0-2.446-.041 1.927 1.927 0 0 0-1.027-2.212c-.023-.012-.045-.022-.068-.032a1.9 1.9 0 0 0-2.332.67 1.917 1.917 0 0 0-1.632-1.834h-.013a1.9 1.9 0 0 0-2.082 1.3 1.907 1.907 0 0 0-2.083-1.295h-.012a1.918 1.918 0 0 0-1.632 1.837 1.9 1.9 0 0 0-2.362-.651 1.927 1.927 0 0 0-1.061 2.233 1.893 1.893 0 0 0-2.426.03l-.029.024a1.932 1.932 0 0 0-.386 2.436 1.9 1.9 0 0 0-2.341.742 1.935 1.935 0 0 0 .3 2.454 1.907 1.907 0 0 0-2.036 1.375 2.361 2.361 0 0 1-.589 4.163v.013a2.332 2.332 0 0 1 .585 4.129l.014.054a1.906 1.906 0 0 0 2.036 1.351 1.934 1.934 0 0 0-.324 2.418c.011.018.022.037.035.055a1.89 1.89 0 0 0 2.158.775L98.941 454.7c-.041-.044-.074-.088-.119-.126z" data-name="패스 18391" transform="translate(-74.569 -451.103)"/>
                    <path id="패스_18392" fill="#838588" d="M86.826 482.825a1.893 1.893 0 0 0 2.445.043 1.929 1.929 0 0 0 1.054 2.228 1.9 1.9 0 0 0 2.371-.65 1.916 1.916 0 0 0 1.631 1.836h.013a1.942 1.942 0 0 0 .276.02 1.909 1.909 0 0 0 1.807-1.318 1.905 1.905 0 0 0 2.083 1.3h.012a1.916 1.916 0 0 0 1.632-1.835 1.9 1.9 0 0 0 2.363.652 1.928 1.928 0 0 0 1.062-2.231 1.894 1.894 0 0 0 2.427-.029l.028-.024a1.934 1.934 0 0 0 .387-2.436 1.9 1.9 0 0 0 2.343-.74 1.937 1.937 0 0 0-.3-2.452 1.907 1.907 0 0 0 2.037-1.373 2.363 2.363 0 0 1 .593-4.162v-.041a2.332 2.332 0 0 1-.588-4.129l-.015-.052a1.907 1.907 0 0 0-2.035-1.353 1.933 1.933 0 0 0 .323-2.416l-.034-.055a1.9 1.9 0 0 0-2.33-.719 1.933 1.933 0 0 0-.283-2.322l-19.872 19.867a1.693 1.693 0 0 0 .17-.055 1.934 1.934 0 0 0 .4 2.446z" data-name="패스 18392" transform="translate(-81.756 -456.97)"/>
                </g>
                <g id="그룹_19119" data-name="그룹 19119" transform="translate(3.419 3.419)">
                    <path id="패스_18393" fill="#eef0f0" d="M106.065 471.352A11.248 11.248 0 1 1 94.817 460.1a11.248 11.248 0 0 1 11.248 11.252z" data-name="패스 18393" transform="translate(-83.569 -460.103)"/>
                    <path id="패스_18394" fill="#b7bcbe" d="M107.555 475.125a8.894 8.894 0 1 1-8.893-8.895 8.893 8.893 0 0 1 8.893 8.895z" data-name="패스 18394" transform="translate(-87.413 -463.903)"/>
                    <path id="패스_18395" fill="#a1a1a1" d="M98.66 467.227a8.894 8.894 0 0 1 8.879 8.4c.009-.165.014-.331.014-.5a8.894 8.894 0 1 0-17.787 0c0 .168.006.333.014.5a8.894 8.894 0 0 1 8.88-8.4z" data-name="패스 18395" transform="translate(-87.412 -463.903)"/>
                </g>
            </g>
            <g id="그룹_19121" data-name="그룹 19121" transform="translate(6.185 7.996)">
                <path id="패스_18396" d="M92.931 477.083a1.04 1.04 0 1 1-1.04-1.04 1.041 1.041 0 0 1 1.04 1.04z" class="cls-9" data-name="패스 18396" transform="translate(-90.85 -474.565)"/>
                <path id="패스_18397" d="M99.8 472.7a.545.545 0 1 1-.545-.545.545.545 0 0 1 .545.545z" class="cls-9" data-name="패스 18397" transform="translate(-95.726 -472.152)"/>
            </g>
        </g>
        <text id="_2" fill="#fff" stroke="#9d9fa2" stroke-linejoin="round" stroke-width="2px" data-name="2" font-family="NanumSquareEB, NanumSquare" font-size="13px" transform="translate(64 342)">
            <tspan x="-4.03" y="0">2</tspan>
        </text>
        <text id="_2-2" fill="#fff" data-name="2" font-family="NanumSquareEB, NanumSquare" font-size="13px" transform="translate(64 342)">
            <tspan x="-4.03" y="0">2</tspan>
        </text>
    </g>
</svg>
