
<svg xmlns="http://www.w3.org/2000/svg" xmlns:xlink="http://www.w3.org/1999/xlink" id="prefix__star_yellow_s" width="16" height="16" viewBox="0 0 16 16">
    <defs>
        <linearGradient id="prefix__linear-gradient" x1=".42" x2=".584" y1=".118" y2="1.003" gradientUnits="objectBoundingBox">
            <stop offset="0" stop-color="#fde244"/>
            <stop offset=".224" stop-color="#fddd43"/>
            <stop offset=".474" stop-color="#fdcf41"/>
            <stop offset=".723" stop-color="#ffbb3f"/>
        </linearGradient>
        <linearGradient id="prefix__linear-gradient-2" x1=".844" x2="-.033" y1="-.063" y2=".895" gradientUnits="objectBoundingBox">
            <stop offset="0" stop-color="#fff" stop-opacity=".31"/>
            <stop offset=".21" stop-color="#fff" stop-opacity=".29"/>
            <stop offset=".445" stop-color="#fff" stop-opacity=".239"/>
            <stop offset=".693" stop-color="#fff" stop-opacity=".153"/>
            <stop offset=".946" stop-color="#fff" stop-opacity=".031"/>
            <stop offset="1" stop-color="#fff" stop-opacity="0"/>
        </linearGradient>
        <linearGradient id="prefix__linear-gradient-3" x1=".463" x2=".627" y1=".092" y2="1.168" gradientUnits="objectBoundingBox">
            <stop offset="0" stop-color="#fdad2b"/>
            <stop offset=".156" stop-color="#fca82d"/>
            <stop offset=".33" stop-color="#fa9a34"/>
            <stop offset=".513" stop-color="#f6843f"/>
            <stop offset=".701" stop-color="#f1654e"/>
            <stop offset=".86" stop-color="#ec455f"/>
        </linearGradient>
        <linearGradient id="prefix__linear-gradient-4" x1="1.058" x2=".262" y1="-.421" y2=".517" xlink:href="#prefix__linear-gradient-2"/>
        <clipPath id="prefix__clip-path">
            <path id="prefix__패스_4112" d="M2.775.227l.211 1.022a.284.284 0 0 0 .168.2l.961.406a.284.284 0 0 1 .03.508l-.907.516a.284.284 0 0 0-.142.223l-.089 1.04a.284.284 0 0 1-.474.186l-.771-.7a.284.284 0 0 0-.256-.067L.49 3.8a.284.284 0 0 1-.323-.394L.6 2.455a.284.284 0 0 0-.016-.264L.042 1.3A.284.284 0 0 1 .316.869l1.037.115A.284.284 0 0 0 1.6.888L2.282.1a.284.284 0 0 1 .493.127z" class="prefix__cls-1" data-name="패스 4112"/>
        </clipPath>
        <clipPath id="prefix__clip-path-2">
            <path id="prefix__패스_4115" d="M4.851.256l1.429 1.89a.645.645 0 0 0 .543.255L9.19 2.3a.645.645 0 0 1 .557 1.01L8.391 5.253a.645.645 0 0 0-.075.6l.831 2.219a.645.645 0 0 1-.791.843L6.089 8.22a.645.645 0 0 0-.589.113L3.647 9.809A.645.645 0 0 1 2.6 9.317l-.045-2.369a.645.645 0 0 0-.289-.526L.289 5.116a.645.645 0 0 1 .145-1.147l2.239-.775a.645.645 0 0 0 .411-.438L3.715.473A.645.645 0 0 1 4.851.256z" class="prefix__cls-1" data-name="패스 4115"/>
        </clipPath>
        <style>
            .prefix__cls-1{fill:none}.prefix__cls-10{stroke:none}
        </style>
    </defs>
    <g id="prefix__별" transform="translate(1.778 2.409)">
        <g id="prefix__그룹_9728" data-name="그룹 9728" transform="rotate(5.13 4.31 93.733)">
            <g id="prefix__패스_4110" fill="url(#prefix__linear-gradient)" stroke-linecap="round" stroke-linejoin="round" data-name="패스 4110">
                <path d="M2.723 4.656c-.132 0-.26-.05-.358-.14l-.771-.702c-.007-.006-.015-.01-.023-.01l-.008.002-1.016.237c-.04.01-.082.014-.124.014-.18 0-.348-.092-.447-.245-.098-.153-.112-.343-.037-.51l.43-.95c.004-.01.004-.022-.002-.032l-.54-.893C-.272 1.26-.275 1.06-.18.89-.086.721.092.617.283.617l.06.003 1.038.115c.014 0 .023-.004.03-.011l.682-.79c.102-.117.248-.184.402-.184.257 0 .473.175.525.426l.21 1.022c.003.011.01.02.02.025l.962.405c.189.08.314.256.326.46.012.205-.091.395-.269.496l-.907.517c-.01.005-.016.015-.017.026l-.088 1.04c-.024.279-.253.49-.534.49z" class="prefix__cls-10"/>
                <path fill="#ffbb3f" d="M2.495 0c-.077 0-.155.031-.213.098l-.683.79c-.054.062-.133.098-.215.098-.01 0-.02 0-.03-.002L.315.869.283.867c-.216 0-.357.239-.241.43l.539.894c.048.08.054.179.016.264l-.43.95c-.088.194.059.402.256.402.022 0 .044-.002.067-.008l1.016-.237c.022-.005.043-.007.065-.007.07 0 .138.026.191.074l.771.703c.057.051.124.074.19.074.138 0 .271-.101.285-.26l.088-1.04c.008-.093.061-.176.143-.223l.906-.516c.205-.116.187-.417-.03-.508l-.961-.406c-.086-.036-.15-.113-.168-.204L2.775.227C2.745.084 2.622 0 2.495 0m0-.5c.377 0 .693.257.77.626l.188.91.856.362c.277.117.46.376.478.676.018.3-.133.579-.394.728l-.808.46-.08.926c-.034.41-.37.718-.782.718-.194 0-.381-.073-.526-.205l-.688-.626-.905.211c-.06.014-.12.021-.18.021-.267 0-.512-.134-.658-.36-.145-.224-.165-.504-.055-.747l.383-.848-.48-.796c-.146-.241-.151-.544-.012-.79.139-.246.4-.399.68-.4.03 0 .06.003.089.006l.924.102.609-.703c.15-.172.365-.271.591-.271z"/>
            </g>
            <g id="prefix__그룹_9727" data-name="그룹 9727" opacity="0.54">
                <g id="prefix__그룹_9726" clip-path="url(#prefix__clip-path)" data-name="그룹 9726">
                    <path id="prefix__패스_4111" fill="url(#prefix__linear-gradient-2)" d="M3.647 0A28.132 28.132 0 0 0 .608.608L0 1.494l.3 2.692 4.754-2.727z" data-name="패스 4111" transform="translate(-.765 -1.163)"/>
                </g>
            </g>
        </g>
        <g id="prefix__패스_4113" fill="url(#prefix__linear-gradient-3)" stroke-linejoin="round" data-name="패스 4113" transform="rotate(-6.02 15.11 .795)">
            <path d="M3.248 10.2c-.494 0-.888-.385-.898-.878l-.045-2.369c-.002-.13-.068-.25-.177-.322L.152 5.325c-.287-.19-.438-.518-.395-.859.043-.34.271-.621.595-.733l2.24-.775c.122-.042.216-.142.251-.268L3.474.407c.109-.393.457-.657.866-.657.28 0 .54.13.71.356l1.43 1.89c.073.098.191.156.314.156h.018l2.367-.105.041-.001c.334 0 .637.184.792.481.155.297.132.652-.06.926L8.596 5.396c-.075.106-.092.243-.046.364L9.38 7.98c.105.279.068.578-.1.822-.169.243-.443.388-.734.388-.088 0-.177-.014-.264-.04l-2.267-.69c-.037-.01-.076-.017-.114-.017-.09 0-.177.03-.247.086l-1.853 1.477c-.16.128-.352.196-.554.196z" class="prefix__cls-10"/>
            <path fill="#f16350" d="M4.34 0c-.272 0-.54.17-.625.473l-.631 2.284c-.057.204-.21.368-.41.437l-2.24.775c-.505.175-.59.853-.145 1.147l1.977 1.306c.177.117.285.314.29.526l.044 2.37c.007.377.318.633.648.633.136 0 .276-.044.399-.142L5.5 8.333c.115-.092.257-.14.402-.14.062 0 .126.008.187.027l2.267.69c.065.02.129.029.191.029.428 0 .764-.436.6-.872l-.831-2.219c-.075-.199-.047-.421.075-.595L9.747 3.31c.3-.43-.01-1.014-.527-1.014h-.03l-2.367.106h-.029c-.201 0-.392-.094-.514-.256L4.85.256C4.72.082 4.528 0 4.34 0m0-.5c.36 0 .692.166.91.455l1.429 1.89c.027.036.07.057.115.057H6.8l2.367-.105.053-.001c.427 0 .816.236 1.014.616.197.38.168.833-.077 1.184L8.801 5.54c-.027.039-.034.089-.017.134l.831 2.218c.134.357.087.74-.13 1.052-.214.31-.565.496-.938.496-.113 0-.226-.017-.337-.05l-2.266-.69c-.014-.005-.028-.007-.042-.007-.033 0-.065.012-.09.032L3.957 10.2c-.206.164-.451.25-.71.25-.632 0-1.136-.493-1.148-1.123l-.044-2.37c-.001-.047-.026-.091-.065-.117L.014 5.533c-.366-.241-.56-.662-.505-1.098.055-.435.347-.795.762-.939l2.239-.774c.045-.016.08-.052.092-.098L3.233.34c.14-.502.584-.84 1.107-.84z"/>
        </g>
        <g id="prefix__그룹_9730" data-name="그룹 9730" transform="rotate(-6.02 15.11 .795)">
            <g id="prefix__그룹_9729" clip-path="url(#prefix__clip-path-2)" data-name="그룹 9729">
                <path id="prefix__패스_4114" fill="url(#prefix__linear-gradient-4)" d="M5.632 0C5.271.012 0 3.348 0 3.348L.293 7.58l2.947 3.54 6.689-9.46z" data-name="패스 4114" transform="translate(-2.631 -1.233)"/>
            </g>
        </g>
    </g>
</svg>
