
<svg xmlns="http://www.w3.org/2000/svg" id="prefix__appset_green" width="32" height="32" viewBox="0 0 32 32">
    <defs>
        <style>
            .prefix__cls-2{fill:#fff;stroke:#000;stroke-linecap:round;stroke-linejoin:round}
        </style>
    </defs>
    <rect id="prefix__사각형_806" width="32" height="32" data-name="사각형 806" rx="12" style="fill:#b7e598"/>
    <g id="prefix__그룹_15289" data-name="그룹 15289" transform="translate(8.972 9.4)">
        <path id="prefix__선_118" d="M0 0L0 13.626" class="prefix__cls-2" data-name="선 118" transform="translate(13.63)"/>
        <path id="prefix__사각형_817" d="M0 0H3.536V2.032H0z" class="prefix__cls-2" data-name="사각형 817" transform="translate(11.862 8.979)"/>
        <path id="prefix__선_119" d="M0 0L2 0" class="prefix__cls-2" data-name="선 119" transform="translate(12.63)"/>
        <path id="prefix__선_120" d="M2 0L0 0" class="prefix__cls-2" data-name="선 120" transform="translate(12.63 13.626)"/>
        <path id="prefix__선_121" d="M0 0L0 13.626" class="prefix__cls-2" data-name="선 121" transform="translate(7.699)"/>
        <path id="prefix__사각형_818" d="M0 0H3.536V2.032H0z" class="prefix__cls-2" data-name="사각형 818" transform="translate(5.931 5.797)"/>
        <path id="prefix__선_122" d="M0 0L2 0" class="prefix__cls-2" data-name="선 122" transform="translate(6.699)"/>
        <path id="prefix__선_123" d="M2 0L0 0" class="prefix__cls-2" data-name="선 123" transform="translate(6.699 13.626)"/>
        <path id="prefix__선_124" d="M0 0L0 13.626" class="prefix__cls-2" data-name="선 124" transform="translate(1.768)"/>
        <path id="prefix__사각형_819" d="M0 0H3.536V2.032H0z" class="prefix__cls-2" data-name="사각형 819" transform="translate(0 2.691)"/>
        <path id="prefix__선_125" d="M0 0L2 0" class="prefix__cls-2" data-name="선 125" transform="translate(.768)"/>
        <path id="prefix__선_126" d="M2 0L0 0" class="prefix__cls-2" data-name="선 126" transform="translate(.768 13.626)"/>
    </g>
</svg>
