<svg xmlns="http://www.w3.org/2000/svg" id="prefix__ic_notice_m" width="24" height="24" viewBox="0 0 24 24">
    <defs>
        <style>
            .prefix__cls-2{fill:#fff;stroke:#424242;stroke-linecap:round;stroke-linejoin:round}
        </style>
    </defs>
    <g id="prefix__사각형_807" data-name="사각형 807" style="stroke:#707070;opacity:0;fill:#fff">
        <path d="M0 0H24V24H0z" style="stroke:none"/>
        <path d="M0.5 0.5H23.5V23.5H0.5z" style="fill:none"/>
    </g>
    <g id="prefix__그룹_10459" data-name="그룹 10459" transform="translate(3.939 4.333)">
        <circle id="prefix__타원_132" cx="2.045" cy="2.045" r="2.045" class="prefix__cls-2" data-name="타원 132" transform="translate(0 4.384)"/>
        <path id="prefix__패스_4268" d="M346.175 79.625l-8.614 3.347V71.364l8.614 3.347z" class="prefix__cls-2" data-name="패스 4268" transform="translate(-335.516 -70.739)"/>
        <path id="prefix__사각형_802" d="M0 0h3.091a2.457 2.457 0 0 1 2.457 2.457 2.457 2.457 0 0 1-2.457 2.457H0V0z" class="prefix__cls-2" data-name="사각형 802" transform="translate(10.659 3.972)"/>
        <path id="prefix__선_108" d="M0 0L0 12.857" class="prefix__cls-2" data-name="선 108" transform="translate(2.045)"/>
        <path id="prefix__패스_4269" d="M352.081 91.891a1.616 1.616 0 0 1-1.617-1.617l.62-5.579h3.233l-.62 5.579a1.616 1.616 0 0 1-1.616 1.617z" class="prefix__cls-2" data-name="패스 4269" transform="translate(-340.424 -75.811)"/>
    </g>
</svg>
