<svg xmlns="http://www.w3.org/2000/svg" id="calender_b" width="32" height="32" viewBox="0 0 32 32">
    <defs>
        <style>
            .cls-2{fill:#fff;stroke:#000;stroke-linecap:round;stroke-linejoin:round}
        </style>
    </defs>
    <g id="그룹_13547" transform="translate(6.265 7.621)">
        <path id="사각형_2056" d="M0 0H19.471V11.119H0z" class="cls-2" transform="translate(0 5.542)"/>
        <path id="사각형_2057" d="M0 0H19.471V4.039H0z" class="cls-2" transform="translate(0 1.503)"/>
        <path id="선_132" d="M0 3.006L0 0" class="cls-2" transform="translate(2.679)"/>
        <path id="선_133" d="M0 3.006L0 0" class="cls-2" transform="translate(6.207)"/>
        <path id="선_134" d="M0 3.006L0 0" class="cls-2" transform="translate(9.736)"/>
        <path id="선_135" d="M0 3.006L0 0" class="cls-2" transform="translate(13.264)"/>
        <path id="선_136" d="M0 3.006L0 0" class="cls-2" transform="translate(16.792)"/>
        <path id="선_137" d="M0 0L0.922 0" class="cls-2" transform="translate(3.627 9.41)"/>
        <path id="선_138" d="M0 0L0.922 0" class="cls-2" transform="translate(7.392 9.41)"/>
        <path id="선_139" d="M0 0L0.922 0" class="cls-2" transform="translate(11.157 9.41)"/>
        <path id="선_140" d="M0 0L0.922 0" class="cls-2" transform="translate(14.922 9.41)"/>
        <path id="선_141" d="M0 0L0.922 0" class="cls-2" transform="translate(3.627 12.793)"/>
        <path id="선_142" d="M0 0L0.922 0" class="cls-2" transform="translate(7.392 12.793)"/>
        <path id="선_143" d="M0 0L0.922 0" class="cls-2" transform="translate(11.157 12.793)"/>
        <path id="선_144" d="M0 0L0.922 0" class="cls-2" transform="translate(14.922 12.793)"/>
    </g>
</svg>
