
<svg xmlns="http://www.w3.org/2000/svg" id="choose_circle_w" width="32" height="32" viewBox="0 0 32 32">
    <defs>
        <style>
            .cls-3{fill:#fff;stroke:#000;stroke-linecap:round;stroke-linejoin:round;stroke-width:1.2px}
        </style>
    </defs>
    <path id="사각형_314" fill="rgba(255,255,255,0)" d="M0 0H24V24H0z" data-name="사각형 314" opacity="0.51" transform="translate(4 4)"/>
    <g id="사각형_3110" fill="#fff" stroke="#e0e0e0" data-name="사각형 3110">
        <rect width="32" height="32" stroke="none" rx="16"/>
        <rect width="31" height="31" x=".5" y=".5" fill="none" rx="15.5"/>
    </g>
    <g id="그룹_10497" data-name="그룹 10497" transform="translate(7.721 8.333)">
        <path id="선_118" d="M0 0L0 14.733" class="cls-3" data-name="선 118" transform="translate(14.616)"/>
        <path id="사각형_817" d="M0 0H4.065V2.336H0z" class="cls-3" data-name="사각형 817" transform="translate(12.583 9.601)"/>
        <path id="선_119" d="M0 0L2.3 0" class="cls-3" data-name="선 119" transform="translate(13.466)"/>
        <path id="선_120" d="M2.3 0L0 0" class="cls-3" data-name="선 120" transform="translate(13.466 14.733)"/>
        <path id="선_121" d="M0 0L0 14.733" class="cls-3" data-name="선 121" transform="translate(8.324)"/>
        <path id="사각형_818" d="M0 0H4.065V2.336H0z" class="cls-3" data-name="사각형 818" transform="translate(6.292 6.198)"/>
        <path id="선_122" d="M0 0L2.3 0" class="cls-3" data-name="선 122" transform="translate(7.175)"/>
        <path id="선_123" d="M2.3 0L0 0" class="cls-3" data-name="선 123" transform="translate(7.175 14.733)"/>
        <path id="선_124" d="M0 0L0 14.733" class="cls-3" data-name="선 124" transform="translate(2.033)"/>
        <path id="사각형_819" d="M0 0H4.065V2.336H0z" class="cls-3" data-name="사각형 819" transform="translate(0 2.877)"/>
        <path id="선_125" d="M0 0L2.3 0" class="cls-3" data-name="선 125" transform="translate(.883)"/>
        <path id="선_126" d="M2.3 0L0 0" class="cls-3" data-name="선 126" transform="translate(.883 14.733)"/>
    </g>
</svg>
