<svg xmlns="http://www.w3.org/2000/svg" id="prefix__ic_heart_s" width="16" height="16" viewBox="0 0 16 16">
    <path id="prefix__사각형_41" d="M0 0H16V16H0z" data-name="사각형 41" style="fill:none"/>
    <g id="prefix__패스_440" data-name="패스 440" style="fill:none">
        <path d="M12.721 10.348l-4.231 4.48-4.227-4.478a3.312 3.312 0 0 1-.03-4.315 2.593 2.593 0 0 1 1.944-.911 2.671 2.671 0 0 1 2.315 1.444 2.671 2.671 0 0 1 2.315-1.444 2.9 2.9 0 0 1 2.728 3.05 3.239 3.239 0 0 1-.814 2.174z" style="stroke:none" transform="translate(-.535 -2.31)"/>
        <path d="M8.49 13.663l3.644-3.858c.382-.424.601-1.018.6-1.631 0-1.24-.864-2.25-1.927-2.25-.655 0-1.258.385-1.615 1.03l-.7 1.268-.7-1.267c-.357-.646-.96-1.031-1.615-1.031-.504 0-.98.227-1.344.64-.38.432-.588 1.011-.584 1.63.004.615.218 1.187.602 1.613l3.64 3.856m0 1.166l-4.228-4.48c-1.073-1.182-1.087-3.114-.03-4.314.513-.583 1.213-.911 1.944-.911.943 0 1.819.546 2.315 1.444.496-.898 1.371-1.444 2.315-1.444 1.507 0 2.728 1.366 2.728 3.05 0 .817-.293 1.6-.814 2.174l-4.23 4.48z" style="fill:#e84d6f;stroke:none" transform="translate(-.535 -2.31)"/>
    </g>
</svg>
