<svg xmlns="http://www.w3.org/2000/svg" id="prefix__ic_people_s" width="16" height="16" viewBox="0 0 16 16">
    <defs>
        <style>
            .prefix__cls-1{fill:none;stroke:#febd56;stroke-linecap:round;stroke-linejoin:round;stroke-width:.8px}
        </style>
    </defs>
    <g id="prefix__Vector_Smart_Object" data-name="Vector Smart Object" transform="translate(2.778 3.477)">
        <g id="prefix__그룹_9365" data-name="그룹 9365">
            <g id="prefix__그룹_9364" data-name="그룹 9364" transform="translate(7.14)">
                <path id="prefix__패스_3946" d="M15.2 4.82a2.3 2.3 0 0 1 1.816 2.251 2.349 2.349 0 0 1-1.107 1.97 3.869 3.869 0 0 1 3.164 3.541l.042.253H17.87" class="prefix__cls-1" data-name="패스 3946" transform="translate(-15.198 -4.82)"/>
            </g>
            <path id="prefix__패스_3947" d="M8.193 10.471a2.45 2.45 0 1 1 2.425-2.45 2.437 2.437 0 0 1-2.425 2.45zm0 0q3.714 0 4.334 4.083H3.858q.619-4.083 4.335-4.083z" class="prefix__cls-1" data-name="패스 3947" transform="translate(-3.858 -5.571)"/>
        </g>
    </g>
    <path id="prefix__사각형_454" d="M0 0H16V16H0z" data-name="사각형 454" style="fill:none"/>
</svg>
