<svg xmlns="http://www.w3.org/2000/svg" id="prefix__ico-like-g-s" width="16" height="16" viewBox="0 0 16 16">
    <path id="prefix__사각형_41" d="M0 0H16V16H0z" data-name="사각형 41" style="fill:none"/>
    <g id="prefix__패스_440" data-name="패스 440" style="fill:#757575">
        <path d="M8.49 14.246l-3.933-4.168C3.62 9.043 3.61 7.348 4.533 6.3c.44-.5 1.024-.775 1.644-.775.802 0 1.536.463 1.965 1.237l.35.634.35-.634c.428-.774 1.163-1.237 1.965-1.237 1.284 0 2.328 1.189 2.328 2.65 0 .712-.257 1.405-.707 1.903L8.49 14.246z" style="stroke:none" transform="translate(-.535 -2.31)"/>
        <path d="M8.49 13.663l3.644-3.858c.382-.424.601-1.018.6-1.631 0-1.24-.864-2.25-1.927-2.25-.655 0-1.258.385-1.615 1.03l-.7 1.268-.7-1.267c-.357-.646-.96-1.031-1.615-1.031-.504 0-.98.227-1.344.64-.38.432-.588 1.011-.584 1.63.004.615.218 1.187.602 1.613l3.64 3.856m0 1.166l-4.228-4.48c-1.073-1.182-1.087-3.114-.03-4.314.513-.583 1.213-.911 1.944-.911.943 0 1.819.546 2.315 1.444.496-.898 1.371-1.444 2.315-1.444 1.507 0 2.728 1.366 2.728 3.05 0 .817-.293 1.6-.814 2.174l-4.23 4.48z" style="stroke:none;fill:#757575" transform="translate(-.535 -2.31)"/>
    </g>
</svg>
