<svg xmlns="http://www.w3.org/2000/svg" id="ic_people" width="18" height="18" viewBox="0 0 18 18">
    <defs>
        <style>
            .cls-1{opacity:.5}.cls-2,.cls-3{fill:none}.cls-2{stroke:#fff;stroke-linecap:round;stroke-linejoin:round}
        </style>
    </defs>
    <g id="ic_people-2" data-name="ic_people">
        <g id="Vector_Smart_Object" class="cls-1" data-name="Vector Smart Object" transform="translate(-1.858 -2.439)">
            <g id="그룹_9365" data-name="그룹 9365" transform="translate(3.858 4.82)">
                <g id="그룹_9364" data-name="그룹 9364" transform="translate(9.651 .62)">
                    <path id="패스_3946" d="M15.2 4.82a3.114 3.114 0 0 1 2.455 3.042 3.176 3.176 0 0 1-1.5 2.663c2.38.467 3.816 2.071 4.277 4.787l.057.342H18.81" class="cls-2" data-name="패스 3946" transform="translate(-15.198 -4.82)"/>
                </g>
                <path id="패스_3947" d="M9.718 12.195A3.312 3.312 0 1 1 13 8.883a3.295 3.295 0 0 1-3.282 3.312zm0 0q5.021 0 5.859 5.519H3.858q.842-5.52 5.86-5.519z" class="cls-2" data-name="패스 3947" transform="translate(-3.858 -4.952)"/>
            </g>
        </g>
        <path id="사각형_454" d="M0 0h18v18H0z" class="cls-3" data-name="사각형 454"/>
    </g>
</svg>
