<svg xmlns="http://www.w3.org/2000/svg" width="22.502" height="17" viewBox="0 0 22.502 17">
    <g>
        <g data-name="그룹 14983">
            <path d="M23.159 69.002H1.341A.329.329 0 0 1 1 68.687v-11.66a.329.329 0 0 1 .341-.315h21.818a.329.329 0 0 1 .341.315v11.659a.33.33 0 0 1-.341.316zm-21.477-.631h21.136V57.343H1.682z" data-name="패스 6847" transform="translate(-1 -52.01)"/>
        </g>
        <g data-name="그룹 14984">
            <path d="M23.16 57.394H1.341A.341.341 0 0 1 1 57.053v-4.7a.341.341 0 0 1 .341-.341h21.82a.341.341 0 0 1 .341.341v4.7a.342.342 0 0 1-.342.341zm-21.478-.682h21.137v-4.02H1.682z" data-name="패스 6849" transform="translate(-1 -52.01)"/>
        </g>
        <g data-name="그룹 14985">
            <path d="M19.933 69.003H4.568a.341.341 0 0 1-.341-.341v-1.6a.489.489 0 0 1 .448-.49l2.189-.191a5.58 5.58 0 0 1 .518-1.249l-1.414-1.687a.488.488 0 0 1 .029-.664l1.156-1.156a.489.489 0 0 1 .664-.029l1.684 1.413a5.553 5.553 0 0 1 1.25-.519l.191-2.189a.488.488 0 0 1 .489-.449h1.637a.488.488 0 0 1 .489.449l.191 2.188a5.553 5.553 0 0 1 1.25.519l1.684-1.414a.488.488 0 0 1 .664.029l1.156 1.156a.489.489 0 0 1 .03.663l-1.414 1.685a5.58 5.58 0 0 1 .519 1.249l2.189.191a.489.489 0 0 1 .449.49v1.6a.34.34 0 0 1-.342.346zM4.91 68.321h14.682v-1.087l-2.152-.188a.487.487 0 0 1-.43-.368 4.868 4.868 0 0 0-.548-1.318.489.489 0 0 1 .043-.563l1.39-1.656-.909-.909-1.655 1.389a.487.487 0 0 1-.564.044 4.865 4.865 0 0 0-1.318-.548.488.488 0 0 1-.368-.429l-.188-2.153h-1.285l-.188 2.152a.488.488 0 0 1-.368.43 4.873 4.873 0 0 0-1.318.548.49.49 0 0 1-.564-.044l-1.656-1.39-.909.909 1.389 1.655a.488.488 0 0 1 .044.565 4.884 4.884 0 0 0-.547 1.317.488.488 0 0 1-.429.367l-2.152.188v1.086zm14.858-1.072zm-12.312-2.24zm10.566-1.745zm-11.537 0zm2.9-.184zm4.232-.623zm3.248-.349zm-3.985-1.746zm-1.255 0z" data-name="패스 6851" transform="translate(-1 -52.01)"/>
        </g>
        <g data-name="그룹 14986">
            <path d="M14.509 69.01l-4.519-.007a.34.34 0 0 1-.321-.228 2.667 2.667 0 0 1-.151-.9 2.733 2.733 0 1 1 5.313.9.339.339 0 0 1-.322.235zm-4.263-.689l4.007.007a2.052 2.052 0 1 0-4.054-.45 2.087 2.087 0 0 0 .047.443z" data-name="패스 6853" transform="translate(-1 -52.01)"/>
        </g>
        <g data-name="그룹 14987">
            <path d="M20.676 55.07h-5.95a.341.341 0 0 1 0-.682h5.95a.341.341 0 0 1 0 .682z" data-name="패스 6854" transform="translate(-1 -52.01)"/>
        </g>
        <g data-name="그룹 14991">
            <g data-name="그룹 14988">
                <path d="M1.023.682H.341a.341.341 0 1 1 0-.682h.682a.341.341 0 1 1 0 .682z" data-name="패스 6855" transform="translate(-1 -52.01) translate(3.564 54.388)"/>
            </g>
            <g data-name="그룹 14989">
                <path d="M4.081.682H2.552a.341.341 0 1 1 0-.682h1.529a.341.341 0 0 1 0 .682z" data-name="패스 6856" transform="translate(-1 -52.01) translate(3.564 54.388)"/>
            </g>
            <g data-name="그룹 14990">
                <path d="M6.292.682H5.61a.341.341 0 1 1 0-.682h.682a.341.341 0 1 1 0 .682z" data-name="패스 6857" transform="translate(-1 -52.01) translate(3.564 54.388)"/>
            </g>
        </g>
    </g>
</svg>
