<svg xmlns="http://www.w3.org/2000/svg" width="80" height="80" viewBox="0 0 80 80">
    <defs>
        <clipPath id="prefix__clip-path">
            <path id="prefix__사각형_491" d="M0 0H80V80H0z" data-name="사각형 491" transform="translate(1057 -1)" style="stroke:#707070;fill:#fff"/>
        </clipPath>
        <style>
            .prefix__cls-11,.prefix__cls-3,.prefix__cls-5,.prefix__cls-8{stroke:#707070}.prefix__cls-3,.prefix__cls-4,.prefix__cls-8{fill:none}.prefix__cls-3,.prefix__cls-4{stroke-linecap:round;stroke-linejoin:round}.prefix__cls-5{fill:#ededed}.prefix__cls-6{fill:#632beb;stroke:#632beb}.prefix__cls-11,.prefix__cls-13,.prefix__cls-9{fill:#707070}.prefix__cls-8{stroke-miterlimit:10}.prefix__cls-12,.prefix__cls-13{stroke:none}
        </style>
    </defs>
    <g id="prefix__img" transform="translate(-1057 1)">
        <g id="prefix__그룹_9753" data-name="그룹 9753" transform="translate(990.755 -186.373)">
            <g id="prefix__그룹_9752" data-name="그룹 9752" transform="translate(82.922 189.438)">
                <g id="prefix___4" data-name="4" transform="translate(0 51.11)">
                    <path id="prefix__패스_4114" d="M134.5 396.178l1.543-4.671c-1.307-.322-2.429-.659-3.329-.957a48.9 48.9 0 0 1-5.144-2.529 26.835 26.835 0 0 1-3.453-2.387s-1.382-4.943-2.918-3.012a5.617 5.617 0 0 0-.591 1.589c-1.308-.729-4.273-1.911-5.872.783-.032.05-.064.1-.1.162-.621 1.119-1.111 3.623 4.626 6.026 0 0 4.7 1.964 10.1 4.168a31.4 31.4 0 0 0 4.89 1.486z" class="prefix__cls-3" data-name="패스 4114" transform="translate(-114.286 -382.174)"/>
                </g>
                <g id="prefix__Layer_21" data-name="Layer 21" transform="translate(18.515 61.437)">
                    <path id="prefix__패스_4115" d="M188.756 430.729c-2.954 6.272-6.8 18.8 8.408 18.732h.17c6.786.029 9.778-2.449 10.748-5.759-1.21-4.129-2.679-8.71-3.545-11.368-3.848 2.667-7.811 5.9-7.968 6.064-1.499-1.154-5.633-5.398-7.813-7.669z" class="prefix__cls-3" data-name="패스 4115" transform="translate(-186.037 -428.527)"/>
                    <g id="prefix__패스_4116" class="prefix__cls-4" data-name="패스 4116">
                        <path d="M270.813 444.912s-9.223-21.012-10.43-22.412a1.879 1.879 0 0 0-1.748-.128 2.067 2.067 0 0 0-.776 1.63s2.443 7.334 4.285 13.621a54.77 54.77 0 0 1 2.007 8.252s-2.218 4.244 0 3.818a5.465 5.465 0 0 0 1.387-.75c.392 1.281 1.578 3.859 4.319 2.94.052-.016.107-.034.164-.055 1.114-.404 3.013-1.848.792-6.916z" class="prefix__cls-12" transform="translate(-239.325 -422.194)"/>
                        <path d="M268.755 452.08c.336 0 .703-.06 1.103-.193.052-.016.107-.034.164-.055l.003-.001c1.11-.407 3.01-1.851.788-6.92 0 0-9.223-21.007-10.43-22.407 0 0-.513-.31-1.08-.31-.224 0-.456.048-.668.182-.363.229-.669.708-.776 1.63 0 0 2.443 7.333 4.285 13.62 1.07 3.651 1.938 6.949 2.007 8.253 0 0-2.01 3.848-.289 3.848.087 0 .183-.01.29-.03 0 0 .78-.272 1.387-.75.335 1.093 1.249 3.133 3.216 3.133m0 1v-1 1c-1.164 0-2.201-.53-3.002-1.533-.292-.366-.526-.76-.712-1.14-.295.14-.516.218-.561.234-.046.016-.092.028-.14.038-.166.031-.327.048-.478.048-.623 0-1.131-.271-1.43-.763-.397-.658-.351-1.603.146-2.975.194-.535.415-1.02.553-1.305-.1-.895-.54-2.978-1.946-7.776-1.816-6.197-4.25-13.513-4.275-13.586-.046-.14-.061-.286-.044-.432.131-1.132.547-1.926 1.235-2.36.354-.223.758-.336 1.201-.336.805 0 1.472.378 1.597.453.091.055.172.124.241.204.254.294.849.984 5.822 11.97 2.43 5.37 4.743 10.636 4.767 10.689 1.154 2.634 1.41 4.74.762 6.261-.51 1.196-1.435 1.747-2.122 1.999l-.017.006c-.069.025-.132.046-.191.064-.481.16-.954.24-1.406.24z" class="prefix__cls-13" transform="translate(-239.325 -422.194)"/>
                    </g>
                </g>
                <g id="prefix__토끼" transform="translate(10.117)">
                    <g id="prefix__오른귀_copy_2" data-name="오른귀 copy 2" transform="translate(19.137 6.931)">
                        <g id="prefix__그룹_9750" data-name="그룹 9750">
                            <path id="prefix__패스_4117" d="M230.238 226.491a55.666 55.666 0 0 1 .711-8.266 46.1 46.1 0 0 1 1.042-5.044 3.575 3.575 0 0 0 .106-1.1 1.6 1.6 0 0 0-.133-.44 1.416 1.416 0 0 0-.343-.354 1.882 1.882 0 0 0-.97-.312 1.932 1.932 0 0 0-1.077.352 2.837 2.837 0 0 0-.4.522c-2.262 4.447-1.425 12.56-1.13 14.85.691-.099 1.424-.174 2.194-.208z" class="prefix__cls-5" data-name="패스 4117" transform="translate(-227.648 -210.971)"/>
                            <path id="prefix__패스_4118" d="M278.147 218.833a1.47 1.47 0 0 0-.224-.463 1.963 1.963 0 0 0-.857-.626 2.015 2.015 0 0 0-1.181 0 2.96 2.96 0 0 0-.565.386c-3.81 3.776-5.634 12.5-6.016 14.533a21.251 21.251 0 0 1 2.114.888 53.452 53.452 0 0 1 3.57-8.529 47.979 47.979 0 0 1 2.681-4.65 3.721 3.721 0 0 0 .466-1.057 1.659 1.659 0 0 0 .012-.482z" class="prefix__cls-5" data-name="패스 4118" transform="translate(-258.554 -215.931)"/>
                        </g>
                    </g>
                    <g id="prefix__그룹_9751" data-name="그룹 9751" transform="translate(27.817 2.456)">
                        <g id="prefix__패스_4119" class="prefix__cls-4" data-name="패스 4119">
                            <path d="M272.969 205.586c.125-.22 2.709-4.507 2.945-4.918 1.146-2.385 1.391-3.972 1.255-5.017a2.564 2.564 0 0 0-2.382-2.024c-3.019.067-5.872 2.427-8.339 5.579-.022.032-4.888 7.039-5.159 14.551a19.667 19.667 0 0 1 6.061 2.514c1.973-4.297 5.619-10.685 5.619-10.685z" class="prefix__cls-12" transform="translate(-261.288 -193.627)"/>
                            <path d="M267.35 216.27c1.973-4.296 5.62-10.684 5.62-10.684.124-.22 2.708-4.507 2.944-4.918 1.146-2.385 1.39-3.971 1.255-5.017-.603-1.859-1.976-2.016-2.382-2.024-3.02.067-5.872 2.427-8.34 5.58-.022.031-4.887 7.038-5.159 14.55 2.216.512 4.241 1.37 6.061 2.513m0 1c-.186 0-.37-.052-.532-.153-1.762-1.107-3.698-1.91-5.754-2.386-.467-.108-.792-.532-.774-1.01.279-7.71 5.13-14.787 5.337-15.085.01-.016.022-.031.034-.046 3.045-3.89 6.108-5.896 9.105-5.963H274.806c.574.011 2.511.24 3.314 2.716.02.058.033.118.04.18.19 1.451-.263 3.328-1.345 5.578-.01.022-.021.044-.033.065-.136.235-.952 1.594-1.74 2.907-.564.938-1.147 1.908-1.203 2.007-.038.065-3.648 6.402-5.581 10.608-.12.261-.347.459-.623.54-.094.029-.19.042-.286.042z" class="prefix__cls-13" transform="translate(-261.288 -193.627)"/>
                        </g>
                    </g>
                    <g id="prefix__패스_4120" class="prefix__cls-4" data-name="패스 4120">
                        <path d="M223.666 206.156c.116 0 .232-.008.35-.008.25 0 .5.006.744.015.572-4.471 1.791-10.512 1.791-10.512.048-.238 1.11-4.923 1.2-5.369a8.989 8.989 0 0 0-.368-4.949 2.46 2.46 0 0 0-2.78-1.127c-2.731.971-4.619 3.981-5.918 7.6-.011.036-2.352 7.951-.292 14.9a21.454 21.454 0 0 1 4.922-.554c.119-.005.235 0 .351.004z" class="prefix__cls-12" transform="translate(-201.017 -184.111)"/>
                        <path d="M218.395 206.7c1.536-.358 3.163-.553 4.881-.553h.04c.118 0 .234.005.35.009.113-.003.226-.008.34-.008h.01c.25 0 .497.007.744.015.571-4.471 1.79-10.512 1.79-10.512.048-.239 1.111-4.923 1.202-5.369.326-2.518.07-4.038-.368-4.949-.736-1.003-1.555-1.222-2.132-1.222-.293 0-.523.057-.648.095-2.731.971-4.62 3.981-5.918 7.596-.01.036-2.351 7.952-.291 14.898m0 1c-.434 0-.83-.283-.959-.715-2.116-7.135.192-15.128.291-15.465.005-.019.012-.037.018-.056 1.607-4.473 3.802-7.232 6.524-8.2l.04-.013c.205-.064.536-.14.943-.14.795 0 1.95.283 2.938 1.63.037.05.069.103.095.158.613 1.273.767 3.128.46 5.511l-.013.073c-.052.254-.384 1.727-.705 3.152-.222.986-.473 2.103-.495 2.212-.013.062-1.22 6.06-1.78 10.443-.065.5-.49.873-.992.873h-.035c-.27-.01-.497-.014-.711-.015h-.008c-.074 0-.152.003-.235.005l-.076.002h-.06l-.086-.003c-.083-.002-.161-.005-.235-.005h-.038c-1.586 0-3.152.177-4.654.527-.077.018-.153.026-.228.026z" class="prefix__cls-13" transform="translate(-201.017 -184.111)"/>
                    </g>
                    <g id="prefix__패스_4121" class="prefix__cls-4" data-name="패스 4121">
                        <path d="M198.265 289.933c-1.371-7.232-5.108-13.727-10.9-17.366a19.668 19.668 0 0 0-6.061-2.514 21.353 21.353 0 0 0-4.075-.533c-.246-.009-.494-.014-.744-.015-.117 0-.233 0-.35.008s-.232-.009-.35-.009a21.457 21.457 0 0 0-4.922.553c-9.214 2.147-15.1 10.33-16.929 19.794-2.056 10.638 2.761 18.11 18.465 20.1a47 47 0 0 0 6.621.09c16.266-1.796 21.292-9.308 19.245-20.108z" class="prefix__cls-12" transform="translate(-153.49 -247.468)"/>
                        <path d="M176.607 309.129c.863 0 1.644-.028 2.322-.081 4.168-.462 7.69-1.326 10.465-2.568 2.601-1.163 4.613-2.69 5.978-4.535 1.11-1.502 1.83-3.268 2.142-5.25.305-1.944.227-4.157-.232-6.576-.668-3.525-1.934-6.877-3.661-9.694-1.819-2.966-4.102-5.325-6.785-7.011-1.762-1.108-3.698-1.91-5.754-2.386-1.256-.291-2.563-.462-3.884-.508-.266-.01-.498-.014-.713-.015h-.005c-.075 0-.154.003-.239.005l-.073.002h-.06l-.087-.002c-.083-.003-.16-.006-.233-.006h-.038c-1.587 0-3.153.177-4.655.527-2.127.496-4.131 1.348-5.958 2.533-1.746 1.132-3.336 2.572-4.728 4.278-2.684 3.292-4.582 7.51-5.488 12.2-.465 2.404-.553 4.605-.262 6.542.297 1.975 1 3.738 2.088 5.24 1.314 1.815 3.246 3.327 5.742 4.495 2.66 1.244 6.032 2.132 10.022 2.64.16.014 2.023.17 4.096.17m0 1c-2.153 0-4.092-.165-4.204-.176-15.703-1.99-20.52-9.464-18.464-20.101 1.83-9.465 7.714-17.648 16.929-19.795 1.536-.358 3.163-.553 4.882-.553h.04c.117 0 .233.005.349.009.114-.003.227-.008.34-.008h.01c.25 0 .497.007.743.015 1.423.05 2.781.234 4.075.534 2.216.512 4.242 1.37 6.062 2.513 5.788 3.639 9.525 10.134 10.896 17.366 2.047 10.8-2.98 18.312-19.241 20.11-.78.063-1.614.086-2.417.086z" class="prefix__cls-13" transform="translate(-153.49 -247.468)"/>
                    </g>
                    <g id="prefix__스카프_copy_4" data-name="스카프 copy 4" transform="translate(9.82 57.789)">
                        <path id="prefix__패스_4122" d="M271 417.283c.045-.134 3.623-6.041 12.21-1.812 0 0-2.24 3.743-12 1.826" class="prefix__cls-6" data-name="패스 4122" transform="translate(-250.496 -412.427)"/>
                        <path id="prefix__패스_4123" d="M270.853 423.761c.1-.1 5.9-4.085 11.911 3.143 0 0-3.651 2.533-11.722-3.047" class="prefix__cls-6" data-name="패스 4123" transform="translate(-250.388 -418.828)"/>
                        <path id="prefix__패스_4124" d="M205.409 408.528a21.671 21.671 0 0 0-3.152-.471 23.8 23.8 0 0 0-4.867.408 13.625 13.625 0 0 0-4.526 1.65 2.048 2.048 0 0 0-.731 1.07 4.2 4.2 0 0 0-.588 1.363c.187.2.659.693 1.3 1.358 2.179 2.268 6.314 6.515 7.813 7.668.157-.163 4.12-3.4 7.968-6.064 1.212-.84 2.413-1.625 3.48-2.239 0 0 .914-.24.91-1.588a23.472 23.472 0 0 0-7.607-3.155z" class="prefix__cls-6" data-name="패스 4124" transform="translate(-191.546 -408.055)"/>
                    </g>
                    <g id="prefix__이목구비_copy" data-name="이목구비 copy" transform="translate(4.844 37.357)">
                        <g id="prefix__Layer_96" data-name="Layer 96">
                            <path id="prefix__패스_4125" d="M245.816 333.925a10.353 10.353 0 0 0-7.667.335" class="prefix__cls-3" data-name="패스 4125" transform="translate(-221.147 -332.204)"/>
                            <path id="prefix__패스_4126" d="M172.262 329.108a5.65 5.65 0 0 1 5.331 1.176" class="prefix__cls-3" data-name="패스 4126" transform="translate(-172.262 -328.877)"/>
                        </g>
                        <path id="prefix__패스_4127" d="M208.077 353.338s.712 6.6-2.41 7.541c0 0-3.414.66-4.058-7.541h.139" class="prefix__cls-3" data-name="패스 4127" transform="translate(-194.036 -347.026)"/>
                        <g id="prefix__패스_4128" class="prefix__cls-4" data-name="패스 4128">
                            <path d="M202.248 335.484a2.474 2.474 0 0 0-2.279 1.1 2.474 2.474 0 0 0-2.116-1.391 2.209 2.209 0 1 0-.286 4.384 2.474 2.474 0 0 0 2.279-1.1 2.474 2.474 0 0 0 2.116 1.391 2.209 2.209 0 1 0 .286-4.384z" class="prefix__cls-12" transform="translate(-189.332 -333.562)"/>
                            <path d="M197.674 335.191c-1.268 0-2.326.882-2.401 2.039-.08 1.21.948 2.263 2.294 2.351.06.004.12.006.18.006.896 0 1.686-.442 2.1-1.11.344.763 1.145 1.328 2.115 1.391.06.004.12.006.18.006 1.267 0 2.325-.882 2.4-2.039.08-1.21-.947-2.263-2.294-2.35-.06-.005-.12-.007-.18-.007-.896 0-1.685.443-2.099 1.11-.344-.763-1.145-1.327-2.115-1.39-.06-.005-.12-.007-.18-.007m0-1c.081 0 .164.003.245.008.825.054 1.579.372 2.153.882.572-.385 1.27-.603 1.997-.603.081 0 .163.003.245.008 1.894.124 3.342 1.656 3.227 3.414-.11 1.668-1.602 2.974-3.4 2.974-.08 0-.163-.003-.244-.008-.825-.054-1.58-.372-2.153-.881-.572.384-1.27.602-1.997.602-.081 0-.164-.003-.245-.008-1.894-.124-3.342-1.655-3.227-3.414.109-1.668 1.602-2.974 3.4-2.974z" class="prefix__cls-13" transform="translate(-189.332 -333.562)"/>
                        </g>
                        <ellipse id="prefix__타원_82" cx=".738" cy="1.021" data-name="타원 82" rx=".738" ry="1.021" transform="rotate(-82.855 6.443 -3.904)" style="stroke-width:2px;fill:#707070;stroke:#707070"/>
                    </g>
                </g>
            </g>
            <g id="prefix__마이크" transform="translate(73.745 200.504)">
                <rect id="prefix__사각형_487" width="11.025" height="19.767" class="prefix__cls-8" data-name="사각형 487" rx="5.513" transform="translate(2.581 16.33)"/>
                <g id="prefix__Layer_19" data-name="Layer 19" transform="translate(3.92 26.828)">
                    <circle id="prefix__타원_83" cx=".637" cy=".637" r=".637" class="prefix__cls-9" data-name="타원 83" transform="translate(2.372)"/>
                    <circle id="prefix__타원_84" cx=".637" cy=".637" r=".637" class="prefix__cls-9" data-name="타원 84"/>
                    <circle id="prefix__타원_85" cx=".637" cy=".637" r=".637" class="prefix__cls-9" data-name="타원 85" transform="translate(7.116)"/>
                    <circle id="prefix__타원_86" cx=".637" cy=".637" r=".637" class="prefix__cls-9" data-name="타원 86" transform="translate(4.744)"/>
                </g>
                <g id="prefix__Layer_18" data-name="Layer 18" transform="translate(2.734 29.002)">
                    <circle id="prefix__타원_87" cx=".637" cy=".637" r=".637" class="prefix__cls-9" data-name="타원 87" transform="translate(2.372)"/>
                    <circle id="prefix__타원_88" cx=".637" cy=".637" r=".637" class="prefix__cls-9" data-name="타원 88"/>
                    <circle id="prefix__타원_89" cx=".637" cy=".637" r=".637" class="prefix__cls-9" data-name="타원 89" transform="translate(7.116)"/>
                    <circle id="prefix__타원_90" cx=".637" cy=".637" r=".637" class="prefix__cls-9" data-name="타원 90" transform="translate(9.488)"/>
                    <circle id="prefix__타원_91" cx=".637" cy=".637" r=".637" class="prefix__cls-9" data-name="타원 91" transform="translate(4.744)"/>
                </g>
                <g id="prefix__Layer_19_copy" data-name="Layer 19 copy" transform="translate(3.92 31.374)">
                    <circle id="prefix__타원_92" cx=".637" cy=".637" r=".637" class="prefix__cls-9" data-name="타원 92" transform="translate(2.372)"/>
                    <circle id="prefix__타원_93" cx=".637" cy=".637" r=".637" class="prefix__cls-9" data-name="타원 93"/>
                    <circle id="prefix__타원_94" cx=".637" cy=".637" r=".637" class="prefix__cls-9" data-name="타원 94" transform="translate(7.116)"/>
                    <circle id="prefix__타원_95" cx=".637" cy=".637" r=".637" class="prefix__cls-9" data-name="타원 95" transform="translate(4.744)"/>
                </g>
                <g id="prefix__Layer_18_copy" data-name="Layer 18 copy" transform="translate(5.106 33.549)">
                    <circle id="prefix__타원_96" cx=".637" cy=".637" r=".637" class="prefix__cls-9" data-name="타원 96"/>
                    <circle id="prefix__타원_97" cx=".637" cy=".637" r=".637" class="prefix__cls-9" data-name="타원 97" transform="translate(4.744)"/>
                    <circle id="prefix__타원_98" cx=".637" cy=".637" r=".637" class="prefix__cls-9" data-name="타원 98" transform="translate(2.372)"/>
                </g>
                <g id="prefix__Layer_22" data-name="Layer 22" transform="translate(7.094 -25.797)">
                    <path id="prefix__사각형_488" d="M0 0H1V40.37H0z" data-name="사각형 488" style="fill:#bcbcbc"/>
                </g>
                <g id="prefix__Layer_23" data-name="Layer 23" transform="translate(.85 10.325)">
                    <path id="prefix__패스_4129" d="M89.392 251.984v-4.655c0-4.142-3.084-7.5-6.889-7.5h-.708c-3.805 0-6.889 3.358-6.889 7.5v4.655z" class="prefix__cls-8" data-name="패스 4129" transform="translate(-74.905 -239.829)"/>
                </g>
                <rect id="prefix__사각형_489" width="16.176" height="3.294" class="prefix__cls-11" data-name="사각형 489" rx="1.647" transform="translate(0 21.952)"/>
                <g id="prefix__Layer_14" data-name="Layer 14" transform="translate(2.317 14.573)">
                    <path id="prefix__패스_4130" d="M94.508 259.241v-6.3c0-1.559-1.593-2.824-3.558-2.824h-4.436c-1.965 0-3.558 1.264-3.558 2.824v6.3z" class="prefix__cls-11" data-name="패스 4130" transform="translate(-82.956 -250.121)"/>
                </g>
                <g id="prefix__Layer_15" data-name="Layer 15" transform="translate(1.746 21.436)">
                    <rect id="prefix__사각형_490" width="12.651" height="4.514" class="prefix__cls-11" data-name="사각형 490" rx="2.257"/>
                </g>
            </g>
        </g>
    </g>
</svg>
