
<svg xmlns="http://www.w3.org/2000/svg" width="71.796" height="61.571" viewBox="0 0 71.796 61.571">
    <defs>
        <style>
            .prefix__cls-3{fill:#fff}
        </style>
    </defs>
    <g id="prefix__warning" transform="translate(1.659 1.571) translate(-1051.217 -651.349)">
        <path id="prefix__패스_4178" fill="#fc6248" d="M1120.518 702.622l-26.974-43.65a6.461 6.461 0 0 0-10.795 0l-26.973 43.65a5.476 5.476 0 0 0 0 5.817 6.329 6.329 0 0 0 5.4 2.91h53.947a6.334 6.334 0 0 0 5.4-2.91 5.476 5.476 0 0 0-.005-5.817z" data-name="패스 4178"/>
        <path id="prefix__패스_4179" fill="none" stroke="#000" stroke-miterlimit="10" stroke-width="3.142px" d="M1116.8 697.908l-26.974-43.649a6.461 6.461 0 0 0-10.8 0l-26.973 43.649a5.478 5.478 0 0 0 0 5.818 6.329 6.329 0 0 0 5.4 2.91h53.947a6.335 6.335 0 0 0 5.4-2.91 5.482 5.482 0 0 0 0-5.818z" data-name="패스 4179"/>
        <g id="prefix__그룹_10371" data-name="그룹 10371">
            <path id="prefix__패스_4180" d="M1087.431 696.691a2.216 2.216 0 1 1-2.215-2.216 2.216 2.216 0 0 1 2.215 2.216z" class="prefix__cls-3" data-name="패스 4180"/>
            <path id="prefix__패스_4181" d="M1085.216 664.614a2.216 2.216 0 0 0-2.216 2.215l.562 23a1.654 1.654 0 1 0 3.307 0l.562-23a2.215 2.215 0 0 0-2.215-2.215z" class="prefix__cls-3" data-name="패스 4181"/>
        </g>
    </g>
</svg>
