<svg xmlns="http://www.w3.org/2000/svg" width="60" height="60" viewBox="0 0 60 60">
    <defs>
        <style>
            .cls-1{fill:#fff}.cls-2{fill:#efefef}.cls-3{fill:#ccc}.cls-5{fill:#352424}.cls-6{fill:#5c40d3}.cls-7{fill:#8556f6}
        </style>
    </defs>
    <g id="img_rabbit" transform="translate(-53 -156)">
        <path id="사각형_3694" d="M0 0H60V60H0z" class="cls-1" transform="translate(53 156)"/>
        <g id="소라개" transform="translate(-146.643 -71.499)">
            <g id="오른귀" transform="translate(242.58 245.635)">
                <g id="그룹_17020">
                    <path id="패스_7247" d="M383.919 300.643a3.99 3.99 0 0 0-3.142 1.185 1.846 1.846 0 0 0-.4 1.744c1.26 4.284 2.677 13.806 2.677 13.806.038.255.669 5.32.74 5.8.585 2.634 1.388 4.059 2.156 4.811a2.614 2.614 0 0 0 3.185.121c2.377-1.957 3.176-5.646 3.167-9.727 0-.045-.654-11.064-6.949-17.126a2.567 2.567 0 0 0-1.434-.614z" class="cls-2" transform="translate(-379.773 -300.102)"/>
                    <path id="패스_7248" d="M385.838 327.259a3.634 3.634 0 0 1-2.039-.685.552.552 0 0 1-.076-.062 10.24 10.24 0 0 1-2.3-5.077c0-.013-.005-.025-.007-.038-.04-.271-.252-1.955-.44-3.441-.139-1.105-.284-2.248-.3-2.355s-1.425-9.528-2.66-13.73a2.372 2.372 0 0 1 .517-2.259 4.5 4.5 0 0 1 3.564-1.358h.013a3.123 3.123 0 0 1 1.745.744l.017.016c6.377 6.141 7.084 17.019 7.111 17.479v.03c.011 4.883-1.12 8.295-3.362 10.14a2.992 2.992 0 0 1-1.783.596zm-1.4-1.543a2.074 2.074 0 0 0 2.524.111c1.963-1.616 2.964-4.745 2.956-9.284-.03-.445-.8-10.989-6.776-16.75a2.049 2.049 0 0 0-1.11-.473 3.455 3.455 0 0 0-2.725 1.026 1.3 1.3 0 0 0-.274 1.206c1.26 4.285 2.639 13.5 2.7 13.893.017.113.126.978.3 2.38.183 1.449.389 3.087.434 3.4a9.522 9.522 0 0 0 1.968 4.491z" class="cls-3" transform="translate(-377.918 -298.247)"/>
                </g>
                <g id="그룹_17021" transform="translate(1.118 .82)">
                    <path id="패스_7249" d="M383 304.624c.419 1.474.882 3.652 1.283 5.762a8.119 8.119 0 0 0 6.634-2.169 19.821 19.821 0 0 0-3.537-5.681 2.272 2.272 0 0 0-1.276-.609 3.269 3.269 0 0 0-2.76 1.093c-.675.508-.328 1.669-.328 1.669z" class="cls-2" transform="translate(-382.923 -301.916)"/>
                </g>
            </g>
            <g id="왼귀" transform="translate(209.444 245.636)">
                <g id="그룹_17022">
                    <path id="패스_7250" d="M240.376 300.643a3.99 3.99 0 0 1 3.142 1.185 1.845 1.845 0 0 1 .4 1.744c-1.26 4.284-2.677 13.806-2.677 13.806-.039.255-.669 5.32-.74 5.8-.585 2.634-1.388 4.059-2.156 4.811a2.614 2.614 0 0 1-3.185.121c-2.377-1.957-3.176-5.646-3.167-9.727 0-.045.654-11.064 6.949-17.126a2.568 2.568 0 0 1 1.434-.614z" class="cls-2" transform="translate(-231.459 -300.102)"/>
                    <path id="패스_7251" d="M234.746 327.261a2.967 2.967 0 0 1-1.761-.582c-2.259-1.858-3.39-5.27-3.379-10.153v-.03c.027-.46.734-11.338 7.111-17.479l.017-.016a3.121 3.121 0 0 1 1.745-.744h.012a4.494 4.494 0 0 1 3.553 1.345 2.392 2.392 0 0 1 .523 2.287c-1.228 4.179-2.64 13.619-2.655 13.714s-.161 1.253-.3 2.361c-.187 1.484-.4 3.165-.439 3.436 0 .013 0 .026-.007.038a10.242 10.242 0 0 1-2.3 5.077.539.539 0 0 1-.076.062 3.639 3.639 0 0 1-2.044.684zm-4.074-10.717c-.008 4.539.993 7.668 2.973 9.3a2.074 2.074 0 0 0 2.507-.125 9.525 9.525 0 0 0 1.97-4.492c.044-.313.251-1.949.433-3.4.177-1.4.287-2.271.3-2.385.058-.389 1.437-9.607 2.693-13.877v-.014a1.308 1.308 0 0 0-.286-1.219 3.449 3.449 0 0 0-2.713-1.013 2.049 2.049 0 0 0-1.109.473c-5.964 5.763-6.74 16.308-6.768 16.752z" class="cls-3" transform="translate(-229.606 -298.248)"/>
                </g>
                <g id="그룹_17023" transform="translate(3.955 .819)">
                    <path id="패스_7252" d="M255.226 304.624c-.419 1.474-.882 3.652-1.283 5.762a8.119 8.119 0 0 1-6.634-2.169 19.821 19.821 0 0 1 3.537-5.681 2.274 2.274 0 0 1 1.277-.609 3.269 3.269 0 0 1 2.76 1.093c.675.508.328 1.669.328 1.669z" class="cls-2" transform="translate(-247.308 -301.916)"/>
                </g>
            </g>
            <g id="그룹_17024" transform="translate(221.361 271.473)">
                <path id="패스_7253" d="M305.275 428.207a31.924 31.924 0 0 0-3.525-8.809 11.048 11.048 0 0 0-1.151-1.37 8.568 8.568 0 0 0-3.81-1.8 9.667 9.667 0 0 0-2.846-.061 8.691 8.691 0 0 0-3.314 1.271 9.329 9.329 0 0 0-2.241 2.444 31.632 31.632 0 0 0-3.248 8.327z" class="cls-1" transform="translate(-284.65 -415.597)"/>
                <path id="패스_7254" d="M303.57 426.992h-20.134a.49.49 0 0 1-.48-.591 32.209 32.209 0 0 1 3.3-8.466 9.9 9.9 0 0 1 2.4-2.613 9.171 9.171 0 0 1 3.5-1.345 10.1 10.1 0 0 1 3.015.062 9.037 9.037 0 0 1 4.037 1.909l.033.03a11.609 11.609 0 0 1 1.21 1.442l.015.024a32.732 32.732 0 0 1 3.583 8.958.49.49 0 0 1-.48.591zm-19.521-.98h18.908a32.3 32.3 0 0 0-3.327-8.057 10.419 10.419 0 0 0-1.069-1.27 8.051 8.051 0 0 0-3.574-1.685 9.2 9.2 0 0 0-2.68-.056 8.176 8.176 0 0 0-3.117 1.2 8.76 8.76 0 0 0-2.085 2.283 31.9 31.9 0 0 0-3.056 7.585z" class="cls-3" transform="translate(-282.946 -413.892)"/>
            </g>
            <g id="오른팔" transform="translate(234.666 272.403)">
                <g id="Layer_22_copy_2">
                    <g id="그룹_17025" transform="translate(3.39)">
                        <path id="패스_7255" d="M367.794 431.671c-2.1-5.2-4.082-9.9-4.624-10.6 0 0-2.389-1.6-2.887 1.578 0 0 1.169 4.1 2.475 9.017z" class="cls-1" transform="translate(-359.699 -420.089)"/>
                        <path id="패스_7256" d="M365.766 430.22h-5.036a.584.584 0 0 1-.564-.434c-1.29-4.856-2.461-8.966-2.472-9.007a.585.585 0 0 1-.015-.25 2.756 2.756 0 0 1 1.41-2.312 2.7 2.7 0 0 1 2.378.34.584.584 0 0 1 .135.125c.322.41 1.16 1.969 4.706 10.737a.584.584 0 0 1-.541.8zm-4.587-1.168h3.721c-2.921-7.194-3.863-9.113-4.163-9.575a1.489 1.489 0 0 0-1.182-.191c-.41.182-.607.782-.7 1.3.198.707 1.203 4.265 2.323 8.466z" class="cls-3" transform="translate(-357.671 -418.054)"/>
                    </g>
                    <g id="그룹_17026" transform="translate(0 .106)">
                        <path id="패스_7257" d="M347.857 423.4l.578-.843-.218-1.387-.654-1.826-1.825-.817-2.233.653-1.008 2.941.833 2.615 1.809.626 1.5-1.362h.072a.783.783 0 0 1-.012-.293c.095-.281.334-.609.914-.293a.884.884 0 0 1 .165.174.7.7 0 0 1 .073.135l.1-.137-.05-.137z" class="cls-1" transform="translate(-342.498 -418.529)"/>
                    </g>
                </g>
            </g>
            <g id="머리" transform="translate(209.918 236.638)">
                <g id="얼굴">
                    <path id="패스_7258" d="M276.006 280.12c-1.571-10.436-8.388-19.458-19.671-19.906-.11 0-.219 0-.328-.005s-.217-.016-.327-.021c-11.283-.448-18.794 8-21.189 18.283-2.3 9.89 1.944 17.061 16.581 19.483a44.043 44.043 0 0 0 6.2.32c15.293-1.107 20.267-7.966 18.734-18.154z" class="cls-1" transform="translate(-233.417 -259.681)"/>
                    <path id="패스_7259" d="M254.584 297.079a47.927 47.927 0 0 1-5.264-.343c-7.648-1.265-12.857-3.91-15.5-7.862-2.136-3.2-2.639-7.308-1.5-12.218a26.624 26.624 0 0 1 7.4-13.412 19.388 19.388 0 0 1 14.281-5.25c.09 0 .179.01.269.016h.12c.089 0 .177 0 .266.005a19.382 19.382 0 0 1 13.82 6.366 26.627 26.627 0 0 1 6.317 13.957c.755 5.014-.089 9.089-2.506 12.113-3.039 3.8-8.651 6.021-16.679 6.6-.328.022-.675.028-1.024.028zm-1.406-38.121c-9.581 0-17.342 6.95-19.9 17.92-1.08 4.636-.623 8.488 1.356 11.451 2.484 3.718 7.473 6.22 14.828 7.437a44.166 44.166 0 0 0 6.1.313c7.73-.559 13.107-2.658 15.969-6.236 2.24-2.8 3.015-6.621 2.3-11.354-1.723-11.444-9.261-19.094-19.206-19.489H254.283l-.076-.005-.237-.015c-.263-.016-.529-.021-.792-.021z" class="cls-3" transform="translate(-231.73 -257.978)"/>
                </g>
                <g id="이목구비_copy" transform="translate(20.851 19.767)">
                    <g id="그룹_17027">
                        <path id="패스_7260" d="M333.752 348.95a2.319 2.319 0 0 0-2.162.979 2.319 2.319 0 0 0-1.948-1.355 2.071 2.071 0 1 0-.375 4.1 2.319 2.319 0 0 0 2.162-.979 2.319 2.319 0 0 0 1.949 1.355 2.071 2.071 0 1 0 .375-4.1z" class="cls-1" transform="translate(-326.694 -348.091)"/>
                        <path id="패스_7261" d="M331.971 351.894c-.091 0-.184 0-.277-.013a2.853 2.853 0 0 1-1.978-1.033 2.861 2.861 0 0 1-2.133.657 2.657 2.657 0 0 1-2.519-2.772 2.412 2.412 0 0 1 .988-1.724 2.887 2.887 0 0 1 1.993-.545 2.853 2.853 0 0 1 1.978 1.033 2.94 2.94 0 0 1 3.993.24 2.412 2.412 0 0 1 .659 1.875 2.63 2.63 0 0 1-2.704 2.282zm-2.182-2.309h.043a.471.471 0 0 1 .391.287 1.86 1.86 0 0 0 1.557 1.068 1.718 1.718 0 0 0 1.955-1.415 1.481 1.481 0 0 0-.412-1.147 1.94 1.94 0 0 0-1.254-.6 1.859 1.859 0 0 0-1.725.768.472.472 0 0 1-.829-.076 1.857 1.857 0 0 0-1.556-1.068 1.936 1.936 0 0 0-1.342.361 1.48 1.48 0 0 0-.617 1.057 1.716 1.716 0 0 0 1.666 1.747 1.86 1.86 0 0 0 1.725-.768.472.472 0 0 1 .398-.213z" class="cls-3" transform="translate(-325.055 -346.453)"/>
                    </g>
                    <g id="그룹_17028" transform="translate(3.685 .898)">
                        <ellipse id="타원_34" cx=".769" cy="1.064" fill="#322" rx=".769" ry="1.064" transform="rotate(-84.773 .84 .766)"/>
                    </g>
                </g>
                <g id="Layer_21_copy" transform="translate(34.266 20.076)">
                    <g id="그룹_17029">
                        <path id="패스_7262" d="M388.28 352.106a4.463 4.463 0 0 0-.186-.875c-.036-.108-.094-.252-.155-.395a9.993 9.993 0 0 0-.528-1c-.236-.36-.435-.627-.435-.627a4.807 4.807 0 0 1-.14.9c-.005.026-.252 1.222-.312 1.655-.009.084-.017.176-.018.263a2.714 2.714 0 0 0 .04.525v-.01a2.548 2.548 0 0 0 .075.268l.052.109a1.994 1.994 0 0 0 .186.272.789.789 0 0 0 .677.225.828.828 0 0 0 .428-.2 1.42 1.42 0 0 0 .316-1.11zm-1.692.563z" class="cls-1" transform="translate(-386.192 -348.905)"/>
                        <path id="패스_7263" d="M386.34 352.664a1.079 1.079 0 0 1-.8-.326 2.083 2.083 0 0 1-.231-.33c0-.008-.01-.017-.014-.026l-.052-.109a.283.283 0 0 1-.012-.03 2.806 2.806 0 0 1-.085-.3.3.3 0 0 1-.006-.036 3.1 3.1 0 0 1-.038-.554v-.018c0-.091.01-.185.019-.271.063-.455.314-1.673.317-1.685a4.593 4.593 0 0 0 .135-.8.324.324 0 0 1 .207-.32.311.311 0 0 1 .358.1c.008.011.207.279.445.642a10.126 10.126 0 0 1 .557 1.052c.072.168.127.309.162.413a4.727 4.727 0 0 1 .2.948v.016a1.712 1.712 0 0 1-.412 1.342 1.147 1.147 0 0 1-.6.289h-.026c-.04.001-.082.003-.124.003zm-.485-.964a1.454 1.454 0 0 0 .143.21.458.458 0 0 0 .4.123.514.514 0 0 0 .25-.116 1.126 1.126 0 0 0 .225-.863 4.146 4.146 0 0 0-.173-.8c-.026-.078-.077-.206-.144-.362a8.933 8.933 0 0 0-.479-.909l-.026.127c-.064.309-.259 1.275-.308 1.633-.007.066-.014.147-.015.224v.017a2.263 2.263 0 0 0 .033.432v.02a.3.3 0 0 1 .026.055.363.363 0 0 1 .015.055.334.334 0 0 1 0 .059l.006.018z" class="cls-5" transform="translate(-385.099 -347.833)"/>
                    </g>
                </g>
                <g id="눈_copy" transform="translate(13.179 16.87)">
                    <g id="Layer_11_copy_2" transform="translate(17.062 1.518)">
                        <g id="그룹_17030">
                            <path id="패스_7264" d="M371.323 342.973a6.3 6.3 0 0 1-3.73-1.324l-.131-.092a.673.673 0 0 1 .556-1.225 1.833 1.833 0 0 1 .357.222 4.729 4.729 0 0 0 5.2.518.673.673 0 0 1 .583 1.213 6.487 6.487 0 0 1-2.835.688zm-3.849-1.411l.027.012z" class="cls-5" transform="translate(-367.086 -340.28)"/>
                        </g>
                    </g>
                    <g id="Layer_11_copy_2-2">
                        <g id="그룹_17031">
                            <path id="패스_7265" d="M294.911 336.306a5.88 5.88 0 0 1-3.954-1.59.7.7 0 0 1 .927-1.056 4.542 4.542 0 0 0 5.15.778 1.879 1.879 0 0 1 .415-.139.7.7 0 0 1 .268 1.379c-.037.013-.087.035-.148.06a6.973 6.973 0 0 1-2.658.568zm2.793-.625l-.033.006z" class="cls-5" transform="translate(-290.718 -333.485)"/>
                        </g>
                    </g>
                </g>
                <g id="Layer_14_copy_2" transform="translate(30.906 22.515)">
                    <g id="그룹_17032">
                        <path id="패스_7266" d="M371.8 363.145a.472.472 0 0 1-.448-.621c.475-1.422-1.127-2.941-1.143-2.956a.472.472 0 0 1 .643-.691c.085.079 2.063 1.946 1.4 3.945a.472.472 0 0 1-.452.323z" class="cls-3" transform="translate(-370.06 -358.752)"/>
                    </g>
                </g>
                <g id="Layer_14_copy_2-2" transform="translate(15.912 21.747)">
                    <g id="그룹_17033">
                        <path id="패스_7267" d="M303.43 359.651a.472.472 0 0 1-.469-.432c-.183-2.191 2.158-3.763 2.258-3.829a.472.472 0 0 1 .52.787c-.02.013-1.975 1.332-1.838 2.963a.472.472 0 0 1-.431.509z" class="cls-3" transform="translate(-302.95 -355.312)"/>
                    </g>
                </g>
                <g id="Layer_16_copy" transform="translate(24.803 26.696)">
                    <g id="그룹_17034">
                        <path id="패스_7268" d="M343.216 381.587a.472.472 0 0 1-.187-.9 3.387 3.387 0 0 0 2.268-2.762.472.472 0 0 1 .943.029 4.3 4.3 0 0 1-2.838 3.6.472.472 0 0 1-.186.033z" class="cls-3" transform="translate(-342.744 -377.466)"/>
                    </g>
                </g>
            </g>
            <g id="모자" transform="translate(207.285 230.499)">
                <g id="Layer_23_copy">
                    <g id="그룹_17035">
                        <path id="패스_7269" d="M267.534 247.466a5.659 5.659 0 0 0-.729-1.256l-.008-.011a7.442 7.442 0 0 0-.975-1.044c-.05-.045-.1-.091-.15-.134-.193-.618-.408-1.195-.635-1.737l-.092-.221a14.489 14.489 0 0 0-5.067-5.8 17.458 17.458 0 0 0-1.5-.9 21.651 21.651 0 0 0-7.122-2.278 37.823 37.823 0 0 0-10.186.736 22.145 22.145 0 0 0-10.792 6.04 17.929 17.929 0 0 0-1.2 1.412 16.184 16.184 0 0 0-3.28 7.589v.041a.132.132 0 0 1-.006.038 11.569 11.569 0 0 0-.954 1.219 6.748 6.748 0 0 0-1.1 5.982 8.753 8.753 0 0 0 .422 1.5 9.229 9.229 0 0 0 .812 1.657c1.173 1.877 3.406 3.813 7.594 3.374q.547-.041 1.145-.133c.414-.064.847-.147 1.3-.252a28.037 28.037 0 0 0 5.115-1.786q.737-.314 1.519-.7c.3-.145.6-.3.91-.46 1.1-.574 2.266-1.245 3.5-2.033 0 0 1.69-.909 4.146-2.06a29.732 29.732 0 0 1 3.322-1.152q.386-.113.811-.228a44.005 44.005 0 0 1 7.271-1.319h.054c.388-.041.752-.084 1.093-.131.309-.042.6-.086.87-.133.613-.1 1.138-.217 1.586-.337 3.967-.749 3.169-3.749 2.326-5.483z" class="cls-6" transform="translate(-222.673 -233.218)"/>
                        <path id="패스_7270" d="M228.665 261.8a7.91 7.91 0 0 1-7.082-3.8 9.95 9.95 0 0 1-.882-1.8 9.793 9.793 0 0 1-.45-1.59 7.523 7.523 0 0 1 1.21-6.607 12.235 12.235 0 0 1 .852-1.111 17.121 17.121 0 0 1 3.415-7.811 18.7 18.7 0 0 1 1.254-1.474 23.043 23.043 0 0 1 11.162-6.259l.04-.009a38.432 38.432 0 0 1 10.4-.751l.051.005a22.471 22.471 0 0 1 7.387 2.364c.54.29 1.065.607 1.562.942a15.263 15.263 0 0 1 5.336 6.113l.012.027c.022.051.044.1.065.155l.031.074c.225.536.42 1.061.593 1.6a8.669 8.669 0 0 1 .735.74l.055-.014.3.444a6.47 6.47 0 0 1 .809 1.395c.849 1.76.986 3.308.4 4.478a4.271 4.271 0 0 1-3.259 2.083c-.479.127-1.027.243-1.629.345-.281.047-.578.093-.895.137-.358.049-.734.094-1.118.134l-.061.006a43.063 43.063 0 0 0-7.141 1.3q-.417.113-.8.223a29.283 29.283 0 0 0-3.225 1.117c-2.235 1.047-3.849 1.9-4.066 2.02-1.189.759-2.379 1.449-3.534 2.051q-.472.246-.929.469l-.183.088h.008l-.348.157c-.3.143-.6.277-.889.4l-.126.057a29.015 29.015 0 0 1-5.259 1.835c-.459.106-.916.195-1.357.263-.4.062-.794.108-1.171.137h-.012a12.072 12.072 0 0 1-1.261.067zm-4.815-14.6v.042a.879.879 0 0 1-.065.285l-.051.12-.087.1a10.712 10.712 0 0 0-.89 1.137 6.022 6.022 0 0 0-.994 5.315 1.084 1.084 0 0 1 .026.111 8.239 8.239 0 0 0 .38 1.346 8.408 8.408 0 0 0 .743 1.515 6.442 6.442 0 0 0 6.154 3.062l.718-.054c.347-.026.712-.068 1.084-.126.4-.063.822-.144 1.243-.241a25.3 25.3 0 0 0 3.7-1.194l1.287-.551c.469-.2.968-.429 1.484-.68.292-.142.589-.293.891-.45 1.123-.585 2.281-1.257 3.44-2l.05-.029c.017-.009 1.737-.933 4.184-2.08a30.21 30.21 0 0 1 3.435-1.2q.393-.115.827-.232a44.654 44.654 0 0 1 7.4-1.342h.05c.367-.039.726-.082 1.066-.128.3-.041.58-.084.845-.129.565-.1 1.075-.2 1.514-.322l.057-.013a2.856 2.856 0 0 0 2.181-1.255c.484-.963-.054-2.364-.417-3.114l-.02-.044a4.891 4.891 0 0 0-.628-1.08l-.008-.011a6.7 6.7 0 0 0-.873-.934l-.057-.051-.079-.071-.172-.146-.067-.216c-.176-.562-.375-1.108-.61-1.668l-.033-.08-.05-.119a13.717 13.717 0 0 0-4.793-5.477c-.454-.306-.934-.6-1.428-.861a20.865 20.865 0 0 0-6.832-2.188 36.839 36.839 0 0 0-9.928.72 21.5 21.5 0 0 0-10.4 5.815 17.13 17.13 0 0 0-1.149 1.35 15.573 15.573 0 0 0-3.128 7.163zm-3.6 7.422c0 .018.009.031.011.037z" class="cls-6" transform="translate(-219.943 -230.499)"/>
                    </g>
                </g>
                <g id="Layer_23_copy_2" transform="translate(.786 .782)">
                    <g id="그룹_17043">
                        <g id="그룹_17036" transform="translate(1.517 19.699)">
                            <path id="패스_7271" d="M237.486 328.938l-.026-.091v-.015c-.049-.169-.091-.338-.127-.506-.027-.119-.042-.2-.044-.2a10.092 10.092 0 0 1 .534-5.168 15.137 15.137 0 0 1-4.375-.479 5.194 5.194 0 0 1-.8-.3 9.933 9.933 0 0 0-2.39 6.6c1.173 1.877 3.406 3.813 7.594 3.374q.547-.041 1.145-.133a8.655 8.655 0 0 1-1.511-3.082z" class="cls-7" transform="translate(-230.246 -322.172)"/>
                        </g>
                        <g id="그룹_17037" transform="translate(0 17.156)">
                            <path id="패스_7272" d="M224.838 310.787a6.748 6.748 0 0 0-1.1 5.982 8.746 8.746 0 0 0 .422 1.5 14.581 14.581 0 0 1 2.276-5.5 5.509 5.509 0 0 1-1.598-1.982z" class="cls-7" transform="translate(-223.458 -310.787)"/>
                        </g>
                        <g id="그룹_17038" transform="translate(6.823)">
                            <path id="패스_7273" d="M271.642 241.453c.614-.206 6.844-2.414 10.453-5.093a21.651 21.651 0 0 0-7.122-2.278 37.823 37.823 0 0 0-10.186.736 22.145 22.145 0 0 0-10.792 6.04c3.01 1.392 8.953 3.064 17.647.595z" class="cls-7" transform="translate(-253.995 -234)"/>
                        </g>
                        <g id="그룹_17039" transform="translate(9.305 18.949)">
                            <path id="패스_7274" d="M273.985 326.651c-.1-.2-.193-.4-.281-.6-.063-.143-.1-.236-.106-.246a17.848 17.848 0 0 1-1.119-6.991 26.593 26.593 0 0 1-6.4 1.46 7.342 7.342 0 0 0 1.281 8.876 28.043 28.043 0 0 0 5.115-1.786q.737-.314 1.519-.7z" class="cls-7" transform="translate(-265.108 -318.813)"/>
                        </g>
                        <g id="그룹_17040" transform="translate(2.34 3.261)">
                            <path id="패스_7275" d="M257.68 261.047a98.176 98.176 0 0 1 11.116-4.838s2.869-1.163 4.372-1.59l-.092-.221a14.49 14.49 0 0 0-5.067-5.8c-4.33 2.656-18.874 10.554-30.8 5.008a16.183 16.183 0 0 0-3.28 7.589v.041a5.736 5.736 0 0 0 2.938 3c2.195 1 6.888 1.507 16.591-2.3a31.069 31.069 0 0 1-4.089 1.936 12.159 12.159 0 0 0 1.319 7.805c1.1-.574 2.266-1.245 3.5-2.032 0 0 1.69-.909 4.146-2.06a29.735 29.735 0 0 1 3.323-1.152 15.709 15.709 0 0 0-2.116-6.086c-1.129.415-1.861.7-1.861.7z" class="cls-7" transform="translate(-233.93 -248.596)"/>
                        </g>
                        <g id="그룹_17041" transform="translate(37.347 11.155)">
                            <path id="패스_7276" d="M397.346 286.238a5.657 5.657 0 0 0-.729-1.256l-.008-.011a7.449 7.449 0 0 0-.975-1.044c-1.536.212-3.866.684-3.866.684-.351.051-.738.125-1.15.214a24.723 24.723 0 0 1 2.82 7.228c.613-.1 1.138-.217 1.586-.337 3.964-.748 3.165-3.74 2.322-5.478z" class="cls-7" transform="translate(-390.618 -283.927)"/>
                        </g>
                        <g id="그룹_17042" transform="translate(28.991 12.348)">
                            <path id="패스_7277" d="M360.351 289.268c-2.313.6-5.087 1.548-7.132 2.284a22.818 22.818 0 0 1 1.887 6.237 44.011 44.011 0 0 1 7.271-1.319h.054c.388-.041.752-.084 1.093-.131a16.744 16.744 0 0 0-3.173-7.071z" class="cls-7" transform="translate(-353.219 -289.268)"/>
                        </g>
                    </g>
                    <g id="그룹_17047" transform="translate(.705 2.359)">
                        <g id="그룹_17044" transform="translate(0 13.54)">
                            <path id="패스_7278" d="M247.78 305.864c-9.7 3.8-14.4 3.294-16.591 2.3a5.735 5.735 0 0 1-2.938-3 .132.132 0 0 1-.006.038 11.573 11.573 0 0 0-.954 1.219 5.509 5.509 0 0 0 1.6 1.98 14.58 14.58 0 0 0-2.276 5.5 9.216 9.216 0 0 0 .812 1.657 9.933 9.933 0 0 1 2.39-6.6 5.193 5.193 0 0 0 .8.3 15.139 15.139 0 0 0 4.376.479 10.091 10.091 0 0 0-.534 5.168c0 .009.017.086.044.2.036.169.078.337.127.506v.015l.026.091a8.656 8.656 0 0 0 1.5 3.072c.414-.064.847-.147 1.3-.252a7.342 7.342 0 0 1-1.281-8.876 26.594 26.594 0 0 0 6.4-1.461 17.847 17.847 0 0 0 1.119 6.992c0 .01.043.1.106.246.088.2.181.4.281.6l.007.014q.447-.218.91-.46a12.159 12.159 0 0 1-1.319-7.805 31.072 31.072 0 0 0 4.101-1.923z" class="cls-6" transform="translate(-226.616 -305.163)"/>
                        </g>
                        <g id="그룹_17045" transform="translate(25.384 6.925)">
                            <path id="패스_7279" d="M352.639 278.109s2.33-.472 3.866-.684c-.05-.045-.1-.091-.15-.134-.193-.618-.408-1.195-.635-1.737-1.5.427-4.372 1.59-4.372 1.59a98.176 98.176 0 0 0-11.116 4.838s.732-.285 1.862-.7a15.71 15.71 0 0 1 2.117 6.086q.386-.113.811-.228a22.816 22.816 0 0 0-1.887-6.237c2.046-.736 4.819-1.681 7.132-2.284a16.745 16.745 0 0 1 3.174 7.066c.308-.042.6-.086.87-.133a24.726 24.726 0 0 0-2.82-7.228c.409-.09.797-.163 1.148-.215z" class="cls-6" transform="translate(-340.231 -275.555)"/>
                        </g>
                        <g id="그룹_17046" transform="translate(4.915)">
                            <path id="패스_7280" d="M279.414 245.461a17.456 17.456 0 0 0-1.5-.9c-3.609 2.679-9.839 4.888-10.453 5.093-8.694 2.47-14.637.8-17.647-.6a17.931 17.931 0 0 0-1.2 1.412c11.926 5.549 26.471-2.349 30.8-5.005z" class="cls-6" transform="translate(-248.617 -244.559)"/>
                        </g>
                    </g>
                </g>
            </g>
            <g id="스카프" transform="translate(223.482 271.555)">
                <g id="그룹_17048" transform="translate(15.924 .555)">
                    <path id="패스_7281" d="M365.032 420.461c.031-.091 2.594-4.147 9.411-1.56 0 0-1.6 2.57-9.244 1.563" class="cls-6" transform="translate(-364.738 -417.75)"/>
                    <path id="패스_7282" d="M367.461 419.987a25.518 25.518 0 0 1-3.324-.236.286.286 0 0 1-.051-.011.294.294 0 0 1-.356-.378 5.1 5.1 0 0 1 2.3-1.948c1.413-.668 3.86-1.173 7.5.208a.295.295 0 0 1 .145.431c-.064.092-1.281 1.933-6.214 1.934zm-2.9-.776c5.483.66 7.651-.6 8.342-1.191-5.103-1.779-7.565.292-8.346 1.19z" class="cls-6" transform="translate(-363.715 -416.745)"/>
                </g>
                <g id="그룹_17049" transform="translate(15.898 2.103)">
                    <path id="패스_7283" d="M364.914 425.932c.073-.072 4.432-2.9 9.356 1.766 0 0-2.742 1.8-9.207-1.707" class="cls-7" transform="translate(-364.62 -424.716)"/>
                    <path id="패스_7284" d="M371.012 427.413a15.245 15.245 0 0 1-7.111-2.208.969.969 0 0 0-.218-.111.294.294 0 0 1 0-.416c.038-.038 4.584-3.151 9.766 1.762a.294.294 0 0 1-.041.46 4.574 4.574 0 0 1-2.396.513zm-6.483-2.54c4.682 2.452 7.282 2 8.189 1.694-3.71-3.281-7.018-2.242-8.189-1.694z" class="cls-6" transform="translate(-363.598 -423.671)"/>
                </g>
                <g id="그룹_17050" transform="translate(16.192 3.045)">
                    <path id="패스_7285" d="M365.4 427.889a3.173 3.173 0 0 0-.489.274l.15.059c6.464 3.506 9.207 1.707 9.207 1.707l-.135-.125c-5.247.34-8.058-1.47-8.733-1.915z" class="cls-6" transform="translate(-364.914 -427.889)"/>
                </g>
                <g id="그룹_17051">
                    <path id="패스_7286" d="M310.387 417.7a20.491 20.491 0 0 0-8.478-2.123 15.094 15.094 0 0 0-7.215 1.645 1.374 1.374 0 0 0-.529.737 2.6 2.6 0 0 0-.408.929c.67.557 5.837 4.841 7.4 5.784a80.516 80.516 0 0 1 8.585-5.884.986.986 0 0 0 .645-1.088z" class="cls-7" transform="translate(-293.464 -415.282)"/>
                    <path id="패스_7287" d="M300.128 423.942a.286.286 0 0 1-.149-.041c-1.545-.935-6.461-5-7.431-5.81a.294.294 0 0 1-.105-.253 2.684 2.684 0 0 1 .432-1.031 1.666 1.666 0 0 1 .643-.86 15.391 15.391 0 0 1 7.361-1.688 20.61 20.61 0 0 1 8.627 2.159.294.294 0 0 1 .152.241 1.293 1.293 0 0 1-.828 1.379 82.258 82.258 0 0 0-8.5 5.824.309.309 0 0 1-.202.08zm-7.069-6.191c.972.806 5.421 4.478 7.05 5.537a79.316 79.316 0 0 1 8.466-5.78.291.291 0 0 1 .066-.026.662.662 0 0 0 .43-.626 20.6 20.6 0 0 0-8.191-2.007 14.792 14.792 0 0 0-7.059 1.6 1.089 1.089 0 0 0-.395.566.3.3 0 0 1-.04.084 2.748 2.748 0 0 0-.328.652z" class="cls-6" transform="translate(-292.441 -414.26)"/>
                </g>
                <g id="그룹_17052" transform="translate(.294 2.066)">
                    <path id="패스_7288" d="M310.387 423.856s-.259-.142-.727-.351a3.084 3.084 0 0 0-.8.717c-7.458 6.484-13.676 1.231-14.871.194a1.839 1.839 0 0 0-.227.629c.67.557 5.837 4.841 7.4 5.784a80.514 80.514 0 0 1 8.585-5.884.986.986 0 0 0 .64-1.089z" class="cls-6" transform="translate(-293.758 -423.505)"/>
                </g>
            </g>
            <g id="왼팔" transform="translate(203.643 246.126)">
                <g id="그룹_17053">
                    <path id="패스_7289" d="M226.928 333.03c-20.013-6.884-15.813-15.351-11.7-19.678 2.79 1.107 6.172.572 7.154-1.949 1.007-2.586.356-5.014-2.864-7.664-2.555-2.1-6.381-.965-7.922 1.52a4.773 4.773 0 0 0-.24 4.375 15.643 15.643 0 0 0-3.246 3.608 16.354 16.354 0 0 0-1.635 3.657 18.984 18.984 0 0 0-.512 2.286c-.006.04-.1 1.006-.122 1.591.083 13.948 19.662 15.479 19.662 15.479" class="cls-1" transform="translate(-205.347 -302.148)"/>
                    <path id="패스_7290" d="M223.8 335.04h-.039a34.611 34.611 0 0 1-9.957-2.548c-6.61-2.865-10.122-7.5-10.157-13.417v-.023c.024-.58.116-1.569.127-1.644a19.5 19.5 0 0 1 .528-2.356 16.941 16.941 0 0 1 1.7-3.787 16.491 16.491 0 0 1 3.067-3.5 5.2 5.2 0 0 1 .408-4.469 6.223 6.223 0 0 1 4.249-2.771 5.425 5.425 0 0 1 4.4 1.13c3.209 2.641 4.165 5.253 3.009 8.22a4.17 4.17 0 0 1-2.3 2.322 7.252 7.252 0 0 1-5.179.023c-1.8 1.964-3.663 4.885-2.889 8.05.986 4.03 5.9 7.593 14.617 10.59a.49.49 0 0 1-.319.927c-9.049-3.113-14.18-6.909-15.25-11.285-.911-3.724 1.319-7.056 3.35-9.194a.49.49 0 0 1 .536-.118 6.438 6.438 0 0 0 4.742.107 3.168 3.168 0 0 0 1.774-1.779c.993-2.55.155-4.742-2.719-7.107a4.46 4.46 0 0 0-3.618-.92 5.3 5.3 0 0 0-3.576 2.321 4.3 4.3 0 0 0-.2 3.931.49.49 0 0 1-.159.577 15 15 0 0 0-3.136 3.493 16 16 0 0 0-1.575 3.535 18.5 18.5 0 0 0-.493 2.213c-.006.057-.092.963-.115 1.519.038 5.566 3.256 9.776 9.567 12.511a34.2 34.2 0 0 0 9.643 2.47.49.49 0 0 1-.038.979z" class="cls-3" transform="translate(-203.643 -300.443)"/>
                </g>
            </g>
        </g>
    </g>
</svg>
