<svg xmlns="http://www.w3.org/2000/svg" width="32" height="32" viewBox="0 0 32 32">
    <defs>
        <style>
            .prefix__cls-2{fill:#fff;stroke:#000;stroke-width:1.2px;stroke-linecap:round;stroke-linejoin:round}
        </style>
    </defs>
    <g id="prefix__그룹_10472" data-name="그룹 10472" transform="translate(-280 -77)">
        <g id="prefix__사각형_810" data-name="사각형 810" style="opacity:0;fill:#fff;stroke:#000;stroke-width:1.2px">
            <path d="M0 0H32V32H0z" style="stroke:none" transform="translate(280 77)"/>
            <path d="M0.6 0.6H31.400000000000002V31.400000000000002H0.6z" style="fill:none" transform="translate(280 77)"/>
        </g>
        <g id="prefix__그룹_10473" data-name="그룹 10473" transform="translate(-45.626 -519.82)">
            <path id="prefix__선_118" d="M0 0L0 13.626" class="prefix__cls-2" data-name="선 118" transform="translate(348.227 606.22)"/>
            <path id="prefix__사각형_817" d="M0 0H3.536V2.032H0z" class="prefix__cls-2" data-name="사각형 817" transform="translate(346.459 615.199)"/>
            <path id="prefix__선_119" d="M0 0L2 0" class="prefix__cls-2" data-name="선 119" transform="translate(347.227 606.22)"/>
            <path id="prefix__선_120" d="M2 0L0 0" class="prefix__cls-2" data-name="선 120" transform="translate(347.227 619.846)"/>
            <path id="prefix__선_121" d="M0 0L0 13.626" class="prefix__cls-2" data-name="선 121" transform="translate(342.296 606.22)"/>
            <path id="prefix__사각형_818" d="M0 0H3.536V2.032H0z" class="prefix__cls-2" data-name="사각형 818" transform="translate(340.528 612.017)"/>
            <path id="prefix__선_122" d="M0 0L2 0" class="prefix__cls-2" data-name="선 122" transform="translate(341.296 606.22)"/>
            <path id="prefix__선_123" d="M2 0L0 0" class="prefix__cls-2" data-name="선 123" transform="translate(341.296 619.846)"/>
            <path id="prefix__선_124" d="M0 0L0 13.626" class="prefix__cls-2" data-name="선 124" transform="translate(336.366 606.22)"/>
            <path id="prefix__사각형_819" d="M0 0H3.536V2.032H0z" class="prefix__cls-2" data-name="사각형 819" transform="translate(334.598 608.911)"/>
            <path id="prefix__선_125" d="M0 0L2 0" class="prefix__cls-2" data-name="선 125" transform="translate(335.365 606.22)"/>
            <path id="prefix__선_126" d="M2 0L0 0" class="prefix__cls-2" data-name="선 126" transform="translate(335.365 619.846)"/>
        </g>
    </g>
</svg>
