<svg xmlns="http://www.w3.org/2000/svg" width="32" height="32" viewBox="0 0 32 32">
    <defs>
        <style>
            .prefix__cls-3{stroke:#000;stroke-width:1.2px;stroke-linecap:round;stroke-linejoin:round;fill:none}
        </style>
    </defs>
    <g id="prefix__그룹_10467" data-name="그룹 10467" transform="translate(-280 -77)">
        <g id="prefix__사각형_810" data-name="사각형 810" style="opacity:0;stroke:#000;stroke-width:1.2px;fill:#fff">
            <path d="M0 0H32V32H0z" style="stroke:none" transform="translate(280 77)"/>
            <path d="M0.6 0.6H31.400000000000002V31.400000000000002H0.6z" style="fill:none" transform="translate(280 77)"/>
        </g>
        <g id="prefix__그룹_10462" data-name="그룹 10462" transform="translate(286 85.156)">
            <path id="prefix__패스_4270" d="M78.19 433.7l1.1 2.232 2.463.358-1.782 1.737.421 2.453-2.2-1.158-2.2 1.158.421-2.453-1.782-1.737 2.463-.358z" data-name="패스 4270" transform="translate(-67.435 -430.001)" style="stroke-linecap:round;stroke-linejoin:round;stroke:#000;stroke-width:1.2px;fill:#fff"/>
            <path id="prefix__패스_4271" d="M71.2 428.372a8.783 8.783 0 0 0 0 14.885" class="prefix__cls-3" data-name="패스 4271" transform="translate(-65.128 -428.372)"/>
            <path id="prefix__패스_4272" d="M68.177 437.171l-1.955 1.955-1.955-1.955" class="prefix__cls-3" data-name="패스 4272" transform="translate(-64.266 -431.064)"/>
            <path id="prefix__패스_4273" d="M71.135 431.374l-2.722.486-.486-2.722" class="prefix__cls-3" data-name="패스 4273" transform="translate(-65.386 -428.606)"/>
            <path id="prefix__패스_4274" d="M68.547 441.957l-.749 2.662-2.662-.749" class="prefix__cls-3" data-name="패스 4274" transform="translate(-64.532 -432.528)"/>
            <path id="prefix__패스_4275" d="M86.5 428.372a8.783 8.783 0 0 1 0 14.885" class="prefix__cls-3" data-name="패스 4275" transform="translate(-71.069 -428.372)"/>
            <path id="prefix__패스_4276" d="M89.622 437.171l1.955 1.955 1.955-1.955" class="prefix__cls-3" data-name="패스 4276" transform="translate(-72.023 -431.064)"/>
            <path id="prefix__패스_4277" d="M86.973 431.374l2.722.486.486-2.722" class="prefix__cls-3" data-name="패스 4277" transform="translate(-71.212 -428.606)"/>
            <path id="prefix__패스_4278" d="M89.471 441.957l.749 2.662 2.662-.749" class="prefix__cls-3" data-name="패스 4278" transform="translate(-71.977 -432.528)"/>
        </g>
    </g>
</svg>
