<svg xmlns="http://www.w3.org/2000/svg" id="prefix__ic_info_m" width="24" height="24" viewBox="0 0 24 24">
    <defs>
        <style>
            .prefix__cls-3{fill:#fff;stroke:#424242;stroke-linecap:round;stroke-linejoin:round}
        </style>
    </defs>
    <g id="prefix__그룹_10463" data-name="그룹 10463" transform="translate(-284 95)">
        <g id="prefix__사각형_806" data-name="사각형 806" style="stroke:#707070;opacity:0;fill:#fff">
            <path d="M0 0H24V24H0z" style="stroke:none" transform="translate(284 -95)"/>
            <path d="M0.5 0.5H23.5V23.5H0.5z" style="fill:none" transform="translate(284 -95)"/>
        </g>
    </g>
    <g id="prefix__그룹_10377" data-name="그룹 10377" transform="translate(2 4.173)">
        <path id="prefix__패스_4163" d="M440.679 426.878h-9.2a2.969 2.969 0 0 0-2.969 2.969v3.582a2.969 2.969 0 0 0 2.969 2.969h2.4v2.055l2.753-2.055h4.051a2.969 2.969 0 0 0 2.969-2.969v-3.582a2.969 2.969 0 0 0-2.973-2.969z" data-name="패스 4163" transform="translate(-423.88 -426.878)" style="stroke:#424242;stroke-linecap:round;stroke-linejoin:round;fill:none"/>
        <path id="prefix__패스_4164" d="M430.74 446.786V445.2a1.627 1.627 0 0 0-1.132-1.549l-1.592-.508a1.459 1.459 0 0 1-1.016-1.39v-.107a1.333 1.333 0 0 0 .811-1.227v-1.755a1.333 1.333 0 0 0-1.333-1.333h-.737a1.333 1.333 0 0 0-1.334 1.333v1.755a1.333 1.333 0 0 0 .811 1.227v.107a1.459 1.459 0 0 1-1.016 1.39l-1.592.508a1.627 1.627 0 0 0-1.131 1.549v1.585" class="prefix__cls-3" data-name="패스 4164" transform="translate(-421.481 -430.447)"/>
        <path id="prefix__선_102" d="M0 0L6.846 0" class="prefix__cls-3" data-name="선 102" transform="translate(9.054 2.749)"/>
        <path id="prefix__선_103" d="M0 0L6.846 0" class="prefix__cls-3" data-name="선 103" transform="translate(9.054 4.633)"/>
        <path id="prefix__선_104" d="M0 0L6.846 0" class="prefix__cls-3" data-name="선 104" transform="translate(9.054 6.517)"/>
    </g>
</svg>
