
<svg xmlns="http://www.w3.org/2000/svg" width="32" height="32" viewBox="0 0 32 32">
    <defs>
        <style>
            .prefix__cls-2{fill:#fff;stroke:#000;stroke-linecap:round;stroke-linejoin:round;stroke-width:1.2px}
        </style>
    </defs>
    <g id="prefix__그룹_15088" data-name="그룹 15088" transform="translate(-105 -97)">
        <g id="prefix__사각형_3086" data-name="사각형 3086" style="stroke:#707070;opacity:0;fill:#fff">
            <path d="M0 0H32V32H0z" style="stroke:none" transform="translate(105 97)"/>
            <path d="M0.5 0.5H31.5V31.5H0.5z" style="fill:none" transform="translate(105 97)"/>
        </g>
        <g id="prefix__그룹_15016" data-name="그룹 15016" transform="translate(111 104.768)">
            <path id="prefix__패스_4266" d="M441.334 426.878h-9.695a3.129 3.129 0 0 0-3.129 3.129v3.774a3.129 3.129 0 0 0 3.129 3.129h2.524v2.166l2.9-2.166h4.269a3.129 3.129 0 0 0 3.129-3.129v-3.774a3.129 3.129 0 0 0-3.127-3.129z" class="prefix__cls-2" data-name="패스 4266" transform="translate(-423.631 -426.878)"/>
            <path id="prefix__패스_4267" d="M431.238 447.3v-1.67a1.714 1.714 0 0 0-1.192-1.632l-1.678-.535a1.538 1.538 0 0 1-1.07-1.465v-.113a1.4 1.4 0 0 0 .855-1.293v-1.849a1.4 1.4 0 0 0-1.4-1.4h-.777a1.4 1.4 0 0 0-1.406 1.4v1.849a1.4 1.4 0 0 0 .855 1.293v.113a1.538 1.538 0 0 1-1.07 1.465l-1.678.535a1.714 1.714 0 0 0-1.192 1.632v1.67" class="prefix__cls-2" data-name="패스 4267" transform="translate(-421.481 -430.076)"/>
            <path id="prefix__선_105" d="M0 0L8.07 0" class="prefix__cls-2" data-name="선 105" transform="translate(8.82 3.286)"/>
            <path id="prefix__선_106" d="M0 0L8.07 0" class="prefix__cls-2" data-name="선 106" transform="translate(8.82 5.271)"/>
            <path id="prefix__선_107" d="M0 0L8.07 0" class="prefix__cls-2" data-name="선 107" transform="translate(8.82 7.256)"/>
        </g>
    </g>
</svg>
