<svg xmlns="http://www.w3.org/2000/svg" width="32" height="32" viewBox="0 0 32 32">
    <defs>
        <style>
            .prefix__cls-2{fill:#fff;stroke:#000;stroke-width:1.2px;stroke-linecap:round;stroke-linejoin:round}
        </style>
    </defs>
    <g id="prefix__그룹_10464" data-name="그룹 10464" transform="translate(-280 55)">
        <g id="prefix__사각형_807" data-name="사각형 807" style="opacity:0;fill:#fff;stroke:#000;stroke-width:1.2px">
            <path d="M0 0H32V32H0z" style="stroke:none" transform="translate(280 -55)"/>
            <path d="M0.6 0.6H31.400000000000002V31.400000000000002H0.6z" style="fill:none" transform="translate(280 -55)"/>
        </g>
        <g id="prefix__그룹_10459" data-name="그룹 10459" transform="translate(286 -47.926)">
            <circle id="prefix__타원_132" cx="2.291" cy="2.291" r="2.291" class="prefix__cls-2" data-name="타원 132" transform="translate(0 4.911)"/>
            <path id="prefix__패스_4268" d="M347.211 80.618l-9.65 3.75v-13l9.65 3.75z" class="prefix__cls-2" data-name="패스 4268" transform="translate(-335.27 -70.664)"/>
            <path id="prefix__사각형_802" d="M0 0h3.462a2.752 2.752 0 0 1 2.753 2.752A2.752 2.752 0 0 1 3.462 5.5H0V0z" class="prefix__cls-2" data-name="사각형 802" transform="translate(11.941 4.449)"/>
            <path id="prefix__선_108" d="M0 0L0 14.403" class="prefix__cls-2" data-name="선 108" transform="translate(2.291)"/>
            <path id="prefix__패스_4269" d="M352.275 92.756a1.811 1.811 0 0 1-1.811-1.811l.694-6.25h3.622l-.694 6.25a1.811 1.811 0 0 1-1.811 1.811z" class="prefix__cls-2" data-name="패스 4269" transform="translate(-339.217 -74.743)"/>
        </g>
    </g>
</svg>
