<svg xmlns="http://www.w3.org/2000/svg" width="18" height="18" viewBox="0 0 18 18">
    <defs>
        <style>
            .prefix__cls-2{fill:#fff}
        </style>
    </defs>
    <g id="prefix__Layer_2" data-name="Layer 2" transform="translate(0 -.35)">
        <g id="prefix__prefix__menu-arrow-circle">
            <path id="prefix__사각형_2377" d="M0 0h18v18H0z" data-name="사각형 2377" transform="rotate(180 9 9.175)" style="opacity:0;fill:#fff"/>
            <path id="prefix__패스_7022" d="M9.593 2a7.593 7.593 0 1 0 7.593 7.593A7.593 7.593 0 0 0 9.593 2zm0 13.668a6.075 6.075 0 1 1 6.075-6.075 6.075 6.075 0 0 1-6.075 6.075z" class="prefix__cls-2" data-name="패스 7022" transform="translate(-.481 -1.036)"/>
            <path id="prefix__패스_7023" d="M11.158 6A2.658 2.658 0 0 0 8.5 8.658a.76.76 0 0 0 1.519 0A1.139 1.139 0 1 1 11.158 9.8a.759.759 0 0 0-.759.759v1.519a.76.76 0 0 0 1.519 0V11.2a2.65 2.65 0 0 0-.76-5.2z" class="prefix__cls-2" data-name="패스 7023" transform="translate(-2.046 -1.998)"/>
            <circle id="prefix__타원_284" cx=".5" cy=".5" r=".5" class="prefix__cls-2" data-name="타원 284" transform="translate(9 11.349)"/>
        </g>
    </g>
</svg>
