<svg xmlns="http://www.w3.org/2000/svg" width="40" height="45.008" viewBox="0 0 40 45.008">
    <defs>
        <style>
            .cls-8{fill:#fff}.cls-2{fill:#ec455f}.cls-3{fill:#ff9d00}
        </style>
    </defs>
    <g id="medal_gold_b" transform="translate(-48 -322.992)">
        <g id="그룹_19122" data-name="그룹 19122" transform="translate(-24.903 -128.111)">
            <g id="그룹_19117" data-name="그룹 19117" transform="translate(78.828 473.784)">
                <path id="패스_18386" d="M92.185 520.01l6.385-18.089-8.646-3.052-6.384 18.089 5.89-2.916z" class="cls-2" data-name="패스 18386" transform="translate(-83.54 -498.869)"/>
                <path id="패스_18387" d="M118.122 520.01l-6.385-18.089 8.646-3.052 6.384 18.089-5.89-2.916z" class="cls-2" data-name="패스 18387" transform="translate(-98.348 -498.869)"/>
            </g>
            <g id="그룹_19120" data-name="그룹 19120" transform="translate(74.569 451.103)">
                <g id="그룹_19118" data-name="그룹 19118">
                    <path id="패스_18388" d="M132.764 508.072l.241.074z" class="cls-3" data-name="패스 18388" transform="translate(-105.131 -481.022)"/>
                    <path id="패스_18389" d="M132.884 508.065l.126.081z" class="cls-3" data-name="패스 18389" transform="translate(-105.194 -481.018)"/>
                    <path id="패스_18390" d="M132.949 507.992l.066.151z" class="cls-3" data-name="패스 18390" transform="translate(-105.229 -480.98)"/>
                    <path id="패스_18391" fill="#ffb31c" d="M104.886 455.442a2.367 2.367 0 0 0-3.058-.051 2.409 2.409 0 0 0-1.284-2.765c-.028-.015-.056-.027-.085-.04a2.37 2.37 0 0 0-2.915.838 2.4 2.4 0 0 0-2.04-2.292h-.017a2.38 2.38 0 0 0-2.6 1.624 2.384 2.384 0 0 0-2.6-1.618h-.015a2.4 2.4 0 0 0-2.04 2.3 2.37 2.37 0 0 0-2.952-.813 2.409 2.409 0 0 0-1.327 2.791 2.366 2.366 0 0 0-3.032.037l-.036.03a2.415 2.415 0 0 0-.482 3.046 2.373 2.373 0 0 0-2.926.928 2.418 2.418 0 0 0 .379 3.067 2.384 2.384 0 0 0-2.545 1.718 2.952 2.952 0 0 1-.736 5.2v.016a2.915 2.915 0 0 1 .731 5.162l.018.067a2.382 2.382 0 0 0 2.541 1.689 2.418 2.418 0 0 0-.405 3.023c.013.023.028.046.043.069a2.362 2.362 0 0 0 2.7.968l24.839-24.839c-.057-.053-.101-.108-.156-.155z" data-name="패스 18391" transform="translate(-74.569 -451.103)"/>
                    <path id="패스_18392" d="M86.993 488.39a2.367 2.367 0 0 0 3.056.054 2.412 2.412 0 0 0 1.318 2.785 2.371 2.371 0 0 0 2.964-.813 2.4 2.4 0 0 0 2.039 2.295h.016a2.423 2.423 0 0 0 .345.025 2.386 2.386 0 0 0 2.258-1.647 2.382 2.382 0 0 0 2.6 1.622h.015a2.4 2.4 0 0 0 2.04-2.293 2.373 2.373 0 0 0 2.953.815 2.41 2.41 0 0 0 1.328-2.789 2.367 2.367 0 0 0 3.034-.036l.036-.03a2.418 2.418 0 0 0 .483-3.045 2.368 2.368 0 0 0 2.929-.925 2.421 2.421 0 0 0-.377-3.065 2.384 2.384 0 0 0 2.546-1.717 2.953 2.953 0 0 1 .741-5.2v-.052a2.916 2.916 0 0 1-.735-5.161l-.019-.066a2.383 2.383 0 0 0-2.544-1.692 2.416 2.416 0 0 0 .4-3.019l-.042-.069a2.37 2.37 0 0 0-2.913-.9 2.416 2.416 0 0 0-.354-2.9L86.281 485.4a2.117 2.117 0 0 0 .212-.069 2.418 2.418 0 0 0 .5 3.059z" class="cls-3" data-name="패스 18392" transform="translate(-80.655 -456.071)"/>
                </g>
                <g id="그룹_19119" data-name="그룹 19119" transform="translate(4.273 4.273)">
                    <path id="패스_18393" fill="#ffd645" d="M111.689 474.164a14.06 14.06 0 1 1-14.06-14.064 14.06 14.06 0 0 1 14.06 14.064z" data-name="패스 18393" transform="translate(-83.569 -460.103)"/>
                    <path id="패스_18394" fill="#ffbf29" d="M112 477.348a11.117 11.117 0 1 1-11.117-11.118A11.116 11.116 0 0 1 112 477.348z" data-name="패스 18394" transform="translate(-86.825 -463.321)"/>
                    <path id="패스_18395" fill="#f09e1c" d="M100.883 467.476a11.117 11.117 0 0 1 11.1 10.495c.011-.207.018-.414.018-.623a11.117 11.117 0 1 0-22.234 0c0 .209.007.416.018.623a11.117 11.117 0 0 1 11.098-10.495z" data-name="패스 18395" transform="translate(-86.823 -463.321)"/>
                </g>
            </g>
            <g id="그룹_19121" data-name="그룹 19121" transform="translate(82.3 461.098)">
                <path id="패스_18396" d="M93.451 477.343a1.3 1.3 0 1 1-1.3-1.3 1.3 1.3 0 0 1 1.3 1.3z" class="cls-8" data-name="패스 18396" transform="translate(-90.85 -474.195)"/>
                <path id="패스_18397" d="M100.075 472.833a.681.681 0 1 1-.681-.681.681.681 0 0 1 .681.681z" class="cls-8" data-name="패스 18397" transform="translate(-94.979 -472.152)"/>
            </g>
        </g>
        <text id="_1" fill="#fff" stroke="#ff9d00" stroke-linejoin="round" stroke-width="2px" data-name="1" font-family="NanumSquareEB, NanumSquare" font-size="15px" transform="translate(67 347)">
            <tspan x="-4.65" y="0">1</tspan>
        </text>
        <text id="_1-2" fill="#fff" data-name="1" font-family="NanumSquareEB, NanumSquare" font-size="15px" transform="translate(67 347)">
            <tspan x="-4.65" y="0">1</tspan>
        </text>
    </g>
</svg>
