
<svg id="listen" xmlns="http://www.w3.org/2000/svg" width="24" height="24" viewBox="0 0 24 24">
  <defs>
    <style>
      .cls-1, .cls-3 {
        fill: #fff;
      }

      .cls-1, .cls-2, .cls-3 {
        stroke: #fff;
      }

      .cls-1 {
        opacity: 0;
      }

      .cls-2, .cls-5 {
        fill: none;
      }

      .cls-2, .cls-3 {
        stroke-linecap: round;
        stroke-linejoin: round;
        stroke-width: 1.5px;
      }

      .cls-2 {
        opacity: 0.7;
      }

      .cls-4 {
        stroke: none;
      }
    </style>
  </defs>
  <g id="사각형_6289" data-name="사각형 6289" class="cls-1">
    <rect class="cls-4" width="24" height="24"/>
    <rect class="cls-5" x="0.5" y="0.5" width="23" height="23"/>
  </g>
  <g id="그룹_19213" data-name="그룹 19213" transform="translate(-153.513 -599.129)">
    <path id="패스_18422" data-name="패스 18422" class="cls-2" d="M157.013,611.674a8.545,8.545,0,0,1,17.091,0"/>
    <path id="사각형_6287" data-name="사각형 6287" class="cls-3" d="M0,0H1.346a2.13,2.13,0,0,1,2.13,2.13V3.414a2.13,2.13,0,0,1-2.13,2.13H0a0,0,0,0,1,0,0V0A0,0,0,0,1,0,0Z" transform="translate(157.013 611.674)"/>
    <path id="사각형_6288" data-name="사각형 6288" class="cls-3" d="M0,0H1.346a2.13,2.13,0,0,1,2.13,2.13V3.414a2.13,2.13,0,0,1-2.13,2.13H0a0,0,0,0,1,0,0V0A0,0,0,0,1,0,0Z" transform="translate(174.104 617.218) rotate(-180)"/>
  </g>
</svg>
