
<svg xmlns="http://www.w3.org/2000/svg" id="prefix__ic_edit" width="16" height="16" viewBox="0 0 16 16">
    <path id="prefix__사각형_1720" d="M0 0H16V16H0z" data-name="사각형 1720" style="fill:none"/>
    <path id="prefix__edit" d="M10.768 9.159l.857-.857a.215.215 0 0 1 .367.153v3.892a1.285 1.285 0 0 1-1.285 1.285H1.285A1.285 1.285 0 0 1 0 12.346V2.925A1.285 1.285 0 0 1 1.285 1.64h7.32a.216.216 0 0 1 .153.367l-.858.856a.212.212 0 0 1-.153.062H1.285v9.422h9.422V9.308a.211.211 0 0 1 .061-.149zm4.192-5.4l-7.029 7.027-2.42.268a1.106 1.106 0 0 1-1.22-1.221l.268-2.42L11.587.385a1.562 1.562 0 0 1 2.214 0l1.156 1.156a1.568 1.568 0 0 1 0 2.216zm-2.644.827L10.76 3.029 5.787 8l-.2 1.748 1.748-.2zm1.734-2.133l-1.157-1.158a.279.279 0 0 0-.4 0l-.827.827 1.555 1.555.827-.827a.285.285 0 0 0 .001-.399z" transform="translate(.583 1.444)" style="fill:#bdbdbd"/>
</svg>
