<svg xmlns="http://www.w3.org/2000/svg" xmlns:xlink="http://www.w3.org/1999/xlink" id="prefix__ic_star_s" width="24" height="24" viewBox="0 0 24 24">
    <defs>
        <linearGradient id="prefix__linear-gradient" x1=".42" x2=".584" y1=".118" y2="1.003" gradientUnits="objectBoundingBox">
            <stop offset="0" stop-color="#fde244"/>
            <stop offset=".224" stop-color="#fddd43"/>
            <stop offset=".474" stop-color="#fdcf41"/>
            <stop offset=".723" stop-color="#ffbb3f"/>
        </linearGradient>
        <linearGradient id="prefix__linear-gradient-2" x1=".844" x2="-.033" y1="-.063" y2=".895" gradientUnits="objectBoundingBox">
            <stop offset="0" stop-color="#fff" stop-opacity=".31"/>
            <stop offset=".21" stop-color="#fff" stop-opacity=".29"/>
            <stop offset=".445" stop-color="#fff" stop-opacity=".239"/>
            <stop offset=".693" stop-color="#fff" stop-opacity=".153"/>
            <stop offset=".946" stop-color="#fff" stop-opacity=".031"/>
            <stop offset="1" stop-color="#fff" stop-opacity="0"/>
        </linearGradient>
        <linearGradient id="prefix__linear-gradient-3" x1=".463" x2=".627" y1=".092" y2="1.168" gradientUnits="objectBoundingBox">
            <stop offset="0" stop-color="#fdad2b"/>
            <stop offset=".156" stop-color="#fca82d"/>
            <stop offset=".33" stop-color="#fa9a34"/>
            <stop offset=".513" stop-color="#f6843f"/>
            <stop offset=".701" stop-color="#f1654e"/>
            <stop offset=".86" stop-color="#ec455f"/>
        </linearGradient>
        <linearGradient id="prefix__linear-gradient-4" x1="1.058" x2=".262" y1="-.421" y2=".517" xlink:href="#prefix__linear-gradient-2"/>
        <clipPath id="prefix__clip-path">
            <path id="prefix__패스_4112" d="M4.162.34l.316 1.533a.426.426 0 0 0 .252.306l1.442.608a.426.426 0 0 1 .045.763l-1.36.775a.426.426 0 0 0-.214.334l-.133 1.56a.426.426 0 0 1-.71.281L2.643 5.443a.426.426 0 0 0-.384-.1L.735 5.7a.426.426 0 0 1-.485-.59l.645-1.428a.426.426 0 0 0-.023-.4l-.81-1.335A.426.426 0 0 1 .474 1.3l1.556.173a.426.426 0 0 0 .37-.142L3.423.148a.426.426 0 0 1 .739.192z" class="prefix__cls-1" data-name="패스 4112"/>
        </clipPath>
        <clipPath id="prefix__clip-path-2">
            <path id="prefix__패스_4115" d="M7.277.384L9.42 3.22a.967.967 0 0 0 .815.383l3.55-.158a.967.967 0 0 1 .836 1.52l-2.035 2.914a.967.967 0 0 0-.113.893l1.248 3.328a.967.967 0 0 1-1.187 1.265l-3.4-1.034a.967.967 0 0 0-.884.169l-2.78 2.214a.967.967 0 0 1-1.57-.738l-.067-3.553a.967.967 0 0 0-.433-.789L.434 7.674a.967.967 0 0 1 .217-1.721L4.01 4.792a.967.967 0 0 0 .616-.656L5.573.71A.967.967 0 0 1 7.277.384z" class="prefix__cls-1" data-name="패스 4115"/>
        </clipPath>
        <style>
            .prefix__cls-1{fill:none}.prefix__cls-10{stroke:none}
        </style>
    </defs>
    <g id="prefix__사각형_1642" data-name="사각형 1642" style="fill:#fff;stroke:#707070;opacity:0">
        <path d="M0 0H24V24H0z" class="prefix__cls-10"/>
        <path d="M0.5 0.5H23.5V23.5H0.5z" class="prefix__cls-1"/>
    </g>
    <g id="prefix__별" transform="translate(2.667 3.614)">
        <g id="prefix__그룹_9728" data-name="그룹 9728" transform="rotate(5.13 6.464 140.6)">
            <g id="prefix__패스_4110" data-name="패스 4110">
                <path d="M4.085 6.86c-.167 0-.328-.063-.453-.178L2.475 5.628c-.033-.03-.075-.046-.119-.046-.013 0-.027.002-.04.005l-1.524.356c-.052.012-.105.018-.157.018-.228 0-.44-.116-.566-.311-.124-.193-.142-.434-.047-.644l.645-1.427c.024-.052.02-.113-.01-.163l-.809-1.34c-.128-.212-.131-.466-.01-.681.12-.213.344-.345.586-.345.026 0 .052.002.078.005l1.555.172.02.002c.05 0 .1-.023.133-.061L3.234-.016c.13-.15.311-.234.509-.234.325 0 .599.222.664.54l.317 1.533c.011.056.05.104.104.126l1.442.609c.239.1.397.324.412.582.015.26-.115.5-.34.628l-1.36.774c-.05.03-.084.08-.089.139l-.132 1.56c-.03.352-.321.618-.676.618z" class="prefix__cls-10"/>
                <path d="M3.743 0c-.116 0-.233.047-.32.148L2.399 1.33c-.082.094-.2.148-.322.148-.016 0-.032-.001-.047-.003L.474 1.303C.457 1.301.44 1.3.424 1.3c-.323 0-.536.359-.362.647l.81 1.34c.072.12.08.268.023.395L.25 5.11c-.131.29.089.602.385.602.033 0 .066-.004.1-.012l1.524-.355c.032-.008.065-.012.097-.012.105 0 .208.04.287.111L3.8 6.498c.084.077.186.111.285.111.207 0 .406-.152.426-.39l.133-1.56c.012-.14.092-.264.214-.334l1.36-.775c.307-.174.28-.625-.045-.762L4.73 2.18c-.13-.055-.224-.17-.252-.307L4.162.34C4.118.125 3.932 0 3.742 0m0-.5c.446 0 .82.304.91.74l.309 1.494 1.406.593c.327.138.544.444.565.799.02.354-.158.683-.467.859L5.14 4.74l-.13 1.521c-.04.484-.438.848-.924.848-.23 0-.45-.086-.622-.242L2.335 5.84l-1.486.347c-.07.016-.143.025-.214.025-.314 0-.604-.16-.776-.426-.17-.265-.195-.594-.065-.882l.63-1.391-.79-1.307c-.175-.29-.18-.638-.014-.933C-.216.982.092.8.424.8.46.8.494.802.53.806l1.517.169.999-1.155c.176-.203.43-.32.698-.32z" style="fill:#ffbb3f;stroke:none"/>
            </g>
            <g id="prefix__그룹_9727" data-name="그룹 9727" style="opacity:.54">
                <g id="prefix__그룹_9726" data-name="그룹 9726">
                    <path id="prefix__패스_4111" d="M5.471 0A42.2 42.2 0 0 0 .912.912L0 2.241l.443 4.038 7.138-4.09z" data-name="패스 4111" transform="translate(-1.148 -1.745)"/>
                </g>
            </g>
        </g>
        <g id="prefix__패스_4113" data-name="패스 4113" transform="matrix(.995 -.105 .105 .995 0 2.386)">
            <path d="M4.872 15.176c-.673 0-1.209-.525-1.222-1.196l-.067-3.553c-.004-.236-.124-.455-.321-.585L.296 7.883c-.389-.257-.595-.705-.536-1.168.058-.463.368-.845.81-.998l3.358-1.162c.223-.077.394-.259.457-.486L5.332.643C5.48.11 5.952-.25 6.509-.25c.382 0 .735.176.967.484L9.62 3.069c.135.178.349.285.572.285l.032-.001 3.55-.158.058-.001c.453 0 .865.25 1.076.655.214.41.183.88-.081 1.259L12.79 8.022c-.135.194-.166.441-.083.662l1.247 3.328c.142.38.092.787-.137 1.118-.23.33-.602.528-.997.528-.12 0-.242-.018-.36-.054l-3.4-1.034c-.068-.021-.138-.032-.209-.032-.161 0-.32.056-.447.157l-2.78 2.214c-.218.175-.48.267-.753.267z" class="prefix__cls-10"/>
            <path d="M6.51 0c-.409 0-.811.254-.937.71l-.947 3.425c-.085.307-.315.553-.616.657L.65 5.953c-.757.262-.886 1.28-.217 1.721L3.4 9.634c.266.175.428.47.434.788l.067 3.554c.01.566.478.95.972.95.205 0 .414-.066.598-.212l2.78-2.215c.173-.138.386-.21.602-.21.094 0 .19.013.282.041l3.4 1.035c.097.03.193.043.287.043.642 0 1.146-.653.9-1.308l-1.247-3.328c-.112-.298-.07-.632.112-.893l2.035-2.914c.45-.645-.017-1.521-.79-1.521h-.046l-3.55.159h-.044c-.302 0-.588-.14-.771-.383L7.277.384C7.079.122 6.793 0 6.509 0m0-.5c.462 0 .887.212 1.167.583l2.142 2.835c.088.116.228.186.373.186h.02l3.551-.159.069-.001c.546 0 1.044.302 1.298.79.253.486.216 1.067-.098 1.517l-2.035 2.914c-.088.126-.108.287-.054.432l1.247 3.327c.172.458.111.949-.166 1.348-.276.398-.725.636-1.202.636-.145 0-.29-.022-.433-.065l-3.4-1.034c-.044-.014-.09-.02-.136-.02-.105 0-.208.036-.29.101l-2.78 2.215c-.264.21-.579.321-.91.321-.81 0-1.456-.633-1.472-1.44l-.067-3.554c-.003-.154-.081-.296-.21-.381L.16 8.09c-.47-.31-.718-.849-.647-1.407.07-.558.444-1.02.976-1.203l3.358-1.162c.146-.05.257-.169.298-.317L5.091.577C5.269-.067 5.839-.5 6.509-.5z" style="fill:#f16350;stroke:none"/>
        </g>
        <g id="prefix__그룹_9730" data-name="그룹 9730" transform="matrix(.995 -.105 .105 .995 0 2.386)">
            <g id="prefix__그룹_9729" data-name="그룹 9729">
                <path id="prefix__패스_4114" d="M8.448 0C7.907.018 0 5.023 0 5.023l.44 6.347 4.42 5.31L14.894 2.489z" data-name="패스 4114" transform="translate(-3.946 -1.849)"/>
            </g>
        </g>
    </g>
</svg>
