
<svg xmlns="http://www.w3.org/2000/svg" id="setting" width="24" height="24" viewBox="0 0 24 24">
    <defs>
        <style>
            .cls-2{fill:#757575}
        </style>
    </defs>
    <g id="Layer_10" transform="translate(1 1)">
        <path id="패스_18410" d="M11.667 21h-1.334a2 2 0 0 1-2-1.76 8.454 8.454 0 0 1-1.3-.533 2 2 0 0 1-2.667-.167l-.906-.94a2 2 0 0 1-.167-2.667 8.453 8.453 0 0 1-.533-1.267 2 2 0 0 1-1.76-2v-1.333a2 2 0 0 1 1.76-2 8.453 8.453 0 0 1 .533-1.3 2 2 0 0 1 .167-2.666l.94-.907a2 2 0 0 1 2.667-.167 8.453 8.453 0 0 1 1.266-.533 2 2 0 0 1 2-1.76h1.333a2 2 0 0 1 2 1.76 8.453 8.453 0 0 1 1.3.533 2 2 0 0 1 2.667.167l.907.94a2 2 0 0 1 .167 2.667 8.454 8.454 0 0 1 .533 1.3A2 2 0 0 1 21 10.333v1.333a2 2 0 0 1-1.76 2 8.454 8.454 0 0 1-.533 1.3 2 2 0 0 1-.167 2.667l-.94.907a2 2 0 0 1-2.667.167 8.454 8.454 0 0 1-1.3.533A2 2 0 0 1 11.667 21zM6.94 17.22a.627.627 0 0 1 .34.093 7.333 7.333 0 0 0 1.887.78.667.667 0 0 1 .5.667V19a.667.667 0 0 0 .667.667h1.333a.667.667 0 0 0 .666-.667v-.26a.667.667 0 0 1 .5-.667 7.333 7.333 0 0 0 1.887-.78.667.667 0 0 1 .807.1l.187.187a.667.667 0 0 0 .947 0l.94-.94a.667.667 0 0 0 0-.947l-.187-.187a.667.667 0 0 1-.1-.807 7.333 7.333 0 0 0 .78-1.887.667.667 0 0 1 .667-.5H19a.667.667 0 0 0 .667-.667v-1.312A.667.667 0 0 0 19 9.667h-.26a.667.667 0 0 1-.667-.5 7.333 7.333 0 0 0-.78-1.887.667.667 0 0 1 .1-.807l.187-.187a.667.667 0 0 0 0-.947l-.92-.94a.667.667 0 0 0-.947 0l-.187.187a.667.667 0 0 1-.807.1 7.333 7.333 0 0 0-1.887-.78.667.667 0 0 1-.5-.667V3a.667.667 0 0 0-.667-.667h-1.332A.667.667 0 0 0 9.667 3v.26a.667.667 0 0 1-.5.667 7.333 7.333 0 0 0-1.887.78.667.667 0 0 1-.807-.1L6.287 4.4a.667.667 0 0 0-.947 0l-.94.94a.667.667 0 0 0 0 .947l.187.187a.667.667 0 0 1 .1.807 7.333 7.333 0 0 0-.78 1.887.667.667 0 0 1-.667.5H3a.667.667 0 0 0-.667.667v1.333a.667.667 0 0 0 .667.665h.26a.667.667 0 0 1 .667.5 7.333 7.333 0 0 0 .78 1.887.667.667 0 0 1-.1.807l-.187.187a.667.667 0 0 0 0 .947l.92.94a.667.667 0 0 0 .947 0l.187-.187a.667.667 0 0 1 .466-.194z" class="cls-2"/>
        <path id="패스_18411" d="M13.667 18.333a4.667 4.667 0 1 1 4.667-4.667 4.667 4.667 0 0 1-4.667 4.667zm0-8A3.333 3.333 0 1 0 17 13.667a3.333 3.333 0 0 0-3.333-3.334z" class="cls-2" transform="translate(-2.667 -2.667)"/>
    </g>
</svg>
