
<svg xmlns="http://www.w3.org/2000/svg" id="prefix__gift_pink" width="24" height="24" viewBox="0 0 24 24">
    <defs>
        <style>
            .prefix__cls-2{fill:none;stroke:#fff;stroke-linecap:round;stroke-linejoin:round}
        </style>
    </defs>
    <rect id="prefix__사각형_2088" width="24" height="24" fill="#eb8d9c" data-name="사각형 2088" rx="8"/>
    <g id="prefix__그룹_14868" data-name="그룹 14868" transform="translate(6 5)">
        <path id="prefix__사각형_2331" d="M0 0H12.2V2.831H0z" class="prefix__cls-2" data-name="사각형 2331" transform="translate(0 3.164)"/>
        <path id="prefix__사각형_2332" d="M0 0H11.21V8.182H0z" class="prefix__cls-2" data-name="사각형 2332" transform="translate(.495 5.995)"/>
        <path id="prefix__선_154" fill="#fff" stroke="#fff" stroke-linecap="round" stroke-linejoin="round" d="M0 0L0 11.013" data-name="선 154" transform="translate(6.1 3.164)"/>
        <path id="prefix__패스_6997" d="M253.809 69.14A16.888 16.888 0 0 1 255.17 72a16.891 16.891 0 0 1-2.855-1.362 1.056 1.056 0 0 1 1.493-1.493z" class="prefix__cls-2" data-name="패스 6997" transform="translate(-249.07 -68.831)"/>
        <path id="prefix__패스_6998" d="M259.472 69.14A16.886 16.886 0 0 0 258.11 72a16.89 16.89 0 0 0 2.855-1.362 1.056 1.056 0 0 0-1.493-1.493z" class="prefix__cls-2" data-name="패스 6998" transform="translate(-252.01 -68.831)"/>
    </g>
</svg>
