
<svg xmlns="http://www.w3.org/2000/svg" id="prefix__moon_yellow_s" width="16" height="16" viewBox="0 0 16 16">
    <defs>
        <linearGradient id="prefix__linear-gradient" x1=".233" x2=".738" y1=".078" y2=".944" gradientUnits="objectBoundingBox">
            <stop offset="0" stop-color="#fdad2b"/>
            <stop offset=".181" stop-color="#fca82d"/>
            <stop offset=".383" stop-color="#fa9a34"/>
            <stop offset=".596" stop-color="#f6843f"/>
            <stop offset=".814" stop-color="#f1654e"/>
            <stop offset="1" stop-color="#ec455f"/>
        </linearGradient>
        <linearGradient id="prefix__linear-gradient-2" x1=".774" x2=".279" y1="-.526" y2="1.026" gradientUnits="objectBoundingBox">
            <stop offset="0" stop-color="#fde065" stop-opacity=".541"/>
            <stop offset=".156" stop-color="#fde16a" stop-opacity=".522"/>
            <stop offset=".33" stop-color="#fde479" stop-opacity=".467"/>
            <stop offset=".513" stop-color="#fde992" stop-opacity=".38"/>
            <stop offset=".703" stop-color="#fef0b5" stop-opacity=".255"/>
            <stop offset=".895" stop-color="#fef9e2" stop-opacity=".098"/>
            <stop offset="1" stop-color="#fff" stop-opacity="0"/>
        </linearGradient>
        <clipPath id="prefix__clip-path">
            <path id="prefix__패스_5579" d="M149.328 266.059a3.631 3.631 0 1 1 .639-7.2 5.67 5.67 0 1 0 2.257 5.763 3.625 3.625 0 0 1-2.896 1.437z" class="prefix__cls-1" data-name="패스 5579" transform="translate(-141 -257.798)"/>
        </clipPath>
        <style>
            .prefix__cls-1{fill:none}
        </style>
    </defs>
    <g id="prefix___1" data-name="1" transform="translate(1.971 2)">
        <g id="prefix__그룹_11281" data-name="그룹 11281">
            <g id="prefix__그룹_11278" data-name="그룹 11278">
                <path id="prefix__패스_5576" fill="url(#prefix__linear-gradient)" d="M145.309 267.917a5.809 5.809 0 1 1 3.378-10.536.139.139 0 0 1-.081.252h-.024a3.492 3.492 0 1 0-.615 6.929 3.467 3.467 0 0 0 2.786-1.387.139.139 0 0 1 .246.112 5.828 5.828 0 0 1-5.69 4.63z" data-name="패스 5576" transform="translate(-139.361 -256.159)"/>
                <path id="prefix__패스_5577" fill="#ee5556" d="M143.948 255.075a5.645 5.645 0 0 1 3.3 1.056 3.631 3.631 0 1 0 2.257 5.763 5.671 5.671 0 1 1-5.554-6.819m0-.277a5.947 5.947 0 1 0 5.826 7.153.277.277 0 0 0-.493-.223 3.353 3.353 0 1 1-2.675-5.375 3.384 3.384 0 0 1 .591.053.272.272 0 0 0 .049 0 .277.277 0 0 0 .161-.5 5.907 5.907 0 0 0-3.458-1.108z" data-name="패스 5577" transform="translate(-138 -254.798)"/>
            </g>
            <g id="prefix__그룹_11280" data-name="그룹 11280" transform="translate(.277 .277)">
                <g id="prefix__그룹_11279" clip-path="url(#prefix__clip-path)" data-name="그룹 11279">
                    <path id="prefix__패스_5578" fill="url(#prefix__linear-gradient-2)" d="M123.812 243.508c-.592.079-5.207 6.075-5.207 6.075l.473 5.01 12.5-9.763-3.471-.848z" data-name="패스 5578" transform="translate(-120.676 -244.829)"/>
                </g>
            </g>
        </g>
    </g>
</svg>
