
<svg xmlns="http://www.w3.org/2000/svg" id="prefix__exclusion_red" width="24" height="24" viewBox="0 0 24 24">
    <defs>
        <style>
            .prefix__cls-1{fill:#ec455f}
        </style>
    </defs>
    <circle id="prefix__타원_546" cx="11.333" cy="11.333" r="11.333" class="prefix__cls-1" data-name="타원 546" transform="translate(.533)"/>
    <g id="prefix__그룹_18673" data-name="그룹 18673">
        <g id="prefix__그룹_18421" data-name="그룹 18421">
            <g id="prefix__그룹_18674" data-name="그룹 18674">
                <g id="prefix__그룹_18419" data-name="그룹 18419">
                    <path id="prefix__패스_16644" d="M734.7 246.3a12 12 0 1 1 12-12 12.013 12.013 0 0 1-12 12zm0-22.588a10.588 10.588 0 1 0 10.588 10.588 10.619 10.619 0 0 0-10.588-10.588z" class="prefix__cls-1" data-name="패스 16644" transform="translate(-722.7 -222.3)"/>
                </g>
                <g id="prefix__그룹_18420" data-name="그룹 18420" transform="translate(5.6 11.24)">
                    <path id="prefix__패스_16645" fill="#fff" d="M743.233 236.62h-10.666c-.667 0-1.067-.285-1.067-.76s.4-.76 1.067-.76h10.667c.667 0 1.067.285 1.067.76s-.401.76-1.068.76z" data-name="패스 16645" transform="translate(-731.5 -235.1)"/>
                </g>
            </g>
        </g>
    </g>
</svg>
