
<svg xmlns="http://www.w3.org/2000/svg" id="img_profile_ex" width="28" height="28" viewBox="0 0 28 28">
    <defs>
        <clipPath id="clip-path">
            <circle id="타원_336" cx="14" cy="14" r="14" fill="#fff" stroke="#707070"/>
        </clipPath>
        <clipPath id="clip-path-2">
            <path id="패스_6388" d="M1071.084 1144.61c.033-.033 1.938-1.283 3.752 1.207 0 0-1.2.8-3.693-1.172" class="cls-2" transform="translate(-1071.084 -1144.267)"/>
        </clipPath>
        <clipPath id="clip-path-3">
            <path id="패스_6392" d="M1017.777 1132.3a7.331 7.331 0 0 0-3.378-1.353 5.357 5.357 0 0 0-3.022.561.681.681 0 0 0-.248.347 1.436 1.436 0 0 0-.207.447c.25.3 2.181 2.608 2.777 3.131a33.734 33.734 0 0 1 3.764-2.616s.296-.068.314-.517z" class="cls-2" transform="translate(-1010.923 -1130.934)"/>
        </clipPath>
        <style>
            .cls-2{fill:#a2a2a2}.cls-5{fill:#f9f9f9}.cls-6{fill:#ccc}.cls-7{fill:#efefef}.cls-8{fill:#777}.cls-9{fill:#b2b2b2}.cls-10{fill:#f5f5f5}.cls-11{fill:#8e8e8e}
        </style>
    </defs>
    <circle id="타원_337" cx="14" cy="14" r="14" fill="#dbdbdb"/>
    <g id="마스크_그룹_2" clip-path="url(#clip-path)">
        <g id="_6" transform="translate(.384 -1.458)">
            <g id="왼팔" transform="translate(0 17.68)">
                <g id="그룹_12762" transform="translate(.163 .162)">
                    <path id="패스_6360" d="M933.992 1089.063a.169.169 0 0 1-.042-.005c-.67-.18-7.217-4.275-7.961-4.741a2.85 2.85 0 0 1-1.454-1.633 1.136 1.136 0 0 1 .2-.895v-.006c.014-.02.029-.039.044-.057a1.2 1.2 0 0 1 .977-.521 1.9 1.9 0 0 1 1.025.368 2.312 2.312 0 0 1 .213-.363l.015-.018a.5.5 0 0 1 .349-.171c.5 0 .675 1.016.723 1.4a83.137 83.137 0 0 0 6.472 5.361.158.158 0 0 1 .046.054.744.744 0 0 1-.6 1.23z" class="cls-5" transform="translate(-924.512 -1081.02)"/>
                </g>
                <g id="그룹_12764">
                    <g id="그룹_12763">
                        <path id="패스_6361" d="M926.019 1079.845c.416 0 .568 1.3.568 1.3.8 1.055 6.529 5.425 6.529 5.425.492.941-.463.992-.463.992-.666-.179-7.917-4.722-7.917-4.722-1.748-1.1-1.466-1.941-1.208-2.3.013-.018.026-.036.039-.051a1.038 1.038 0 0 1 .851-.461 1.9 1.9 0 0 1 1.1.461 2.035 2.035 0 0 1 .27-.523.343.343 0 0 1 .233-.123m0-.325a.652.652 0 0 0-.464.219.315.315 0 0 0-.031.036 2.319 2.319 0 0 0-.145.227 1.934 1.934 0 0 0-.962-.3 1.369 1.369 0 0 0-1.107.585l-.045.059a1.3 1.3 0 0 0-.227 1.024 2.992 2.992 0 0 0 1.527 1.739c1.218.763 7.327 4.579 8.006 4.76a.317.317 0 0 0 .084.011h.017a.9.9 0 0 0 .734-1.467.325.325 0 0 0-.091-.108 79.1 79.1 0 0 1-6.415-5.3c-.079-.6-.3-1.493-.878-1.493z" class="cls-6" transform="translate(-923.01 -1079.52)"/>
                    </g>
                </g>
            </g>
            <g id="그룹_12768" transform="translate(7.928 22.71)">
                <g id="그룹_12765" transform="translate(.162 .163)">
                    <path id="패스_6362" d="M997.882 1134.207a.163.163 0 0 1-.162-.15c-.157-2.1 1.492-4.581 2-5.291a3.882 3.882 0 0 1 1.06-.923 3.644 3.644 0 0 1 1.443-.376h.071a4.056 4.056 0 0 1 1.115.159 3.591 3.591 0 0 1 1.508.932l.009.011a4.6 4.6 0 0 1 .414.623 11.458 11.458 0 0 1 1.047 4.866.162.162 0 0 1-.162.15z" class="cls-5" transform="translate(-997.71 -1127.466)"/>
                </g>
                <g id="그룹_12767">
                    <g id="그룹_12766">
                        <path id="패스_6363" d="M1000.959 1126.29a3.889 3.889 0 0 1 1.068.152 3.435 3.435 0 0 1 1.437.889 4.429 4.429 0 0 1 .4.6 11.241 11.241 0 0 1 1.029 4.779h-8.345c-.144-1.927 1.3-4.248 1.972-5.184a3.746 3.746 0 0 1 1-.873 3.481 3.481 0 0 1 1.377-.358h.063m0-.325h-.08a3.8 3.8 0 0 0-1.505.391 4.061 4.061 0 0 0-1.118.972c-.52.725-2.2 3.246-2.034 5.4a.325.325 0 0 0 .324.3h8.345a.325.325 0 0 0 .324-.3 11.63 11.63 0 0 0-1.056-4.937l-.008-.017a4.744 4.744 0 0 0-.431-.65l-.019-.022a3.747 3.747 0 0 0-1.573-.974h-.005a4.223 4.223 0 0 0-1.163-.166z" class="cls-6" transform="translate(-996.21 -1125.965)"/>
                    </g>
                </g>
            </g>
            <g id="그룹_12769" transform="translate(14.617 23.605)">
                <path id="패스_6364" d="M1058.521 1140.077h1.439a11.247 11.247 0 0 0-1.028-4.779 4.451 4.451 0 0 0-.4-.6 3.278 3.278 0 0 0-.565-.471 12.021 12.021 0 0 1 .554 5.85z" class="cls-7" transform="translate(-1057.969 -1134.23)"/>
            </g>
            <g id="왼귀" transform="translate(10.757)">
                <g id="그룹_12771">
                    <path id="패스_6365" d="M1026.042 928.526a1.76 1.76 0 0 1-.538-.086 1.118 1.118 0 0 1-.54-.417c-1.69-2.768-.937-6.71-.9-6.876.451-1.742 1.166-2.845 2.128-3.289a1.036 1.036 0 0 1 .4-.079 1.208 1.208 0 0 1 .916.459.166.166 0 0 1 .018.024 3.743 3.743 0 0 1 .343 2.006v.012c-.011.1-.092.717-.163 1.262l-.114.873c-.005.04-.381 3.533-.333 5.149a.841.841 0 0 1-.379.727 1.586 1.586 0 0 1-.83.234z" class="cls-5" transform="translate(-1023.698 -917.617)"/>
                    <g id="그룹_12770">
                        <path id="패스_6366" d="M1025.22 916.6a1.047 1.047 0 0 1 .794.4 3.52 3.52 0 0 1 .32 1.917c-.02.177-.267 2.042-.277 2.136 0 0-.383 3.528-.333 5.173a.68.68 0 0 1-.305.585 1.421 1.421 0 0 1-.742.208 1.6 1.6 0 0 1-.489-.078.946.946 0 0 1-.454-.352c-1.679-2.749-.883-6.739-.88-6.755a4.559 4.559 0 0 1 2.037-3.173.88.88 0 0 1 .33-.064m0-.325a1.2 1.2 0 0 0-.454.089l-.013.005c-1.008.466-1.753 1.6-2.215 3.386v.017c-.034.168-.809 4.155.921 6.989l.008.012a1.264 1.264 0 0 0 .617.478h.007a1.917 1.917 0 0 0 .588.094 1.743 1.743 0 0 0 .91-.255l.009-.005a1 1 0 0 0 .453-.873c-.047-1.606.328-5.088.332-5.122l.113-.871c.075-.572.153-1.164.164-1.265v-.024a3.892 3.892 0 0 0-.366-2.1.371.371 0 0 0-.035-.048 1.366 1.366 0 0 0-1.038-.514z" class="cls-6" transform="translate(-1022.332 -916.279)"/>
                    </g>
                </g>
                <path id="패스_6368" d="M1036.122 951.345v-.028a19.43 19.43 0 0 1-.063-3.556 18.021 18.021 0 0 1 .227-2 1.4 1.4 0 0 0 0-.434.626.626 0 0 0-.068-.167.546.546 0 0 0-.146-.126.74.74 0 0 0-.389-.087.759.759 0 0 0-.407.176 1.107 1.107 0 0 0-.137.218c-.848 2.127.144 6.07.144 6.07a.565.565 0 0 0 .025.089.429.429 0 0 0 .329.323.752.752 0 0 0 .236-.007.379.379 0 0 0 .249-.471z" class="cls-6" transform="translate(-1033.443 -941.838)"/>
            </g>
            <g id="그룹_12773" transform="translate(16.101 1.746)">
                <path id="패스_6370" d="M1074.657 943.618a1.639 1.639 0 0 1-1.133-.465 1.12 1.12 0 0 1-.307-.608c-.334-3.249 2.126-6.562 2.151-6.595 1.146-1.362 2.256-2.049 3.306-2.049h.032a1.125 1.125 0 0 1 1.022.91.161.161 0 0 1 .005.029 3.744 3.744 0 0 1-.556 1.958l-.006.01c-.053.085-.393.608-.692 1.069-.235.362-.458.7-.479.739s-1.868 3.023-2.521 4.5a.839.839 0 0 1-.656.493c-.059.006-.112.008-.165.008z" class="cls-5" transform="translate(-1073.021 -933.738)"/>
                <g id="그룹_12772">
                    <path id="패스_6371" d="M1077.324 932.725h.03a.964.964 0 0 1 .867.792 3.518 3.518 0 0 1-.538 1.867c-.094.151-1.122 1.727-1.171 1.808 0 0-1.867 3.017-2.532 4.523a.68.68 0 0 1-.527.4c-.049 0-.1.007-.145.007a1.481 1.481 0 0 1-1.022-.421.948.948 0 0 1-.258-.514c-.329-3.2 2.11-6.461 2.12-6.474a4.6 4.6 0 0 1 3.176-1.984m0-.325c-1.1 0-2.252.706-3.425 2.1l-.011.014c-.1.137-2.522 3.4-2.183 6.7v.014a1.265 1.265 0 0 0 .351.7l.006.005a1.8 1.8 0 0 0 1.245.51c.058 0 .117 0 .176-.008h.01a1 1 0 0 0 .786-.591c.65-1.469 2.49-4.448 2.509-4.478l.479-.738c.314-.483.639-.983.693-1.069l.012-.021a3.892 3.892 0 0 0 .574-2.049.331.331 0 0 0-.011-.059 1.281 1.281 0 0 0-1.162-1.027h-.047z" class="cls-6" transform="translate(-1071.673 -932.4)"/>
                </g>
            </g>
            <g id="그룹_12774" transform="translate(17.149 4.342)">
                <path id="패스_6373" d="M1082.158 962.377v-.027a19.387 19.387 0 0 1 1.477-3.235 18.016 18.016 0 0 1 1.069-1.71 1.4 1.4 0 0 0 .189-.391.634.634 0 0 0 .011-.18.557.557 0 0 0-.078-.177.739.739 0 0 0-.314-.246.758.758 0 0 0-.443-.017 1.128 1.128 0 0 0-.218.137c-1.683 1.553-2.488 5.538-2.488 5.538a.545.545 0 0 0-.015.091.429.429 0 0 0 .157.433.759.759 0 0 0 .216.1.379.379 0 0 0 .437-.316z" class="cls-6" transform="translate(-1081.348 -956.368)"/>
            </g>
            <g id="얼굴" transform="translate(4.823 8.912)">
                <g id="그룹_12775" transform="translate(.163 .163)">
                    <path id="패스_6375" d="M978.125 1015.72a17.758 17.758 0 0 1-2.5-.31c-3.011-.724-5.011-1.927-5.947-3.575a6.041 6.041 0 0 1-.242-4.9c1.314-4.235 4.464-6.866 8.22-6.866a8.591 8.591 0 0 1 .954.054l.11.015h.045l.106.009c4.144.465 7.063 3.871 7.435 8.677a6.023 6.023 0 0 1-1.343 4.745c-1.318 1.424-3.618 2.147-6.835 2.147z" class="cls-5" transform="translate(-969.045 -1000.068)"/>
                </g>
                <g id="그룹_12777">
                    <g id="그룹_12776">
                        <path id="패스_6376" d="M976.318 998.892a8.379 8.379 0 0 1 .936.053c.044 0 .087.011.13.018s.087.007.131.012c4.5.505 6.964 4.309 7.291 8.528.319 4.118-1.868 6.717-8.016 6.718a17.654 17.654 0 0 1-2.469-.307c-5.783-1.391-7.274-4.381-6.068-8.269 1.165-3.755 4.052-6.752 8.065-6.752m0-.325a7.9 7.9 0 0 0-5.316 2.05 10.862 10.862 0 0 0-3.059 4.93 6.2 6.2 0 0 0 .256 5.03c.96 1.689 2.994 2.917 6.046 3.651h.01a18.189 18.189 0 0 0 2.526.313h.01c3.264 0 5.6-.74 6.954-2.2a6.176 6.176 0 0 0 1.386-4.868 10.657 10.657 0 0 0-2.15-5.833 7.9 7.9 0 0 0-5.429-2.993l-.111-.01h-.04l-.11-.015a8.767 8.767 0 0 0-.972-.055z" class="cls-6" transform="translate(-967.542 -998.567)"/>
                    </g>
                </g>
            </g>
            <g id="그룹_12778" transform="translate(11.938 18.05)">
                <path id="패스_6377" d="M1034.361 1084.286s-.5 1.973.8 2.487c0 0 1.439.406 1.52-2.23l-.338-.379-.872-.135-.359-.088-.771.264" class="cls-2" transform="translate(-1034.156 -1083.833)"/>
                <path id="패스_6378" d="M1034.453 1086.013a.946.946 0 0 1-.233-.027h-.01c-1.366-.538-.9-2.5-.871-2.612a.13.13 0 0 1-.01-.022.108.108 0 0 1 .067-.137l.771-.264a.108.108 0 0 1 .061 0l.359.088.862.134a.107.107 0 0 1 .064.035l.338.378a.109.109 0 0 1 .028.075 2.662 2.662 0 0 1-.765 2.141 1.107 1.107 0 0 1-.661.211zm-.17-.234a.878.878 0 0 0 .705-.161 2.48 2.48 0 0 0 .672-1.927l-.283-.317-.833-.129-.337-.082-.654.224a.106.106 0 0 1 0 .035c-.007.019-.461 1.878.731 2.357z" class="cls-6" transform="translate(-1033.24 -1082.942)"/>
            </g>
            <g id="그룹_12782" transform="translate(11.348 17.019)">
                <g id="그룹_12779" transform="translate(.108 .108)">
                    <path id="패스_6379" d="M1031.484 1076.481a1.091 1.091 0 0 1-.132-.008.952.952 0 0 0-1.512-.185 1.144 1.144 0 0 1-.132-.008.984.984 0 0 1-.911-1.047.97.97 0 0 1 1-.816 1.144 1.144 0 0 1 .132.008.953.953 0 0 0 1.512.185 1.164 1.164 0 0 1 .132.008.985.985 0 0 1 .911 1.047.97.97 0 0 1-1 .816z" class="cls-5" transform="translate(-1028.792 -1074.419)"/>
                </g>
                <g id="그룹_12781">
                    <g id="그룹_12780">
                        <path id="패스_6380" d="M1028.9 1073.636a1.041 1.041 0 0 1 .12.007.929.929 0 0 1 .767.563.916.916 0 0 1 .757-.378 1.064 1.064 0 0 1 .119.007.875.875 0 0 1 .816.927.86.86 0 0 1-.888.72 1.077 1.077 0 0 1-.12-.007.93.93 0 0 1-.767-.562.916.916 0 0 1-.757.377 1.071 1.071 0 0 1-.119-.007.875.875 0 0 1-.816-.927.861.861 0 0 1 .888-.72m0-.217a1.078 1.078 0 0 0-1.1.912 1 1 0 0 0 .252.779 1.183 1.183 0 0 0 .754.387 1.255 1.255 0 0 0 .145.008 1.035 1.035 0 0 1 1.5.184 1.284 1.284 0 0 0 .145.009 1.078 1.078 0 0 0 1.1-.912 1.093 1.093 0 0 0-1.006-1.167 1.25 1.25 0 0 0-.145-.008 1.035 1.035 0 0 1-1.5-.184 1.259 1.259 0 0 0-.145-.009z" class="cls-6" transform="translate(-1027.791 -1073.419)"/>
                    </g>
                </g>
            </g>
            <g id="그룹_12783" transform="translate(12.94 17.419)">
                <ellipse id="타원_186" cx=".277" cy=".384" class="cls-8" rx=".277" ry=".384" transform="rotate(-83.325 .31 .276)"/>
            </g>
            <g id="그룹_12784" transform="translate(15.344 15.975)">
                <path id="선_129" d="M0 0L2.887 0.324" class="cls-9" transform="translate(.162 .163)"/>
                <path id="패스_6381" d="M1067.732 1064.426h-.018l-2.888-.324a.162.162 0 1 1 .036-.323l2.888.324a.162.162 0 0 1-.018.324z" class="cls-8" transform="translate(-1064.682 -1063.776)"/>
            </g>
            <g id="그룹_12785" transform="translate(15.88 15.789)">
                <rect id="사각형_1609" width=".635" height="1.557" class="cls-8" rx=".318" transform="rotate(6.405 .087 1.555)"/>
            </g>
            <g id="그룹_12786" transform="translate(15.423 15.186)">
                <path id="사각형_1610" d="M0 0H3.232V0.806H0z" class="cls-10" transform="rotate(6.405 .045 .804)"/>
            </g>
            <g id="그룹_12787" transform="translate(8.642 15.222)">
                <path id="선_130" d="M0 0L2.887 0.324" class="cls-9" transform="translate(.162 .163)"/>
                <path id="패스_6382" d="M1005.854 1057.478h-.018l-2.887-.324a.162.162 0 1 1 .036-.323l2.887.324a.162.162 0 0 1-.018.324z" class="cls-8" transform="translate(-1002.803 -1056.829)"/>
            </g>
            <g id="그룹_12788" transform="translate(10.559 15.119)">
                <rect id="사각형_1611" width=".635" height="1.557" class="cls-8" rx=".318" transform="rotate(6.43 .087 1.549)"/>
            </g>
            <g id="그룹_12789" transform="translate(8.722 14.434)">
                <path id="사각형_1612" d="M0 0H3.368V0.806H0z" class="cls-10" transform="rotate(6.405 .045 .804)"/>
            </g>
            <g id="그룹_12790" transform="translate(7.328 16.599)">
                <rect id="사각형_1613" width="2.859" height="1.318" class="cls-6" rx=".659" transform="rotate(6.43 .073 1.308)"/>
            </g>
            <g id="그룹_12791" transform="translate(16.681 17.489)">
                <rect id="사각형_1614" width="2.859" height="1.318" class="cls-6" rx=".659" transform="rotate(6.43 .073 1.308)"/>
            </g>
            <g id="그룹_12792" transform="translate(15.942 23.872)">
                <path id="패스_6383" d="M1071.2 1138.733c.016-.044 1.239-1.966 3.917-.441 0 0-.766 1.218-3.849.449" class="cls-2" transform="translate(-1071.096 -1137.595)"/>
                <path id="패스_6384" d="M1072.224 1138.2a7.782 7.782 0 0 1-1.872-.259h-.01a.112.112 0 0 1-.071 0 .113.113 0 0 1-.062-.144 2.375 2.375 0 0 1 1.205-.947 3.382 3.382 0 0 1 2.866.449.108.108 0 0 1 .038.152c-.025.033-.499.749-2.094.749zm-1.728-.447c2.381.572 3.309-.086 3.562-.336a3.211 3.211 0 0 0-2.418-.419 2.285 2.285 0 0 0-1.14.755z" class="cls-2" transform="translate(-1070.202 -1136.69)"/>
            </g>
            <g id="그룹_12793" transform="translate(15.927 24.584)">
                <path id="패스_6385" d="M1071.084 1144.61c.033-.033 1.938-1.283 3.752 1.207 0 0-1.2.8-3.693-1.172" class="cls-11" transform="translate(-1070.974 -1144.159)"/>
                <path id="패스_6386" d="M1073.2 1145.2a5.1 5.1 0 0 1-3.032-1.357l-.008-.007a.11.11 0 0 1-.061-.189 2.374 2.374 0 0 1 1.489-.368 3.382 3.382 0 0 1 2.428 1.587.109.109 0 0 1-.028.154 1.485 1.485 0 0 1-.788.18zm-2.823-1.469c1.949 1.51 3.056 1.285 3.386 1.158a3.211 3.211 0 0 0-2.033-1.377 2.282 2.282 0 0 0-1.354.215z" class="cls-11" transform="translate(-1070.066 -1143.268)"/>
            </g>
            <g id="그룹_12796" transform="translate(16.037 24.692)">
                <g id="그룹_12795" clip-path="url(#clip-path-2)">
                    <g id="그룹_12794" transform="translate(-.46 .17)">
                        <path id="패스_6387" d="M1067.451 1145.841a4.893 4.893 0 0 0 3.72 1.313l-.055.486-1.55.455-1.188.02-1.326-.348-.028-.667-.183-1.016z" class="cls-2" transform="translate(-1066.84 -1145.841)"/>
                    </g>
                </g>
            </g>
            <g id="그룹_12799" transform="translate(9.305 23.032)">
                <g id="그룹_12797" transform="translate(.108 .108)">
                    <path id="패스_6389" d="M1012.808 1134.648a.106.106 0 0 1-.07-.026c-.606-.532-2.568-2.877-2.789-3.143a.109.109 0 0 1-.024-.087 1.472 1.472 0 0 1 .216-.478.781.781 0 0 1 .289-.39 5.156 5.156 0 0 1 2.62-.59c.151 0 .308 0 .465.013a7.379 7.379 0 0 1 3.439 1.376.109.109 0 0 1 .041.089.6.6 0 0 1-.379.614 33.757 33.757 0 0 0-3.73 2.593.113.113 0 0 1-.078.029z" class="cls-6" transform="translate(-1009.924 -1129.934)"/>
                </g>
                <g id="그룹_12798">
                    <path id="패스_6390" d="M1012.157 1129.151q.22 0 .459.013a7.329 7.329 0 0 1 3.377 1.353c-.018.45-.312.517-.312.517a33.754 33.754 0 0 0-3.764 2.616c-.6-.523-2.527-2.831-2.777-3.131a1.433 1.433 0 0 1 .207-.447.682.682 0 0 1 .248-.347 5.034 5.034 0 0 1 2.563-.574m0-.217a5.264 5.264 0 0 0-2.672.6.878.878 0 0 0-.334.436 1.535 1.535 0 0 0-.225.51.217.217 0 0 0 .047.174c.363.435 2.2 2.631 2.8 3.155a.216.216 0 0 0 .292-.006 34.337 34.337 0 0 1 3.7-2.571.72.72 0 0 0 .446-.71.216.216 0 0 0-.081-.178 7.489 7.489 0 0 0-3.487-1.4h-.014c-.159-.009-.318-.013-.471-.013z" class="cls-2" transform="translate(-1008.923 -1128.934)"/>
                </g>
            </g>
            <g id="그룹_12802" transform="translate(9.521 23.248)">
                <g id="그룹_12801" clip-path="url(#clip-path-3)">
                    <g id="그룹_12800" transform="translate(-1.28 .973)">
                        <path id="패스_6391" d="M1000.426 1139.918a3.878 3.878 0 0 0 6.167.52 1.313 1.313 0 0 1 .819-.5l.118 1.618-1.355 1.66-2.273 1.362-1.659.241-1.716-1.016-1.163-1.381-.261-1.149.332-.886z" class="cls-2" transform="translate(-999.101 -1139.918)"/>
                    </g>
                </g>
            </g>
            <g id="오른팔" transform="translate(15.55 19.045)">
                <g id="그룹_12803" transform="translate(.163 .162)">
                    <path id="패스_6393" d="M1068.822 1101.4a.744.744 0 0 1-.55-1.253.166.166 0 0 1 .048-.052 83.062 83.062 0 0 0 6.678-5.1c.063-.375.275-1.369.764-1.369a.489.489 0 0 1 .356.184l.015.018a2.339 2.339 0 0 1 .2.371 1.941 1.941 0 0 1 .989-.328 1.193 1.193 0 0 1 1.008.564l.038.054a1.137 1.137 0 0 1 .164.906 2.851 2.851 0 0 1-1.517 1.574c-.762.437-7.465 4.271-8.142 4.424a.161.161 0 0 1-.036 0z" class="cls-10" transform="translate(-1068.091 -1093.624)"/>
                </g>
                <g id="그룹_12805">
                    <g id="그룹_12804">
                        <path id="패스_6394" d="M1074.42 1092.449a.334.334 0 0 1 .236.132 2.032 2.032 0 0 1 .25.533 1.947 1.947 0 0 1 1.072-.418 1.033 1.033 0 0 1 .875.495c.012.016.025.034.037.053.243.368.492 1.223-1.3 2.25 0 0-7.425 4.254-8.1 4.406 0 0-.952-.089-.424-1.01 0 0 5.894-4.141 6.738-5.164 0 0 .2-1.277.61-1.277m0-.325c-.568 0-.815.873-.916 1.458a79.079 79.079 0 0 1-6.619 5.042.325.325 0 0 0-.1.1.9.9 0 0 0 .676 1.5h.03a.324.324 0 0 0 .072-.008c.685-.155 6.94-3.727 8.187-4.441a2.994 2.994 0 0 0 1.595-1.678 1.3 1.3 0 0 0-.185-1.03l-.045-.064a1.363 1.363 0 0 0-1.139-.629 1.972 1.972 0 0 0-.917.26 2.2 2.2 0 0 0-.136-.233.306.306 0 0 0-.029-.037.644.644 0 0 0-.475-.237z" class="cls-6" transform="translate(-1066.586 -1092.124)"/>
                    </g>
                </g>
            </g>
            <g id="그룹_12806" transform="translate(15.443 25.61)">
                <path id="패스_6395" d="M1065.875 1152.738a.23.23 0 0 0 .3.205s-.519.835.436 1.005c0 0-.216.11-.054.361l-.246.147-.3-.081-.413-.649.025-.537.114-.286z" class="cls-7" transform="translate(-1065.594 -1152.738)"/>
            </g>
            <g id="그룹_12807" transform="translate(15.823 25.81)">
                <path id="패스_6396" d="M1069.188 1154.6a.69.69 0 0 0 .129-.009 1.347 1.347 0 0 0-.143.354l-.07-.15.011-.1z" class="cls-7" transform="translate(-1069.104 -1154.589)"/>
            </g>
        </g>
    </g>
    <circle id="타원_338" cx="14" cy="14" r="14" fill="none"/>
</svg>
