<svg xmlns="http://www.w3.org/2000/svg" id="money_blue" width="24" height="24" viewBox="0 0 24 24">
    <defs>
        <style>
            .cls-2{fill:none;stroke:#fff;stroke-linecap:round;stroke-linejoin:round}
        </style>
    </defs>
    <rect id="사각형_2334" width="24" height="24" fill="#63b9f2" rx="8"/>
    <g id="그룹_19116" transform="translate(-330.215 -154.534)">
        <path id="패스_18380" d="M343.793 159.731a1.931 1.931 0 0 0 2.019.836 1.93 1.93 0 0 1 2.288 2.289 1.932 1.932 0 0 0 .836 2.019 1.93 1.93 0 0 1 0 3.237 1.931 1.931 0 0 0-.836 2.019 1.93 1.93 0 0 1-2.288 2.288 1.932 1.932 0 0 0-2.019.836 1.93 1.93 0 0 1-3.237 0 1.933 1.933 0 0 0-2.019-.836 1.93 1.93 0 0 1-2.289-2.288 1.931 1.931 0 0 0-.836-2.019 1.93 1.93 0 0 1 0-3.237 1.931 1.931 0 0 0 .836-2.019 1.931 1.931 0 0 1 2.289-2.289 1.931 1.931 0 0 0 2.019-.836 1.93 1.93 0 0 1 3.237 0z" class="cls-2"/>
        <g id="그룹_19115" transform="translate(340.101 162.641)">
            <path id="패스_18381" d="M343.813 172.558h2.737a1.409 1.409 0 0 0 1.409-1.409 1.409 1.409 0 0 0-1.409-1.41h-1.327a1.41 1.41 0 0 1-1.41-1.409 1.409 1.409 0 0 1 1.41-1.409h2.736" class="cls-2" transform="translate(-343.813 -165.867)"/>
            <path id="선_181" d="M0 0L0 7.706" class="cls-2" transform="translate(2.073)"/>
        </g>
    </g>
</svg>
