<svg xmlns="http://www.w3.org/2000/svg" width="28" height="28" viewBox="0 0 28 28">
    <defs>
        <style>
            .cls-4{stroke:#fff;stroke-width:1.5px;stroke-linejoin:round;fill:none}
        </style>
    </defs>
    <g id="postbox_g" transform="translate(-320 -138)">
        <circle id="타원_1119" cx="14" cy="14" r="14" fill="#757575" transform="translate(320 138)"/>
        <g id="postbox_w" transform="translate(315.411 136.55)">
            <g id="그룹_32721" transform="translate(11.338 11.001)">
                <g id="그룹_32722" fill="#757575" stroke="#fff" stroke-width="1.5px">
                    <path id="패스_21225" d="M31.837 1.5h-8.824v8.86h12.313V5.93c0-2.447-1.562-4.43-3.488-4.43" transform="translate(-21.076 -1.5)"/>
                    <path id="패스_21228" stroke-linecap="round" stroke-linejoin="round" d="M4.874 10.388H1.5V3.479A1.851 1.851 0 0 1 3.187 1.5a1.851 1.851 0 0 1 1.687 1.979z" transform="translate(-1.5 -1.5)"/>
                </g>
            </g>
            <g id="그룹_32727" transform="translate(20.185 7.25)">
                <path id="패스_21230" fill="#fff" stroke="#fff" stroke-width="1.5px" d="M4.784 2.468H1.5V1.5h3.284l-.472.484z" transform="translate(-1.362 -1.1)"/>
            </g>
            <path id="사각형_9764" d="M0 0H1.93V3.859H0z" class="cls-4" transform="translate(18.024 20.333)"/>
        </g>
    </g>
</svg>
