
<svg xmlns="http://www.w3.org/2000/svg" width="24" height="24" viewBox="0 0 24 24">
    <g fill="#fff">
        <g>
            <path d="M136.986 192.529a4.1 4.1 0 0 1-4.085 4.109h-2.616a4.113 4.113 0 0 0 2.232-7.551 4.026 4.026 0 0 0-2.232-.667c-.105 0-.21.009-.32.018a4.823 4.823 0 0 0 .091-.93v-.175a4.992 4.992 0 0 0-2.109-3.925 4.881 4.881 0 0 0-1.578-.745 5 5 0 0 1 6.3 4.67v.175a5.218 5.218 0 0 1-.087.93c.105-.009.21-.018.32-.018a4.011 4.011 0 0 1 2.228.667 4.108 4.108 0 0 1 1.856 3.442z" opacity="0.7" transform="translate(0 1.943) translate(-113.199 -182.488)"/>
            <path d="M101.852 192.958a4.1 4.1 0 0 1-4.09 4.109H83.907a3.249 3.249 0 0 1 0-6.5 2.715 2.715 0 0 1 .439.037 3.743 3.743 0 0 1-.078-.759 3.847 3.847 0 0 1 2.5-3.607 3.766 3.766 0 0 1 1.166-.226h.146a3.805 3.805 0 0 1 2.228.722 5.014 5.014 0 0 1 3.527-3.64 4.88 4.88 0 0 1 1.578.745 4.992 4.992 0 0 1 2.109 3.925v.175a4.823 4.823 0 0 1-.091.93c.11-.009.215-.018.32-.018a4.026 4.026 0 0 1 2.232.667 4.108 4.108 0 0 1 1.869 3.44z" opacity="0.9" transform="translate(0 1.943) translate(-80.677 -182.917)"/>
        </g>
        <g stroke-linejoin="round">
            <path d="M5.89 11.427l-.34-.32-5.894-5.574-.912-.863h3.599V-.5h7.211v5.17H13.218l-.941.868-6.045 5.572-.343.317z" transform="translate(0 1.943) rotate(180 8.792 10.39)"/>
            <path fill="#1f9de6" d="M2.843 0v5.17H0l5.893 5.573 6.045-5.573H9.054V0H2.843m0-1h6.211c.552 0 1 .448 1 1v4.17h1.884c.412 0 .781.252.931.636.15.384.05.82-.253 1.1L6.57 11.477c-.191.177-.434.265-.677.265-.248 0-.495-.091-.688-.274L-.687 5.897C-.985 5.615-1.081 5.18-.93 4.8c.151-.38.52-.63.929-.63h1.843V0c0-.552.447-1 1-1z" transform="translate(0 1.943) rotate(180 8.792 10.39)"/>
        </g>
    </g>
</svg>
