<svg xmlns="http://www.w3.org/2000/svg" width="26" height="26" viewBox="0 0 26 26">
    <circle cx="13" cy="13" r="13" fill="rgba(0,0,0,0.2)"/>
    <g>
        <g fill="none" stroke="rgba(255,255,255,0.5)">
            <circle cx="13" cy="13" r="13" stroke="none"/>
            <circle cx="13" cy="13" r="12.5"/>
        </g>
        <path fill="#fff" d="M3.46.409v-.8q0-.454.027-.818a2.718 2.718 0 0 1 .155-.718 2.916 2.916 0 0 1 .409-.736 5.936 5.936 0 0 1 .809-.854q.6-.563.963-.936a4.337 4.337 0 0 0 .554-.672 1.715 1.715 0 0 0 .246-.563 3.134 3.134 0 0 0 .055-.627V-6.5a1.334 1.334 0 0 0-.446-.991 2.163 2.163 0 0 0-1.517-.428 3.624 3.624 0 0 0-1.56.328 4.689 4.689 0 0 0-1.282.89L.6-8.3a5.428 5.428 0 0 1 1.938-1.268 6.323 6.323 0 0 1 2.244-.4 5.746 5.746 0 0 1 1.781.26 4.06 4.06 0 0 1 1.327.7 2.908 2.908 0 0 1 .827 1.072A3.31 3.31 0 0 1 9-6.564v.26a3.588 3.588 0 0 1-.182 1.191 4.03 4.03 0 0 1-.481.954 5.881 5.881 0 0 1-.69.827q-.39.39-.809.79-.346.328-.581.572a2.69 2.69 0 0 0-.373.472 1.728 1.728 0 0 0-.2.5 3.015 3.015 0 0 0-.064.672v.744zm-.113 1.509h2.4V4.28h-2.4z" transform="translate(8.107 16.208)"/>
    </g>
</svg>
