
<svg xmlns="http://www.w3.org/2000/svg" id="prefix__toggle_off" width="51" height="31" viewBox="0 0 51 31">
    <defs>
        <clipPath id="prefix__clip-path">
            <path id="prefix__Mask" d="M15.857.092C17.6-.008 19.335 0 21.075 0h8.817c1.774 0 3.512-.008 5.251.092A21.645 21.645 0 0 1 39.8.8a15.242 15.242 0 0 1 0 29.394 21.707 21.707 0 0 1-4.654.711c-1.739.1-3.477.091-5.217.091h-8.822c-1.772 0-3.51.008-5.25-.092A21.708 21.708 0 0 1 11.2 30.2a15.242 15.242 0 0 1 0-29.4 21.645 21.645 0 0 1 4.657-.708z" class="prefix__cls-1"/>
        </clipPath>
        <filter id="prefix__knob" width="31" height="32.5" x="0" y="1.5" filterUnits="userSpaceOnUse">
            <feOffset dy="3"/>
            <feGaussianBlur result="blur" stdDeviation=".5"/>
            <feFlood flood-opacity=".059"/>
            <feComposite in2="blur" operator="in"/>
            <feComposite in="SourceGraphic"/>
        </filter>
        <style>
            .prefix__cls-1{fill:rgba(120,120,128,.16)}
        </style>
    </defs>
    <path id="prefix__Switch_background" d="M0 0H51V31H0z" data-name="Switch background" style="fill:transparent"/>
    <path id="prefix__Mask-2" d="M15.857.092C17.6-.008 19.335 0 21.075 0h8.817c1.774 0 3.512-.008 5.251.092A21.645 21.645 0 0 1 39.8.8a15.242 15.242 0 0 1 0 29.394 21.707 21.707 0 0 1-4.654.711c-1.739.1-3.477.091-5.217.091h-8.822c-1.772 0-3.51.008-5.25-.092A21.708 21.708 0 0 1 11.2 30.2a15.242 15.242 0 0 1 0-29.4 21.645 21.645 0 0 1 4.657-.708z" class="prefix__cls-1" data-name="Mask"/>
    <g id="prefix__Switch">
        <g>
            <g id="prefix__knob-2" data-name="knob" transform="translate(2 2)" style="fill:#fff;stroke:rgba(0,0,0,.04);stroke-miterlimit:10;stroke-width:.5px">
                <circle cx="13.5" cy="13.5" r="13.5" style="stroke:none"/>
                <circle cx="13.5" cy="13.5" r="13.75" style="fill:none"/>
            </g>
        </g>
    </g>
</svg>
