<svg xmlns="http://www.w3.org/2000/svg" id="ic_booster" width="36" height="36" viewBox="0 0 36 36">
    <defs>
        <style>
            .cls-1{fill:#43be10;stroke:#43be10}.cls-1,.cls-2,.cls-3{stroke-linecap:round;stroke-linejoin:round;stroke-width:1.5px}.cls-2{fill:#ff7400;stroke:#ff7400}.cls-3,.cls-4{fill:none}.cls-3{stroke:#9e2124}
        </style>
    </defs>
    <g id="그룹_10102" data-name="그룹 10102" transform="translate(8 8)">
        <path id="패스_5250" d="M-35.686 113.966l-1.5-1.5a4.426 4.426 0 0 1-1.2-2.29 3.589 3.589 0 0 0-1.922 2.442 2.255 2.255 0 0 0 .682 2.118 2.376 2.376 0 0 0 .122 3.022 2.371 2.371 0 0 0 3 .133c.014.017.025.034.04.049a2.286 2.286 0 0 0 2.1.623 3.6 3.6 0 0 0 2.455-1.945 4.473 4.473 0 0 1-2.342-1.218z" class="cls-1" data-name="패스 5250" transform="translate(40.356 -98.612)"/>
        <path id="패스_5251" d="M-23.375 110s.049-.065.135-.188l.053-.078a12.414 12.414 0 0 0 1.156-1.978l.007-.018c.073-.16.141-.32.207-.48a20.326 20.326 0 0 0 1.631-5.563 19.692 19.692 0 0 0 .2-2.785v-.03a3.027 3.027 0 0 0-.676-1.813c-.013-.014-.023-.032-.036-.046l-.006-.007a2.97 2.97 0 0 0-1.866-.718h-.03a19.535 19.535 0 0 0-2.792.2 20.339 20.339 0 0 0-5.548 1.626c-.163.067-.326.136-.488.21l-.018.007a12.413 12.413 0 0 0-1.985 1.161l-.083.058c-.058.042-.117.084-.174.128a13.243 13.243 0 0 0-1.434 1.242 13.169 13.169 0 0 0-1.537 1.846A12.219 12.219 0 0 0-37.7 104.6a5.986 5.986 0 0 0-.378 2.995c.013.092.041.179.059.269a4.426 4.426 0 0 0 1.2 2.29l1.5 1.5 1.435 1.435a4.473 4.473 0 0 0 2.342 1.218c.091.018.178.045.27.058a6.1 6.1 0 0 0 3.145-.438 12.215 12.215 0 0 0 1.6-.916 13.169 13.169 0 0 0 1.907-1.575A13.255 13.255 0 0 0-23.375 110z" class="cls-2" data-name="패스 5251" transform="translate(39.985 -96.301)"/>
        <path id="선_99" d="M3.584 3.584L0 0" class="cls-3" data-name="선 99" transform="translate(4.468 5.227)"/>
        <path id="선_100" d="M2.917 2.917L0 0" class="cls-3" data-name="선 100" transform="translate(7.339 2.857)"/>
    </g>
    <path id="사각형_943" d="M0 0h36v36H0z" class="cls-4" data-name="사각형 943"/>
</svg>
