<svg xmlns="http://www.w3.org/2000/svg" id="backvideo_m" width="36" height="36" viewBox="0 0 36 36">
    <defs>
        <style>
            .cls-3{stroke:#000;stroke-width:.2px}
        </style>
    </defs>
    <g id="ic_share">
        <rect id="사각형_4020" width="36" height="36" fill="#fff" rx="18"/>
    </g>
    <g id="그룹_33732" transform="translate(10486.946 -494.5)">
        <path id="패스_430" fill="none" fill-rule="evenodd" stroke="#000" stroke-width="1.2px" d="M16.538 9.487v-1.2a1.5 1.5 0 0 0-1.479-1.527H10.48A1.5 1.5 0 0 0 9 8.289v1.2H5.738a2.255 2.255 0 0 0-2.217 2.291v7.587a2.255 2.255 0 0 0 2.217 2.291H19.8a2.254 2.254 0 0 0 2.217-2.291v-7.589A2.255 2.255 0 0 0 19.8 9.487h-3.262z" transform="translate(-10481.768 497.74)"/>
        <g id="그룹_33731" transform="translate(-10475.182 506.393)">
            <g id="그룹_33728" transform="rotate(135 4.925 5.678)">
                <path id="패스_7197" d="M4.609 7.829a3.658 3.658 0 0 1-2.9-5.879l.089.089a.477.477 0 0 0 .8-.214L2.923.6a.477.477 0 0 0-.584-.583L1.116.345a.477.477 0 0 0-.214.8l.128.128a4.613 4.613 0 0 0 3.579 7.509.477.477 0 1 0 0-.954z" class="cls-3"/>
            </g>
            <g id="그룹_33729" transform="rotate(135 2.949 6.75)">
                <path id="패스_7198" d="M4.056 7.512A4.613 4.613 0 0 0 .477 0a.477.477 0 0 0 0 .954 3.658 3.658 0 0 1 2.9 5.879l-.089-.089a.477.477 0 0 0-.8.214l-.325 1.224a.477.477 0 0 0 .584.584l1.223-.328a.477.477 0 0 0 .214-.8z" class="cls-3"/>
            </g>
        </g>
    </g>
</svg>
