<svg xmlns="http://www.w3.org/2000/svg" id="ic_booster_off" width="36" height="36" viewBox="0 0 36 36">
    <defs>
        <style>
            .cls-1,.cls-2{fill:none}.cls-1{stroke:#fff;stroke-linecap:round;stroke-linejoin:round;stroke-width:1.5px}
        </style>
    </defs>
    <g id="그룹_10103" data-name="그룹 10103" transform="translate(8 8)">
        <path id="패스_5252" d="M-67.677 113.631l-1.5-1.5a4.42 4.42 0 0 1-1.2-2.29 3.589 3.589 0 0 0-1.922 2.442 2.257 2.257 0 0 0 .681 2.118 2.377 2.377 0 0 0 .123 3.022 2.371 2.371 0 0 0 3 .133.571.571 0 0 0 .04.049 2.284 2.284 0 0 0 2.1.622 3.6 3.6 0 0 0 2.455-1.944 4.474 4.474 0 0 1-2.342-1.218z" class="cls-1" data-name="패스 5252" transform="translate(72.346 -98.278)"/>
        <path id="패스_5253" d="M-55.365 109.669s.05-.065.135-.188l.054-.079a12.364 12.364 0 0 0 1.155-1.977l.008-.018q.109-.239.206-.479a20.343 20.343 0 0 0 1.632-5.563 19.825 19.825 0 0 0 .2-2.785v-.03a3.016 3.016 0 0 0-.676-1.813c-.013-.014-.022-.033-.035-.046l-.006-.008a2.967 2.967 0 0 0-1.866-.718h-.03a19.675 19.675 0 0 0-2.793.2 20.376 20.376 0 0 0-5.548 1.627c-.163.067-.325.136-.488.21l-.018.007a12.408 12.408 0 0 0-1.984 1.161l-.084.058a7.01 7.01 0 0 0-.173.128 13.163 13.163 0 0 0-1.434 1.242 13.113 13.113 0 0 0-1.537 1.846 12.1 12.1 0 0 0-1.038 1.824 6 6 0 0 0-.378 2.995c.013.092.042.179.06.269a4.42 4.42 0 0 0 1.2 2.29l1.5 1.5 1.436 1.436a4.474 4.474 0 0 0 2.342 1.218c.09.018.178.045.27.058a6.1 6.1 0 0 0 3.145-.438 12.208 12.208 0 0 0 1.6-.916 13.13 13.13 0 0 0 1.908-1.575 13.512 13.512 0 0 0 1.237-1.436z" class="cls-1" data-name="패스 5253" transform="translate(71.975 -95.967)"/>
        <path id="선_101" d="M3.584 3.584L0 0" class="cls-1" data-name="선 101" transform="translate(4.468 5.226)"/>
        <path id="선_102" d="M2.917 2.917L0 0" class="cls-1" data-name="선 102" transform="translate(7.338 2.856)"/>
    </g>
    <path id="사각형_944" d="M0 0h36v36H0z" class="cls-2" data-name="사각형 944"/>
</svg>
