<svg xmlns="http://www.w3.org/2000/svg" id="prefix__ico_emoji" width="36" height="36" viewBox="0 0 36 36">
    <defs>
        <style>
            .prefix__cls-3{fill:#424242}
        </style>
    </defs>
    <path id="prefix__사각형_1996" d="M0 0H36V36H0z" data-name="사각형 1996" style="fill:#ec455f;opacity:0"/>
    <circle id="prefix__타원_102" cx="12" cy="12" r="12" data-name="타원 102" transform="translate(6 6)" style="fill:none;stroke:#424242;stroke-width:1.5px"/>
    <g id="prefix__Layer_1" data-name="Layer 1" transform="translate(4.166 4.166)">
        <path id="prefix__패스_6444" d="M13.834 19.525a5.439 5.439 0 0 1-4.914-3.06.432.432 0 1 1 .776-.381 4.611 4.611 0 0 0 8.277 0 .432.432 0 0 1 .776.381 5.439 5.439 0 0 1-4.914 3.06z" class="prefix__cls-3" data-name="패스 6444"/>
        <ellipse id="prefix__타원_103" cx="1.081" cy="1.241" class="prefix__cls-3" data-name="타원 103" rx="1.081" ry="1.241" transform="translate(7.999 11.618)"/>
        <ellipse id="prefix__타원_104" cx="1.081" cy="1.241" class="prefix__cls-3" data-name="타원 104" rx="1.081" ry="1.241" transform="translate(17.507 11.618)"/>
    </g>
</svg>
