<svg xmlns="http://www.w3.org/2000/svg" width="40" height="40" viewBox="0 0 40 40">
    <g transform="translate(-1464 -500)">
        <circle cx="20" cy="20" r="20" fill="#eee" transform="translate(1464 500)"/>
        <g>
            <g>
                <path d="M550.654 80.389V81.8h-1.414v1.414h1.414v1.416h1.414v-1.413h1.414V81.8h-1.414v-1.411z" transform="translate(-1.5) translate(930.306 437.456) translate(-.261 -.393)"/>
                <path d="M559.348 81.095a.706.706 0 1 1-.706-.706.706.706 0 0 1 .706.706z" transform="translate(-1.5) translate(930.306 437.456) translate(-.761 -.393)"/>
                <path d="M559.348 84.094a.706.706 0 1 1-.706-.706.706.706 0 0 1 .706.706z" transform="translate(-1.5) translate(930.306 437.456) translate(-.761 -.566)"/>
                <path d="M562.346 81.095a.706.706 0 1 1-.706-.706.706.706 0 0 1 .706.706z" transform="translate(-1.5) translate(930.306 437.456) translate(-.933 -.393)"/>
                <path d="M562.346 84.094a.706.706 0 1 1-.706-.706.706.706 0 0 1 .706.706z" transform="translate(-1.5) translate(930.306 437.456) translate(-.933 -.566)"/>
                <path d="M559.239 77.076H555.9v-1.414a2.121 2.121 0 0 0-2.119-2.118h-2.5a.706.706 0 1 0 0 1.412h2.5a.706.706 0 0 1 .706.706v1.414h-3.34a6.462 6.462 0 0 0-6.455 6.454v4.083a3.6 3.6 0 0 0 3.591 3.591h.506a3.6 3.6 0 0 0 3.518-2.873 2.186 2.186 0 0 1 2.134-1.743h1.508a2.185 2.185 0 0 1 2.126 1.743A3.6 3.6 0 0 0 561.6 91.2h.506a3.594 3.594 0 0 0 3.591-3.591V83.53a6.461 6.461 0 0 0-6.458-6.454zm5.046 6.458v4.083a2.18 2.18 0 0 1-2.178 2.178h-.507a2.186 2.186 0 0 1-2.134-1.743 3.6 3.6 0 0 0-3.519-2.873h-1.507a3.6 3.6 0 0 0-3.516 2.869 2.186 2.186 0 0 1-2.134 1.743h-.506a2.18 2.18 0 0 1-2.176-2.178V83.53a5.048 5.048 0 0 1 5.042-5.042h8.095a5.047 5.047 0 0 1 5.042 5.042z" transform="translate(-1.5) translate(930.306 437.456)"/>
            </g>
        </g>
    </g>
</svg>
