<svg xmlns="http://www.w3.org/2000/svg" xmlns:xlink="http://www.w3.org/1999/xlink" width="24" height="24" viewBox="0 0 24 24">
    <defs>
        <linearGradient id="ozta845m5c" x1=".163" x2=".84" y1=".821" y2="-.113" gradientUnits="objectBoundingBox">
            <stop offset=".006" stop-color="#ffab13"/>
            <stop offset="1" stop-color="#ff407d"/>
        </linearGradient>
        <linearGradient id="8p30xzcifa" x1=".115" x2=".885" y1="1.022" y2="-.178" gradientUnits="objectBoundingBox">
            <stop offset="0" stop-color="#ffd078"/>
            <stop offset="1" stop-color="#ffab83"/>
        </linearGradient>
        <linearGradient id="fig6vqesud" x1=".5" x2=".5" y1="1" gradientUnits="objectBoundingBox">
            <stop offset="0" stop-color="#ffd078" stop-opacity="0"/>
            <stop offset="1" stop-color="#ffab83"/>
        </linearGradient>
        <linearGradient id="qont3p2hne" x1=".201" x2=".799" y1="1.456" y2="-.456" xlink:href="#8p30xzcifa"/>
        <linearGradient id="8687a91gjb" x1=".014" x2=".805" y1=".75" y2=".269" gradientUnits="objectBoundingBox">
            <stop offset="0" stop-color="#fff"/>
            <stop offset="1" stop-color="#e1e5f2"/>
        </linearGradient>
        <linearGradient id="1gthkscmcf" x1=".244" x2=".797" y1="1.304" y2=".189" xlink:href="#8687a91gjb"/>
        <linearGradient id="t98tu7x0dg" x1=".273" x2=".762" y1=".851" y2="-.265" xlink:href="#8687a91gjb"/>
        <linearGradient id="5ugmtubaeh" x1="-1.125" x2="2.125" y1=".795" y2=".205" xlink:href="#ozta845m5c"/>
    </defs>
    <g>
        <path fill="url(#ozta845m5c)" d="M454.454 707.466l-3.078-3.078a1.316 1.316 0 0 0-2.191.534 5.494 5.494 0 1 0 10.537 0 1.316 1.316 0 0 0-2.19-.531z" transform="translate(3.2 2.534) translate(-445.668 -704)"/>
        <path fill="url(#8p30xzcifa)" d="M423.214 826.438v7.556a2.747 2.747 0 0 1-2.745 2.745h-10.546a2.717 2.717 0 0 1-1.44-.408 2.746 2.746 0 0 1-1.3-2.337v-7.556z" transform="translate(3.2 2.534) translate(-406.409 -819.044)"/>
        <path fill="url(#fig6vqesud)" d="M0 0H16.036V3.619H0z" transform="translate(3.2 2.534) translate(.768 7.395)" style="isolation:isolate;mix-blend-mode:multiply"/>
        <path fill="url(#qont3p2hne)" d="M412.021 750.263v1.945a1.772 1.772 0 0 1-1.77 1.77h-14.033a1.772 1.772 0 0 1-1.77-1.77v-1.945a1.77 1.77 0 0 1 1.77-1.77h14.033a1.77 1.77 0 0 1 1.77 1.77z" transform="translate(3.2 2.534) translate(-394.448 -745.806)"/>
        <path d="M410.968 898.016a4.131 4.131 0 0 1-.57 2.1h-.475a2.717 2.717 0 0 1-1.44-.408 2.746 2.746 0 0 1-1.3-2.337v-3.483a4.137 4.137 0 0 1 3.786 4.076.288.288 0 0 1-.001.052z" transform="translate(3.2 2.534) translate(-406.409 -882.419)" style="mix-blend-mode:screen;isolation:isolate" fill="url(#8687a91gjb)" opacity="0.35"/>
        <path d="M433.173 963.173h-2.947a2.717 2.717 0 0 1-1.44-.408 2.218 2.218 0 0 1 2.171-1.765 1.9 1.9 0 0 1 .31.024 2.216 2.216 0 0 1 1.906 2.149z" transform="translate(3.2 2.534) translate(-426.712 -945.478)" style="mix-blend-mode:screen;isolation:isolate" fill="url(#1gthkscmcf)" opacity="0.35"/>
        <path d="M552.778 750.263v.722a5.351 5.351 0 0 1-8.527-2.492h6.757a1.77 1.77 0 0 1 1.77 1.77z" transform="translate(3.2 2.534) translate(-535.205 -745.806)" style="mix-blend-mode:screen;isolation:isolate" fill="url(#t98tu7x0dg)" opacity="0.25"/>
        <path fill="url(#5ugmtubaeh)" d="M0 0H2.729V15.007H0z" transform="translate(3.2 2.534) translate(7.421 2.687)"/>
    </g>
    <path fill="none" d="M0 0H24V24H0z"/>
</svg>
