<svg xmlns="http://www.w3.org/2000/svg" width="20" height="20" viewBox="0 0 20 20">
    <g>
        <g fill="rgba(0,0,0,0.1)" stroke="#fff" opacity="0.5" transform="translate(.333 .333) translate(-.333 -.333)">
            <circle cx="10" cy="10" r="10" stroke="none"/>
            <circle cx="10" cy="10" r="9.5" fill="none"/>
        </g>
        <path fill="#fff" d="M2.8-1.986V-2.6q0-.349.021-.629a2.091 2.091 0 0 1 .119-.552 2.243 2.243 0 0 1 .315-.566 4.566 4.566 0 0 1 .622-.657q.461-.433.741-.72a3.336 3.336 0 0 0 .426-.517 1.319 1.319 0 0 0 .189-.433 2.411 2.411 0 0 0 .042-.482V-7.3a1.026 1.026 0 0 0-.343-.762 1.664 1.664 0 0 0-1.167-.329 2.788 2.788 0 0 0-1.2.252 3.607 3.607 0 0 0-.986.685L.6-8.682a4.175 4.175 0 0 1 1.491-.978 4.864 4.864 0 0 1 1.726-.308 4.42 4.42 0 0 1 1.37.2 3.123 3.123 0 0 1 1.021.538 2.237 2.237 0 0 1 .636.825 2.546 2.546 0 0 1 .217 1.055v.2a2.76 2.76 0 0 1-.14.916 3.1 3.1 0 0 1-.37.734 4.524 4.524 0 0 1-.531.636q-.3.3-.622.608-.266.252-.447.44a2.069 2.069 0 0 0-.287.363 1.329 1.329 0 0 0-.154.384 2.319 2.319 0 0 0-.049.517v.573zM2.713-.825h1.845V.992H2.713z" transform="translate(.333 .333) translate(5.671 14.674)"/>
    </g>
</svg>
