<svg xmlns="http://www.w3.org/2000/svg" width="40" height="40" viewBox="0 0 40 40">
    <rect width="40" height="40" fill="#fff" rx="20"/>
    <g>
        <g>
            <path stroke="#000" stroke-width="0.4px" d="M29 11.067a3 3 0 0 0-2.413 1.219l-4.709-2.407a3 3 0 0 0-.1-1.971l4.935-2.965a2.988 2.988 0 1 0-.513-.858l-4.945 2.972a3 3 0 1 0 .184 3.72l4.7 2.4A3 3 0 1 0 29 11.067zM29 1a2 2 0 1 1-2 2 2 2 0 0 1 2-2zM19 11.033a2 2 0 1 1 2-2 2 2 0 0 1-2 2zm10 5.033a2 2 0 1 1 2-2 2 2 0 0 1-2 2.001z" transform="translate(-4.5 11) translate(16) translate(-16)"/>
        </g>
    </g>
</svg>
