<svg xmlns="http://www.w3.org/2000/svg" id="prefix__ic_mic_off" width="36" height="36" viewBox="0 0 36 36">
    <g id="prefix__ic_mic">
        <g id="prefix__그룹_141" data-name="그룹 141" transform="translate(-852 -713)">
            <path id="prefix__사각형_264" d="M0 0H36V36H0z" data-name="사각형 264" transform="translate(852 713)" style="fill:none"/>
        </g>
        <path id="prefix__패스_4103" d="M19.838 12.51c0 3.338-2.939 6.906-7.838 6.906s-7.838-3.568-7.838-6.906M12 21.958zm0-20.125a5.085 5.085 0 0 1 5.084 5.085v4.067a5.084 5.084 0 1 1-10.168 0V6.918A5.085 5.085 0 0 1 12 1.833z" data-name="패스 4103" transform="translate(6.338 5.667)" style="stroke-linecap:round;stroke-linejoin:round;stroke-width:1.5px;stroke:#fff;fill:none"/>
    </g>
    <path id="prefix__패스_4299" d="M491.413 23.358l11.879 11.879 6.817 6.817z" data-name="패스 4299" transform="translate(-482.913 -14.858)" style="stroke:#ec455f;stroke-linecap:round;stroke-linejoin:round;stroke-width:1.5px;fill:none"/>
</svg>
