<svg xmlns="http://www.w3.org/2000/svg" width="40" height="40" viewBox="0 0 40 40">
    <rect width="40" height="40" fill="#fff" rx="20"/>
    <g>
        <g>
            <g>
                <path d="M115.037 200.7a.7.7 0 0 0-.7-.7h-7.183a.7.7 0 0 0 0 1.395h7.183a.7.7 0 0 0 .7-.695z" transform="translate(-14.07 11) translate(26.57) translate(-103.673 -193.026)"/>
                <path d="M107.156 280a.7.7 0 1 0 0 1.395h4.362a.7.7 0 1 0 0-1.395z" transform="translate(-14.07 11) translate(26.57) translate(-103.673 -270.237)"/>
                <path d="M31.692 16.458H29.36a1.4 1.4 0 0 1-1.395-1.395V2.79a1.4 1.4 0 0 1 1.395-1.395h8.574a1.4 1.4 0 0 1 1.394 1.395v4.288a.7.7 0 1 0 1.395 0V2.79A2.793 2.793 0 0 0 37.933 0H29.36a2.793 2.793 0 0 0-2.79 2.79v12.273a2.793 2.793 0 0 0 2.79 2.79h2.332a.7.7 0 0 0 0-1.395z" transform="translate(-14.07 11) translate(26.57) translate(-26.57)"/>
                <path d="M251.283 272.636a2.094 2.094 0 0 0-2.958 0l-3.829 3.82a.7.7 0 0 0-.175.291l-.834 2.745a.7.7 0 0 0 .853.875l2.815-.78a.7.7 0 0 0 .306-.178l3.821-3.814a2.1 2.1 0 0 0 .001-2.959zm-4.676 5.656l-1.416.392.414-1.364 2.583-2.578.986.986zm3.691-3.684l-.135.135-.986-.986.135-.134a.7.7 0 0 1 .987.986z" transform="translate(-14.07 11) translate(26.57) translate(-235.894 -262.539)"/>
                <path d="M114.339 120h-7.183a.7.7 0 0 0 0 1.395h7.183a.7.7 0 0 0 0-1.395z" transform="translate(-14.07 11) translate(26.57) translate(-103.673 -115.816)"/>
            </g>
        </g>
    </g>
</svg>
