<svg xmlns="http://www.w3.org/2000/svg" id="ic_out" width="40" height="40" viewBox="0 0 40 40">
    <defs>
        <style>
            .cls-3{stroke:#000;stroke-width:.3px}
        </style>
    </defs>
    <rect id="사각형_4022" width="40" height="40" fill="#fff" rx="20"/>
    <g id="그룹_12926" transform="translate(-1293.5 -458)">
        <path id="icon_3_" stroke="#000" stroke-width="0.1px" d="M11.782 12.251V13.5a2.5 2.5 0 0 1-2.5 2.5H3a2.5 2.5 0 0 1-2.5-2.5v-11A2.5 2.5 0 0 1 3 0h6.282a2.5 2.5 0 0 1 2.5 2.5v1.25a.625.625 0 0 1-1.25 0V2.5a1.252 1.252 0 0 0-1.25-1.25H3A1.252 1.252 0 0 0 1.75 2.5v11A1.252 1.252 0 0 0 3 14.751h6.282a1.252 1.252 0 0 0 1.25-1.25v-1.25a.625.625 0 1 1 1.25 0z" transform="translate(1305.5 470)"/>
        <g id="그룹_12922" transform="translate(1312.277 475.051)">
            <path id="패스_6446" d="M286.392 209.061h-8.4a.54.54 0 1 1 0-1.053h8.4a.54.54 0 1 1 0 1.053zm0 0" class="cls-3" transform="translate(-277.332 -205.375)"/>
            <path id="패스_6447" d="M400.53 134.287a.527.527 0 0 1-.372-.9l2.26-2.26-2.26-2.26a.526.526 0 0 1 .745-.744l2.632 2.632a.526.526 0 0 1 0 .744l-2.632 2.631a.523.523 0 0 1-.373.157zm0 0" class="cls-3" transform="translate(-393.965 -127.97)"/>
        </g>
    </g>
</svg>
