<svg xmlns="http://www.w3.org/2000/svg" width="20" height="20" viewBox="0 0 20 20">
    <path fill="#fff" stroke="#fff" stroke-linecap="round" stroke-linejoin="round" stroke-width="0.8px" d="M10.461 13.034A3.731 3.731 0 1 1 14.154 9.3a3.712 3.712 0 0 1-3.693 3.734zm0 0q5.657 0 6.6 6.218H3.858q.942-6.219 6.603-6.218z" transform="translate(-1.597 -2.127)"/>
    <g>
        <path fill="#ec455f" d="M315.369 740.453a5.042 5.042 0 1 1-5.042 5.042 5.042 5.042 0 0 1 5.042-5.042z" transform="translate(7.892 2.2) translate(-310.327 -740.453)"/>
        <path fill="#fff" d="M312.671 742.055h1.424l2.374 4.169q.106.191.236.473a3.114 3.114 0 0 1 .208.616v-5.258h1.159v6.883h-1.42l-2.385-4.179a4.521 4.521 0 0 1-.25-.495 3.21 3.21 0 0 1-.183-.566v5.239h-1.159z" transform="translate(7.892 2.2) translate(-310.327 -740.453)"/>
    </g>
</svg>
