<svg xmlns="http://www.w3.org/2000/svg" id="ic_notice_dot" width="32" height="32" viewBox="0 0 32 32">
    <defs>
        <linearGradient id="linear-gradient" x1=".5" x2=".5" y2="1" gradientUnits="objectBoundingBox">
            <stop offset="0" stop-color="#ef0"/>
            <stop offset="1" stop-color="#0dc700"/>
        </linearGradient>
        <style>
            .cls-1,.cls-2{fill:none}.cls-2{stroke:#fff;stroke-miterlimit:10;stroke-width:1.5px}
        </style>
    </defs>
    <rect id="사각형_3176" width="32" height="32" rx="10"/>
    <g id="ic_alarm_dot" transform="translate(4 4)">
        <g id="ic_alarm">
            <path id="사각형_445" d="M0 0H24V24H0z" class="cls-1"/>
            <g id="그룹_9466" transform="translate(4.6 3.6)">
                <path id="선_91" d="M0 0L6.703 0" class="cls-2" transform="translate(3.964 12.237)"/>
                <path id="패스_4093" d="M16.723 17.035h3.066a.8.8 0 0 0 .668-1.346l-1.713-1.723V9.611A4.722 4.722 0 0 0 15.6 5.2C11.708 3.781 8 6.317 8 9.633v4.334l-1.714 1.722a.8.8 0 0 0 .668 1.346h3.066" class="cls-2" transform="translate(-6.056 -4.798)"/>
                <path id="패스_4094" d="M9.291 15.845a3.426 3.426 0 1 0 6.7 0" class="cls-2" transform="translate(-5.327 -3.608)"/>
            </g>
        </g>
        <g id="타원_1033" fill="url(#linear-gradient)" stroke="#000" stroke-width="1.5px" transform="translate(15)">
            <circle cx="4.5" cy="4.5" r="4.5" stroke="none"/>
            <circle cx="4.5" cy="4.5" r="5.25" class="cls-1"/>
        </g>
    </g>
</svg>
