<svg xmlns="http://www.w3.org/2000/svg" id="ic_people" width="23" height="23" viewBox="0 0 23 23">
    <defs>
        <style>
            .cls-1{opacity:.5}.cls-2,.cls-3{fill:none}.cls-2{stroke:#fff;stroke-linecap:round;stroke-linejoin:round}
        </style>
    </defs>
    <g id="ic_people-2" data-name="ic_people">
        <g id="Vector_Smart_Object" class="cls-1" data-name="Vector Smart Object" transform="translate(2.584 3.876)">
            <g id="그룹_9365" data-name="그룹 9365">
                <g id="그룹_9364" data-name="그룹 9364" transform="translate(12.471)">
                    <path id="패스_3946" d="M15.2 4.82a4.024 4.024 0 0 1 3.17 3.931 4.1 4.1 0 0 1-1.933 3.441c3.075.6 4.93 2.677 5.527 6.185l.074.442h-2.173" class="cls-2" data-name="패스 3946" transform="translate(-15.198 -4.82)"/>
                </g>
                <path id="패스_3947" d="M11.43 14.13a4.279 4.279 0 1 1 4.235-4.28 4.257 4.257 0 0 1-4.235 4.28zm0 0q6.488 0 7.57 7.131H3.858q1.082-7.132 7.572-7.131z" class="cls-2" data-name="패스 3947" transform="translate(-3.858 -5.571)"/>
            </g>
        </g>
        <path id="사각형_454" d="M0 0h23v23H0z" class="cls-3" data-name="사각형 454"/>
    </g>
</svg>
