<svg xmlns="http://www.w3.org/2000/svg" width="40" height="40" viewBox="0 0 40 40">
    <defs>
        <filter id="패스_32474" width="15.447" height="19.07" x="12.452" y="8.631" filterUnits="userSpaceOnUse">
            <feOffset dx=".2" dy=".1"/>
            <feGaussianBlur result="blur" stdDeviation=".05"/>
            <feFlood flood-opacity=".071"/>
            <feComposite in2="blur" operator="in"/>
            <feComposite in="SourceGraphic"/>
        </filter>
        <style>
            .cls-3{fill:none}.cls-9{fill:#fff}.cls-15{fill:#f7ff00}
        </style>
    </defs>
    <g id="ic_roulette" transform="translate(-1740 -429)">
        <circle id="타원_1569" cx="20" cy="20" r="20" fill="#632beb" transform="translate(1740 429)"/>
        <circle id="타원_1570" cx="16" cy="16" r="16" fill="#591bec" transform="translate(1744 433)"/>
        <circle id="타원_1571" cx="17" cy="17" r="17" class="cls-3" transform="translate(1743 432)"/>
        <g id="그룹_34258" transform="translate(1744 433)">
            <path id="패스_32775" fill="#c7d7fe" d="M459 521.729a15.993 15.993 0 0 0 8 13.858l8-13.858z" transform="translate(-459 -505.729)"/>
            <path id="패스_32776" fill="#fef7d5" d="M534.994 403.871a16.016 16.016 0 0 0-16 0l8 13.858z" transform="translate(-510.993 -401.729)"/>
            <path id="패스_32777" fill="#f2e1ff" d="M475 431.65l-8-13.858a15.993 15.993 0 0 0-8 13.858z" transform="translate(-459 -415.65)"/>
            <path id="패스_32778" d="M526.993 521.729l-8 13.858a16.017 16.017 0 0 0 16 0l-8-13.858z" class="cls-9" transform="translate(-510.993 -505.729)"/>
            <path id="패스_32779" fill="#d0f4ee" d="M587 417.792l-8 13.858h16a15.993 15.993 0 0 0-8-13.858z" transform="translate(-563 -415.65)"/>
            <path id="패스_32780" fill="#fed9cf" d="M587 535.587a15.993 15.993 0 0 0 8-13.858h-16z" transform="translate(-563 -505.729)"/>
        </g>
        <g id="그룹_34182" transform="rotate(-165.02 911.66 112.07)">
            <path id="패스_32740" fill="#4a0b9d" d="M0 5.615c0 3.1 5.616 10.811 5.616 10.811s5.614-7.71 5.614-10.811a5.615 5.615 0 0 0-11.23 0z" opacity="0.36"/>
            <g filter="url(#패스_32474)" transform="matrix(-.97 .26 -.26 -.97 29.61 20.49)">
                <path id="패스_32474-2" fill="#e12b6a" d="M0 5.614c0 3.1 5.615 10.809 5.615 10.809s5.614-7.709 5.614-10.809A5.614 5.614 0 0 0 0 5.614z" transform="matrix(-.97 -.26 .26 -.97 23.3 27.45)"/>
            </g>
            <path id="패스_32475" fill="#f5f1ff" d="M0 3.088A3.088 3.088 0 1 0 3.089 0 3.088 3.088 0 0 0 0 3.088z" transform="translate(2.526 2.824)"/>
            <path id="패스_32592" d="M0 2.526A2.527 2.527 0 1 0 2.527 0 2.527 2.527 0 0 0 0 2.526z" class="cls-9" transform="translate(3.088 3.387)"/>
        </g>
        <g id="그룹_34188" transform="rotate(90 665.629 1095.274)">
            <g id="그룹_33991">
                <circle id="타원_1469" cx="1.096" cy="1.096" r="1.096" class="cls-9"/>
            </g>
        </g>
        <g id="그룹_34181" transform="rotate(90 647.242 1113.661)">
            <g id="그룹_33991-2">
                <circle id="타원_1469-2" cx="1.096" cy="1.096" r="1.096" class="cls-9"/>
            </g>
        </g>
        <g id="그룹_34185" transform="rotate(135 796.855 585.545)">
            <g id="그룹_33991-3">
                <circle id="타원_1469-3" cx="1.096" cy="1.096" r="1.096" class="cls-15"/>
            </g>
        </g>
        <g id="그룹_34184" transform="rotate(135 778.467 593.161)">
            <g id="그룹_33991-4">
                <circle id="타원_1469-4" cx="1.096" cy="1.096" r="1.096" class="cls-15"/>
            </g>
        </g>
        <g id="그룹_34183" transform="rotate(180 889.645 225.113)">
            <g id="그룹_33991-5">
                <circle id="타원_1469-5" cx="1.096" cy="1.096" r="1.096" class="cls-9"/>
            </g>
        </g>
        <g id="그룹_34187" transform="rotate(180 871.258 225.113)">
            <g id="그룹_33991-6">
                <circle id="타원_1469-6" cx="1.096" cy="1.096" r="1.096" class="cls-9"/>
            </g>
        </g>
        <g id="그룹_34180" transform="rotate(-135 982.435 -135.32)">
            <g id="그룹_33991-7">
                <circle id="타원_1469-7" cx="1.096" cy="1.096" r="1.096" class="cls-15"/>
            </g>
        </g>
        <g id="그룹_34186" transform="rotate(-135 964.048 -142.937)">
            <g id="그룹_33991-8">
                <circle id="타원_1469-8" cx="1.096" cy="1.096" r="1.096" class="cls-15"/>
            </g>
        </g>
    </g>
</svg>
