<svg xmlns="http://www.w3.org/2000/svg" id="ic_game" width="40" height="40" viewBox="0 0 40 40">
    <defs>
        <style>
            .cls-1{fill:#eee}
        </style>
    </defs>
    <circle id="타원_1569" cx="20" cy="20" r="20" class="cls-1"/>
    <g id="그룹_34313" transform="translate(-620.572 -327.809)">
        <g id="그룹_34310" transform="translate(631.073 336.013)">
            <g id="그룹_34306">
                <g id="그룹_34304" transform="translate(0 3.448)">
                    <g id="그룹_34300">
                        <path id="패스_32818" d="M643.935 363.6a9.5 9.5 0 1 1 9.5-9.5 9.511 9.511 0 0 1-9.5 9.5zm0-17.7a8.2 8.2 0 1 0 8.2 8.2 8.206 8.206 0 0 0-8.2-8.2z" transform="translate(-634.435 -344.598)"/>
                    </g>
                    <g id="그룹_34301" transform="translate(.394 .393)">
                        <path id="패스_32819" d="M662.248 364.018a.652.652 0 0 1-.652-.652v-16.91a.652.652 0 0 1 1.3 0v16.91a.652.652 0 0 1-.648.652z" transform="translate(-653.141 -345.805)"/>
                        <path id="패스_32820" d="M653.205 373.061h-16.91a.652.652 0 1 1 0-1.3h16.911a.652.652 0 0 1 0 1.3z" transform="translate(-635.643 -363.303)"/>
                    </g>
                    <g id="그룹_34302" transform="translate(2.87 2.87)">
                        <path id="패스_32821" d="M643.9 366.667a.652.652 0 0 1-.461-1.112l11.954-11.955a.651.651 0 0 1 .921.921l-11.958 11.957a.648.648 0 0 1-.456.189z" transform="translate(-643.244 -353.406)"/>
                        <path id="패스_32822" d="M655.854 366.667a.649.649 0 0 1-.461-.191l-11.958-11.957a.651.651 0 1 1 .921-.921l11.958 11.957a.652.652 0 0 1-.461 1.112z" transform="translate(-643.244 -353.406)"/>
                    </g>
                    <g id="그룹_34303" transform="translate(6.096 6.096)">
                        <path id="패스_32823" d="M660.652 368.061a2.753 2.753 0 1 0-2.753 2.753 2.753 2.753 0 0 0 2.753-2.753z" class="cls-1" transform="translate(-654.495 -364.657)"/>
                        <path id="패스_32824" d="M656.55 370.117a3.4 3.4 0 1 1 3.4-3.4 3.408 3.408 0 0 1-3.4 3.4zm0-5.505a2.1 2.1 0 1 0 2.1 2.1 2.1 2.1 0 0 0-2.1-2.1z" transform="translate(-653.146 -363.309)"/>
                    </g>
                </g>
                <g id="그룹_34305" transform="translate(6.168 .796)">
                    <path id="패스_32825" d="M655.561 341.19l2.813-5.177h-5.626z" class="cls-1" transform="translate(-652.229 -335.494)"/>
                    <path id="패스_32826" d="M654.08 340.227a.518.518 0 0 1-.456-.271l-2.813-5.177a.519.519 0 0 1 .456-.766h5.626a.519.519 0 0 1 .456.766l-2.814 5.177a.518.518 0 0 1-.455.271zm-1.941-5.177l1.941 3.572 1.941-3.572z" transform="translate(-650.748 -334.013)"/>
                </g>
            </g>
        </g>
    </g>
</svg>
