<svg xmlns="http://www.w3.org/2000/svg" xmlns:xlink="http://www.w3.org/1999/xlink" width="240" height="240" viewBox="0 0 240 240">
  <defs>
    <clipPath id="clip-path">
      <rect width="240" height="240" transform="translate(2397 1003)" fill="none" stroke="#707070" stroke-width="1"/>
    </clipPath>
  </defs>
  <g transform="translate(-2397 -1003)">
    <g clip-path="url(#clip-path)">
      <g transform="translate(1418.139 -510.527) rotate(22.5)">
        <path d="M1556.384,1002.936a119.62,119.62,0,0,0-36.022,83.955h119.977Z" fill="#fef2b8"/>
        <path d="M1640.339,968.666a119.6,119.6,0,0,0-83.955,34.27l83.955,83.955Z" fill="#d0f4ee"/>
        <path d="M1760.317,1086.891a119.625,119.625,0,0,0-36.023-83.955l-83.955,83.955Z" fill="#e9f9cf"/>
        <path d="M1724.294,1002.936a119.6,119.6,0,0,0-83.955-34.27v118.225Z" fill="#ffdcb6"/>
        <path d="M1520.362,1086.891c-.009.591-.023,1.181-.023,1.775a119.6,119.6,0,0,0,34.27,83.955l85.73-85.73Z" fill="#f2e1ff"/>
        <path d="M1760.317,1086.891H1640.339l85.73,85.73a119.6,119.6,0,0,0,34.27-83.955C1760.339,1088.072,1760.325,1087.482,1760.317,1086.891Z" fill="#fed9cf"/>
        <path d="M1640.339,1208.666a119.631,119.631,0,0,0,85.73-36.045l-85.73-85.73Z" fill="#fffef8"/>
        <path d="M1554.609,1172.621a119.633,119.633,0,0,0,85.73,36.045V1086.891Z" fill="#c7d7fe"/>
      </g>
    </g>
  </g>
</svg>


