<svg xmlns="http://www.w3.org/2000/svg" width="240" height="240" viewBox="0 0 240 240">
    <defs>
        <clipPath id="clip-path">
            <circle id="타원_1620" cx="120" cy="120" r="120" fill="none" transform="translate(-132.513 875.095)"/>
        </clipPath>
        <style>
            .cls-2{fill:#fff}
        </style>
    </defs>
    <g id="ic_rotate_roulette-5" transform="translate(132.513 -875.095)">
        <circle id="타원_1621" cx="120" cy="120" r="120" class="cls-2" transform="translate(-132.513 875.095)"/>
        <g id="그룹_34279">
            <g id="그룹_34281">
                <g id="그룹_34280" clip-path="url(#clip-path)">
                    <g id="그룹_34278">
                        <g id="그룹_34275">
                            <g id="마스크_그룹_71">
                                <g id="ic_rotate_roulette-4">
                                    <path id="패스_32781" d="M100.666 1034.226a119.965 119.965 0 0 0-41.2-134.886h-.007l-72.214 95.836z" class="cls-2"/>
                                    <path id="패스_32782" fill="#f2e1ff" d="M59.46 899.334a119.97 119.97 0 0 0-141.1-2.52l68.877 98.356z"/>
                                    <path id="패스_32783" fill="#fef7d5" d="M-12.759 995.17l-2.091 119.94a120.066 120.066 0 0 0 115.519-80.885z"/>
                                    <path id="패스_32784" fill="#ffded5" d="M-81.633 896.816a120.077 120.077 0 0 0-45.914 133.451l114.788-35.1z"/>
                                    <path id="패스_32785" fill="#d0f4ee" d="M-127.544 1030.264a119.654 119.654 0 0 0 112.691 84.842l2.093-119.94z"/>
                                </g>
                            </g>
                        </g>
                    </g>
                </g>
            </g>
        </g>
    </g>
</svg>
