<svg xmlns="http://www.w3.org/2000/svg" id="ic_setting" width="22" height="22" viewBox="0 0 22 22">
    <defs>
        <style>
            .cls-1,.cls-2{fill:none}.cls-1{stroke:#212121;stroke-linecap:round;stroke-linejoin:round;stroke-width:1.2px}
        </style>
    </defs>
    <path id="패스_4097" d="M6.271 12.792l-1.344-.431a.777.777 0 0 1-.539-.74V9.645a.778.778 0 0 1 .539-.74l1.344-.431a.779.779 0 0 0 .385-1.206L6.083 6.5a.777.777 0 0 1 .073-1.015L7.4 4.24a.777.777 0 0 1 1.015-.073l.767.574a.776.776 0 0 0 1.206-.385l.432-1.343a.777.777 0 0 1 .74-.539h1.975a.779.779 0 0 1 .741.539l.431 1.343a.778.778 0 0 0 .978.5.8.8 0 0 0 .228-.118l.767-.574a.777.777 0 0 1 1.02.076l1.247 1.247a.778.778 0 0 1 .068 1.013l-.574.767a.777.777 0 0 0 .159 1.089.811.811 0 0 0 .228.118l1.344.431a.778.778 0 0 1 .539.74v1.976a.777.777 0 0 1-.539.74l-1.344.431a.778.778 0 0 0-.5.979.769.769 0 0 0 .118.227l.574.767a.778.778 0 0 1-.073 1.015L17.7 17.027a.777.777 0 0 1-1.015.073l-.767-.574a.776.776 0 0 0-1.088.157.762.762 0 0 0-.118.228l-.431 1.343a.778.778 0 0 1-.741.539h-1.979a.776.776 0 0 1-.74-.539l-.432-1.343a.778.778 0 0 0-.978-.5.811.811 0 0 0-.228.118l-.767.574a.777.777 0 0 1-1.016-.076L6.156 15.78a.777.777 0 0 1-.073-1.015L6.657 14a.777.777 0 0 0-.157-1.09.8.8 0 0 0-.229-.118zM14.2 8.985a2.332 2.332 0 1 0 0 3.3 2.331 2.331 0 0 0 0-3.3z" class="cls-1" data-name="패스 4097" transform="translate(-1.153 .762)"/>
    <path id="사각형_466" d="M0 0h22v22H0z" class="cls-2" data-name="사각형 466"/>
</svg>
