<svg xmlns="http://www.w3.org/2000/svg" width="32" height="32" viewBox="0 0 32 32">
    <path fill="none" stroke="#fff" stroke-linecap="round" stroke-linejoin="round" stroke-width="1.4px" d="M6.35 13.221l-1.4-.449A.809.809 0 0 1 4.388 12V9.944a.81.81 0 0 1 .562-.771l1.4-.449a.811.811 0 0 0 .4-1.256l-.6-.8a.809.809 0 0 1 .076-1.057l1.3-1.3a.809.809 0 0 1 1.057-.076l.8.6a.808.808 0 0 0 1.256-.4l.45-1.4a.809.809 0 0 1 .771-.562h2.057a.811.811 0 0 1 .772.562l.449 1.4a.81.81 0 0 0 1.018.524.831.831 0 0 0 .237-.123l.8-.6a.809.809 0 0 1 1.057.076l1.3 1.3a.81.81 0 0 1 .076 1.057l-.6.8a.81.81 0 0 0 .163 1.131.845.845 0 0 0 .237.123l1.4.449a.81.81 0 0 1 .562.771V12a.809.809 0 0 1-.562.771l-1.4.449a.81.81 0 0 0-.523 1.019.8.8 0 0 0 .123.236l.6.8a.81.81 0 0 1-.076 1.057l-1.3 1.3a.809.809 0 0 1-1.057.076l-.8-.6a.809.809 0 0 0-1.133.164.794.794 0 0 0-.123.237l-.449 1.4a.81.81 0 0 1-.772.562H11.86a.808.808 0 0 1-.771-.562l-.45-1.4a.81.81 0 0 0-1.018-.524.845.845 0 0 0-.237.123l-.8.6a.809.809 0 0 1-1.057-.076l-1.3-1.3a.809.809 0 0 1-.076-1.057l.6-.8a.81.81 0 0 0-.164-1.133.831.831 0 0 0-.237-.121zm8.255-3.966a2.428 2.428 0 1 0 0 3.434 2.428 2.428 0 0 0 0-3.433z" transform="translate(3.112 5.027)"/>
</svg>
