<svg xmlns="http://www.w3.org/2000/svg" width="36" height="36" viewBox="0 0 36 36">
    <defs>
        <style>
            .cls-2{fill:none;stroke:#fff;stroke-linecap:round;stroke-linejoin:round;stroke-width:1.5px}
        </style>
    </defs>
    <g id="ic_video" transform="translate(11025 1275)">
        <path id="사각형_407" fill="none" d="M0 0h36v36H0z" transform="translate(-11025 -1275)"/>
        <g id="그룹_33696" transform="translate(-10907.979 -1649.591)">
            <path id="패스_32296" d="M-92.078 398.369a2.741 2.741 0 0 1-.029.282l4.759 1.924v-9.743l-4.732 1.9v5.637z" class="cls-2" transform="translate(-.846 -.382)"/>
            <path id="패스_32297" d="M-92.926 392.686a2.852 2.852 0 0 0-1.192-2.308 3.635 3.635 0 0 1-3.11 1.763 3.642 3.642 0 0 1-3.386-2.309h-.9a4.723 4.723 0 0 1-4.169 2.524 4.717 4.717 0 0 1-3.746-1.864 2.841 2.841 0 0 0-1.054 2.2v5.628a2.862 2.862 0 0 0 2.862 2.862h11.834a2.852 2.852 0 0 0 2.833-2.579 2.746 2.746 0 0 0 .029-.282v-5.637z" class="cls-2" transform="translate(0 -.336)"/>
            <path id="패스_32298" d="M-105.679 382.533a4.745 4.745 0 0 0-4.744 4.743 4.7 4.7 0 0 0 1 2.881 4.717 4.717 0 0 0 3.746 1.864 4.723 4.723 0 0 0 4.169-2.524 4.693 4.693 0 0 0 .575-2.22 4.744 4.744 0 0 0-4.746-4.744z" class="cls-2" transform="translate(-.003)"/>
            <path id="패스_32299" d="M-96.764 384.6a3.649 3.649 0 0 0-3.649 3.649 3.619 3.619 0 0 0 .262 1.34 3.642 3.642 0 0 0 3.386 2.309 3.635 3.635 0 0 0 3.11-1.763 3.622 3.622 0 0 0 .539-1.886 3.649 3.649 0 0 0-3.648-3.649z" class="cls-2" transform="translate(-.464 -.095)"/>
        </g>
    </g>
</svg>
