<svg xmlns="http://www.w3.org/2000/svg" width="37" height="37" viewBox="0 0 37 37">
    <defs>
        <style>
            .cls-1,.cls-2{fill:none}.cls-1{stroke:transparent}
        </style>
    </defs>
    <g id="videosetting_w_m" transform="translate(.5 .5)">
        <g id="사각형_407" transform="translate(34.089 -413.9)">
            <path id="사각형_11273" d="M0 0H36V36H0z" class="cls-1" transform="translate(-34.089 413.9)"/>
            <path id="사각형_11274" d="M0 0H35V35H0z" class="cls-2" transform="translate(-33.589 414.4)"/>
        </g>
        <path id="패스_32293" fill="#fff" stroke="#fff" stroke-linecap="round" stroke-linejoin="round" stroke-width="1.5px" d="M-15.889 434l12.7 5.1v-10.2z" transform="translate(34.089 -413.9)"/>
        <g id="그룹_33721" transform="translate(34.089 -413.9)">
            <path id="패스_32310" fill="#fff" stroke="#fff" stroke-linecap="round" stroke-linejoin="round" d="M-17.989 426.6l-.9-.3a.349.349 0 0 1-.2-.1.619.619 0 0 1-.1-.8l.4-.5a.616.616 0 0 0-.1-.7l-.9-.9a.494.494 0 0 0-.329-.2.494.494 0 0 0-.371.1l-.5.4c-.1.1-.1.1-.2.1a.67.67 0 0 1-.7-.4l-.3-.9a.664.664 0 0 0-.5-.4h-1.4a.664.664 0 0 0-.5.4l-.3.9a.349.349 0 0 1-.1.2.619.619 0 0 1-.8.1l-.5-.4a.616.616 0 0 0-.7.1l-.9.9a.494.494 0 0 0-.2.329.494.494 0 0 0 .1.371l.4.5c.1.1.1.1.1.2a.517.517 0 0 1 0 .416.517.517 0 0 1-.3.284l-.9.3a.664.664 0 0 0-.4.5v1.4a.664.664 0 0 0 .4.5l.9.3c.1 0 .2 0 .1.1a.619.619 0 0 1 .1.8l-.4.5a.616.616 0 0 0 .1.7l.9.9a.494.494 0 0 0 .329.2.494.494 0 0 0 .371-.1l.5-.4c.1-.1.1-.1.2-.1a.67.67 0 0 1 .7.4l.3.9a.664.664 0 0 0 .5.4h1.4a.664.664 0 0 0 .5-.4l.3-.9a.349.349 0 0 1 .1-.2.619.619 0 0 1 .8-.1l.5.4a.616.616 0 0 0 .7-.1l.9-.9a.494.494 0 0 0 .2-.329.494.494 0 0 0-.1-.371l-.4-.5c-.1-.1-.1-.1-.1-.2a.67.67 0 0 1 .4-.7l.9-.3a.664.664 0 0 0 .4-.5v-1.4a.664.664 0 0 0-.4-.5zm-5.4 4.5a3.3 3.3 0 0 1-3.3-3.3 3.3 3.3 0 0 1 3.3-3.3 3.3 3.3 0 0 1 3.3 3.3 3.3 3.3 0 0 1-3.3 3.3z"/>
        </g>
        <g id="그룹_33722" transform="translate(34.089 -413.9)">
            <circle id="타원_1431" cx="1.55" cy="1.55" r="1.55" class="cls-1" transform="translate(-24.939 426.25)"/>
            <path id="패스_32311" fill="#fff" stroke="rgba(0,0,0,0)" d="M-11.189 426.65h-4.72a2.044 2.044 0 0 1 .07.45v1.4a2.311 2.311 0 0 1-1.148 1.942 2.1 2.1 0 0 1 .061.5 2.424 2.424 0 0 1-.723 1.7l-.9.9a2.379 2.379 0 0 1-2.176.619 2.3 2.3 0 0 1-1.961 1.193h-1.4a2.313 2.313 0 0 1-1.942-1.148 2.124 2.124 0 0 1-.507.061 2.27 2.27 0 0 1-.8-.158v3.291a3.922 3.922 0 0 0 1.005 2.861 3.922 3.922 0 0 0 2.745 1.289h12.4a3.922 3.922 0 0 0 2.745-1.289 3.922 3.922 0 0 0 1.005-2.861v-6.6a3.923 3.923 0 0 0-1.007-2.862 3.923 3.923 0 0 0-2.747-1.288z"/>
        </g>
        <g id="타원_1433" fill="none" stroke="#fff" transform="translate(7.2 10.4)">
            <circle cx="3.5" cy="3.5" r="3.5" stroke="none"/>
            <circle cx="3.5" cy="3.5" r="3" class="cls-2"/>
        </g>
    </g>
</svg>
