<svg xmlns="http://www.w3.org/2000/svg" width="36" height="36" viewBox="0 0 36 36">
    <path fill="none" d="M0 0H36V36H0z"/>
    <path fill="none" stroke="#fff" stroke-linecap="round" stroke-linejoin="round" stroke-width="1.5px" d="M-47.033 428.909l-4.96 1.991v6.217l4.96 2.005z" transform="translate(77.415 -413.872)"/>
    <g>
        <path fill="none" stroke="#fff" stroke-linecap="round" stroke-linejoin="round" stroke-width="1.4px" d="M-71.6 429.273l-.938-.3a.54.54 0 0 1-.376-.517v-1.376a.541.541 0 0 1 .376-.517l.938-.3a.544.544 0 0 0 .349-.684.539.539 0 0 0-.081-.156l-.4-.536a.542.542 0 0 1 .052-.708l.867-.868a.541.541 0 0 1 .708-.051l.535.4a.541.541 0 0 0 .4.1.541.541 0 0 0 .357-.211.572.572 0 0 0 .083-.161l.3-.935a.542.542 0 0 1 .517-.377h1.376a.542.542 0 0 1 .517.377l.3.937a.542.542 0 0 0 .681.35.534.534 0 0 0 .159-.082l.535-.4a.542.542 0 0 1 .708.052l.87.87a.542.542 0 0 1 .051.707l-.4.535a.543.543 0 0 0 .11.759.58.58 0 0 0 .158.082l.938.3a.541.541 0 0 1 .376.517v1.373a.54.54 0 0 1-.376.517l-.938.3a.543.543 0 0 0-.35.682.559.559 0 0 0 .082.159l.4.535a.542.542 0 0 1-.051.707l-.87.87a.542.542 0 0 1-.708.052l-.535-.4a.542.542 0 0 0-.758.109.534.534 0 0 0-.082.159l-.3.937a.541.541 0 0 1-.517.376h-1.377a.541.541 0 0 1-.518-.376l-.3-.937a.542.542 0 0 0-.682-.35.533.533 0 0 0-.159.082l-.535.4a.542.542 0 0 1-.708-.052l-.867-.868a.542.542 0 0 1-.052-.708l.4-.535a.541.541 0 0 0 .1-.4.541.541 0 0 0-.212-.356.549.549 0 0 0-.153-.083z" transform="translate(77.415 -413.872)"/>
        <g transform="translate(77.415 -413.872) translate(1.021 1.021)">
            <circle cx="1.696" cy="1.696" r="1.696" fill="none" stroke="#fff" stroke-width="1.4px" transform="translate(-69.939 425.051)"/>
        </g>
    </g>
    <path fill="#fff" d="M-54.992 426.614h-5.363a1.8 1.8 0 0 1 .074.472v1.028h5.289a2.449 2.449 0 0 1 2.25 2.6v6.6a2.449 2.449 0 0 1-2.25 2.6H-67.4a2.449 2.449 0 0 1-2.25-2.6v-3.864a1.767 1.767 0 0 1-.75.161 1.772 1.772 0 0 1-.75-.14v3.843a3.943 3.943 0 0 0 3.75 4.1H-55a3.943 3.943 0 0 0 3.75-4.1v-6.6a3.943 3.943 0 0 0-3.747-4.1z" transform="translate(77.415 -413.872)"/>
</svg>
