<svg xmlns="http://www.w3.org/2000/svg" width="36" height="36" viewBox="0 0 36 36">
    <defs>
        <style>
            .cls-2{fill:none;stroke:#fff;stroke-linecap:round;stroke-linejoin:round;stroke-width:1.5px}
        </style>
    </defs>
    <g id="ic_videooff" transform="translate(-229.404 44.352)">
        <g id="그룹_33699">
            <g id="그룹_33698">
                <path id="사각형_407" fill="none" d="M0 0h36v36H0z" transform="translate(229.404 -44.352)"/>
                <g id="그룹_33696">
                    <path id="패스_32296" d="M253.5-20.956c-.005.095-.015.189-.029.282l4.759 1.924v-9.743l-4.732 1.9v5.637z" class="cls-2"/>
                    <path id="패스_32297" d="M253.5-26.593a2.853 2.853 0 0 0-1.192-2.308 3.635 3.635 0 0 1-3.11 1.763 3.641 3.641 0 0 1-3.386-2.309h-.9a4.723 4.723 0 0 1-4.169 2.524A4.714 4.714 0 0 1 237-28.787a2.839 2.839 0 0 0-1.054 2.2v5.628A2.862 2.862 0 0 0 238.8-18.1h11.834a2.852 2.852 0 0 0 2.833-2.579c.014-.093.024-.187.029-.282V-26.6z" class="cls-2"/>
                    <path id="패스_32298" d="M240.744-36.41A4.745 4.745 0 0 0 236-31.667a4.7 4.7 0 0 0 1 2.881 4.714 4.714 0 0 0 3.746 1.864 4.723 4.723 0 0 0 4.169-2.524 4.7 4.7 0 0 0 .575-2.22 4.744 4.744 0 0 0-4.744-4.744z" class="cls-2"/>
                    <path id="패스_32299" d="M249.2-34.438a3.649 3.649 0 0 0-3.649 3.649 3.6 3.6 0 0 0 .262 1.34 3.641 3.641 0 0 0 3.387 2.309 3.635 3.635 0 0 0 3.11-1.763 3.628 3.628 0 0 0 .539-1.886 3.649 3.649 0 0 0-3.649-3.649z" class="cls-2"/>
                </g>
            </g>
        </g>
        <path id="패스_4299" fill="none" stroke="#ec455f" stroke-linecap="round" stroke-linejoin="round" stroke-width="1.5px" d="M237.056-36.7l12.879 12.879L256.752-17z"/>
    </g>
</svg>
