
<svg xmlns="http://www.w3.org/2000/svg" id="rerecord" width="48" height="48" viewBox="0 0 48 48">
    <defs>
        <style>
            .cls-1{fill:#f5f5f5}
        </style>
    </defs>
    <g id="그룹_19100" data-name="그룹 19100" transform="translate(-2507 -5009)">
        <circle id="타원_522" cx="24" cy="24" r="24" class="cls-1" data-name="타원 522" transform="translate(2507 5009)"/>
        <g id="그룹_15787" data-name="그룹 15787" transform="translate(2507 5009)">
            <circle id="타원_248" cx="24" cy="24" r="24" class="cls-1" data-name="타원 248"/>
        </g>
    </g>
    <g id="rerecord-2" data-name="rerecord" transform="translate(12 12)">
        <g id="refresh" fill="#424242">
            <path id="패스_18382" d="M3.741 13.43a1 1 0 0 1 1.25.65 7.14 7.14 0 0 0 6.87 4.92 7.1 7.1 0 0 0 7.18-7 7.1 7.1 0 0 0-7.18-7 7.26 7.26 0 0 0-4.65 1.67l2.17-.36A1 1 0 1 1 9.7 8.29l-4.24.7h-.17a1 1 0 0 1-.34-.06.33.33 0 0 1-.1-.06.78.78 0 0 1-.2-.11l-.09-.11c0-.05-.09-.09-.13-.15s0-.1-.05-.14a1.34 1.34 0 0 1-.07-.18l-.75-4a1.018 1.018 0 0 1 2-.38l.27 1.45A9.21 9.21 0 0 1 11.861 3a9.1 9.1 0 0 1 9.18 9 9.1 9.1 0 0 1-9.18 9 9.12 9.12 0 0 1-8.82-6.32 1 1 0 0 1 .7-1.25z" data-name="패스 18382" transform="translate(-.041)"/>
        </g>
    </g>
</svg>
