
<svg xmlns="http://www.w3.org/2000/svg" id="play_purple_l" width="100" height="102" viewBox="0 0 100 102">
    <defs>
        <clipPath id="clip-path">
            <path id="사각형_1789" fill="#757575" d="M0 0H40V80H0z" data-name="사각형 1789" transform="translate(1156 206)"/>
        </clipPath>
        <filter id="타원_224" width="98" height="98" x="1" y="4" filterUnits="userSpaceOnUse">
            <feOffset dy="3"/>
            <feGaussianBlur result="blur" stdDeviation="3"/>
            <feFlood flood-opacity=".161"/>
            <feComposite in2="blur" operator="in"/>
            <feComposite in="SourceGraphic"/>
        </filter>
        <style>
            .cls-2{fill:none}
        </style>
    </defs>
    <path id="사각형_6124" d="M0 0H100V100H0z" class="cls-2" data-name="사각형 6124"/>
    <g id="그룹_19099" data-name="그룹 19099" transform="translate(-130 -511)">
        <g id="그룹_13313" data-name="그룹 13313" transform="translate(-1163 122)">
            <g filter="url(#타원_224)" transform="translate(1293 389)">
                <circle id="타원_224-2" cx="40" cy="40" r="40" fill="#FF3C7B" data-name="타원 224" transform="translate(10 10)"/>
            </g>
            <g id="마스크_그룹_2" clip-path="url(#clip-path)" data-name="마스크 그룹 2" transform="translate(187 193)">
                <g id="타원_225" fill="none" stroke="#FC6092" stroke-width="2px" data-name="타원 225" transform="translate(1116 206)">
                    <circle cx="40" cy="40" r="40" stroke="none"/>
                    <circle cx="40" cy="40" r="39" class="cls-2"/>
                </g>
            </g>
        </g>
        <g id="그룹_13314" data-name="그룹 13314" transform="translate(-1 252.638)">
            <path id="다각형_1" fill="#fff" d="M13.317 5.367a3 3 0 0 1 5.367 0l11.145 22.291A3 3 0 0 1 27.146 32H4.854a3 3 0 0 1-2.683-4.342z" data-name="다각형 1" transform="rotate(90 -45.831 246.531)"/>
        </g>
    </g>
</svg>
