<svg xmlns="http://www.w3.org/2000/svg" id="upload" width="48" height="48" viewBox="0 0 48 48">
    <defs>
        <style>
            .cls-2{fill:none;stroke:#424242;stroke-linecap:round;stroke-linejoin:round;stroke-width:1.5px}
        </style>
    </defs>
    <circle id="타원_525" cx="24" cy="24" r="24" fill="#f5f5f5" data-name="타원 525"/>
    <g id="upload_dg" transform="translate(12 12)">
        <g id="그룹_17574" data-name="그룹 17574" transform="translate(85.932 -243.917)">
            <path id="패스_10735" d="M-70.941 260.741h3.251a3.7 3.7 0 0 0 3.7-3.7 3.7 3.7 0 0 0-3.3-3.679 4.847 4.847 0 0 0 .041-.6 4.84 4.84 0 0 0-4.838-4.841 4.839 4.839 0 0 0-4.726 3.811 3.6 3.6 0 0 0-1.166-.2 3.613 3.613 0 0 0-3.612 3.615 3.645 3.645 0 0 0 .047.551 2.512 2.512 0 0 0-.348-.035 2.538 2.538 0 0 0-2.537 2.539 2.538 2.538 0 0 0 2.537 2.539h4.412" class="cls-2" data-name="패스 10735" transform="translate(.5)"/>
            <g id="ic_circle_top" data-name="ic circle top" transform="translate(-76.412 255.205)">
                <path id="선_55" d="M0 0L0 7.528" class="cls-2" data-name="선 55" transform="translate(2.713 1.396)"/>
                <path id="패스_4147" d="M-72.931 260.806l2.664-2.306 2.663 2.305" class="cls-2" data-name="패스 4147" transform="translate(72.931 -257.788)"/>
            </g>
        </g>
        <path id="사각형_6116" fill="none" d="M0 0H24V24H0z" data-name="사각형 6116"/>
    </g>
</svg>
