<svg xmlns="http://www.w3.org/2000/svg" id="alarm_off_p" width="24" height="24" viewBox="0 0 24 24">
    <defs>
        <style>
            .cls-2{fill:none;stroke:#FF3C7B;stroke-width:1.2px;stroke-miterlimit:10}
        </style>
    </defs>
    <g id="ic_alarm">
        <path id="사각형_445" fill="none" d="M0 0H24V24H0z"/>
        <g id="그룹_9466" transform="translate(4.6 3.6)">
            <path id="선_91" d="M0 0L6.703 0" class="cls-2" transform="translate(3.964 12.237)"/>
            <path id="패스_4093" d="M16.723 17.035h3.066a.8.8 0 0 0 .668-1.346l-1.713-1.723V9.611A4.722 4.722 0 0 0 15.6 5.2C11.708 3.781 8 6.317 8 9.633v4.334l-1.714 1.722a.8.8 0 0 0 .668 1.346h3.066" class="cls-2" transform="translate(-6.056 -4.798)"/>
            <path id="패스_4094" d="M9.291 15.845a3.426 3.426 0 1 0 6.7 0" class="cls-2" transform="translate(-5.327 -3.608)"/>
        </g>
    </g>
    <path id="패스_4299" fill="none" stroke="#FF3C7B" stroke-linecap="round" stroke-linejoin="round" stroke-width="1.2px" d="M237.056-36.7l10.017 10.017 5.3 5.3z" transform="translate(-233.104 40.651)"/>
</svg>
