<svg xmlns="http://www.w3.org/2000/svg" id="prefix__ico_search_w_m" width="36" height="36" viewBox="0 0 36 36">
    <path id="prefix__사각형_238" d="M0 0H36V36H0z" data-name="사각형 238" style="fill:none"/>
    <g id="prefix__Layer" transform="translate(7.5 6.75)">
        <g id="prefix__Vrstva_92" data-name="Vrstva 92">
            <path id="prefix__패스_107" d="M12.427 2.13a9.014 9.014 0 0 1 6.907 14.8L24.8 22.1a1.131 1.131 0 0 1-1.6 1.6l-5.5-5.243a8.912 8.912 0 0 1-5.25 1.7 9.014 9.014 0 1 1 0-18.027zm0 15.774a6.76 6.76 0 1 0-6.76-6.76 6.76 6.76 0 0 0 6.76 6.76z" data-name="패스 107" transform="translate(-3.436 -2.13)" style="fill:#FF3C7B;fill-rule:evenodd"/>
        </g>
    </g>
</svg>
