
<svg xmlns="http://www.w3.org/2000/svg" id="new_circle_m" width="24" height="24" viewBox="0 0 24 24">
    <defs>
        <style>
            .cls-2{isolation:isolate}
        </style>
    </defs>
    <path id="사각형_3174" fill="#ec455f" d="M70.36 76.871a12 12 0 0 1 12 12 12 12 0 0 1-12 12 12 12 0 0 1-12-12 12 12 0 0 1 12-12z" data-name="사각형 3174" transform="translate(-58.36 -76.871)"/>
    <g id="S" class="cls-2" transform="translate(8.228 7.132)">
        <g id="그룹_15606" class="cls-2" data-name="그룹 15606">
            <path id="패스_7246" fill="#fff" d="M63.845 81.626h1.984l3.321 5.9q.148.27.33.669a4.536 4.536 0 0 1 .291.872v-7.441h1.62v9.734h-1.984l-3.334-5.913a6.379 6.379 0 0 1-.351-.7 4.576 4.576 0 0 1-.256-.8v7.411h-1.62z" data-name="패스 7246" transform="translate(-63.845 -81.626)"/>
        </g>
    </g>
</svg>
