<svg xmlns="http://www.w3.org/2000/svg" id="prefix__logo_w_no_symbol" width="129.828" height="24" viewBox="0 0 129.828 24">
    <defs>
        <style>
            .prefix__cls-1{fill:#fff}.prefix__cls-2{fill:#fdad2b}
        </style>
    </defs>
    <g id="prefix__그룹_10363" data-name="그룹 10363">
        <path id="prefix__패스_4139" d="M267.922 462.619a1.918 1.918 0 0 1 .862.178 1.722 1.722 0 0 1 .583.46 1.689 1.689 0 0 1 .318.638 2.754 2.754 0 0 1 .093.69 2.2 2.2 0 0 1-.106.664 1.894 1.894 0 0 1-.319.6 1.656 1.656 0 0 1-.57.447 1.909 1.909 0 0 1-.862.179h-6.789a.927.927 0 0 0-.53.115.522.522 0 0 0-.159.447v2.453a.557.557 0 0 0 .159.473.929.929 0 0 0 .53.115h7.8a2.126 2.126 0 0 1 .875.166 1.516 1.516 0 0 1 .584.434 1.892 1.892 0 0 1 .318.6 2.2 2.2 0 0 1 .106.664 2.4 2.4 0 0 1-.106.7 1.877 1.877 0 0 1-.318.613 1.629 1.629 0 0 1-.584.447 2 2 0 0 1-.875.179h-10.026a9.152 9.152 0 0 1-1.856-.154 2.333 2.333 0 0 1-1.127-.536 1.953 1.953 0 0 1-.557-1.035 7.876 7.876 0 0 1-.146-1.674v-4.472a7.877 7.877 0 0 1 .146-1.674 1.95 1.95 0 0 1 .557-1.035 2.328 2.328 0 0 1 1.127-.537 9.176 9.176 0 0 1 1.856-.153zm-8.088 23.33a4.294 4.294 0 0 1-1.6-.281 3.4 3.4 0 0 1-1.18-.767 3.366 3.366 0 0 1-.729-1.111 3.483 3.483 0 0 1-.252-1.316v-.307a2.728 2.728 0 0 1 .968-2.2 4.225 4.225 0 0 1 2.8-.818h12.809v-.665a.488.488 0 0 0-.08-.319.474.474 0 0 0-.345-.089h-14.4a1.3 1.3 0 0 1-1.113-.46 1.706 1.706 0 0 1 0-2.057 1.284 1.284 0 0 1 1.113-.473h16.965a4.069 4.069 0 0 1 2.506.588 2.564 2.564 0 0 1 .729 2.1v4.089h-15.778a.609.609 0 0 0-.438.14.46.46 0 0 0-.145.345v.077a.458.458 0 0 0 .145.345.607.607 0 0 0 .438.14H277.2a1.339 1.339 0 0 1 1.153.486 1.766 1.766 0 0 1 .358 1.073 1.683 1.683 0 0 1-.345 1.009 1.349 1.349 0 0 1-1.167.473zm12.755-21.465a2.3 2.3 0 0 1 .782-1.891 2.935 2.935 0 0 1 3.673.013 2.287 2.287 0 0 1 .8 1.878v1.61h.822a2.321 2.321 0 0 1 1.007.192 1.7 1.7 0 0 1 .636.511 2.1 2.1 0 0 1 .345.7 2.876 2.876 0 0 1 .106.766 3.018 3.018 0 0 1-.106.78 1.949 1.949 0 0 1-.345.7 1.738 1.738 0 0 1-.65.5 2.341 2.341 0 0 1-.994.191h-.822v3.833h-5.251z" class="prefix__cls-1" data-name="패스 4139" transform="translate(-255.22 -461.951)"/>
        <path id="prefix__패스_4140" d="M322.869 474.084a7.122 7.122 0 0 1-1.8-.191 2.4 2.4 0 0 1-1.127-.613 2.3 2.3 0 0 1-.57-1.124 7.818 7.818 0 0 1-.159-1.7v-5.545a2.195 2.195 0 0 1 .743-1.852 2.9 2.9 0 0 1 1.829-.576 2.613 2.613 0 0 1 1.7.537 2.181 2.181 0 0 1 .716 1.686h5.012a2.146 2.146 0 0 1 .729-1.7 3.146 3.146 0 0 1 3.553.051 2.259 2.259 0 0 1 .7 1.852v9.173zm5.914 2.607q.212-1.968 2.758-1.968 2.519 0 2.731 1.968h6.735a2.108 2.108 0 0 1 .889.166 1.75 1.75 0 0 1 .583.422 1.655 1.655 0 0 1 .332.575 2.066 2.066 0 0 1 .106.652 1.986 1.986 0 0 1-.438 1.252 1.754 1.754 0 0 1-1.472.563h-6.867a3.113 3.113 0 0 1-.146.46q-.093.23-.2.434a21.788 21.788 0 0 1 3.408-.038 9.794 9.794 0 0 1 2.97.652 6.6 6.6 0 0 1 2.307 1.533 5.559 5.559 0 0 1 1.366 2.581H338.3a4.042 4.042 0 0 0-1.326-1.112 6.682 6.682 0 0 0-1.79-.626 10.145 10.145 0 0 0-2.161-.192 15.929 15.929 0 0 0-2.413.217 14.755 14.755 0 0 1-4.243 1.367 23.458 23.458 0 0 1-4.482.345 2.51 2.51 0 0 1-1.658-.613 1.823 1.823 0 0 1-.543-1.508 1.708 1.708 0 0 1 .61-1.2 2.143 2.143 0 0 1 1.458-.485q.956 0 2-.064a15.882 15.882 0 0 0 2.042-.256 9.535 9.535 0 0 0 1.857-.549 3.811 3.811 0 0 0 1.392-.945h-7.133a1.754 1.754 0 0 1-1.472-.563 1.986 1.986 0 0 1-.437-1.252 2.066 2.066 0 0 1 .106-.652 1.644 1.644 0 0 1 .331-.575 1.746 1.746 0 0 1 .584-.422 2.106 2.106 0 0 1 .888-.166zm.425-6.261v-2.325H324.2v1.686c0 .29.044.469.133.537a1.076 1.076 0 0 0 .583.1zm7.982-5.954a2.266 2.266 0 0 1 .808-1.891 2.935 2.935 0 0 1 1.87-.638 3.092 3.092 0 0 1 .995.166 2.568 2.568 0 0 1 .861.486 2.386 2.386 0 0 1 .6.792 2.5 2.5 0 0 1 .226 1.086v11.013h-5.357z" class="prefix__cls-1" data-name="패스 4140" transform="translate(-292.692 -461.947)"/>
        <g id="prefix__그룹_10362" data-name="그룹 10362" transform="translate(53.037 .058)">
            <path id="prefix__패스_4141" d="M388.453 479.668a1.111 1.111 0 0 0 .264.877 1.543 1.543 0 0 0 .95.217h7.391a2.662 2.662 0 0 1 1.029.178 2.044 2.044 0 0 1 .7.471 1.717 1.717 0 0 1 .4.661 2.433 2.433 0 0 1 .119.75 2.225 2.225 0 0 1-.528 1.437 2.089 2.089 0 0 1-1.716.649h-9.292a8.4 8.4 0 0 1-2.112-.229 3.206 3.206 0 0 1-1.412-.738 2.969 2.969 0 0 1-.792-1.335 7.031 7.031 0 0 1-.251-2.022v-4.629a6.907 6.907 0 0 1 .251-2.01 2.976 2.976 0 0 1 .792-1.322 3.11 3.11 0 0 1 1.412-.725 8.922 8.922 0 0 1 2.112-.216h4.43v-3.688a.953.953 0 0 0-.132-.483q-.132-.23-.58-.229h-5.782a2.644 2.644 0 0 1-1.029-.178 1.826 1.826 0 0 1-.686-.483 2.078 2.078 0 0 1-.4-.687 2.327 2.327 0 0 1-.132-.763 2.567 2.567 0 0 1 .119-.763 1.823 1.823 0 0 1 .4-.687 2.094 2.094 0 0 1 .7-.5 2.493 2.493 0 0 1 1.029-.191h7.128a10.354 10.354 0 0 1 2.257.2 3.221 3.221 0 0 1 1.413.662 2.421 2.421 0 0 1 .739 1.195 6.775 6.775 0 0 1 .211 1.832v8.9h-7.787a1.545 1.545 0 0 0-.95.216 1.112 1.112 0 0 0-.264.877zm12.038-15.11a2.205 2.205 0 0 1 .792-1.844 2.865 2.865 0 0 1 1.822-.623 2.955 2.955 0 0 1 .976.165 2.55 2.55 0 0 1 .832.47 2.356 2.356 0 0 1 .581.763 2.4 2.4 0 0 1 .225 1.068v6.436h.871a2.189 2.189 0 0 1 1 .2 1.8 1.8 0 0 1 .633.522 2.079 2.079 0 0 1 .343.712 2.9 2.9 0 0 1 0 1.551 2.075 2.075 0 0 1-.343.712 1.773 1.773 0 0 1-.647.522 2.206 2.206 0 0 1-.99.2h-.871v10.556h-5.227z" class="prefix__cls-2" data-name="패스 4141" transform="translate(-383.2 -462.091)"/>
            <path id="prefix__패스_4142" d="M446.835 469.391a7.415 7.415 0 0 1 .555-2.963 6.035 6.035 0 0 1 1.544-2.163 6.569 6.569 0 0 1 2.363-1.323 10.574 10.574 0 0 1 6.071 0 6.817 6.817 0 0 1 2.376 1.31 5.835 5.835 0 0 1 1.557 2.162 7.514 7.514 0 0 1 .554 2.976v9.21a7.52 7.52 0 0 1-.554 2.977 5.9 5.9 0 0 1-1.544 2.161 6.648 6.648 0 0 1-2.376 1.31 10.527 10.527 0 0 1-6.059 0 6.8 6.8 0 0 1-2.376-1.31 5.819 5.819 0 0 1-1.557-2.161 7.516 7.516 0 0 1-.555-2.977zm5.227 9.31a2.646 2.646 0 0 0 .647 1.945 2.2 2.2 0 0 0 1.623.649 2.241 2.241 0 0 0 1.637-.649 2.615 2.615 0 0 0 .66-1.945v-9.412a2.662 2.662 0 0 0-.66-1.959 2.139 2.139 0 0 0-1.637-.636 2.287 2.287 0 0 0-1.623.674 2.609 2.609 0 0 0-.647 1.92zm12.8 7.275v-21.367a2.271 2.271 0 0 1 .791-1.882 3 3 0 0 1 3.7 0 2.272 2.272 0 0 1 .792 1.882v21.367z" class="prefix__cls-2" data-name="패스 4142" transform="translate(-420.464 -462.091)"/>
            <path id="prefix__패스_4143" d="M531.317 481.857a2.589 2.589 0 0 1 1.043.191 2.049 2.049 0 0 1 .712.5 1.793 1.793 0 0 1 .4.7 2.685 2.685 0 0 1 .118.775 2.4 2.4 0 0 1-.132.789 1.936 1.936 0 0 1-1.109 1.17 2.647 2.647 0 0 1-1.03.178H511.15a2.644 2.644 0 0 1-1.03-.178 1.953 1.953 0 0 1-.7-.483 1.973 1.973 0 0 1-.409-.687 2.407 2.407 0 0 1-.132-.789 2.7 2.7 0 0 1 .118-.775 1.8 1.8 0 0 1 .4-.7 2.047 2.047 0 0 1 .712-.5 2.587 2.587 0 0 1 1.043-.191zM515.61 466.7h11.219v-1.2a2.245 2.245 0 0 1 .224-1.043 1.959 1.959 0 0 1 .594-.7 2.546 2.546 0 0 1 .858-.395 4.037 4.037 0 0 1 1.016-.127 3.944 3.944 0 0 1 .99.127 2.556 2.556 0 0 1 .858.395 2.089 2.089 0 0 1 .607.7 2.132 2.132 0 0 1 .238 1.043v12.363h-18.187a8.108 8.108 0 0 1-1.94-.191 2.331 2.331 0 0 1-1.175-.649 2.412 2.412 0 0 1-.568-1.208 10.062 10.062 0 0 1-.145-1.87V465.5a2.242 2.242 0 0 1 .225-1.043 1.908 1.908 0 0 1 .607-.7 2.693 2.693 0 0 1 .871-.395 4.037 4.037 0 0 1 1.016-.127 3.451 3.451 0 0 1 .977.14 2.756 2.756 0 0 1 .858.419 2.161 2.161 0 0 1 .621.712 2.134 2.134 0 0 1 .237 1.043zm11.219 7.046v-3.078H515.61v2.315a.831.831 0 0 0 .172.572.855.855 0 0 0 .647.191z" class="prefix__cls-2" data-name="패스 4143" transform="translate(-456.796 -462.779)"/>
        </g>
    </g>
</svg>
