<svg xmlns="http://www.w3.org/2000/svg" id="edit_w" width="24" height="24" viewBox="0 0 24 24">
    <defs>
        <style>
            .cls-2{fill:#fff}
        </style>
    </defs>
    <g id="Layer_2" data-name="Layer 2" transform="translate(3 3)">
        <g id="edit-2">
            <path id="패스_7046" d="M15 20H4.733a.733.733 0 0 0 0 1.467H15A.733.733 0 0 0 15 20z" class="cls-2" data-name="패스 7046" transform="translate(-1.067 -5.333)"/>
            <path id="패스_7047" d="M4.732 13.749H4.8l3.058-.279a1.467 1.467 0 0 0 .887-.418l6.6-6.6a1.408 1.408 0 0 0-.051-1.987l-2.011-2.01a1.467 1.467 0 0 0-1.951-.055L4.732 9a1.467 1.467 0 0 0-.418.887L4 12.949a.731.731 0 0 0 .733.8zm7.532-10.267l2 2L12.8 6.914l-1.966-1.965zm-6.527 6.534l4.129-4.1 1.98 1.98L7.739 12l-2.2.205z" class="cls-2" data-name="패스 7047" transform="translate(-1.066 -.549)"/>
        </g>
    </g>
    <path id="사각형_2409" fill="none" d="M0 0H24V24H0z" data-name="사각형 2409"/>
</svg>
