<svg xmlns="http://www.w3.org/2000/svg" id="gallery_g" width="30" height="30" viewBox="0 0 30 30">
    <path id="사각형_62" fill="rgba(96,27,27,0)" d="M0 0H30V30H0z" data-name="사각형 62"/>
    <path id="제외_3" fill="#bdbdbd" d="M-2694.5-3996.741h-18.584a2.949 2.949 0 0 1-2.92-2.961v-9.81a2.949 2.949 0 0 1 2.919-2.962h4.316v-1.549a1.968 1.968 0 0 1 1.947-1.977h6.056a1.967 1.967 0 0 1 1.948 1.977v1.549h4.318a2.947 2.947 0 0 1 2.917 2.962v9.81a2.947 2.947 0 0 1-2.917 2.961zm-9.275-13.094a4.637 4.637 0 0 0-4.592 4.67 4.637 4.637 0 0 0 4.592 4.672 4.638 4.638 0 0 0 4.592-4.672 4.637 4.637 0 0 0-4.588-4.671zm7.316-1.439a1.5 1.5 0 0 0-1.5 1.5 1.5 1.5 0 0 0 1.5 1.5h1.2a1.5 1.5 0 0 0 1.5-1.5 1.5 1.5 0 0 0-1.5-1.5z" data-name="제외 3" transform="translate(2718.754 4021.675)"/>
</svg>
