<svg xmlns="http://www.w3.org/2000/svg" id="grid_w_s" width="16" height="16" viewBox="0 0 16 16">
    <defs>
        <style>
            .cls-2{fill:#fff}
        </style>
    </defs>
    <g id="grid">
        <path id="패스_18381" d="M7 3H4.333A1.333 1.333 0 0 0 3 4.333V7a1.333 1.333 0 0 0 1.333 1.333H7A1.333 1.333 0 0 0 8.333 7V4.333A1.333 1.333 0 0 0 7 3z" class="cls-2" data-name="패스 18381" transform="translate(-1 -1)"/>
        <path id="패스_18382" d="M17 3h-2.667A1.333 1.333 0 0 0 13 4.333V7a1.333 1.333 0 0 0 1.333 1.333H17A1.333 1.333 0 0 0 18.333 7V4.333A1.333 1.333 0 0 0 17 3z" class="cls-2" data-name="패스 18382" transform="translate(-4.333 -1)"/>
        <path id="패스_18383" d="M7 13H4.333A1.333 1.333 0 0 0 3 14.333V17a1.333 1.333 0 0 0 1.333 1.333H7A1.333 1.333 0 0 0 8.333 17v-2.667A1.333 1.333 0 0 0 7 13z" class="cls-2" data-name="패스 18383" transform="translate(-1 -4.333)"/>
        <path id="패스_18384" d="M17 13h-2.667A1.333 1.333 0 0 0 13 14.333V17a1.333 1.333 0 0 0 1.333 1.333H17A1.333 1.333 0 0 0 18.333 17v-2.667A1.333 1.333 0 0 0 17 13z" class="cls-2" data-name="패스 18384" transform="translate(-4.333 -4.333)"/>
    </g>
</svg>
