<svg xmlns="http://www.w3.org/2000/svg" width="16.8" height="16.8" viewBox="0 0 16.8 16.8">
    <defs>
        <style>
            .cls-1{fill:#757575}
        </style>
    </defs>
    <g id="view_g_s" transform="translate(.4 .4)">
        <g id="icon_86_" data-name="icon (86)" transform="translate(.447 -79.478)">
            <g id="그룹_19091" data-name="그룹 19091" transform="translate(5.042 84.661)">
                <g id="그룹_19090" data-name="그룹 19090">
                    <path id="패스_18386" d="M158.9 156.416a2.485 2.485 0 1 0 2.485 2.485 2.486 2.486 0 0 0-2.485-2.485zm-.754 2.313h-.822a1.4 1.4 0 0 1 1.388-1.388 6.325 6.325 0 0 0-.565 1.388z" class="cls-1" data-name="패스 18386" transform="translate(-156.416 -156.416)"/>
                </g>
            </g>
            <g id="그룹_19093" data-name="그룹 19093" transform="translate(1 82.176)">
                <g id="그룹_19092" data-name="그룹 19092">
                    <path id="패스_18387" d="M13.874 86.631c-.84-1.045-2.646-4.455-6.347-4.455s-5.507 3.41-6.347 4.455a.824.824 0 0 0 0 1.028c.84 1.045 2.646 4.455 6.347 4.455s5.507-3.41 6.347-4.455a.824.824 0 0 0 0-1.028zm-6.347 4.112a3.6 3.6 0 1 1 3.6-3.6 3.6 3.6 0 0 1-3.6 3.6z" class="cls-1" data-name="패스 18387" transform="translate(-1 -82.176)"/>
                </g>
            </g>
        </g>
    </g>
</svg>
