<svg xmlns="http://www.w3.org/2000/svg" id="prefix__icn_moon" width="14" height="14" viewBox="0 0 14 14">
    <defs>
        <linearGradient id="prefix__linear-gradient" x1=".233" x2=".738" y1=".078" y2=".944" gradientUnits="objectBoundingBox">
            <stop offset="0" stop-color="#fdad2b"/>
            <stop offset=".181" stop-color="#fca82d"/>
            <stop offset=".383" stop-color="#fa9a34"/>
            <stop offset=".596" stop-color="#f6843f"/>
            <stop offset=".814" stop-color="#f1654e"/>
            <stop offset="1" stop-color="#ec455f"/>
        </linearGradient>
        <linearGradient id="prefix__linear-gradient-2" x1=".774" x2=".279" y1="-.526" y2="1.026" gradientUnits="objectBoundingBox">
            <stop offset="0" stop-color="#fde065" stop-opacity=".541"/>
            <stop offset=".156" stop-color="#fde16a" stop-opacity=".522"/>
            <stop offset=".33" stop-color="#fde479" stop-opacity=".467"/>
            <stop offset=".513" stop-color="#fde992" stop-opacity=".38"/>
            <stop offset=".703" stop-color="#fef0b5" stop-opacity=".255"/>
            <stop offset=".895" stop-color="#fef9e2" stop-opacity=".098"/>
            <stop offset="1" stop-color="#fff" stop-opacity="0"/>
        </linearGradient>
        <clipPath id="prefix__clip-path">
            <path id="prefix__패스_6" fill="none" d="M150.9 267.52a4.273 4.273 0 1 1 0-8.546 4.386 4.386 0 0 1 .76.067 6.662 6.662 0 1 0 2.683 6.782 4.323 4.323 0 0 1-3.443 1.697z" data-name="패스 6" transform="translate(-141 -257.798)"/>
        </clipPath>
    </defs>
    <g id="prefix__그룹_5" data-name="그룹 5">
        <path id="prefix__패스_3" fill="url(#prefix__linear-gradient)" d="M150.9 267.52a4.273 4.273 0 1 1 0-8.546 4.386 4.386 0 0 1 .76.067 6.662 6.662 0 1 0 2.683 6.782 4.323 4.323 0 0 1-3.443 1.697z" data-name="패스 3" transform="translate(-140.67 -257.471)"/>
        <path id="prefix__패스_4" fill="#ee5556" d="M145.069 255.124a6.754 6.754 0 0 1 3.918 1.243 4.389 4.389 0 0 0-.76-.067 4.273 4.273 0 1 0 3.442 6.849 6.733 6.733 0 1 1-6.6-8.025m0-.326a7 7 0 1 0 0 14 7.123 7.123 0 0 0 4.494-1.6 7.008 7.008 0 0 0 2.43-3.986.326.326 0 0 0-.187-.363.332.332 0 0 0-.4.1 3.97 3.97 0 1 1-3.179-6.326 4.062 4.062 0 0 1 .7.062.326.326 0 0 0 .25-.587 7.068 7.068 0 0 0-4.11-1.3z" data-name="패스 4" transform="translate(-138 -254.798)"/>
    </g>
    <g id="prefix__그룹_7" data-name="그룹 7" transform="translate(.33 .326)">
        <g id="prefix__그룹_6" clip-path="url(#prefix__clip-path)" data-name="그룹 6">
            <path id="prefix__패스_5" fill="url(#prefix__linear-gradient-2)" d="M124.794 243.508c-.7.093-6.189 7.149-6.189 7.149l.563 5.9 14.862-11.49-4.126-1z" data-name="패스 5" transform="translate(-121.066 -245.063)"/>
        </g>
    </g>
</svg>
