<svg xmlns="http://www.w3.org/2000/svg" id="prefix__icn_gift" width="14" height="14" viewBox="0 0 14 14">
    <path id="prefix__iconfinder___gift_present_box_birthday_3668855" fill="#fd6a7e" d="M16.727 10.583v5.833a.578.578 0 0 1-.636.583H5.909a.578.578 0 0 1-.636-.583v-5.833h5.091v5.25h1.273v-5.25zM10.364 6.5H4.636A.578.578 0 0 0 4 7.083v1.75a.578.578 0 0 0 .636.583h5.727zm7 0h-5.728v2.917h5.727A.578.578 0 0 0 18 8.833v-1.75a.578.578 0 0 0-.636-.583zm-1.845-.642l.064-.233a1.845 1.845 0 0 0-.191-1.808A2.213 2.213 0 0 0 13.609 3a2.076 2.076 0 0 0-1.973 1.225l-1.272 2.858h3.182a2.14 2.14 0 0 0 1.972-1.225zm-2.674-1.225a.832.832 0 0 1 .764-.467.9.9 0 0 1 .7.35.7.7 0 0 1 .064.7l-.064.233a.832.832 0 0 1-.764.467h-1.272zm-2.482-.408A2.14 2.14 0 0 0 8.391 3a2.1 2.1 0 0 0-1.782.875 1.829 1.829 0 0 0-.191 1.808l.064.233a2.192 2.192 0 0 0 1.973 1.167h3.118zm-1.209.408l.573 1.283H8.455a.832.832 0 0 1-.764-.467l-.127-.233a.7.7 0 0 1 .127-.7.747.747 0 0 1 .7-.35.832.832 0 0 1 .764.467z" transform="translate(-4 -3)"/>
</svg>
