<svg xmlns="http://www.w3.org/2000/svg" width="40" height="24" viewBox="0 0 40 24">
    <defs>
        <clipPath id="7f2zqvj2qa">
            <path fill="#FF3C7B" d="M12.437.071C13.8-.006 15.165 0 16.529 0h6.915c1.391 0 2.755-.006 4.118.071a17.182 17.182 0 0 1 3.65.55 11.983 11.983 0 0 1 6.339 4.225 11.677 11.677 0 0 1 0 14.307 11.987 11.987 0 0 1-6.339 4.225 17.232 17.232 0 0 1-3.65.55c-1.364.077-2.727.07-4.092.07h-6.915c-1.39 0-2.753.006-4.118-.071a17.232 17.232 0 0 1-3.649-.55 11.987 11.987 0 0 1-6.339-4.225 11.674 11.674 0 0 1 0-14.307A11.983 11.983 0 0 1 8.787.622a17.182 17.182 0 0 1 3.65-.551z" transform="translate(283 370)"/>
        </clipPath>
        <filter id="gyv7r7kdbb" width="45" height="45" x="5.5" y="-7.5" filterUnits="userSpaceOnUse">
            <feOffset dy="3"/>
            <feGaussianBlur result="blur" stdDeviation="4"/>
            <feFlood flood-opacity=".149"/>
            <feComposite in2="blur" operator="in"/>
            <feComposite in="SourceGraphic"/>
        </filter>
    </defs>
    <path fill="#622aea" d="M12.437.071C13.8-.006 15.165 0 16.529 0h6.915c1.391 0 2.755-.006 4.118.071a17.182 17.182 0 0 1 3.65.55 11.983 11.983 0 0 1 6.339 4.225 11.677 11.677 0 0 1 0 14.307 11.987 11.987 0 0 1-6.339 4.225 17.232 17.232 0 0 1-3.65.55c-1.364.077-2.727.07-4.092.07h-6.915c-1.39 0-2.753.006-4.118-.071a17.232 17.232 0 0 1-3.649-.55 11.987 11.987 0 0 1-6.339-4.225 11.674 11.674 0 0 1 0-14.307A11.983 11.983 0 0 1 8.787.622a17.182 17.182 0 0 1 3.65-.551z"/>
    <g clip-path="url(#7f2zqvj2qa)" transform="translate(-283 -370)">
        <g filter="url(#gyv7r7kdbb)" transform="translate(283 370)">
            <path fill="#fff" d="M10.5 0A10.5 10.5 0 1 1 0 10.5 10.5 10.5 0 0 1 10.5 0z" transform="translate(17.5 1.5)"/>
        </g>
    </g>
</svg>
