
<svg xmlns="http://www.w3.org/2000/svg" id="admin_g_s" width="16" height="16" viewBox="0 0 16 16">
    <path id="패스_4176" fill="none" stroke="#9e9e9e" d="M523.808 1172.851v-1.862l-1.962-.39a4.479 4.479 0 0 0-.329-.794l1.113-1.666-1.315-1.316-1.664 1.114a4.5 4.5 0 0 0-.793-.33l-.39-1.965h-1.859l-.389 1.965a4.5 4.5 0 0 0-.793.33l-1.664-1.114-1.314 1.316 1.112 1.666a4.473 4.473 0 0 0-.329.794l-1.962.39v1.862l1.962.39a4.469 4.469 0 0 0 .329.794l-1.112 1.666 1.314 1.316 1.664-1.114a4.44 4.44 0 0 0 .793.33l.389 1.965h1.859l.39-1.965a4.438 4.438 0 0 0 .793-.33l1.664 1.114 1.315-1.316-1.113-1.666a4.5 4.5 0 0 0 .329-.794z" data-name="패스 4176" transform="translate(-509.558 -1163.892)"/>
</svg>
