<svg xmlns="http://www.w3.org/2000/svg" id="prefix__detail_yellow" width="32" height="32" viewBox="0 0 32 32">
    <defs>
        <style>
            .prefix__cls-2{fill:#fff;stroke:#000;stroke-linecap:round;stroke-linejoin:round}
        </style>
    </defs>
    <rect id="prefix__사각형_810" width="32" height="32" data-name="사각형 810" rx="12" style="fill:#f9dc8b"/>
    <g id="prefix__그룹_15296" data-name="그룹 15296" transform="translate(-147.688 -239.4)">
        <rect id="prefix__사각형_3168" width="10.055" height="18.153" class="prefix__cls-2" data-name="사각형 3168" rx="2.255" transform="translate(158.188 246.779)"/>
        <path id="prefix__사각형_3169" d="M0 0H10.055V13.518H0z" class="prefix__cls-2" data-name="사각형 3169" transform="translate(158.188 249.097)"/>
        <path id="prefix__패스_7157" d="M169.142 258.936l-2.6-2.6a.961.961 0 1 0-1.36 1.36l2.6 2.6 1.687 1.687h-1.753a.961.961 0 0 0 0 1.922h3.675l3.609-3.61-2.62-2.62a1.4 1.4 0 0 0-1.978 0z" class="prefix__cls-2" data-name="패스 7157" transform="translate(-2.354 -3.253)"/>
        <path id="prefix__사각형_3170" d="M0 0H5.104V1.825H0z" class="prefix__cls-2" data-name="사각형 3170" transform="rotate(-45 399.153 -73.721)"/>
    </g>
</svg>
