
<svg xmlns="http://www.w3.org/2000/svg" id="prefix__crown_g" width="26" height="16" viewBox="0 0 26 16">
    <path id="prefix__사각형_3327" fill="none" d="M0 0H26V16H0z" data-name="사각형 3327"/>
    <path id="prefix__패스_7663" fill="#c4c4c4" d="M102.425 75.144h-.012a1.061 1.061 0 0 0-.267 2.028 5.882 5.882 0 0 1-10.029-.156 1.069 1.069 0 0 0 .643-1.144 1.1 1.1 0 0 0-1.267-.89h-.012a1.061 1.061 0 0 0-.258 2.032 5.9 5.9 0 0 1-10.023.196 1.073 1.073 0 0 0 .707-1.013 1.1 1.1 0 0 0-2.205.027 1.079 1.079 0 0 0 1.015 1.048v7.6a.738.738 0 0 0 .135.389.868.868 0 0 0 .05.083c.938 1.209 5.388 2.126 10.748 2.126a41.083 41.083 0 0 0 5.283-.323 14.55 14.55 0 0 0 2.48-.445 8.519 8.519 0 0 0 2.471-.92c.447-.284.7-.59.7-.911v-.077-7.523a.963.963 0 0 0 .186 0h.012a1.084 1.084 0 0 0 .9-1.24 1.1 1.1 0 0 0-1.257-.887z" data-name="패스 7663" transform="translate(-78.703 -72.968)"/>
</svg>
