
<svg id="ic__inquiry_b" data-name="ic_ inquiry_b" xmlns="http://www.w3.org/2000/svg" width="32" height="32" viewBox="0 0 32 32">
  <defs>
    <style>
      .cls-1, .cls-2 {
        fill: #fff;
      }

      .cls-1 {
        stroke: #707070;
        opacity: 0;
      }

      .cls-2 {
        stroke: #000;
        stroke-linecap: round;
        stroke-linejoin: round;
        stroke-width: 1.3px;
      }

      .cls-3 {
        stroke: none;
      }

      .cls-4 {
        fill: none;
      }
    </style>
  </defs>
  <g id="사각형_810" data-name="사각형 810" class="cls-1">
    <rect class="cls-3" width="32" height="32"/>
    <rect class="cls-4" x="0.5" y="0.5" width="31" height="31"/>
  </g>
  <g id="그룹_15416" data-name="그룹 15416" transform="translate(-232.907 -567.884)">
    <path id="패스_7125" data-name="패스 7125" class="cls-2" d="M340.734,611.54h-4.291a1.515,1.515,0,0,0-1.537,1.493V622.3l2.289-3.224h6.681a1.515,1.515,0,0,0,1.537-1.493v-1.9h-3.142a1.515,1.515,0,0,1-1.537-1.492Z" transform="translate(-94.001 -31.697)"/>
    <path id="패스_7126" data-name="패스 7126" class="cls-2" d="M343.727,607.74v1.9h3.142a1.515,1.515,0,0,1,1.537,1.492v2.65h3.539l2.289,3.225v-9.27a1.515,1.515,0,0,0-1.537-1.492h-7.433A1.515,1.515,0,0,0,343.727,607.74Z" transform="translate(-96.994 -29.8)"/>
    <path id="패스_7127" data-name="패스 7127" class="cls-2" d="M343.727,611.54v2.65a1.515,1.515,0,0,0,1.537,1.492h3.142v-2.65a1.515,1.515,0,0,0-1.537-1.493Z" transform="translate(-96.994 -31.697)"/>
  </g>
</svg>
