<svg xmlns="http://www.w3.org/2000/svg" id="prefix__ic_setting" width="36" height="36" viewBox="0 0 36 36">
    <path id="prefix__사각형_637" d="M0 0H36V36H0z" data-name="사각형 637" style="fill:transparent;opacity:.51"/>
    <path id="prefix__패스_4176" d="M529.679 1176.666v-2.847l-2.88-.6a7.01 7.01 0 0 0-.484-1.214l1.634-2.548-1.93-2.013-2.443 1.7a6.448 6.448 0 0 0-1.164-.5l-.572-3h-2.73l-.571 3a6.435 6.435 0 0 0-1.164.5l-2.443-1.7-1.93 2.013 1.633 2.548a7 7 0 0 0-.483 1.214l-2.881.6v2.847l2.881.6a7.005 7.005 0 0 0 .483 1.214l-1.635 2.544 1.93 2.013 2.443-1.7a6.366 6.366 0 0 0 1.164.5l.571 3h2.73l.572-3a6.379 6.379 0 0 0 1.164-.5l2.443 1.7 1.93-2.013-1.634-2.548a7.055 7.055 0 0 0 .484-1.214z" data-name="패스 4176" transform="translate(-502.77 -1157.242)" style="fill:none;stroke:#707070;stroke-width:1.5px"/>
</svg>
