
<svg xmlns="http://www.w3.org/2000/svg" id="prefix__inquiry_yellow" width="32" height="32" viewBox="0 0 32 32">
    <defs>
        <style>
            .prefix__cls-2{fill:#fff;stroke:#000;stroke-linecap:round;stroke-linejoin:round}
        </style>
    </defs>
    <rect id="prefix__사각형_445" width="32" height="32" data-name="사각형 445" rx="12" style="fill:#f9dc8b"/>
    <g id="prefix__그룹_15248" data-name="그룹 15248" transform="translate(-232.907 -567.524)">
        <path id="prefix__패스_7125" d="M340.734 611.54h-4.291a1.515 1.515 0 0 0-1.537 1.493v9.267l2.289-3.224h6.681a1.515 1.515 0 0 0 1.537-1.493v-1.9h-3.142a1.515 1.515 0 0 1-1.537-1.492z" class="prefix__cls-2" data-name="패스 7125" transform="translate(-94.001 -31.697)"/>
        <path id="prefix__패스_7126" d="M343.727 607.74v1.9h3.142a1.515 1.515 0 0 1 1.537 1.492v2.65h3.539l2.289 3.225v-9.27a1.515 1.515 0 0 0-1.537-1.492h-7.433a1.515 1.515 0 0 0-1.537 1.495z" class="prefix__cls-2" data-name="패스 7126" transform="translate(-96.994 -29.8)"/>
        <path id="prefix__패스_7127" d="M343.727 611.54v2.65a1.515 1.515 0 0 0 1.537 1.492h3.142v-2.65a1.515 1.515 0 0 0-1.537-1.493z" class="prefix__cls-2" data-name="패스 7127" transform="translate(-96.994 -31.697)"/>
    </g>
</svg>
