
<svg xmlns="http://www.w3.org/2000/svg" id="prefix__userset_green" width="32" height="32" viewBox="0 0 32 32">
    <defs>
        <style>
            .prefix__cls-2{fill:#fff;stroke:#000;stroke-linecap:round;stroke-linejoin:round}
        </style>
    </defs>
    <rect id="prefix__사각형_806" width="32" height="32" data-name="사각형 806" rx="12" style="fill:#b7e598"/>
    <g id="prefix__그룹_10458" data-name="그룹 10458" transform="translate(7 7.768)">
        <path id="prefix__패스_4266" d="M441.334 426.878h-9.695a3.129 3.129 0 0 0-3.129 3.129v3.775a3.129 3.129 0 0 0 3.129 3.129h2.524v2.165l2.9-2.165h4.269a3.129 3.129 0 0 0 3.129-3.129v-3.775a3.129 3.129 0 0 0-3.127-3.129z" class="prefix__cls-2" data-name="패스 4266" transform="translate(-423.631 -426.878)"/>
        <path id="prefix__패스_4267" d="M431.238 447.3v-1.67a1.714 1.714 0 0 0-1.192-1.633l-1.678-.535a1.538 1.538 0 0 1-1.07-1.464v-.113a1.4 1.4 0 0 0 .855-1.293v-1.849a1.4 1.4 0 0 0-1.4-1.4h-.777a1.4 1.4 0 0 0-1.406 1.4v1.849a1.4 1.4 0 0 0 .855 1.293v.113a1.538 1.538 0 0 1-1.07 1.464l-1.678.535a1.714 1.714 0 0 0-1.192 1.633v1.67" class="prefix__cls-2" data-name="패스 4267" transform="translate(-421.481 -430.076)"/>
        <path id="prefix__선_105" d="M0 0L8.07 0" class="prefix__cls-2" data-name="선 105" transform="translate(8.82 3.286)"/>
        <path id="prefix__선_106" d="M0 0L8.07 0" class="prefix__cls-2" data-name="선 106" transform="translate(8.82 5.271)"/>
        <path id="prefix__선_107" d="M0 0L8.07 0" class="prefix__cls-2" data-name="선 107" transform="translate(8.82 7.256)"/>
    </g>
</svg>
