<svg xmlns="http://www.w3.org/2000/svg" width="32" height="32" viewBox="0 0 32 32">
    <rect width="32" height="32" fill="#b7e598" rx="12"/>
    <g>
        <g>
            <g fill="#fff" stroke="#000">
                <path d="M33.245 1.5H23.013v10.274H37.29V6.637c0-2.837-1.811-5.137-4.045-5.137" transform="translate(-3.262 -1.25) translate(11.338 11.6) translate(-20.766 -1.5)"/>
                <path stroke-linecap="round" stroke-linejoin="round" d="M5.412 11.806H1.5V3.795A2.146 2.146 0 0 1 3.456 1.5a2.146 2.146 0 0 1 1.956 2.295z" transform="translate(-3.262 -1.25) translate(11.338 11.6) translate(-1.5 -1.5)"/>
            </g>
        </g>
        <g stroke="#000">
            <path d="M5.308 2.622H1.5V1.5h3.808l-.547.561z" transform="translate(-3.262 -1.25) translate(21.597 7.25) translate(-1.341 -1.037)"/>
        </g>
        <path fill="#fff" stroke="#000" stroke-linejoin="round" d="M0 0H2.238V4.475H0z" transform="translate(-3.262 -1.25) translate(19.091 22.421)"/>
    </g>
</svg>
