
<svg xmlns="http://www.w3.org/2000/svg" id="slabel_circle_s" width="16" height="16" viewBox="0 0 16 16">
    <defs>
        <style>
            .cls-2{isolation:isolate}
        </style>
    </defs>
    <path id="사각형_3174" fill="#ec455f" d="M84.807 76.87a8 8 0 0 1 8 8 8 8 0 0 1-8 8 8 8 0 0 1-8-8 8 8 0 0 1 8-8z" transform="translate(-76.807 -76.87)"/>
    <g id="S" class="cls-2" transform="translate(-76.807 -76.87)">
        <g id="그룹_15593" class="cls-2">
            <path id="패스_7245" fill="#fff" d="M84.829 87.178a1.451 1.451 0 0 0 .9-.221.675.675 0 0 0 .279-.552v-.1a.656.656 0 0 0-.293-.588 2.61 2.61 0 0 0-.85-.321q-.4-.089-.815-.188a2.606 2.606 0 0 1-.738-.3 1.568 1.568 0 0 1-.535-.536 1.716 1.716 0 0 1-.207-.9v-.118a1.791 1.791 0 0 1 .117-.616 1.632 1.632 0 0 1 .387-.59 2.08 2.08 0 0 1 .715-.445 3.026 3.026 0 0 1 1.1-.175 4.6 4.6 0 0 1 1.035.113 3.141 3.141 0 0 1 .99.426l-.54.892a2.388 2.388 0 0 0-.738-.329 3.335 3.335 0 0 0-.729-.076 1.749 1.749 0 0 0-.531.072 1.2 1.2 0 0 0-.374.188.834.834 0 0 0-.22.252.576.576 0 0 0-.072.271v.108a.6.6 0 0 0 .112.378.881.881 0 0 0 .3.239 1.979 1.979 0 0 0 .445.152c.172.04.353.08.545.122a4.589 4.589 0 0 1 .967.31 2.322 2.322 0 0 1 .63.418 1.412 1.412 0 0 1 .343.518 1.811 1.811 0 0 1 .1.617v.116a1.914 1.914 0 0 1-.195.9 1.58 1.58 0 0 1-.526.585 2.237 2.237 0 0 1-.765.315 4.2 4.2 0 0 1-.9.094 4.03 4.03 0 0 1-.689-.058 4.485 4.485 0 0 1-.625-.151 3.516 3.516 0 0 1-.554-.239 2.933 2.933 0 0 1-.445-.293l.558-.918a2.827 2.827 0 0 0 1.818.63z"/>
        </g>
    </g>
</svg>
