<svg xmlns="http://www.w3.org/2000/svg" width="36" height="36" viewBox="0 0 36 36">
    <g id="prefix__그룹_27" data-name="그룹 27" transform="translate(-403.17 -190.73)">
        <path id="prefix__사각형_20" d="M0 0H36V36H0z" data-name="사각형 20" transform="translate(403.17 190.73)" style="fill:#fff;opacity:0"/>
        <g id="prefix__그룹_13546" data-name="그룹 13546" transform="translate(52.699 -8.219)">
            <g id="prefix__그룹_13545" data-name="그룹 13545" transform="translate(359.054 205.935)">
                <path id="prefix__패스_4144" d="M374.228 252.628a5.038 5.038 0 0 1 2.408-4.241 5.222 5.222 0 0 0-4.076-2.217c-1.739-.175-3.394 1.025-4.273 1.025s-2.243-1-3.681-.968a5.46 5.46 0 0 0-4.617 2.794c-1.967 3.414-.505 8.474 1.416 11.242.936 1.355 2.052 2.877 3.517 2.823 1.416-.055 1.95-.913 3.658-.913s2.188.913 3.684.89c1.519-.032 2.484-1.387 3.411-2.742a12.37 12.37 0 0 0 1.546-3.176 4.921 4.921 0 0 1-2.993-4.517z" data-name="패스 4144" transform="translate(-359.054 -240.777)"/>
                <path id="prefix__패스_4145" d="M429.924 209.5a4.893 4.893 0 0 0 1.161-3.561 5 5 0 0 0-3.283 1.688 4.674 4.674 0 0 0-1.186 3.454 4.141 4.141 0 0 0 3.308-1.581z" data-name="패스 4145" transform="translate(-417.562 -205.935)"/>
            </g>
        </g>
    </g>
</svg>
