<svg xmlns="http://www.w3.org/2000/svg" id="prefix__그룹_28" width="36" height="36" data-name="그룹 28" viewBox="0 0 36 36">
    <path id="prefix__패스_23" fill="#3e82f1" fill-rule="evenodd" d="M702.021 709.885a11.729 11.729 0 0 0-.186-2.09h-9.625v3.953h5.5a4.7 4.7 0 0 1-2.039 3.084v2.568h3.3a9.967 9.967 0 0 0 3.047-7.511z" data-name="패스 23" transform="translate(-674.221 -691.7)"/>
    <path id="prefix__패스_24" fill="#32a753" fill-rule="evenodd" d="M606.485 755.54a9.756 9.756 0 0 0 6.763-2.476l-3.3-2.564a6.165 6.165 0 0 1-9.179-3.238h-3.414v2.648a10.214 10.214 0 0 0 9.132 5.63z" data-name="패스 24" transform="translate(-588.496 -727.367)"/>
    <path id="prefix__패스_25" fill="#f9bb00" fill-rule="evenodd" d="M590.563 685.955a6.044 6.044 0 0 1 0-3.883v-2.648h-3.414a10.232 10.232 0 0 0 0 9.179l3.414-2.648z" data-name="패스 25" transform="translate(-578.292 -666.06)"/>
    <path id="prefix__패스_26" fill="#e74133" fill-rule="evenodd" d="M606.485 625.01a5.521 5.521 0 0 1 3.907 1.528l2.931-2.931a9.82 9.82 0 0 0-6.837-2.662 10.215 10.215 0 0 0-9.132 5.63l3.414 2.648a6.09 6.09 0 0 1 5.718-4.213z" data-name="패스 26" transform="translate(-588.496 -613.211)"/>
</svg>
