
<svg xmlns="http://www.w3.org/2000/svg" id="prefix__report_purple" width="32" height="32" viewBox="0 0 32 32">
    <defs>
        <style>
            .prefix__cls-2{fill:#fff;stroke:#000;stroke-linecap:round;stroke-linejoin:round}
        </style>
    </defs>
    <rect id="prefix__사각형_808" width="32" height="32" data-name="사각형 808" rx="12" style="fill:#d0bcff"/>
    <g id="prefix__그룹_15290" data-name="그룹 15290" transform="translate(9.328 7.5)">
        <path id="prefix__사각형_805" d="M0 0h9.37a3.165 3.165 0 0 1 3.165 3.165v11.3a3.165 3.165 0 0 1-3.165 3.17H0V0z" class="prefix__cls-2" data-name="사각형 805" transform="translate(1.031)"/>
        <path id="prefix__선_110" d="M0 0L2.063 0" class="prefix__cls-2" data-name="선 110" transform="translate(0 2.136)"/>
        <path id="prefix__선_111" d="M0 0L2.063 0" class="prefix__cls-2" data-name="선 111" transform="translate(0 4.808)"/>
        <path id="prefix__선_112" d="M0 0L2.063 0" class="prefix__cls-2" data-name="선 112" transform="translate(0 7.481)"/>
        <path id="prefix__선_113" d="M0 0L2.063 0" class="prefix__cls-2" data-name="선 113" transform="translate(0 10.154)"/>
        <path id="prefix__선_114" d="M0 0L2.063 0" class="prefix__cls-2" data-name="선 114" transform="translate(0 12.826)"/>
        <path id="prefix__선_115" d="M0 0L2.063 0" class="prefix__cls-2" data-name="선 115" transform="translate(0 15.499)"/>
        <path id="prefix__선_116" d="M0 0L5.296 0" class="prefix__cls-2" data-name="선 116" transform="translate(5.184 4.808)"/>
        <path id="prefix__선_117" d="M0 0L5.296 0" class="prefix__cls-2" data-name="선 117" transform="translate(5.184 7.481)"/>
    </g>
</svg>
