
<svg xmlns="http://www.w3.org/2000/svg" id="prefix__follow_yellow_m" width="24" height="24" viewBox="0 0 24 24">
    <path id="prefix__다각형_1" d="M9.574 2.269a1 1 0 0 1 1.852 0L13.153 6.5a1 1 0 0 0 .852.619l4.557.337a1 1 0 0 1 .573 1.76l-3.491 2.957a1 1 0 0 0-.325 1l1.088 4.445a1 1 0 0 1-1.5 1.088l-3.88-2.406a1 1 0 0 0-1.054 0l-3.882 2.41a1 1 0 0 1-1.5-1.088l1.088-4.445a1 1 0 0 0-.325-1L1.865 9.219a1 1 0 0 1 .573-1.76l4.557-.337a1 1 0 0 0 .852-.622z" data-name="다각형 1" transform="translate(1.5 1)" style="fill:#febd56"/>
    <g id="prefix__사각형_895" data-name="사각형 895" style="stroke:#8556f6;opacity:0;fill:none">
        <path d="M0 0H24V24H0z" style="stroke:none"/>
        <path d="M0.5 0.5H23.5V23.5H0.5z" style="fill:none"/>
    </g>
</svg>
