<svg xmlns="http://www.w3.org/2000/svg" width="149.69" height="36.507" viewBox="0 0 149.69 36.507">
    <defs>
        <linearGradient id="prefix__linear-gradient" x1=".284" x2=".862" y1=".11" y2=".926" gradientUnits="objectBoundingBox">
            <stop offset="0" stop-color="#fdad2b"/>
            <stop offset=".216" stop-color="#fca92c"/>
            <stop offset=".408" stop-color="#fa9e32"/>
            <stop offset=".591" stop-color="#f78c3b"/>
            <stop offset=".768" stop-color="#f37248"/>
            <stop offset=".94" stop-color="#ee5258"/>
            <stop offset="1" stop-color="#ec455f"/>
        </linearGradient>
        <style>
            .prefix__cls-1{fill:#FF3C7B}.prefix__cls-3{fill:#fdad2b}
        </style>
    </defs>
    <g id="prefix__logo" transform="translate(-105 -76)">
        <g id="prefix__그룹_10364" data-name="그룹 10364" transform="translate(-58.207 -354.034)">
            <g id="prefix__그룹_10361" data-name="그룹 10361" transform="translate(163.207 434.034)">
                <g id="prefix__그룹_10360" data-name="그룹 10360" transform="translate(0 8.499)">
                    <path id="prefix__패스_4137" d="M173.219 457.045a16.544 16.544 0 0 1 4.218.548 10.314 10.314 0 0 1 3.742 1.839 9.4 9.4 0 0 1 2.675 3.4 11.877 11.877 0 0 1 1.018 5.191v1.928a11.873 11.873 0 0 1-1.018 5.191 9.4 9.4 0 0 1-2.675 3.4 10.29 10.29 0 0 1-3.742 1.839 16.5 16.5 0 0 1-4.218.549h-4.891a10.119 10.119 0 0 1-2.462-.252 3.479 3.479 0 0 1-1.576-.816 3.1 3.1 0 0 1-.837-1.453 8.208 8.208 0 0 1-.246-2.165v-14.513a8.215 8.215 0 0 1 .246-2.165 3.106 3.106 0 0 1 .837-1.453 3.494 3.494 0 0 1 1.576-.816 10.151 10.151 0 0 1 2.462-.252zm4.956 10.5a5.33 5.33 0 0 0-1.411-3.99 5.126 5.126 0 0 0-3.742-1.379h-2.167a1.245 1.245 0 0 0-.755.163.9.9 0 0 0-.2.7v11.894a.9.9 0 0 0 .2.7 1.24 1.24 0 0 0 .755.163h2.167a5.124 5.124 0 0 0 3.742-1.379 5.329 5.329 0 0 0 1.411-3.989z" class="prefix__cls-1" data-name="패스 4137" transform="translate(-163.207 -457.045)"/>
                </g>
                <path id="prefix__패스_4138" d="M211.478 434.038a8.5 8.5 0 0 0-8.221 8.332 10.289 10.289 0 0 1 3.71 1.693 9.4 9.4 0 0 1 2.784 3.307 10.631 10.631 0 0 1 1.064 3.608 8.5 8.5 0 1 0 .663-16.941z" data-name="패스 4138" transform="translate(-188.465 -434.033)"/>
            </g>
            <g id="prefix__그룹_10363" data-name="그룹 10363" transform="translate(197.191 444.343)">
                <path id="prefix__패스_4139" d="M266.541 462.569a1.659 1.659 0 0 1 .768.165 1.547 1.547 0 0 1 .52.426 1.588 1.588 0 0 1 .284.591 2.638 2.638 0 0 1 .083.638 2.1 2.1 0 0 1-.094.614 1.773 1.773 0 0 1-.284.555 1.485 1.485 0 0 1-.508.413 1.649 1.649 0 0 1-.768.165h-6.05a.8.8 0 0 0-.472.107.492.492 0 0 0-.142.413v2.269a.527.527 0 0 0 .142.437.8.8 0 0 0 .472.106h6.949a1.836 1.836 0 0 1 .78.154 1.357 1.357 0 0 1 .52.4 1.772 1.772 0 0 1 .284.555 2.1 2.1 0 0 1 .094.615 2.294 2.294 0 0 1-.094.65 1.758 1.758 0 0 1-.284.567 1.461 1.461 0 0 1-.52.413 1.724 1.724 0 0 1-.78.166h-8.934a7.869 7.869 0 0 1-1.654-.142 2.048 2.048 0 0 1-1-.5 1.826 1.826 0 0 1-.5-.957 7.551 7.551 0 0 1-.13-1.548v-4.136a7.551 7.551 0 0 1 .13-1.548 1.824 1.824 0 0 1 .5-.957 2.046 2.046 0 0 1 1-.5 7.891 7.891 0 0 1 1.654-.141zm-7.208 21.578a3.7 3.7 0 0 1-1.43-.26 3.024 3.024 0 0 1-1.052-.709 3.127 3.127 0 0 1-.65-1.028 3.328 3.328 0 0 1-.224-1.217v-.284a2.566 2.566 0 0 1 .862-2.032 3.672 3.672 0 0 1 2.493-.756h11.415v-.615a.464.464 0 0 0-.071-.3.412.412 0 0 0-.307-.082h-12.833a1.139 1.139 0 0 1-.992-.426 1.609 1.609 0 0 1-.307-.969 1.592 1.592 0 0 1 .307-.934 1.127 1.127 0 0 1 .992-.437h15.125a3.525 3.525 0 0 1 2.234.544 2.422 2.422 0 0 1 .65 1.938v3.781h-14.062a.53.53 0 0 0-.39.13.433.433 0 0 0-.13.319v.071a.432.432 0 0 0 .13.319.528.528 0 0 0 .39.13h13.33a1.174 1.174 0 0 1 1.028.449 1.674 1.674 0 0 1 .319.992 1.6 1.6 0 0 1-.307.934 1.182 1.182 0 0 1-1.04.438zm11.367-19.853a2.164 2.164 0 0 1 .7-1.749 2.542 2.542 0 0 1 3.273.012 2.152 2.152 0 0 1 .709 1.737v1.489h.733a2 2 0 0 1 .9.177 1.522 1.522 0 0 1 .567.473 1.97 1.97 0 0 1 .307.65 2.755 2.755 0 0 1 .095.709 2.89 2.89 0 0 1-.095.721 1.829 1.829 0 0 1-.307.65 1.556 1.556 0 0 1-.579.461 2.02 2.02 0 0 1-.886.177h-.733v3.545H270.7z" class="prefix__cls-1" data-name="패스 4139" transform="translate(-255.22 -461.951)"/>
                <path id="prefix__패스_4140" d="M322.471 473.173a6.129 6.129 0 0 1-1.607-.177 2.122 2.122 0 0 1-1-.567 2.152 2.152 0 0 1-.508-1.04 7.494 7.494 0 0 1-.142-1.572v-5.128a2.067 2.067 0 0 1 .662-1.713 2.518 2.518 0 0 1 1.63-.532 2.273 2.273 0 0 1 1.513.5 2.053 2.053 0 0 1 .638 1.559h4.467a2.018 2.018 0 0 1 .65-1.571 2.391 2.391 0 0 1 1.548-.485 2.416 2.416 0 0 1 1.619.532 2.13 2.13 0 0 1 .626 1.713v8.484zm5.27 2.411q.189-1.82 2.458-1.82 2.245 0 2.434 1.82h6a1.821 1.821 0 0 1 .792.154 1.564 1.564 0 0 1 .52.39 1.546 1.546 0 0 1 .3.531 1.977 1.977 0 0 1 .095.6 1.881 1.881 0 0 1-.39 1.158 1.535 1.535 0 0 1-1.312.521h-6.121a2.973 2.973 0 0 1-.13.425q-.083.213-.177.4a18.692 18.692 0 0 1 3.037-.035 8.457 8.457 0 0 1 2.647.6 5.871 5.871 0 0 1 2.056 1.418 5.206 5.206 0 0 1 1.217 2.387h-4.939a3.636 3.636 0 0 0-1.182-1.028 5.811 5.811 0 0 0-1.6-.579 8.727 8.727 0 0 0-1.926-.177 13.681 13.681 0 0 0-2.15.2 12.818 12.818 0 0 1-3.782 1.264 20.169 20.169 0 0 1-3.994.319 2.191 2.191 0 0 1-1.477-.567 1.722 1.722 0 0 1-.484-1.395 1.6 1.6 0 0 1 .543-1.111 1.866 1.866 0 0 1 1.3-.449q.852 0 1.785-.059a13.655 13.655 0 0 0 1.82-.236 8.268 8.268 0 0 0 1.655-.508 3.4 3.4 0 0 0 1.241-.874h-6.357a1.535 1.535 0 0 1-1.312-.521 1.881 1.881 0 0 1-.39-1.158 1.979 1.979 0 0 1 .094-.6 1.536 1.536 0 0 1 .3-.531 1.559 1.559 0 0 1 .52-.39 1.819 1.819 0 0 1 .792-.154zm.378-5.79v-2.15h-4.467v1.556c0 .268.039.433.118.5a.929.929 0 0 0 .52.094zm7.114-5.506a2.132 2.132 0 0 1 .72-1.749 2.556 2.556 0 0 1 1.667-.59 2.664 2.664 0 0 1 .886.154 2.27 2.27 0 0 1 .768.449 2.2 2.2 0 0 1 .532.733 2.383 2.383 0 0 1 .2 1v10.186h-4.774z" class="prefix__cls-1" data-name="패스 4140" transform="translate(-295.576 -461.947)"/>
                <g id="prefix__그룹_10362" data-name="그룹 10362" transform="translate(47.268 .053)">
                    <path id="prefix__패스_4141" d="M387.882 478.348a1.052 1.052 0 0 0 .235.811 1.337 1.337 0 0 0 .847.2h6.587a2.3 2.3 0 0 1 .917.164 1.822 1.822 0 0 1 .623.436 1.6 1.6 0 0 1 .353.612 2.33 2.33 0 0 1 .106.694 2.1 2.1 0 0 1-.47 1.329 1.827 1.827 0 0 1-1.529.6h-8.281a7.231 7.231 0 0 1-1.882-.212 2.824 2.824 0 0 1-1.258-.682 2.768 2.768 0 0 1-.706-1.235 6.735 6.735 0 0 1-.223-1.87v-4.282a6.615 6.615 0 0 1 .223-1.859 2.775 2.775 0 0 1 .706-1.223 2.74 2.74 0 0 1 1.258-.671 7.676 7.676 0 0 1 1.882-.2h3.952v-3.411a.906.906 0 0 0-.118-.447q-.118-.212-.517-.212h-5.153a2.28 2.28 0 0 1-.917-.165 1.629 1.629 0 0 1-.612-.447 1.942 1.942 0 0 1-.353-.635 2.224 2.224 0 0 1-.117-.706 2.459 2.459 0 0 1 .106-.706 1.7 1.7 0 0 1 .353-.635 1.869 1.869 0 0 1 .623-.459 2.152 2.152 0 0 1 .917-.177h6.352a8.909 8.909 0 0 1 2.011.188 2.828 2.828 0 0 1 1.259.612 2.253 2.253 0 0 1 .659 1.1 6.489 6.489 0 0 1 .188 1.695v8.245h-6.94a1.339 1.339 0 0 0-.847.2 1.054 1.054 0 0 0-.235.812zm10.728-13.975a2.074 2.074 0 0 1 .706-1.706 2.5 2.5 0 0 1 1.624-.576 2.546 2.546 0 0 1 .87.153 2.253 2.253 0 0 1 .741.435 2.175 2.175 0 0 1 .517.706 2.292 2.292 0 0 1 .2.988v5.953h.776a1.89 1.89 0 0 1 .894.188 1.622 1.622 0 0 1 .564.482 1.953 1.953 0 0 1 .306.658 2.78 2.78 0 0 1 0 1.435 1.951 1.951 0 0 1-.306.659 1.6 1.6 0 0 1-.576.483 1.905 1.905 0 0 1-.882.188h-.776v9.763h-4.658z" class="prefix__cls-3" data-name="패스 4141" transform="translate(-383.2 -462.091)"/>
                    <path id="prefix__패스_4142" d="M446.835 468.843a7.087 7.087 0 0 1 .494-2.741 5.581 5.581 0 0 1 1.376-2 5.8 5.8 0 0 1 2.106-1.223 9.1 9.1 0 0 1 5.411 0 6.014 6.014 0 0 1 2.117 1.212 5.393 5.393 0 0 1 1.388 2 7.18 7.18 0 0 1 .494 2.753v8.517a7.184 7.184 0 0 1-.494 2.753 5.455 5.455 0 0 1-1.376 2 5.87 5.87 0 0 1-2.117 1.212 9.058 9.058 0 0 1-5.4 0 6.005 6.005 0 0 1-2.117-1.212 5.379 5.379 0 0 1-1.387-2 7.183 7.183 0 0 1-.494-2.753zm4.658 8.611a2.5 2.5 0 0 0 .577 1.8 1.921 1.921 0 0 0 1.447.6 1.96 1.96 0 0 0 1.459-.6 2.475 2.475 0 0 0 .588-1.8v-8.705a2.52 2.52 0 0 0-.588-1.811 1.869 1.869 0 0 0-1.459-.588 2 2 0 0 0-1.447.623 2.469 2.469 0 0 0-.577 1.776zm11.411 6.728V464.42a2.137 2.137 0 0 1 .705-1.741 2.6 2.6 0 0 1 3.294 0 2.138 2.138 0 0 1 .705 1.741v19.762z" class="prefix__cls-3" data-name="패스 4142" transform="translate(-423.333 -462.091)"/>
                    <path id="prefix__패스_4143" d="M528.876 480.458a2.234 2.234 0 0 1 .93.177 1.827 1.827 0 0 1 .635.459 1.675 1.675 0 0 1 .353.647 2.567 2.567 0 0 1 .106.717 2.294 2.294 0 0 1-.117.73 1.835 1.835 0 0 1-.364.635 1.742 1.742 0 0 1-.624.447 2.284 2.284 0 0 1-.918.165H510.9a2.281 2.281 0 0 1-.918-.165 1.74 1.74 0 0 1-.624-.447 1.84 1.84 0 0 1-.365-.635 2.3 2.3 0 0 1-.117-.73 2.58 2.58 0 0 1 .106-.717 1.68 1.68 0 0 1 .354-.647 1.826 1.826 0 0 1 .635-.459 2.232 2.232 0 0 1 .93-.177zm-14-14.022h10v-1.106a2.138 2.138 0 0 1 .2-.964 1.792 1.792 0 0 1 .53-.647 2.23 2.23 0 0 1 .765-.365 3.477 3.477 0 0 1 .906-.117 3.4 3.4 0 0 1 .882.117 2.241 2.241 0 0 1 .765.365 1.912 1.912 0 0 1 .541.647 2.034 2.034 0 0 1 .212.964v11.434h-16.21a6.977 6.977 0 0 1-1.73-.177 2.06 2.06 0 0 1-1.047-.6 2.267 2.267 0 0 1-.506-1.118 9.652 9.652 0 0 1-.129-1.729v-7.811a2.139 2.139 0 0 1 .2-.964 1.745 1.745 0 0 1 .541-.647 2.358 2.358 0 0 1 .776-.365 3.478 3.478 0 0 1 .906-.117 2.972 2.972 0 0 1 .87.13 2.42 2.42 0 0 1 .764.388 1.979 1.979 0 0 1 .553.659 2.035 2.035 0 0 1 .212.965zm10 6.517v-2.847h-10v2.141a.789.789 0 0 0 .153.529.744.744 0 0 0 .576.176z" class="prefix__cls-3" data-name="패스 4143" transform="translate(-462.461 -462.814)"/>
                </g>
            </g>
        </g>
        <path id="prefix__사각형_3088" d="M6 0h23a6 6 0 0 1 6 6v6H6a6 6 0 0 1-6-6 6 6 0 0 1 6-6z" data-name="사각형 3088" transform="translate(218 76)" style="fill:#9e9e9e"/>
        <text id="prefix__Beta" transform="translate(236 85)" style="fill:#fff;font-size:10px;font-family:NanumSquareEB,NanumSquare;letter-spacing:-.025em">
            <tspan x="-10.77" y="0">Beta</tspan>
        </text>
    </g>
</svg>
