<svg xmlns="http://www.w3.org/2000/svg" width="103" height="24" viewBox="0 0 103 24">
    <defs>
        <style>
            .prefix__cls-2{isolation:isolate}.prefix__cls-3{fill:#FF3C7B}.prefix__cls-4{fill:#fdad2b}
        </style>
    </defs>
    <g id="prefix__그룹_15222" data-name="그룹 15222" transform="translate(-130 -56)">
        <g id="prefix__logo" class="prefix__cls-2" transform="translate(-374.436 -1146.32)">
            <g id="prefix__그룹_15220" class="prefix__cls-2" data-name="그룹 15220" transform="translate(505.436 1204.72)">
                <path id="prefix__패스_7098" d="M515.219 1205.251a1.432 1.432 0 0 1 .664.143 1.332 1.332 0 0 1 .449.368 1.377 1.377 0 0 1 .245.511 2.261 2.261 0 0 1 .071.552 1.809 1.809 0 0 1-.082.531 1.556 1.556 0 0 1-.245.48 1.282 1.282 0 0 1-.439.357 1.432 1.432 0 0 1-.664.143h-5.229a.7.7 0 0 0-.409.092.426.426 0 0 0-.122.357v1.961a.455.455 0 0 0 .122.378.694.694 0 0 0 .409.092h6a1.6 1.6 0 0 1 .674.133 1.164 1.164 0 0 1 .449.347 1.556 1.556 0 0 1 .245.48 1.816 1.816 0 0 1 .082.531 1.978 1.978 0 0 1-.082.562 1.532 1.532 0 0 1-.245.49 1.257 1.257 0 0 1-.449.358 1.5 1.5 0 0 1-.674.143h-7.721a6.8 6.8 0 0 1-1.43-.123 1.766 1.766 0 0 1-.868-.429 1.576 1.576 0 0 1-.429-.827 6.488 6.488 0 0 1-.112-1.338v-3.574a6.49 6.49 0 0 1 .112-1.338 1.576 1.576 0 0 1 .429-.827 1.765 1.765 0 0 1 .868-.429 6.8 6.8 0 0 1 1.43-.123zm-6.229 18.649a3.191 3.191 0 0 1-1.236-.226 2.6 2.6 0 0 1-.909-.612 2.715 2.715 0 0 1-.562-.888 2.882 2.882 0 0 1-.194-1.054v-.245a2.215 2.215 0 0 1 .746-1.755 3.17 3.17 0 0 1 2.155-.653h9.865v-.531a.4.4 0 0 0-.061-.255.357.357 0 0 0-.266-.072h-11.09a.985.985 0 0 1-.858-.368 1.389 1.389 0 0 1-.266-.837 1.374 1.374 0 0 1 .266-.807.975.975 0 0 1 .858-.378h13.072a3.053 3.053 0 0 1 1.93.47 2.094 2.094 0 0 1 .562 1.675v3.269h-12.153a.454.454 0 0 0-.337.111.378.378 0 0 0-.112.276v.061a.372.372 0 0 0 .112.276.454.454 0 0 0 .337.111h11.519a1.013 1.013 0 0 1 .888.389 1.449 1.449 0 0 1 .276.858 1.389 1.389 0 0 1-.266.808 1.024 1.024 0 0 1-.9.377zm9.824-17.157a1.867 1.867 0 0 1 .6-1.511 2.2 2.2 0 0 1 2.829.01 1.861 1.861 0 0 1 .613 1.5v1.287h.633a1.734 1.734 0 0 1 .776.153 1.314 1.314 0 0 1 .49.409 1.723 1.723 0 0 1 .266.562 2.384 2.384 0 0 1 .082.613 2.507 2.507 0 0 1-.082.623 1.6 1.6 0 0 1-.266.562 1.346 1.346 0 0 1-.5.4 1.746 1.746 0 0 1-.766.153h-.633v3.064h-4.044z" class="prefix__cls-3" data-name="패스 7098" transform="translate(-505.436 -1204.72)"/>
                <path id="prefix__패스_7099" d="M528.435 1214.422a5.287 5.287 0 0 1-1.389-.153 1.832 1.832 0 0 1-.868-.49 1.854 1.854 0 0 1-.439-.9 6.468 6.468 0 0 1-.123-1.358v-4.432a1.791 1.791 0 0 1 .572-1.481 2.177 2.177 0 0 1 1.409-.459 1.964 1.964 0 0 1 1.307.429 1.775 1.775 0 0 1 .551 1.348h3.86a1.748 1.748 0 0 1 .562-1.358 2.353 2.353 0 0 1 2.737.041 1.843 1.843 0 0 1 .541 1.481v7.332zm4.555 2.083q.162-1.572 2.124-1.573 1.941 0 2.1 1.573h5.188a1.563 1.563 0 0 1 .684.133 1.339 1.339 0 0 1 .449.337 1.322 1.322 0 0 1 .255.46 1.707 1.707 0 0 1 .082.521 1.627 1.627 0 0 1-.337 1 1.325 1.325 0 0 1-1.134.449h-5.29a2.668 2.668 0 0 1-.112.369q-.072.182-.153.347a16.3 16.3 0 0 1 2.625-.032 7.342 7.342 0 0 1 2.288.52 5.119 5.119 0 0 1 1.777 1.226 4.511 4.511 0 0 1 1.052 2.063h-4.269a3.134 3.134 0 0 0-1.021-.887 4.929 4.929 0 0 0-1.379-.5 7.4 7.4 0 0 0-1.665-.154 11.758 11.758 0 0 0-1.859.174 11.1 11.1 0 0 1-3.268 1.093 17.286 17.286 0 0 1-3.452.276 1.894 1.894 0 0 1-1.277-.49 1.486 1.486 0 0 1-.419-1.205 1.383 1.383 0 0 1 .47-.96 1.608 1.608 0 0 1 1.123-.388q.735 0 1.542-.05a11.884 11.884 0 0 0 1.573-.205 7.117 7.117 0 0 0 1.43-.439 2.933 2.933 0 0 0 1.072-.756H527.7a1.325 1.325 0 0 1-1.134-.449 1.627 1.627 0 0 1-.337-1 1.707 1.707 0 0 1 .082-.521 1.322 1.322 0 0 1 .255-.46 1.339 1.339 0 0 1 .449-.337 1.563 1.563 0 0 1 .684-.133zm.327-5v-1.859h-3.86v1.348c0 .231.034.375.1.429a.807.807 0 0 0 .449.082zm6.148-4.759a1.838 1.838 0 0 1 .623-1.511 2.206 2.206 0 0 1 1.44-.511 2.29 2.29 0 0 1 .766.133 1.971 1.971 0 0 1 .664.388 1.89 1.89 0 0 1 .46.633 2.066 2.066 0 0 1 .174.868v8.8h-4.126z" class="prefix__cls-3" data-name="패스 7099" transform="translate(-505.008 -1204.72)"/>
            </g>
            <g id="prefix__그룹_15221" class="prefix__cls-2" data-name="그룹 15221" transform="translate(546.653 1204.72)">
                <path id="prefix__패스_7100" d="M549.861 1218.834a.911.911 0 0 0 .2.7 1.157 1.157 0 0 0 .735.174h5.719a2.015 2.015 0 0 1 .8.142 1.612 1.612 0 0 1 .541.379 1.383 1.383 0 0 1 .306.531 2.02 2.02 0 0 1 .092.6 1.826 1.826 0 0 1-.408 1.154 1.586 1.586 0 0 1-1.328.521h-7.19a6.283 6.283 0 0 1-1.634-.184 2.47 2.47 0 0 1-1.093-.592 2.4 2.4 0 0 1-.613-1.072 5.846 5.846 0 0 1-.194-1.624v-3.717a5.739 5.739 0 0 1 .194-1.614 2.237 2.237 0 0 1 1.705-1.644 6.648 6.648 0 0 1 1.634-.174h3.431v-2.962a.784.784 0 0 0-.1-.388q-.1-.184-.449-.184h-4.473a1.987 1.987 0 0 1-.8-.143 1.405 1.405 0 0 1-.531-.388 1.664 1.664 0 0 1-.306-.552 1.917 1.917 0 0 1-.1-.613 2.122 2.122 0 0 1 .092-.613 1.47 1.47 0 0 1 .306-.552 1.616 1.616 0 0 1 .541-.4 1.867 1.867 0 0 1 .8-.153h5.515a7.7 7.7 0 0 1 1.746.163 2.454 2.454 0 0 1 1.092.531 1.96 1.96 0 0 1 .573.96 5.655 5.655 0 0 1 .163 1.471v7.149H550.8a1.163 1.163 0 0 0-.735.174.913.913 0 0 0-.2.7zm9.314-12.132a1.8 1.8 0 0 1 .613-1.481 2.163 2.163 0 0 1 1.408-.5 2.207 2.207 0 0 1 .757.133 1.965 1.965 0 0 1 .643.378 1.889 1.889 0 0 1 .449.613 1.994 1.994 0 0 1 .174.858v5.167h.674a1.636 1.636 0 0 1 .776.163 1.419 1.419 0 0 1 .49.419 1.686 1.686 0 0 1 .266.572 2.415 2.415 0 0 1 0 1.246 1.686 1.686 0 0 1-.266.572 1.393 1.393 0 0 1-.5.419 1.647 1.647 0 0 1-.766.163h-.674v8.476h-4.044z" class="prefix__cls-4" data-name="패스 7100" transform="translate(-545.796 -1204.72)"/>
                <path id="prefix__패스_7101" d="M565.956 1210.582a6.156 6.156 0 0 1 .429-2.379 4.857 4.857 0 0 1 1.195-1.736 5.044 5.044 0 0 1 1.828-1.062 7.9 7.9 0 0 1 4.7 0 5.24 5.24 0 0 1 1.837 1.052 4.682 4.682 0 0 1 1.205 1.736 6.235 6.235 0 0 1 .429 2.39v7.394a6.23 6.23 0 0 1-.429 2.389 4.723 4.723 0 0 1-1.195 1.737 5.1 5.1 0 0 1-1.838 1.052 7.883 7.883 0 0 1-4.687 0 5.21 5.21 0 0 1-1.838-1.052 4.66 4.66 0 0 1-1.205-1.737 6.23 6.23 0 0 1-.429-2.389zm4.044 7.475a2.179 2.179 0 0 0 .5 1.564 1.671 1.671 0 0 0 1.256.52 1.7 1.7 0 0 0 1.266-.52 2.155 2.155 0 0 0 .511-1.564v-7.557a2.188 2.188 0 0 0-.511-1.573 1.625 1.625 0 0 0-1.266-.511 1.737 1.737 0 0 0-1.256.541 2.142 2.142 0 0 0-.5 1.542zm9.906 5.841v-17.157a1.853 1.853 0 0 1 .613-1.511 2.258 2.258 0 0 1 2.86 0 1.856 1.856 0 0 1 .612 1.511v17.159z" class="prefix__cls-4" data-name="패스 7101" transform="translate(-545.368 -1204.72)"/>
                <path id="prefix__패스_7102" d="M602.977 1220.032a1.953 1.953 0 0 1 .807.151 1.624 1.624 0 0 1 .551.4 1.463 1.463 0 0 1 .306.563 2.224 2.224 0 0 1 .092.622 1.942 1.942 0 0 1-.1.632 1.593 1.593 0 0 1-.316.552 1.527 1.527 0 0 1-.541.389 2.008 2.008 0 0 1-.8.142h-15.6a2.008 2.008 0 0 1-.8-.142 1.54 1.54 0 0 1-.542-.389 1.592 1.592 0 0 1-.316-.552 1.969 1.969 0 0 1-.1-.632 2.226 2.226 0 0 1 .092-.622 1.463 1.463 0 0 1 .306-.563 1.625 1.625 0 0 1 .552-.4 1.953 1.953 0 0 1 .807-.151zm-12.153-12.174h8.68v-.96a1.847 1.847 0 0 1 .174-.837 1.55 1.55 0 0 1 .46-.562 1.931 1.931 0 0 1 .663-.317 3.033 3.033 0 0 1 .787-.1 2.952 2.952 0 0 1 .766.1 1.946 1.946 0 0 1 .664.317 1.652 1.652 0 0 1 .47.562 1.783 1.783 0 0 1 .184.837v9.926H589.6a6.054 6.054 0 0 1-1.5-.153 1.786 1.786 0 0 1-.909-.521 1.959 1.959 0 0 1-.439-.97 8.323 8.323 0 0 1-.112-1.5v-6.78a1.861 1.861 0 0 1 .174-.837 1.515 1.515 0 0 1 .47-.562 2.034 2.034 0 0 1 .674-.317 3.02 3.02 0 0 1 .786-.1 2.587 2.587 0 0 1 .756.112 2.1 2.1 0 0 1 .663.337 1.706 1.706 0 0 1 .481.572 1.77 1.77 0 0 1 .184.838zm8.68 5.658v-2.471h-8.68v1.859a.684.684 0 0 0 .133.459.646.646 0 0 0 .5.153z" class="prefix__cls-4" data-name="패스 7102" transform="translate(-544.951 -1204.712)"/>
            </g>
        </g>
    </g>
</svg>
