<svg xmlns="http://www.w3.org/2000/svg" width="72" height="72" viewBox="0 0 72 72">
    <defs>
        <clipPath id="prefix__clip-path">
            <circle id="prefix__타원_3" cx="35.265" cy="35.265" r="35.265" data-name="타원 3" style="fill:#fff"/>
        </clipPath>
    </defs>
    <g id="prefix__ico-profil" transform="translate(-.5 -.5)" style="isolation:isolate">
        <g id="prefix__패스_428" data-name="패스 428" style="fill-rule:evenodd;fill:#fff">
            <path d="M36.5 72c-4.793 0-9.442-.939-13.818-2.79-4.227-1.788-8.024-4.347-11.284-7.608-3.26-3.26-5.82-7.057-7.608-11.284C1.939 45.942 1 41.293 1 36.5c0-4.793.939-9.442 2.79-13.818 1.787-4.227 4.347-8.024 7.608-11.284 3.26-3.26 7.057-5.82 11.284-7.608C27.058 1.939 31.707 1 36.5 1c4.793 0 9.442.939 13.818 2.79 4.227 1.787 8.024 4.347 11.284 7.608 3.26 3.26 5.82 7.057 7.608 11.284C71.061 27.058 72 31.707 72 36.5c0 4.793-.939 9.442-2.79 13.818-1.788 4.227-4.347 8.024-7.608 11.284-3.26 3.26-7.057 5.82-11.284 7.608C45.942 71.061 41.293 72 36.5 72z" style="stroke:none"/>
            <path d="M36.5 1.5c-4.726 0-9.31.925-13.623 2.75-4.168 1.763-7.911 4.286-11.126 7.501-3.215 3.215-5.738 6.958-7.501 11.126C2.425 27.19 1.5 31.774 1.5 36.5c0 4.725.925 9.309 2.75 13.623 1.763 4.168 4.286 7.91 7.501 11.126 3.215 3.214 6.958 5.738 11.126 7.5C27.19 70.576 31.775 71.5 36.5 71.5s9.309-.925 13.623-2.75c4.168-1.763 7.91-4.287 11.126-7.501 3.214-3.215 5.738-6.958 7.5-11.126C70.576 45.81 71.5 41.225 71.5 36.5s-.925-9.31-2.75-13.623c-1.763-4.168-4.287-7.911-7.501-11.126-3.215-3.215-6.958-5.738-11.126-7.501C45.81 2.425 41.225 1.5 36.5 1.5m0-1c19.882 0 36 16.117 36 36 0 19.882-16.118 36-36 36-19.883 0-36-16.118-36-36 0-19.883 16.117-36 36-36z" style="fill:#202020;stroke:none"/>
        </g>
        <g id="prefix__마스크_그룹_1" data-name="마스크 그룹 1" transform="translate(1.235 1.235)">
            <path id="prefix__패스_429" d="M61.507 69.044c-.008-2.229.015-4.46.007-6.689-.023-5.334-7.547-7.619-11.475-9.932-1.386-.814-2.755-1.416-2.755-3.3v-7.511c0-.373.74-1.331.887-1.731A20.512 20.512 0 0 0 49.211 33c0-4.657-.616-10.148-5.4-12.319a11.919 11.919 0 0 0-4.631-.9h-.247a11.915 11.915 0 0 0-4.63.9c-4.78 2.17-5.4 7.662-5.4 12.319a20.533 20.533 0 0 0 1.04 6.88c.144.4.887 1.358.887 1.731v7.509c0 1.886-1.372 2.488-2.754 3.3-3.929 2.313-11.452 4.6-11.476 9.932-.007 2.229.015 4.46.008 6.689" data-name="패스 429" transform="translate(-4.313 -4.102)" style="fill:none;stroke:#333333;fill-rule:evenodd"/>
        </g>
    </g>
</svg>
