<svg xmlns="http://www.w3.org/2000/svg" id="prefix__gallery_purple" width="30" height="30" viewBox="0 0 30 30">
    <defs>
        <radialGradient id="prefix__radial-gradient" cx=".5" cy=".5" r=".5" gradientUnits="objectBoundingBox">
            <stop offset="0" stop-color="#202020"/>
            <stop offset="1" stop-color="#202020"/>
        </radialGradient>
    </defs>
    <path id="prefix__사각형_62" d="M0 0H30V30H0z" data-name="사각형 62" style="fill:transparent"/>
    <path id="prefix__패스_430" d="M20.708 10.286V8.737a1.965 1.965 0 0 0-1.954-1.977h-6.045a1.964 1.964 0 0 0-1.952 1.977v1.549H6.448a2.944 2.944 0 0 0-2.927 2.962v9.81a2.944 2.944 0 0 0 2.927 2.962h18.568a2.944 2.944 0 0 0 2.927-2.962v-9.81a2.944 2.944 0 0 0-2.927-2.962h-4.308z" data-name="패스 430" transform="translate(-.767 -1.085)"  style="fill:#202020"/>
    <path id="prefix__패스_431" d="M21.87 18.7a4.593 4.593 0 1 1-4.592-4.671A4.632 4.632 0 0 1 21.87 18.7z" data-name="패스 431" transform="translate(-2.294 -2.192)" style="fill:#fff;fill-rule:evenodd"/>
    <path id="prefix__패스_432" d="M26.969 14.091h1.148" data-name="패스 432" transform="translate(-4.675 -2.201)" style="fill:#e0e0e0;stroke:#fff;stroke-linecap:round;stroke-width:3px;fill-rule:evenodd"/>
</svg>
