<svg xmlns="http://www.w3.org/2000/svg" width="15" height="15.622" viewBox="0 0 15 15.622">
    <g id="headset_85862" transform="translate(-8.596)">
        <path id="패스_18379" fill="#fff" d="M23.6 8.049A7.794 7.794 0 0 0 16.107 0a7.767 7.767 0 0 0-7.479 7.89 2.468 2.468 0 0 0-.032.4v2.848a2.215 2.215 0 1 0 4.43 0V8.291A2.224 2.224 0 0 0 10.8 6.076a2.378 2.378 0 0 0-.675.105 6.338 6.338 0 0 1 5.981-4.905A6.348 6.348 0 0 1 22.1 6.224a2.255 2.255 0 0 0-.759-.137 2.206 2.206 0 0 0-2.2 2.215v2.848a2.207 2.207 0 0 0 1.371 2.057 2.3 2.3 0 0 1-2.141 1.15h-3.14a.633.633 0 1 0 0 1.266h3.133a3.587 3.587 0 0 0 3.481-2.323 2.228 2.228 0 0 0 1.719-2.162V8.4l.032-.232c.004-.046.004-.088.004-.119zm-12.81-.718a.961.961 0 0 1 .96.949v2.848a.991.991 0 0 1-.96.992.989.989 0 0 1-.949-.992v-2.89a.614.614 0 0 0 .032-.2v-.011a.962.962 0 0 1 .917-.696zm10.559 4.757a.952.952 0 0 1-.949-.949V8.291a.949.949 0 0 1 1.9 0v2.848a.952.952 0 0 1-.951.95z" data-name="패스 18379"/>
    </g>
</svg>
