<svg xmlns="http://www.w3.org/2000/svg" xmlns:xlink="http://www.w3.org/1999/xlink" width="36" height="36" viewBox="0 0 36 36">
    <defs>
        <linearGradient id="k71lvh0qsc" x1=".163" x2=".84" y1=".821" y2="-.113" gradientUnits="objectBoundingBox">
            <stop offset=".006" stop-color="#ffab13"/>
            <stop offset="1" stop-color="#ff407d"/>
        </linearGradient>
        <linearGradient id="ojfl7ousia" x1=".115" x2=".885" y1="1.022" y2="-.178" gradientUnits="objectBoundingBox">
            <stop offset="0" stop-color="#ffd078"/>
            <stop offset="1" stop-color="#ffab83"/>
        </linearGradient>
        <linearGradient id="l5hxm7r5ld" x1=".5" x2=".5" y1="1" gradientUnits="objectBoundingBox">
            <stop offset="0" stop-color="#ffd078" stop-opacity="0"/>
            <stop offset="1" stop-color="#ffab83"/>
        </linearGradient>
        <linearGradient id="yyh1bli3te" x1=".201" x2=".799" y1="1.456" y2="-.456" xlink:href="#ojfl7ousia"/>
        <linearGradient id="j7lx3f0jub" x1=".014" x2=".805" y1=".75" y2=".269" gradientUnits="objectBoundingBox">
            <stop offset="0" stop-color="#fff"/>
            <stop offset="1" stop-color="#e1e5f2"/>
        </linearGradient>
        <linearGradient id="nqm7z172lf" x1=".244" x2=".797" y1="1.304" y2=".189" xlink:href="#j7lx3f0jub"/>
        <linearGradient id="3nsqielyjg" x1=".273" x2=".762" y1=".851" y2="-.265" xlink:href="#j7lx3f0jub"/>
        <linearGradient id="mee75y4cih" x1="-1.125" x2="2.125" y1=".795" y2=".205" xlink:href="#k71lvh0qsc"/>
    </defs>
    <g>
        <path fill="url(#k71lvh0qsc)" d="M457.033 709.094l-4.522-4.523a1.934 1.934 0 0 0-3.22.785 8.073 8.073 0 1 0 15.483-.006 1.933 1.933 0 0 0-3.218-.78z" transform="translate(-389.455 -699) translate(-49.674)"/>
        <path fill="url(#ojfl7ousia)" d="M430.741 826.438v11.1a4.037 4.037 0 0 1-4.033 4.033h-15.5a3.991 3.991 0 0 1-2.115-.6 4.035 4.035 0 0 1-1.917-3.433v-11.1z" transform="translate(-389.455 -699) translate(-11.6 -111.574)"/>
        <path fill="url(#l5hxm7r5ld)" d="M0 0H23.563V5.318H0z" transform="translate(-389.455 -699) translate(395.576 714.866)" style="isolation:isolate;mix-blend-mode:multiply"/>
        <path fill="url(#yyh1bli3te)" d="M420.27 751.094v2.859a2.6 2.6 0 0 1-2.6 2.6h-20.62a2.6 2.6 0 0 1-2.6-2.6v-2.859a2.6 2.6 0 0 1 2.6-2.6h20.62a2.6 2.6 0 0 1 2.6 2.6z" transform="translate(-389.455 -699) translate(0 -40.545)"/>
        <path d="M412.747 899.955a6.069 6.069 0 0 1-.837 3.082h-.7a3.991 3.991 0 0 1-2.115-.6 4.035 4.035 0 0 1-1.917-3.437v-5.118a6.078 6.078 0 0 1 5.564 5.99.424.424 0 0 1 .005.083z" transform="translate(-389.455 -699) translate(-11.6 -173.037)" style="mix-blend-mode:screen;isolation:isolate" fill="url(#j7lx3f0jub)" opacity="0.35"/>
        <path d="M435.232 964.194H430.9a3.991 3.991 0 0 1-2.116-.6 3.258 3.258 0 0 1 3.191-2.6 2.789 2.789 0 0 1 .456.035 3.256 3.256 0 0 1 2.801 3.165z" transform="translate(-389.455 -699) translate(-31.291 -234.194)" style="mix-blend-mode:screen;isolation:isolate" fill="url(#nqm7z172lf)" opacity="0.35"/>
        <path d="M556.781 751.094v1.06a7.863 7.863 0 0 1-12.53-3.661h9.929a2.6 2.6 0 0 1 2.601 2.601z" transform="translate(-389.455 -699) translate(-136.51 -40.545)" style="mix-blend-mode:screen;isolation:isolate" fill="url(#3nsqielyjg)" opacity="0.25"/>
        <path fill="url(#mee75y4cih)" d="M0 0H4.011V22.05H0z" transform="translate(-389.455 -699) translate(405.353 707.947)"/>
    </g>
    <path fill="none" d="M0 0H36V36H0z"/>
</svg>
