<svg xmlns="http://www.w3.org/2000/svg" width="82.003" height="68.003" viewBox="0 0 82.003 68.003">
    <defs>
        <style>
            .cls-1,.cls-2,.cls-9{fill:#ffe83e}.cls-1,.cls-2,.cls-8{stroke:#ffb95c}.cls-1,.cls-8{stroke-miterlimit:10}.cls-2,.cls-8{stroke-linecap:round}.cls-2{stroke-linejoin:round}.cls-4{fill:#ffb64d}.cls-5{fill:#ffc545}.cls-6{fill:#322}.cls-8{fill:none;stroke-width:2px}.cls-10{fill:#fff}
        </style>
    </defs>
    <g id="ic_noResultant" transform="translate(-113.566 -930.833)">
        <g id="그룹_15154" transform="translate(114.068 931.333)">
            <path id="왼발" d="M-198.1 165.263c5.507-3.008 8.446-5.86 7.21-8.949-1.659-2.885-5.723-2.354-11.5.091-5.035 2.129-9.838 5.552-7.972 9.317 1.797 3.797 7.462 2.161 12.262-.459z" class="cls-1" transform="translate(225.72 -100.961)"/>
            <path id="오른발" d="M-113.467 165.263c-5.507-3.008-8.446-5.86-7.21-8.949 1.659-2.885 5.723-2.354 11.5.091 5.035 2.129 9.838 5.552 7.973 9.317-1.796 3.797-7.466 2.161-12.263-.459z" class="cls-1" transform="translate(168.441 -100.961)"/>
            <g id="머리_copy" transform="translate(10.029)">
                <ellipse id="머리" cx="30.7" cy="30.655" class="cls-2" rx="30.7" ry="30.655"/>
                <path id="패스_7126" fill="#ffca5f" d="M-134.561 107.478c15.952-1.064 28.551-13.881 28.551-29.538a28.642 28.642 0 0 0-1.285-8.5 105.047 105.047 0 0 1-.812 12.3l-.061.007c.135.715-4.413 20.018-26.393 25.731z" transform="translate(167.088 -46.767)"/>
                <g id="Layer_30" transform="translate(7.097 3.038)">
                    <path id="패스_13764" d="M3.854 0C5.983 0 7.709 1.017 7.71 2.265S5.986 4.524 3.857 4.523 0 3.508 0 2.26 1.726 0 3.854 0z" class="cls-4" transform="rotate(-34.518 10.583 -9.277)"/>
                    <path id="패스_13765" d="M2.59 0c1.43 0 2.59.684 2.59 1.524S4.022 3.043 2.592 3.042 0 2.359 0 1.52 1.159 0 2.59 0z" class="cls-4" transform="rotate(-52.63 12.44 6.15)"/>
                    <path id="패스_13766" d="M1.608 0c.892 0 1.609.425 1.61.946s-.719.943-1.608.943S0 1.465 0 .944.72 0 1.608 0z" class="cls-4" transform="rotate(-45 10.361 -.586)"/>
                </g>
            </g>
            <g id="이목구비_copy" transform="translate(23.066 20.603)">
                <ellipse id="타원_506" cx="4.098" cy="4.092" class="cls-5" rx="4.098" ry="4.092" transform="translate(0 6.838)"/>
                <ellipse id="타원_507" cx="4.098" cy="4.092" class="cls-5" rx="4.098" ry="4.092" transform="translate(27.667 6.594)"/>
                <ellipse id="타원_508" cx="1.565" cy="2.787" class="cls-6" rx="1.565" ry="2.787" transform="translate(5.066)"/>
                <ellipse id="타원_509" cx="1.565" cy="2.787" class="cls-6" rx="1.565" ry="2.787" transform="translate(26.909)"/>
                <g id="그룹_15153" transform="translate(12.149 7.256)">
                    <path id="패스_7128" fill="none" stroke="#322" stroke-linecap="round" stroke-miterlimit="10" d="M0 0a11.313 11.313 0 0 0 10.741 0" transform="rotate(180 5.37 .689)"/>
                </g>
                <path id="패스_7129" d="M-146.887 97.7a14.439 14.439 0 0 0 6.186 1.392" class="cls-8" transform="translate(161.912 -85.404)"/>
                <path id="패스_7130" d="M-114.056 79.236a8.923 8.923 0 0 1 5.567-1.074" class="cls-8" transform="translate(140.975 -72.854)"/>
                <path id="패스_7131" d="M-174.518 79.236a8.923 8.923 0 0 0-5.567-1.074" class="cls-8" transform="translate(183.083 -72.854)"/>
            </g>
            <g id="오른팔" transform="translate(61.527 24.575)">
                <path id="패스_7132" d="M-58.481 89.181a6.24 6.24 0 0 0-2.13-4.556 1.814 1.814 0 0 0 .735-1.028v-.009a.737.737 0 0 0-.023-.313 1.285 1.285 0 0 0-.683-.928l-.018-.008c-.032-.016-.062-.029-.091-.041a3.308 3.308 0 0 0-.37-.136c-.045-.014-.092-.027-.139-.038h-.009l-.041-.009-.027-.006a4.7 4.7 0 0 0-1.06-.06 4.076 4.076 0 0 0-.817.085 12.024 12.024 0 0 0-4.063 1.666c-2.444-.8-5.131-1.349-5.131-1.349l-3.184 5.561a35.773 35.773 0 0 1 4.761 1.388 5.958 5.958 0 0 0 5.979 5.4c3.397.071 6.498-2.447 6.311-5.619z" class="cls-2" transform="translate(77.946 -79.38)"/>
                <path id="패스_7136" d="M.625 7.192c.228 1.515-.683 2.046-1.973.908A2.993 2.993 0 0 1-2.3 4.73c.341-.758.228-3.371 1.669-4.811s2.356-3.447 4.253-2.462 3.187-.947 1.48.871S4 .45 3.622 1.548.625 7.192.625 7.192z" class="cls-9" transform="translate(2.489 2.805)"/>
            </g>
            <g id="왼팔" transform="translate(0 26.275)">
                <path id="패스_7134" d="M-252.019 89.181a6.241 6.241 0 0 1 2.13-4.556 1.813 1.813 0 0 1-.735-1.028v-.009a.731.731 0 0 1 .023-.313 1.285 1.285 0 0 1 .682-.928l.018-.008c.032-.016.062-.029.091-.041a3.312 3.312 0 0 1 .371-.136c.045-.014.092-.027.139-.038h.009l.041-.009.027-.006a4.7 4.7 0 0 1 1.06-.06 4.083 4.083 0 0 1 .818.085 12.023 12.023 0 0 1 4.066 1.671c2.444-.8 5.13-1.349 5.13-1.349l3.184 5.561a35.758 35.758 0 0 0-4.765 1.383 5.958 5.958 0 0 1-5.98 5.4c-3.396.071-6.497-2.447-6.309-5.619z" class="cls-2" transform="translate(252.027 -81.08)"/>
                <path id="패스_7135" d="M-211.646 86.342l-1.469-4.08-2.415-2.874-1.343.413.211.592a1.178 1.178 0 0 1 .393 1.032l-.01.21.427.084 2.337 4.149-.187-.04-.077-.069-.48.09-.4-.09v.513a.786.786 0 0 1 .317 1.055l.936-.221.013-.01a9.4 9.4 0 0 0 1.24-.17c.064-.061.507-.584.507-.584z" class="cls-9" transform="translate(229.609 -79.389)"/>
            </g>
        </g>
        <path id="패스_7137" d="M1.249 0c.677.858 1.325 1.423 1.325 2.6s-.651 1.671-1.325 1.671S0 3.782 0 2.6A3.7 3.7 0 0 1 1.249 0z" class="cls-10" transform="rotate(36 -1403.48 687.787)"/>
        <path id="패스_7140" d="M1.249 4.271c.677-.858 1.325-1.423 1.325-2.6S1.923 0 1.249 0 0 .489 0 1.668a3.7 3.7 0 0 0 1.249 2.603z" class="cls-10" transform="rotate(144 -67.719 508.707)"/>
        <path id="패스_7138" d="M2.31 0c1.253 1.587 2.452 2.633 2.452 4.815S3.557 7.9 2.31 7.9 0 7 0 4.815A6.84 6.84 0 0 1 2.31 0z" class="cls-10" transform="rotate(36 -1410.94 684.34)"/>
        <path id="패스_7139" d="M2.311 7.9c1.252-1.586 2.451-2.631 2.451-4.813S3.557 0 2.31 0 0 .9 0 3.087A6.84 6.84 0 0 0 2.311 7.9z" class="cls-10" transform="rotate(144 -66.01 512.947)"/>
    </g>
</svg>
