<svg id="ic_moon_l" xmlns="http://www.w3.org/2000/svg" xmlns:xlink="http://www.w3.org/1999/xlink" width="48" height="48" viewBox="0 0 48 48">
  <defs>
    <linearGradient id="linear-gradient" x1="0.233" y1="0.078" x2="0.738" y2="0.944" gradientUnits="objectBoundingBox">
      <stop offset="0" stop-color="#fdad2b"/>
      <stop offset="0.181" stop-color="#fca82d"/>
      <stop offset="0.383" stop-color="#fa9a34"/>
      <stop offset="0.596" stop-color="#f6843f"/>
      <stop offset="0.814" stop-color="#f1654e"/>
      <stop offset="1" stop-color="#ec455f"/>
    </linearGradient>
    <clipPath id="clip-path">
      <path id="패스_4109" data-name="패스 4109" d="M82.933,56.076a10.288,10.288,0,1,1,1.811-20.415,16.068,16.068,0,1,0,6.4,16.33A10.272,10.272,0,0,1,82.933,56.076Z" transform="translate(-59.333 -32.667)" fill="none"/>
    </clipPath>
    <linearGradient id="linear-gradient-2" x1="0.774" y1="-0.526" x2="0.279" y2="1.026" gradientUnits="objectBoundingBox">
      <stop offset="0" stop-color="#fde065" stop-opacity="0.541"/>
      <stop offset="0.156" stop-color="#fde16a" stop-opacity="0.522"/>
      <stop offset="0.33" stop-color="#fde479" stop-opacity="0.467"/>
      <stop offset="0.513" stop-color="#fde992" stop-opacity="0.38"/>
      <stop offset="0.703" stop-color="#fef0b5" stop-opacity="0.255"/>
      <stop offset="0.895" stop-color="#fef9e2" stop-opacity="0.098"/>
      <stop offset="1" stop-color="#fff" stop-opacity="0"/>
    </linearGradient>
  </defs>
  <g id="사각형_1060" data-name="사각형 1060" fill="#fff" stroke="#707070" stroke-width="1" opacity="0">
    <rect width="48" height="48" stroke="none"/>
    <rect x="0.5" y="0.5" width="47" height="47" fill="none"/>
  </g>
  <g id="그룹_10264" data-name="그룹 10264" transform="translate(8.055 8.652)">
    <g id="달" transform="translate(0 0)">
      <g id="그룹_9725" data-name="그룹 9725" transform="translate(0 0)">
        <g id="패스_4107" data-name="패스 4107" transform="translate(-59.333 -32.667)" stroke-linejoin="round" fill="url(#linear-gradient)">
          <path d="M 75.40150451660156 65.40370941162109 C 70.94917297363281 65.40370941162109 66.76333618164063 63.66990280151367 63.61507797241211 60.52165222167969 C 60.46681594848633 57.37342071533203 58.73299789428711 53.18762969970703 58.73299789428711 48.7353515625 C 58.73299789428711 44.28307342529297 60.46681594848633 40.09728240966797 63.61507797241211 36.94905090332031 C 66.76333618164063 33.80081176757813 70.94916534423828 32.06700134277344 75.40150451660156 32.06700134277344 C 78.90290832519531 32.06700134277344 82.25404357910156 33.1409912109375 85.09265899658203 35.1728630065918 L 84.63850402832031 36.25150299072266 C 84.06788635253906 36.15016174316406 83.49393463134766 36.09877014160156 82.93260955810547 36.09877014160156 C 77.59038543701172 36.09877014160156 73.24417877197266 40.44498062133789 73.24417877197266 45.78720092773438 C 73.24417877197266 51.12942123413086 77.59038543701172 55.47563171386719 82.93260955810547 55.47563171386719 C 85.99332427978516 55.47563171386719 88.81034851074219 54.0733528137207 90.66136932373047 51.62834167480469 L 91.72742462158203 52.11141967773438 C 90.96562957763672 55.81379318237305 88.93074798583984 59.18451309204102 85.99763488769531 61.6026725769043 C 84.53688812255859 62.80696105957031 82.89867401123047 63.7459716796875 81.12850952148438 64.39360046386719 C 79.29648590087891 65.06385803222656 77.36964416503906 65.40370941162109 75.40150451660156 65.40370941162109 Z" stroke="none"/>
          <path d="M 75.40150451660156 64.8037109375 C 83.16061401367188 64.8037109375 89.63488006591797 59.30413055419922 91.13973999023438 51.99050140380859 C 89.26133728027344 54.4716796875 86.28468322753906 56.07563018798828 82.93260955810547 56.07563018798828 C 77.25057983398438 56.07563018798828 72.64417266845703 51.46923065185547 72.64417266845703 45.78720092773438 C 72.64417266845703 40.10504150390625 77.25057983398438 35.49877166748047 82.93260955810547 35.49877166748047 C 83.55096435546875 35.49877166748047 84.15522766113281 35.55628204345703 84.74342346191406 35.66075134277344 C 82.11100769042969 33.77647018432617 78.88587951660156 32.66699981689453 75.40150451660156 32.66699981689453 C 66.52706909179688 32.66699981689453 59.3329963684082 39.86106109619141 59.3329963684082 48.7353515625 C 59.3329963684082 57.60964202880859 66.52706909179688 64.8037109375 75.40150451660156 64.8037109375 M 75.40150451660156 66.00370788574219 C 73.07079315185547 66.00370788574219 70.80916595458984 65.54697418212891 68.67943572998047 64.64617919921875 C 66.62297821044922 63.77638244628906 64.77633666992188 62.53143310546875 63.1908073425293 60.9459228515625 C 61.60529708862305 59.36041259765625 60.36033630371094 57.51379013061523 59.49052810668945 55.45734024047852 C 58.58973693847656 53.32764053344727 58.13299560546875 51.06603240966797 58.13299560546875 48.7353515625 C 58.13299560546875 46.40467071533203 58.58973693847656 44.14306259155273 59.49052810668945 42.01336288452148 C 60.36033630371094 39.9569206237793 61.60529708862305 38.11029052734375 63.1908073425293 36.5247802734375 C 64.77633666992188 34.93928146362305 66.62297821044922 33.69433212280273 68.67943572998047 32.82453155517578 C 70.80916595458984 31.92374229431152 73.07079315185547 31.46700096130371 75.40150451660156 31.46700096130371 C 79.02890777587891 31.46700096130371 82.50081634521484 32.57976150512695 85.44188690185547 34.68497085571289 C 85.89774322509766 35.01127243041992 86.06693267822266 35.6097297668457 85.84939575195313 36.12641143798828 C 85.65962219238281 36.57711791992188 85.21962738037109 36.86081695556641 84.74398803710938 36.86084747314453 C 84.67436981201172 36.8608512878418 84.60405731201172 36.85477828979492 84.53357696533203 36.84226226806641 C 83.99750518798828 36.74705123901367 83.45885467529297 36.69877243041992 82.93260955810547 36.69877243041992 C 77.92122650146484 36.69877243041992 73.84417724609375 40.77582168579102 73.84417724609375 45.78720092773438 C 73.84417724609375 50.79858016967773 77.92122650146484 54.87563323974609 82.93260955810547 54.87563323974609 C 85.80374908447266 54.87563323974609 88.44640350341797 53.56004333496094 90.1829833984375 51.26618194580078 C 90.41568756103516 50.95881271362305 90.77341461181641 50.79040908813477 91.14022827148438 50.79040908813477 C 91.30691528320313 50.79040908813477 91.4754638671875 50.82517623901367 91.63502502441406 50.89748001098633 C 92.14574432373047 51.12891006469727 92.42811584472656 51.68315124511719 92.31511688232422 52.23235321044922 C 91.52579498291016 56.06843185424805 89.41775512695313 59.56062316894531 86.37931823730469 62.06562042236328 C 84.86603546142578 63.3132209777832 83.16876983642578 64.28604888916016 81.33465576171875 64.95706939697266 C 79.43638610839844 65.65157318115234 77.440185546875 66.00370788574219 75.40150451660156 66.00370788574219 Z" stroke="none" fill="#ee5556"/>
        </g>
        <g id="그룹_9724" data-name="그룹 9724">
          <g id="그룹_9723" data-name="그룹 9723" clip-path="url(#clip-path)">
            <path id="패스_4108" data-name="패스 4108" d="M39.088,10.333c-1.677.224-14.755,17.214-14.755,17.214l1.341,14.2L61.109,14.078l-9.837-2.4Z" transform="translate(-30.201 -14.078)" fill="url(#linear-gradient-2)"/>
          </g>
        </g>
      </g>
    </g>
  </g>
</svg>
