<svg xmlns="http://www.w3.org/2000/svg" id="benefit" width="102" height="28" viewBox="0 0 102 28">
    <defs>
        <style>
            .cls-3,.cls-8{fill:none}.cls-3{stroke:#ff9d00;stroke-width:1.5px;stroke-linecap:round;stroke-linejoin:round}.cls-7{stroke:none}
        </style>
    </defs>
    <path id="패스_21241" d="M-25.92-.6a1.542 1.542 0 0 1 .234-.816 2.152 2.152 0 0 1 .672-.672 3.642 3.642 0 0 1 1.068-.456 5.526 5.526 0 0 1 1.422-.168 5.526 5.526 0 0 1 1.422.168 3.642 3.642 0 0 1 1.068.456 2.152 2.152 0 0 1 .672.672 1.542 1.542 0 0 1 .234.816v.48a1.542 1.542 0 0 1-.234.82 2.152 2.152 0 0 1-.672.672 3.642 3.642 0 0 1-1.068.456 5.526 5.526 0 0 1-1.422.168 5.526 5.526 0 0 1-1.422-.168 3.642 3.642 0 0 1-1.068-.456A2.152 2.152 0 0 1-25.686.7a1.542 1.542 0 0 1-.234-.82zm3.18-3.144h-4.992v-4.992h4.992zm2.4.888V-4.62h-1.752v-1.02h1.752v-1.128h-1.752v-1.02h1.752v-1.6h1.164v6.528zm.048 2.328a.761.761 0 0 0-.156-.438 1.38 1.38 0 0 0-.444-.39 2.792 2.792 0 0 0-.7-.276 3.688 3.688 0 0 0-.93-.108 3.688 3.688 0 0 0-.93.108 2.792 2.792 0 0 0-.7.276 1.38 1.38 0 0 0-.444.39.761.761 0 0 0-.156.438v.336a.761.761 0 0 0 .152.438 1.38 1.38 0 0 0 .444.39 2.792 2.792 0 0 0 .7.276 3.688 3.688 0 0 0 .93.108 3.688 3.688 0 0 0 .93-.108 2.792 2.792 0 0 0 .7-.276 1.38 1.38 0 0 0 .444-.39.761.761 0 0 0 .156-.438zm-6.276-4.224h2.668v-2.976h-2.664zm11.76-3.8A2.122 2.122 0 0 1-12.6-6.948h1.488v-2.208h1.152V1.14h-1.152v-3.828h-1.464a2.135 2.135 0 0 1-2.232 1.668 2.142 2.142 0 0 1-1.812-.8 3.879 3.879 0 0 1-.612-2.38v-1.176q0-3.18 2.424-3.18zM-7.86 1.68h-1.164V-9.384h1.164zm-6.948-3.744A1.046 1.046 0 0 0-13.8-2.64a3.766 3.766 0 0 0 .3-1.692v-.912a3.656 3.656 0 0 0-.306-1.692 1.053 1.053 0 0 0-1-.564 1.053 1.053 0 0 0-1 .564 3.656 3.656 0 0 0-.306 1.692v.912a3.7 3.7 0 0 0 .306 1.7 1.051 1.051 0 0 0 .998.568zm2.424-2.136q0 .132-.006.252t-.018.24h1.3v-2.22h-1.3q.012.132.018.27t.006.282zm9.552.888a3.445 3.445 0 0 1-1.224-.2 2.993 2.993 0 0 1-.924-.54 2.349 2.349 0 0 1-.588-.768 2.084 2.084 0 0 1-.2-.9v-.552a2.084 2.084 0 0 1 .2-.9 2.349 2.349 0 0 1 .588-.768 2.993 2.993 0 0 1 .924-.54 3.445 3.445 0 0 1 1.224-.2 3.445 3.445 0 0 1 1.224.2 2.993 2.993 0 0 1 .924.54 2.349 2.349 0 0 1 .584.764 2.084 2.084 0 0 1 .2.9v.552a2.084 2.084 0 0 1-.2.9 2.349 2.349 0 0 1-.588.768 2.993 2.993 0 0 1-.924.54 3.445 3.445 0 0 1-1.22.204zm0-1.032a2.038 2.038 0 0 0 .7-.12 2 2 0 0 0 .576-.318 1.456 1.456 0 0 0 .384-.462 1.176 1.176 0 0 0 .14-.556v-.4a1.236 1.236 0 0 0-.138-.57 1.374 1.374 0 0 0-.384-.462 1.976 1.976 0 0 0-.576-.306 2.135 2.135 0 0 0-.7-.114 2.12 2.12 0 0 0-.708.114 1.993 1.993 0 0 0-.57.306 1.374 1.374 0 0 0-.384.462 1.236 1.236 0 0 0-.138.57v.4a1.176 1.176 0 0 0 .138.552 1.456 1.456 0 0 0 .384.462 2.019 2.019 0 0 0 .57.318 2.024 2.024 0 0 0 .706.124zM.972-.912Q.216-.84-.576-.786T-2.25-.7q-.882.036-1.884.054t-2.178.018v-1.028q1.188 0 2.178-.012t1.854-.042q.864-.03 1.632-.078t1.512-.12zm.576 2.592V-9.384h1.176V1.68zm9.36-6.708a1.586 1.586 0 0 1-.294.42 6.874 6.874 0 0 1-.51.516q-.384.348-.858.714t-.978.714l-.7-.852q.576-.408 1.092-.8a10.029 10.029 0 0 0 .828-.7 3.059 3.059 0 0 0 .366-.408 1.963 1.963 0 0 0 .24-.426 2.217 2.217 0 0 0 .132-.486 3.761 3.761 0 0 0 .042-.588v-.732H7.944v-1.02h5.712v1.02h-2.184v.684a3.2 3.2 0 0 0 .12.954 1.615 1.615 0 0 0 .5.714q.432.384.9.732t1 .7l-.672.864q-.468-.324-.876-.636T11.6-4.32q-.276-.228-.45-.4a1.129 1.129 0 0 1-.234-.306zm4.5 3.528v-4.044h-2.04v-1.02h2.04v-2.82h1.176V-1.5zM10.86.528h5.952V1.56h-7.14v-3.7h1.188zM20.376-.6a1.573 1.573 0 0 1 .228-.816 2.108 2.108 0 0 1 .66-.672 3.571 3.571 0 0 1 1.05-.456 5.9 5.9 0 0 1 2.8 0 3.571 3.571 0 0 1 1.05.456 2.108 2.108 0 0 1 .66.672 1.573 1.573 0 0 1 .228.816v.48a1.573 1.573 0 0 1-.232.82 2.108 2.108 0 0 1-.66.672 3.571 3.571 0 0 1-1.05.456 5.336 5.336 0 0 1-1.4.168 5.336 5.336 0 0 1-1.4-.168 3.571 3.571 0 0 1-1.05-.456A2.108 2.108 0 0 1 20.6.7a1.573 1.573 0 0 1-.228-.816zm4.56-3.384q-.636.084-1.188.132t-1.224.078q-.672.03-1.56.042t-2.184.012v-4.968h5.12v1.02h-3.96v2.928q.924 0 1.566-.012t1.17-.036q.528-.024 1.02-.066t1.116-.114zm.948 3.456a.781.781 0 0 0-.15-.438 1.33 1.33 0 0 0-.432-.39 2.708 2.708 0 0 0-.684-.276 3.854 3.854 0 0 0-1.812 0 2.708 2.708 0 0 0-.684.276 1.33 1.33 0 0 0-.432.39.781.781 0 0 0-.15.438v.336a.781.781 0 0 0 .15.438 1.33 1.33 0 0 0 .432.39 2.708 2.708 0 0 0 .684.276 3.5 3.5 0 0 0 .906.108 3.5 3.5 0 0 0 .906-.108A2.708 2.708 0 0 0 25.3.636a1.33 1.33 0 0 0 .432-.39.781.781 0 0 0 .15-.438zM28.572-5.8H27v2.94h-1.176v-6.524H27v2.556h1.572z" transform="translate(64 18)"/>
    <g id="사각형_9753" fill="none" stroke="#febd56">
        <rect width="102" height="28" class="cls-7" rx="14"/>
        <rect width="101" height="27" x=".5" y=".5" class="cls-8" rx="13.5"/>
    </g>
    <g id="그룹_32687" transform="translate(793 120)">
        <g id="그룹_32686" transform="translate(-781 -114.334)">
            <path id="사각형_3518" d="M0 0h3.623v7.817A3.623 3.623 0 0 1 0 4.195V0z" class="cls-3" transform="translate(0 .686)"/>
            <path id="사각형_3519" d="M3.623 0v7.817H0V3.623A3.623 3.623 0 0 1 3.623 0z" class="cls-3" transform="rotate(180 8.457 4.252)"/>
            <g id="패스_10704" fill="#ffd645" stroke-linecap="round" stroke-linejoin="round">
                <path d="M169.775 86.511h-2.657v-4.239c0-1.466-.976-2.78-2.548-3.427-.878-.362-1.619-2.26-1.619-3.26v-5.707h10.991v5.708c0 1-.741 2.897-1.62 3.259-1.571.647-2.547 1.96-2.547 3.427v4.24z" class="cls-7" transform="translate(-160.024 -69.128)"/>
                <path fill="#ffb31c" d="M163.701 70.628v4.958c0 .332.145.98.423 1.579.322.694.638.947.732.986 1.858.766 3.012 2.345 3.012 4.121v3.49h1.157v-3.49c0-1.776 1.154-3.355 3.012-4.12.094-.04.41-.293.732-.987.278-.598.423-1.247.423-1.58v-4.957h-9.491m-1.5-1.5h12.491v6.458c0 1.152-.804 3.425-2.084 3.952-1.28.527-2.083 1.582-2.083 2.734v4.99h-4.157v-4.99c0-1.152-.803-2.207-2.083-2.734-1.28-.527-2.084-2.8-2.084-3.952v-6.458z" transform="translate(-160.024 -69.128)"/>
            </g>
            <rect id="사각형_3517" width="8.837" height="3.422" fill="#ffb31c" rx="1" transform="translate(4.004 14.711)"/>
            <path id="패스_16114" fill="#fff" d="M692.253 408.773l.654 1.328a.3.3 0 0 0 .229.167l1.462.213a.3.3 0 0 1 .168.519l-1.058 1.033a.305.305 0 0 0-.087.269l.249 1.46a.3.3 0 0 1-.441.321l-1.308-.689a.3.3 0 0 0-.283 0l-1.308.689a.3.3 0 0 1-.44-.321l.25-1.46a.3.3 0 0 0-.087-.269L689.2 411a.3.3 0 0 1 .168-.519l1.462-.213a.3.3 0 0 0 .229-.167l.654-1.328a.3.3 0 0 1 .54 0z" transform="translate(-683.621 -405.868)"/>
        </g>
    </g>
</svg>
