<svg xmlns="http://www.w3.org/2000/svg" id="benefit" width="102" height="28" viewBox="0 0 102 28">
    <defs>
        <style>
            .cls-2{fill:#ea8500}.cls-3{fill:#faaf00}.cls-4{fill:#ffd039}.cls-5{fill:#632beb}.cls-6{fill:#8556f6}
        </style>
    </defs>
    <path id="패스_21241" d="M-25.92-.6a1.542 1.542 0 0 1 .234-.816 2.152 2.152 0 0 1 .672-.672 3.642 3.642 0 0 1 1.068-.456 5.526 5.526 0 0 1 1.422-.168 5.526 5.526 0 0 1 1.422.168 3.642 3.642 0 0 1 1.068.456 2.152 2.152 0 0 1 .672.672 1.542 1.542 0 0 1 .234.816v.48a1.542 1.542 0 0 1-.234.82 2.152 2.152 0 0 1-.672.672 3.642 3.642 0 0 1-1.068.456 5.526 5.526 0 0 1-1.422.168 5.526 5.526 0 0 1-1.422-.168 3.642 3.642 0 0 1-1.068-.456A2.152 2.152 0 0 1-25.686.7a1.542 1.542 0 0 1-.234-.82zm3.18-3.144h-4.992v-4.992h4.992zm2.4.888V-4.62h-1.752v-1.02h1.752v-1.128h-1.752v-1.02h1.752v-1.6h1.164v6.528zm.048 2.328a.761.761 0 0 0-.156-.438 1.38 1.38 0 0 0-.444-.39 2.792 2.792 0 0 0-.7-.276 3.688 3.688 0 0 0-.93-.108 3.688 3.688 0 0 0-.93.108 2.792 2.792 0 0 0-.7.276 1.38 1.38 0 0 0-.444.39.761.761 0 0 0-.156.438v.336a.761.761 0 0 0 .152.438 1.38 1.38 0 0 0 .444.39 2.792 2.792 0 0 0 .7.276 3.688 3.688 0 0 0 .93.108 3.688 3.688 0 0 0 .93-.108 2.792 2.792 0 0 0 .7-.276 1.38 1.38 0 0 0 .444-.39.761.761 0 0 0 .156-.438zm-6.276-4.224h2.668v-2.976h-2.664zm11.76-3.8A2.122 2.122 0 0 1-12.6-6.948h1.488v-2.208h1.152V1.14h-1.152v-3.828h-1.464a2.135 2.135 0 0 1-2.232 1.668 2.142 2.142 0 0 1-1.812-.8 3.879 3.879 0 0 1-.612-2.38v-1.176q0-3.18 2.424-3.18zM-7.86 1.68h-1.164V-9.384h1.164zm-6.948-3.744A1.046 1.046 0 0 0-13.8-2.64a3.766 3.766 0 0 0 .3-1.692v-.912a3.656 3.656 0 0 0-.306-1.692 1.053 1.053 0 0 0-1-.564 1.053 1.053 0 0 0-1 .564 3.656 3.656 0 0 0-.306 1.692v.912a3.7 3.7 0 0 0 .306 1.7 1.051 1.051 0 0 0 .998.568zm2.424-2.136q0 .132-.006.252t-.018.24h1.3v-2.22h-1.3q.012.132.018.27t.006.282zm9.552.888a3.445 3.445 0 0 1-1.224-.2 2.993 2.993 0 0 1-.924-.54 2.349 2.349 0 0 1-.588-.768 2.084 2.084 0 0 1-.2-.9v-.552a2.084 2.084 0 0 1 .2-.9 2.349 2.349 0 0 1 .588-.768 2.993 2.993 0 0 1 .924-.54 3.445 3.445 0 0 1 1.224-.2 3.445 3.445 0 0 1 1.224.2 2.993 2.993 0 0 1 .924.54 2.349 2.349 0 0 1 .584.764 2.084 2.084 0 0 1 .2.9v.552a2.084 2.084 0 0 1-.2.9 2.349 2.349 0 0 1-.588.768 2.993 2.993 0 0 1-.924.54 3.445 3.445 0 0 1-1.22.204zm0-1.032a2.038 2.038 0 0 0 .7-.12 2 2 0 0 0 .576-.318 1.456 1.456 0 0 0 .384-.462 1.176 1.176 0 0 0 .14-.556v-.4a1.236 1.236 0 0 0-.138-.57 1.374 1.374 0 0 0-.384-.462 1.976 1.976 0 0 0-.576-.306 2.135 2.135 0 0 0-.7-.114 2.12 2.12 0 0 0-.708.114 1.993 1.993 0 0 0-.57.306 1.374 1.374 0 0 0-.384.462 1.236 1.236 0 0 0-.138.57v.4a1.176 1.176 0 0 0 .138.552 1.456 1.456 0 0 0 .384.462 2.019 2.019 0 0 0 .57.318 2.024 2.024 0 0 0 .706.124zM.972-.912Q.216-.84-.576-.786T-2.25-.7q-.882.036-1.884.054t-2.178.018v-1.028q1.188 0 2.178-.012t1.854-.042q.864-.03 1.632-.078t1.512-.12zm.576 2.592V-9.384h1.176V1.68zm9.36-6.708a1.586 1.586 0 0 1-.294.42 6.874 6.874 0 0 1-.51.516q-.384.348-.858.714t-.978.714l-.7-.852q.576-.408 1.092-.8a10.029 10.029 0 0 0 .828-.7 3.059 3.059 0 0 0 .366-.408 1.963 1.963 0 0 0 .24-.426 2.217 2.217 0 0 0 .132-.486 3.761 3.761 0 0 0 .042-.588v-.732H7.944v-1.02h5.712v1.02h-2.184v.684a3.2 3.2 0 0 0 .12.954 1.615 1.615 0 0 0 .5.714q.432.384.9.732t1 .7l-.672.864q-.468-.324-.876-.636T11.6-4.32q-.276-.228-.45-.4a1.129 1.129 0 0 1-.234-.306zm4.5 3.528v-4.044h-2.04v-1.02h2.04v-2.82h1.176V-1.5zM10.86.528h5.952V1.56h-7.14v-3.7h1.188zM20.376-.6a1.573 1.573 0 0 1 .228-.816 2.108 2.108 0 0 1 .66-.672 3.571 3.571 0 0 1 1.05-.456 5.9 5.9 0 0 1 2.8 0 3.571 3.571 0 0 1 1.05.456 2.108 2.108 0 0 1 .66.672 1.573 1.573 0 0 1 .228.816v.48a1.573 1.573 0 0 1-.232.82 2.108 2.108 0 0 1-.66.672 3.571 3.571 0 0 1-1.05.456 5.336 5.336 0 0 1-1.4.168 5.336 5.336 0 0 1-1.4-.168 3.571 3.571 0 0 1-1.05-.456A2.108 2.108 0 0 1 20.6.7a1.573 1.573 0 0 1-.228-.816zm4.56-3.384q-.636.084-1.188.132t-1.224.078q-.672.03-1.56.042t-2.184.012v-4.968h5.12v1.02h-3.96v2.928q.924 0 1.566-.012t1.17-.036q.528-.024 1.02-.066t1.116-.114zm.948 3.456a.781.781 0 0 0-.15-.438 1.33 1.33 0 0 0-.432-.39 2.708 2.708 0 0 0-.684-.276 3.854 3.854 0 0 0-1.812 0 2.708 2.708 0 0 0-.684.276 1.33 1.33 0 0 0-.432.39.781.781 0 0 0-.15.438v.336a.781.781 0 0 0 .15.438 1.33 1.33 0 0 0 .432.39 2.708 2.708 0 0 0 .684.276 3.5 3.5 0 0 0 .906.108 3.5 3.5 0 0 0 .906-.108A2.708 2.708 0 0 0 25.3.636a1.33 1.33 0 0 0 .432-.39.781.781 0 0 0 .15-.438zM28.572-5.8H27v2.94h-1.176v-6.524H27v2.556h1.572z" transform="translate(64 18)"/>
    <g id="사각형_9753" fill="none" stroke="#febd56">
        <rect width="102" height="28" stroke="none" rx="14"/>
        <rect width="101" height="27" x=".5" y=".5" rx="13.5"/>
    </g>
    <g id="그룹_32826" transform="translate(-66.638 -618.073)">
        <g id="그룹_32826-2" transform="translate(79.859 620.558)">
            <path id="패스_21332" d="M120.06 627.354c.01.167.017.336.017.505a8.539 8.539 0 0 1-8.049 8.525 6.27 6.27 0 1 0 8.032-9.03z" class="cls-2" transform="translate(-111.024 -626.711)"/>
            <path id="패스_21333" d="M110.459 621.706c0-.17-.007-.338-.017-.506a6.27 6.27 0 0 0-8.032 9.031 8.539 8.539 0 0 0 8.049-8.525z" class="cls-3" transform="translate(-101.406 -620.558)"/>
        </g>
        <g id="그룹_32827" transform="translate(81.161 621.86)">
            <path id="패스_21334" d="M122.867 635.14a4.969 4.969 0 0 0-6.535 7.345 8.544 8.544 0 0 0 6.535-7.345z" class="cls-4" transform="translate(-115.172 -634.325)"/>
            <path id="패스_21335" d="M133.984 642.947a8.544 8.544 0 0 1-6.535 7.345 4.969 4.969 0 1 0 6.535-7.345z" class="cls-3" transform="translate(-126.288 -642.132)"/>
        </g>
        <g id="그룹_32828" transform="translate(83.703 640.53)">
            <path id="패스_21336" d="M145.342 831.8h-1.992c-.677 0-1.3.234-1.3 1.915h1.893a2.024 2.024 0 0 0 1.399-1.915z" class="cls-3" transform="translate(-142.055 -831.801)"/>
            <path id="패스_21337" d="M163.726 831.8h-.256a2.024 2.024 0 0 1-1.394 1.915h2.946c0-1.68-.622-1.915-1.296-1.915z" class="cls-2" transform="translate(-160.183 -831.801)"/>
        </g>
        <g id="그룹_32829" transform="translate(82.532 642.445)">
            <path id="패스_21338" d="M134.689 852.075v-.02h-3.847c-.35 0-1.171.247-1.171 1.878h3.8a2.024 2.024 0 0 0 1.218-1.858z" class="cls-4" transform="translate(-129.67 -852.055)"/>
            <path id="패스_21339" d="M172.054 852.055h-.992v.02a2.024 2.024 0 0 1-1.221 1.858h3.382c.002-1.633-.823-1.878-1.169-1.878z" class="cls-3" transform="translate(-166.045 -852.055)"/>
        </g>
        <g id="그룹_32830" transform="translate(86.065 624.378)">
            <path id="패스_21340" d="M214.783 660.96a24.312 24.312 0 0 1-2.169 6.76l-.865 2.667a11.935 11.935 0 0 0 3.362-4.047c1.112-2.402-.328-5.38-.328-5.38z" class="cls-5" transform="translate(-207.522 -660.96)"/>
            <path id="패스_21341" d="M206.406 708.509a17.374 17.374 0 0 1-3.436 4.237l-1.46 1.262-.365 1.334a10.739 10.739 0 0 0 4.183-2.606 5.323 5.323 0 0 0 1.078-4.227z" class="cls-5" transform="translate(-197.921 -704.013)"/>
            <path id="패스_21342" d="M195.874 751.027s-2.323 1.49-2.378 1.474l-.658 1.343a8.827 8.827 0 0 0 3.288-1.053 5.348 5.348 0 0 0 2.428-3.708c-.696.602-2.68 1.944-2.68 1.944z" class="cls-5" transform="translate(-190.399 -740.75)"/>
            <path id="패스_21343" d="M172.622 728.882l-2.214 1.222a3.811 3.811 0 0 0 1.792-4.522c-1.665 2.326-3.486 3.044-3.741 3.61s-1.417 4.569-1.417 4.584l.637.375c3.861 1.013 4.424-2.019 4.424-2.019l-2.494.433a3.748 3.748 0 0 0 3.013-3.683z" class="cls-6" transform="translate(-167.041 -719.472)"/>
        </g>
        <g id="그룹_32831" transform="translate(77.61 624.378)">
            <path id="패스_21344" d="M84.176 660.96a24.312 24.312 0 0 0 2.169 6.76l.865 2.667a11.933 11.933 0 0 1-3.362-4.047c-1.112-2.402.328-5.38.328-5.38z" class="cls-5" transform="translate(-82.877 -660.96)"/>
            <path id="패스_21345" d="M77.684 708.509a17.377 17.377 0 0 0 3.436 4.237l1.46 1.262.365 1.334a10.738 10.738 0 0 1-4.183-2.606 5.323 5.323 0 0 1-1.078-4.227z" class="cls-5" transform="translate(-77.61 -704.013)"/>
            <path id="패스_21346" d="M84.578 751.027s2.324 1.49 2.378 1.474l.657 1.343a8.827 8.827 0 0 1-3.288-1.053 5.348 5.348 0 0 1-2.428-3.708c.697.602 2.681 1.944 2.681 1.944z" class="cls-5" transform="translate(-81.493 -740.75)"/>
            <path id="패스_21347" d="M109.117 728.882l2.214 1.222a3.811 3.811 0 0 1-1.791-4.522c1.665 2.326 3.486 3.044 3.741 3.61s1.417 4.569 1.417 4.584l-.637.375c-3.861 1.013-4.424-2.019-4.424-2.019l2.494.433a3.747 3.747 0 0 1-3.014-3.683z" class="cls-6" transform="translate(-106.138 -719.472)"/>
        </g>
        <g id="그룹_32832" transform="translate(84.944 638.174)">
            <path id="패스_21348" d="M157.009 807.077a1.178 1.178 0 0 0-1.549 1.74 2.024 2.024 0 0 0 1.549-1.74z" class="cls-4" transform="translate(-155.185 -806.884)"/>
            <path id="패스_21349" d="M159.635 808.929a2.024 2.024 0 0 1-1.549 1.74 1.178 1.178 0 1 0 1.549-1.74z" class="cls-3" transform="translate(-157.812 -808.736)"/>
        </g>
        <path id="패스_21350" fill="#fff297" d="M127.947 653.681c-.654.123-.538-2.439 1.184-3.407s1.381.76.61 1.8a4.364 4.364 0 0 1-1.794 1.607z" transform="translate(-45.245 -26.648)"/>
    </g>
</svg>
