<svg xmlns="http://www.w3.org/2000/svg" id="benefit" width="66" height="28" viewBox="0 0 66 28">
    <defs>
        <style>
            .cls-8{fill:none}.cls-7{stroke:none}
        </style>
    </defs>
    <path id="패스_21242" d="M2.952-.4a1.487 1.487 0 0 1 .24-.834 1.882 1.882 0 0 1 .69-.612 3.8 3.8 0 0 1 1.092-.372 7.473 7.473 0 0 1 1.434-.122 7.379 7.379 0 0 1 1.428.126 3.68 3.68 0 0 1 1.086.378 2.013 2.013 0 0 1 .7.612 1.432 1.432 0 0 1 .242.824v.46a1.432 1.432 0 0 1-.246.828 2.013 2.013 0 0 1-.7.612 3.68 3.68 0 0 1-1.086.378A7.379 7.379 0 0 1 6.408 2a7.473 7.473 0 0 1-1.434-.126 3.8 3.8 0 0 1-1.092-.372 1.882 1.882 0 0 1-.69-.612 1.487 1.487 0 0 1-.24-.83zm5.7-8.988h1.14v6.828h-1.14v-3.1H7.536v2.628H6.408V-9.24h1.128v2.568h1.116zM.876-3.12v-3.312h3v-1.344H.84v-.972H5v3.264H2v1.392h.58q.744 0 1.512-.048t1.536-.16l.12.948q-.66.1-1.53.162t-2 .066zM8.7-.324a.639.639 0 0 0-.168-.432 1.373 1.373 0 0 0-.468-.33 2.9 2.9 0 0 0-.726-.21 5.593 5.593 0 0 0-.93-.072 5.593 5.593 0 0 0-.93.072 2.9 2.9 0 0 0-.726.21 1.373 1.373 0 0 0-.468.33.639.639 0 0 0-.168.432v.3q0 .492.636.774a4.124 4.124 0 0 0 1.656.282 5.593 5.593 0 0 0 .93-.072 2.9 2.9 0 0 0 .726-.21 1.373 1.373 0 0 0 .468-.33.639.639 0 0 0 .168-.432zM13.728-.6a1.542 1.542 0 0 1 .234-.816 2.152 2.152 0 0 1 .672-.672 3.642 3.642 0 0 1 1.066-.456 6.1 6.1 0 0 1 2.844 0 3.642 3.642 0 0 1 1.068.456 2.152 2.152 0 0 1 .672.672 1.542 1.542 0 0 1 .236.816v.48a1.542 1.542 0 0 1-.234.82 2.152 2.152 0 0 1-.672.672 3.642 3.642 0 0 1-1.068.456 5.526 5.526 0 0 1-1.422.168 5.526 5.526 0 0 1-1.424-.172 3.642 3.642 0 0 1-1.068-.456 2.152 2.152 0 0 1-.67-.668 1.542 1.542 0 0 1-.234-.816zm2.028-7.128h-3.5v-1h4.664v1.86a3.6 3.6 0 0 1-.2 1.254 2.509 2.509 0 0 1-.72 1 6.7 6.7 0 0 1-1.434.918q-.912.456-2.34 1.032l-.42-.96q.828-.324 1.44-.6a11.386 11.386 0 0 0 1.044-.528 5 5 0 0 0 .71-.486 2.547 2.547 0 0 0 .444-.474l-3.468.144-.036-.984 3.8-.072q0-.072.006-.144t.006-.156zm3.6 7.2a.761.761 0 0 0-.156-.438 1.38 1.38 0 0 0-.444-.39 2.792 2.792 0 0 0-.7-.276 4.058 4.058 0 0 0-1.86 0 2.792 2.792 0 0 0-.7.276 1.38 1.38 0 0 0-.444.39.761.761 0 0 0-.156.438v.336a.761.761 0 0 0 .156.438 1.38 1.38 0 0 0 .444.39 2.792 2.792 0 0 0 .7.276 3.688 3.688 0 0 0 .93.108 3.688 3.688 0 0 0 .93-.108 2.792 2.792 0 0 0 .7-.276 1.38 1.38 0 0 0 .444-.39.761.761 0 0 0 .156-.438zM19.3-2.856v-6.528h1.176v6.528z" transform="translate(35 18)"/>
    <g id="사각형_9753" fill="none" stroke="#e0e0e0">
        <rect width="66" height="28" class="cls-7" rx="14"/>
        <rect width="65" height="27" x=".5" y=".5" class="cls-8" rx="13.5"/>
    </g>
    <g id="그룹_32687" transform="translate(793 120)">
        <g id="사각형_9877" fill="#b2daf6" stroke="#7cc3f1" transform="translate(-784 -105)">
            <rect width="8" height="8" class="cls-7" rx="1"/>
            <rect width="7" height="7" x=".5" y=".5" class="cls-8" rx=".5"/>
        </g>
        <g id="사각형_9878" fill="#fbd1bc" stroke="#f3ac89" transform="translate(-770 -103)">
            <rect width="8" height="6" class="cls-7" rx="1"/>
            <rect width="7" height="5" x=".5" y=".5" class="cls-8" rx=".5"/>
        </g>
        <g id="사각형_9876" fill="#ffd645" stroke="#ffb31c" transform="translate(-777 -109)">
            <rect width="8" height="12" class="cls-7" rx="1"/>
            <rect width="7" height="11" x=".5" y=".5" class="cls-8" rx=".5"/>
        </g>
        <path id="패스_16114" fill="#ffb31c" d="M692.858 408.805l.779 1.582a.362.362 0 0 0 .273.2l1.743.254a.363.363 0 0 1 .2.619l-1.261 1.232a.364.364 0 0 0-.1.321l.3 1.739a.362.362 0 0 1-.525.383l-1.558-.821a.362.362 0 0 0-.337 0l-1.559.821a.362.362 0 0 1-.525-.383l.3-1.739a.363.363 0 0 0-.1-.321l-1.261-1.232a.363.363 0 0 1 .2-.619l1.743-.254a.362.362 0 0 0 .273-.2l.779-1.582a.362.362 0 0 1 .636 0z" transform="translate(-1465.627 -524.77)"/>
    </g>
</svg>
