<svg xmlns="http://www.w3.org/2000/svg" width="128" height="32" viewBox="0 0 128 32">
    <defs>
        <style>
            .cls-11,.cls-9{fill:none}.cls-6{fill:#ffca5f}.cls-4,.cls-9{stroke:#ffb95c;stroke-width:.3px}.cls-11,.cls-4,.cls-9{stroke-linecap:round}.cls-4{stroke-linejoin:round}.cls-4,.cls-5{fill:#ffe83e}.cls-7{fill:#ffb64d}.cls-8{fill:#322}.cls-11,.cls-9{stroke-miterlimit:10}.cls-11{stroke:#322;stroke-width:.2px}.cls-12{fill:#ffc545}.cls-13{fill:#fff}.cls-14{fill:#af1c5f}.cls-15{fill:#ea3b8b}.cls-16{fill:#f95ab1}.cls-17{fill:#fc75c6}.cls-18{fill:#ff8ac5}
        </style>
    </defs>
    <g id="img_prize" transform="translate(-115 -155)">
        <path id="사각형_3683" fill="none" d="M0 0H128V32H0z" transform="translate(115 155)"/>
        <text id="당첨_경품" font-family="NanumSquareEB, NanumSquare" font-size="18px" transform="translate(168 180)">
            <tspan x="0" y="0">당첨 경품</tspan>
        </text>
        <g id="img" transform="translate(-83.463 -123.138)">
            <path id="왼발1" fill="#ffca5f" stroke="#ffb95c" stroke-linecap="round" stroke-linejoin="round" stroke-width="0.3px" d="M292.123 399.339c1.39-1.765 2.572-2.636 3.591-2.014.922.757.493 2.16-.714 4.055-1.051 1.648-2.545 3.143-3.766 2.261-1.237-.86-.322-2.764.889-4.3z" transform="translate(-72.664 -95.757)"/>
            <g id="오른팔" transform="translate(232.991 286.555)">
                <path id="패스_10712" d="M379.662 317.733a2.239 2.239 0 0 0-1.8-.071.648.648 0 0 0-.207-.4.265.265 0 0 0-.1-.044.461.461 0 0 0-.408.065h-.005l-.029.022a1.2 1.2 0 0 0-.1.1l-.035.038-.01.011-.007.008a1.678 1.678 0 0 0-.193.33 1.454 1.454 0 0 0-.11.274 4.3 4.3 0 0 0-.136 1.568 18.46 18.46 0 0 0-1.272 1.409l1.248 1.927a12.821 12.821 0 0 1 1.223-1.286 2.133 2.133 0 0 0 2.7-1.014 2.087 2.087 0 0 0-.752-2.927z" class="cls-4" transform="translate(-374.572 -317.193)"/>
                <path id="패스_10713" d="M372.874 338.348l-.147-.024-1.108-1.8v-.3l.244-.431h.319a.237.237 0 0 0 .234.3s.583.856.924 1.369l.234-.176.169.079-.134.587a.292.292 0 0 0 .344.26l-.1.391-.314.274-.609-.16z" class="cls-5" transform="translate(-371.618 -332.344)"/>
            </g>
            <circle id="머리" cx="10.987" cy="10.987" r="10.987" class="cls-4" transform="translate(213.474 283.279)"/>
            <path id="패스_10714" d="M279.277 364.916a10.744 10.744 0 0 1-11.808-8.666 10.873 10.873 0 0 1-.152-3.123 39.975 39.975 0 0 0 1.133 4.345h.021a12.655 12.655 0 0 0 10.806 7.444z" class="cls-6" transform="translate(-53.619 -59.913)"/>
            <g id="Layer_23" transform="translate(215.147 284.971)">
                <ellipse id="타원_547" cx="1.38" cy=".81" class="cls-7" rx="1.38" ry=".81" transform="rotate(-37.06 3.702 -2.813)"/>
                <ellipse id="타원_548" cx=".927" cy=".544" class="cls-7" rx=".927" ry=".544" transform="matrix(.57 -.821 .821 .57 0 4.722)"/>
                <ellipse id="타원_549" cx=".576" cy=".338" class="cls-7" rx=".576" ry=".338" transform="rotate(-47.582 3.835 -.115)"/>
            </g>
            <g id="이목구비" transform="translate(220.387 289.096)">
                <ellipse id="타원_550" cx=".56" cy=".999" class="cls-8" rx=".56" ry=".999" transform="rotate(-12.619 5.539 -39.952)"/>
                <ellipse id="타원_551" cx=".56" cy=".999" class="cls-8" rx=".56" ry=".999" transform="rotate(-12.619 9.443 -4.595)"/>
                <path id="패스_10715" d="M337.672 369.538a5.164 5.164 0 0 1-2.051.971" class="cls-9" transform="translate(-329.69 -362.379)"/>
                <path id="패스_10716" d="M309.933 351.541a3.191 3.191 0 0 0-2.029.059" class="cls-9" transform="translate(-307.11 -347.6)"/>
                <path id="패스_10717" d="M353.434 340.865a3.185 3.185 0 0 1 1.86-.811" class="cls-9" transform="translate(-344.201 -338.359)"/>
                <g id="Layer_91" transform="translate(3.531 .727)">
                    <path id="패스_10718" fill="#ed5f54" stroke="#322" stroke-miterlimit="10" stroke-width="0.2px" d="M328.7 347.458a1.959 1.959 0 0 0 1.549 1.988c1.538.249 1.672-2.132 1.672-2.132l-.123-.526-1.577-.048-1.461.181z" transform="translate(-327.578 -344.533)"/>
                    <g id="그룹_16731" transform="translate(.373 1.932)">
                        <path id="패스_10719" d="M337.107 345.744a1.442 1.442 0 0 0 2.268-.488" class="cls-11" transform="translate(-334.803 -345.256)"/>
                        <path id="패스_10720" d="M326.948 347.931a1.442 1.442 0 0 1-2.268.489" class="cls-11" transform="translate(-324.68 -347.436)"/>
                    </g>
                    <path id="패스_10721" d="M324.152 335.3a1.256 1.256 0 0 1 1.171.614 1.272 1.272 0 0 1 1.134-1.082 1.32 1.32 0 0 1 .22 2.631 1.256 1.256 0 0 1-1.171-.613 1.273 1.273 0 0 1-1.134 1.082 1.323 1.323 0 0 1-.22-2.636z" class="cls-5" transform="translate(-322.939 -334.826)"/>
                </g>
                <circle id="타원_552" cx="1.466" cy="1.466" r="1.466" class="cls-12" transform="translate(9.669 2.213)"/>
                <circle id="타원_553" cx="1.466" cy="1.466" r="1.466" class="cls-12" transform="translate(0 4.358)"/>
                <circle id="타원_554" cx=".222" cy=".222" r=".222" class="cls-13" transform="translate(9.315 .246)"/>
                <circle id="타원_555" cx=".138" cy=".138" r=".138" class="cls-13" transform="translate(9.693 .662)"/>
                <circle id="타원_556" cx=".222" cy=".222" r=".222" class="cls-13" transform="translate(1.671 2.035)"/>
                <circle id="타원_557" cx=".138" cy=".138" r=".138" class="cls-13" transform="translate(2.049 2.452)"/>
            </g>
            <g id="오른발1" transform="translate(229.151 299.58)">
                <path id="왼발" d="M355.12 391.994c-1.628 1.547-2.923 2.237-3.845 1.477-.8-.879-.178-2.208 1.289-3.91 1.278-1.483 2.966-2.746 4.051-1.7 1.102 1.033-.076 2.785-1.495 4.133z" class="cls-4" transform="translate(-350.923 -387.479)"/>
                <path id="패스_10722" d="M356.084 393.568a2.372 2.372 0 0 1 1.854-.346c.245.971-.705 2.263-1.807 3.3-1.26 1.187-2.307 1.842-3.132 1.668a.823.823 0 0 1-.716-.632 18.674 18.674 0 0 1 3.8-3.992z" class="cls-6" transform="translate(-352.029 -392.107)"/>
            </g>
            <g id="오른팔-2" transform="translate(210.586 292.194)">
                <path id="패스_10723" d="M250.687 349.817a2.422 2.422 0 0 1 1.356-1.4.7.7 0 0 1-.14-.47.284.284 0 0 1 .048-.11.5.5 0 0 1 .367-.255h.045a1.262 1.262 0 0 1 .153 0h.082a1.815 1.815 0 0 1 .4.11 1.576 1.576 0 0 1 .289.135 4.656 4.656 0 0 1 1.279 1.126c1 .016 2.05.153 2.05.153l.464 2.442a13.828 13.828 0 0 0-1.919-.093 2.307 2.307 0 0 1-2.873 1.226 2.264 2.264 0 0 1-1.6-2.86z" class="cls-4" transform="translate(-250.586 -347.577)"/>
                <path id="패스_10724" d="M279.415 351.647s.3.269 0 .439l.3 2.006s.31.182-.024.405a3.2 3.2 0 0 0 .329.559l1.091-.769.018-1.608-.868-1.234-.5-.386-.62-.04-.172.135z" class="cls-5" transform="translate(-273.737 -350.396)"/>
            </g>
            <g id="수술1" transform="translate(232.301 279.577)">
                <path id="패스_10725" d="M370.657 286.158c.729-.07 2.55-.1 2.594-.11a12.222 12.222 0 0 0-3.322.828l.355 1.364a9.669 9.669 0 0 1 2.835-.692 7.651 7.651 0 0 0-2.707 2.256l1.026.981a9.426 9.426 0 0 1 2.839-2.4 4.446 4.446 0 0 0-.279 1.272 13.452 13.452 0 0 0 .119 3.315l.037.01 1.3.068a24.82 24.82 0 0 1-.115-2.656c.033-.515.074-.948.1-1.119l.11-.634a10.324 10.324 0 0 0 .14 1.066 12.943 12.943 0 0 0 .977 3.347l1.3-.489a12.97 12.97 0 0 1-.5-1.345c.389.525.751.982.751.982l1.233-.769c.065.081.129.156.19.226l.013.014a4.327 4.327 0 0 0 .679.627l.769-1.149c-.394-.275-1.286-1.27-1.5-1.393l-.11-.131a10.388 10.388 0 0 0 2.856 1.02l.433-1.356a10.256 10.256 0 0 1-2.465-.872 15.964 15.964 0 0 0 3.131 0l-.01-1.811a6.58 6.58 0 0 1-2.066.3 7.711 7.711 0 0 0 1.959-.659l-.431-1.291s-.375.168-.892.344a7.6 7.6 0 0 0 1.047-1.548l-.94-.64a4.653 4.653 0 0 0 .477-.536l-.913-.981a11.869 11.869 0 0 1-1.27 1.208l-.035.027a2.943 2.943 0 0 1-1.7.677 13.29 13.29 0 0 0 1.35-3.251l-1.284-.483a9.828 9.828 0 0 1-1.279 2.919 11.369 11.369 0 0 0-.48-3.094l-1.246.28s.11.356.211.849a10.748 10.748 0 0 0-.769-.989l-1.318.867a5.6 5.6 0 0 1 1.125 3.227 10.856 10.856 0 0 0-2.087-2.294l-.9.944s.376.309.8.746a7.228 7.228 0 0 0-1.758-.525l-.439 1.354a10.99 10.99 0 0 1 2.179.734 7.573 7.573 0 0 0-2.3-.041zm7.5 3.521a20.273 20.273 0 0 0 1.231 1.7 4.489 4.489 0 0 1-.966-1.122zm.863-4.413a6.605 6.605 0 0 0 1.343-.76c.3-.2.769-.537 1.228-.921-.11.169-.243.361-.39.56-.086.109-1.074 1.308-2.187 1.12z" class="cls-14" transform="translate(-369.552 -279.594)"/>
                <path id="패스_10726" d="M381.333 286.537a7.565 7.565 0 0 0-2.227-.561 11 11 0 0 1 2.3-.14l-.069-1.421a7.212 7.212 0 0 0-1.83.049c.528-.311.971-.51.971-.51l-.622-1.147a10.86 10.86 0 0 0-2.613 1.67 5.6 5.6 0 0 1 1.929-2.822l-1.044-1.18a10.747 10.747 0 0 0-1 .758c.23-.449.425-.769.425-.769l-1.129-.6a11.363 11.363 0 0 0-1.271 2.863 9.828 9.828 0 0 1-.471-3.152l-1.365.132a13.294 13.294 0 0 0 .454 3.491 2.942 2.942 0 0 1-1.463-1.1l-.026-.036a11.873 11.873 0 0 1-.912-1.5l-1.137.709a4.72 4.72 0 0 0 .321.641l-1.074.372a7.579 7.579 0 0 0 .606 1.767c-.453-.3-.769-.565-.769-.565l-.754 1.134a7.7 7.7 0 0 0 1.719 1.146 6.579 6.579 0 0 1-1.917-.827l-.483 1.747a15.957 15.957 0 0 0 3.022.817 10.248 10.248 0 0 1-2.607.2l.064 1.421a10.386 10.386 0 0 0 3.027-.238l-.142.1c-.234.065-1.356.792-1.807.953l.439 1.309a4.329 4.329 0 0 0 .819-.427l.017-.011c.078-.052.159-.11.243-.169l.989 1.06s.469-.347.981-.751a12.964 12.964 0 0 1-.838 1.166l1.127.811a12.933 12.933 0 0 0 1.817-2.976s.337-.725.413-.989l-.064.639c-.023.171-.1.6-.2 1.105a24.879 24.879 0 0 1-.805 2.533l1.278.275h.038a13.445 13.445 0 0 0 .981-3.169 4.432 4.432 0 0 0 .063-1.3 9.427 9.427 0 0 1 2.112 3.063l1.247-.679a7.65 7.65 0 0 0-2.023-2.885 9.666 9.666 0 0 1 2.556 1.408l.7-1.225a12.229 12.229 0 0 0-2.99-1.668c.041.018 1.791.52 2.476.779zm-9.1 3.237a4.487 4.487 0 0 1-1.225.83 20.327 20.327 0 0 0 1.632-1.318zm-1.086-6.623c-.09-.231-.167-.452-.23-.643.342.489.71.935.945 1.208a6.588 6.588 0 0 0 1.1 1.084c-1.118-.107-1.759-1.524-1.814-1.65z" class="cls-15" transform="translate(-367.878 -279.577)"/>
                <path id="패스_10727" d="M385.63 291.524l.7-1.579a8.088 8.088 0 0 1-3.75-1.616 7.4 7.4 0 0 0 3.242-3.4l-1.306-1.09a8.472 8.472 0 0 1-2.527 3.461c.053-.066 1.055-3.359.33-5.443l-1.459.2a11.3 11.3 0 0 1 .414 3.65 6.746 6.746 0 0 0-1.669-3.556l-1.468.84a8.561 8.561 0 0 1 2.117 3.678 5.632 5.632 0 0 0-4.655-2.207 8.3 8.3 0 0 0-.536 1.439 20.747 20.747 0 0 1 4.574 1.285 8.184 8.184 0 0 0-3.651.452 3.845 3.845 0 0 0-.923.448l.426 1.6a8.99 8.99 0 0 1 3.036-1.112 6.082 6.082 0 0 0-2.636 2.258l1.1 1.318a8.788 8.788 0 0 1 2.645-2.706 7.223 7.223 0 0 0-1.1 4.129l1.648.338a9.4 9.4 0 0 1 .411-3.607 8.393 8.393 0 0 0 2.427 3.873l1.142-1.024-.036-.029c-.065-.053-2.378-2.025-2.645-4.25.409.5 2.262 2.476 4.147 2.648zm-3.647-4.217l-.042.03v-.007z" class="cls-16" transform="translate(-373.738 -281.428)"/>
                <path id="패스_10728" d="M388.655 287.526l-.879-1.271a5.8 5.8 0 0 0-2.678 2.223 9.869 9.869 0 0 1 1.693-2.8l-1.112-.746c-1.364 1.4-1.773 4.482-1.758 4.558a7.876 7.876 0 0 1-.769-3.825l-1.466.364a6.936 6.936 0 0 0 1.373 4.064 7.18 7.18 0 0 1-3.65-.187l-.015 1.565c1.595.617 3.838-.252 4.36-.5a6.921 6.921 0 0 1-3.735 2.4l-.04.009.549 1.29a7.21 7.21 0 0 0 3.412-2.178 8.359 8.359 0 0 1-1.006 3.1l1.463.382a6.529 6.529 0 0 0 .644-3.8 8.239 8.239 0 0 1 1.146 3.258l1.381-.629a5.721 5.721 0 0 0-1.307-2.892 8.458 8.458 0 0 1 2.056 2.119l.94-1.129a3.613 3.613 0 0 0-.583-.734 7.406 7.406 0 0 0-3.427-2.018 6.914 6.914 0 0 1 3.409-2.621zm-4.7 2.012l-.023-.041.027.036z" class="cls-17" transform="translate(-377.266 -283.934)"/>
                <path id="패스_10729" d="M391.895 297.563l.47-1.359a5.177 5.177 0 0 0-3.03-.951 8.421 8.421 0 0 1 2.937-.13l-.035-1.268a7.816 7.816 0 0 0-4.257 1 6.9 6.9 0 0 1 2.4-2.6l-1.034-.968a6.253 6.253 0 0 0-2.258 3.207 7.189 7.189 0 0 1-1.771-2.978l-1.155.806a6.427 6.427 0 0 0 2.644 3.18 6.334 6.334 0 0 1-3.706-1.689l-.027-.027-.659 1.107a6.564 6.564 0 0 0 3.38 1.554 7.048 7.048 0 0 1-2.8.825l.484 1.354a5.532 5.532 0 0 0 3.118-1.475 7.388 7.388 0 0 1-1.788 2.608l1.183.761a5.239 5.239 0 0 0 1.437-2.543 8.182 8.182 0 0 1-.478 2.73l1.318.152a3.462 3.462 0 0 0 .233-.845 7.425 7.425 0 0 0-.313-3.759 6.245 6.245 0 0 1 3.7 1.315zm-3.934-2.661l.018-.04a.133.133 0 0 1-.012.041z" class="cls-18" transform="translate(-379.728 -289.109)"/>
            </g>
            <g id="수술1_copy" transform="translate(201.451 284.839)">
                <path id="패스_10730" d="M207.186 320.366c.448-.659 1.693-2.2 1.718-2.24a13.3 13.3 0 0 0-1.621 3.353l1.387.654a10.52 10.52 0 0 1 1.4-2.856 8.32 8.32 0 0 0 0 3.833l1.538-.174a10.253 10.253 0 0 1-.033-4.046 4.827 4.827 0 0 0 .869 1.118 14.623 14.623 0 0 0 2.856 2.209l.035-.024.966-1.042a27.035 27.035 0 0 1-2.3-1.758c-.408-.386-.74-.722-.868-.859l-.457-.529c.234.19.989.625.989.625a14.066 14.066 0 0 0 3.466 1.524l.5-1.428a14.113 14.113 0 0 1-1.474-.515c.709.041 1.343.056 1.343.056l.22-1.562h.343a4.722 4.722 0 0 0 1-.132l-.427-1.44c-.5.138-1.956.191-2.2.28h-.187a11.292 11.292 0 0 0 2.845-1.68l-.832-1.3a11.152 11.152 0 0 1-2.445 1.452 17.374 17.374 0 0 0 2.18-2.616l-1.52-1.253a7.16 7.16 0 0 1-1.19 1.933 8.386 8.386 0 0 0 .814-2.095l-1.379-.539s-.121.431-.33.989a8.249 8.249 0 0 0-.565-1.952l-1.19.339a5.106 5.106 0 0 0-.115-.769l-1.456.079a12.925 12.925 0 0 1 .123 1.9v.048a3.2 3.2 0 0 1-.617 1.891 14.464 14.464 0 0 0-1.781-3.388l-1.3.736a10.688 10.688 0 0 1 1.549 3.1 12.371 12.371 0 0 0-2.92-1.758l-.634 1.237s.371.158.856.414a11.683 11.683 0 0 0-1.364-.051l-.192 1.7a6.088 6.088 0 0 1 3.48 1.307 11.814 11.814 0 0 0-3.37.146l.163 1.408s.518-.1 1.183-.153a7.847 7.847 0 0 0-1.66 1.1l.826 1.309a11.958 11.958 0 0 1 2.131-1.309 8.24 8.24 0 0 0-1.632 1.891zm8.164-3.814a22.073 22.073 0 0 0 2.276.153 4.883 4.883 0 0 1-1.609.025zm-3.087-3.794a7.185 7.185 0 0 0 .3-1.648c.037-.391.088-1.018.086-1.668.064.21.133.455.2.716.031.142.346 1.8-.582 2.6z" class="cls-14" transform="translate(-203.991 -307.917)"/>
                <path id="패스_10731" d="M213.577 313.925a8.233 8.233 0 0 0-2.02 1.471 11.958 11.958 0 0 1 1.482-2.016l-1.236-.931a7.854 7.854 0 0 0-1.234 1.563c.11-.659.249-1.167.249-1.167l-1.391-.279a11.807 11.807 0 0 0-.424 3.346 6.088 6.088 0 0 1-1.015-3.577l-1.713.051a11.662 11.662 0 0 0-.064 1.363c-.22-.5-.343-.888-.343-.888l-1.284.529a12.382 12.382 0 0 0 1.507 3.055 10.7 10.7 0 0 1-2.966-1.8l-.841 1.233a14.46 14.46 0 0 0 3.233 2.052 3.2 3.2 0 0 1-1.936.459h-.048a12.959 12.959 0 0 1-1.884-.279l-.2 1.443a5.1 5.1 0 0 0 .76.179l-.439 1.157a8.256 8.256 0 0 0 1.9.724c-.569.167-1.008.252-1.008.252l.423 1.418a8.39 8.39 0 0 0 2.154-.638 7.158 7.158 0 0 1-2.026 1.025l1.123 1.619a17.376 17.376 0 0 0 2.788-1.956 11.145 11.145 0 0 1-1.648 2.316l1.232.937a11.3 11.3 0 0 0 1.909-2.7l-.018.186c-.11.241-.282 1.684-.461 2.174l1.4.549a4.706 4.706 0 0 0 .214-.983v-.021c.012-.1.022-.208.029-.321l1.575-.09s.037-.634.055-1.343a14.1 14.1 0 0 1 .391 1.512l1.462-.377a14.076 14.076 0 0 0-1.222-3.59s-.371-.786-.542-1.036l.49.5c.126.138.434.5.784.936a27.051 27.051 0 0 1 1.557 2.438l1.119-.879.027-.033a14.634 14.634 0 0 0-1.965-3.026 4.834 4.834 0 0 0-1.044-.958 10.255 10.255 0 0 1 4.029.368l.3-1.515a8.32 8.32 0 0 0-3.819-.317 10.523 10.523 0 0 1 2.957-1.156l-.536-1.437a13.3 13.3 0 0 0-3.476 1.338c.043-.022 1.681-1.134 2.375-1.527zm-3.625 9.853a4.888 4.888 0 0 1-.158 1.6 22.12 22.12 0 0 0 .036-2.28zm-6.291-3.7c-.255-.085-.493-.175-.7-.256.647.056 1.275.058 1.669.053a7.176 7.176 0 0 0 1.671-.163 2.985 2.985 0 0 1-2.645.366z" class="cls-15" transform="translate(-201.451 -311.52)"/>
                <path id="패스_10732" d="M218.485 318.837l-.83-1.686a8.8 8.8 0 0 1-3.961 2.008c.175-1 .417-3.468-.583-5.076l-1.82.33a9.213 9.213 0 0 1 1.134 4.52c-.019-.09-2.073-3.221-4.319-4.064l-.849 1.358a12.3 12.3 0 0 1 3.338 2.2 7.336 7.336 0 0 0-4.134-1.082l-.32 1.811a9.311 9.311 0 0 1 4.547.792 6.126 6.126 0 0 0-5.088 2.352 9.025 9.025 0 0 0 .829 1.45 22.568 22.568 0 0 1 4.259-2.927 8.9 8.9 0 0 0-2.165 3.366 4.174 4.174 0 0 0-.268 1.083l1.632.757a9.783 9.783 0 0 1 1.185-3.312 6.614 6.614 0 0 0 .049 3.778h1.867a9.557 9.557 0 0 1-.419-4.094 7.854 7.854 0 0 0 2.687 3.79l1.428-1.138a10.223 10.223 0 0 1-2.728-2.856 9.126 9.126 0 0 0 4.926.669l-.06-1.667-.049.01c-.089.018-3.347.577-5.394-.749.7.009 3.65-.16 5.1-1.618zm-6.063.11V319h-.007a.113.113 0 0 1 .006-.054z" class="cls-16" transform="translate(-204.828 -312.944)"/>
                <path id="패스_10733" d="M217.1 316.918l-1.675-.148a6.313 6.313 0 0 0-.007 3.787 10.733 10.733 0 0 1-1.163-3.366l-1.4.41c.22 2.117 2.51 4.6 2.586 4.639a8.568 8.568 0 0 1-3.735-2.022L211 321.7a7.544 7.544 0 0 0 4.349 1.681 7.811 7.811 0 0 1-2.7 2.92l1.3 1.1c1.626-.9 2.462-3.382 2.62-3.99.7 2.057-.558 4.714-.594 4.786l-.021.04 1.46.439a7.84 7.84 0 0 0 .556-4.368 9.091 9.091 0 0 1 1.887 3l1.338-.956a7.1 7.1 0 0 0-2.725-3.171 8.957 8.957 0 0 1 3.515 1.312l.439-1.592a6.223 6.223 0 0 0-3.326-.923 9.2 9.2 0 0 1 3.2-.243l-.289-1.572a3.934 3.934 0 0 0-1.019-.023 8.057 8.057 0 0 0-4.072 1.459 7.52 7.52 0 0 1 .18-4.674zm-1.6 5.333l-.049-.009h.049z" class="cls-17" transform="translate(-209.227 -315.133)"/>
                <path id="패스_10734" d="M225.852 319.735l-.807-1.339a5.63 5.63 0 0 0-2.9 1.867 9.166 9.166 0 0 1 1.938-2.545l-1.083-.853c-1.5 1.216-2.144 4.174-2.131 4.251a7.512 7.512 0 0 1-.5-3.821l-1.528.19a6.8 6.8 0 0 0 1.107 4.119 7.819 7.819 0 0 1-3.722-.593l-.131 1.526a6.991 6.991 0 0 0 4.5 0c-1.194 1.544-3.918 1.911-3.993 1.92h-.042l.467 1.318a7.14 7.14 0 0 0 3.651-1.742 7.669 7.669 0 0 1-1.257 2.91l1.469.538a6.018 6.018 0 0 0 .937-3.633 8.037 8.037 0 0 1 .934 3.31l1.46-.458a5.7 5.7 0 0 0-1.125-2.966 8.9 8.9 0 0 1 1.949 2.3l1.046-1a3.757 3.757 0 0 0-.544-.782 8.078 8.078 0 0 0-3.359-2.356 6.791 6.791 0 0 1 3.673-2.165zm-4.963 1.435l-.021-.042.025.038z" class="cls-18" transform="translate(-213.373 -315.212)"/>
            </g>
        </g>
    </g>
</svg>
